M48
;DRILL file {KiCad 4.0.2-stable} date 23/05/2016 22:28:54
;FORMAT={-:-/ absolute / metric / decimal}
FMAT,2
METRIC,TZ
T1C1.000
%
G90
G05
M71
T1
X164.955Y-102.912
X164.955Y-104.112
X164.955Y-105.312
X164.955Y-106.512
X164.955Y-137.212
X164.955Y-138.412
X164.955Y-139.612
X164.955Y-140.812
X173.99Y-119.89
X173.99Y-125.19
X175.19Y-119.89
X175.19Y-125.19
X176.39Y-119.89
X176.39Y-125.19
X177.69Y-119.89
X177.69Y-125.19
X185.Y-136.65
X185.Y-137.85
X185.Y-139.05
X185.Y-140.25
X205.Y-103.15
X205.Y-104.35
X205.Y-105.55
X205.Y-106.75
T0
M30
