G04 #@! TF.FileFunction,Other,Comment*
%FSLAX46Y46*%
G04 Gerber Fmt 4.6, Leading zero omitted, Abs format (unit mm)*
G04 Created by KiCad (PCBNEW 4.0.2-stable) date 23/05/2016 22:28:53*
%MOMM*%
G01*
G04 APERTURE LIST*
%ADD10C,0.150000*%
%ADD11C,0.300000*%
%ADD12C,0.400000*%
%ADD13C,0.200000*%
G04 APERTURE END LIST*
D10*
X177002200Y-166007200D02*
X177002200Y-198007200D01*
X285002200Y-198007200D01*
X285002200Y-166007200D01*
X177002200Y-166007200D01*
X10000000Y-10000000D02*
X10000000Y-200007200D01*
X287002200Y-200007200D01*
X287002200Y-10000000D01*
X10000000Y-10000000D01*
X12000000Y-12000000D02*
X12000000Y-198007200D01*
X285002200Y-198007200D01*
X285002200Y-12000000D01*
X12000000Y-12000000D01*
X60000000Y-12000000D02*
X60000000Y-10000000D01*
X110000000Y-12000000D02*
X110000000Y-10000000D01*
X160000000Y-12000000D02*
X160000000Y-10000000D01*
X210000000Y-12000000D02*
X210000000Y-10000000D01*
X260000000Y-12000000D02*
X260000000Y-10000000D01*
X35990476Y-11588095D02*
X35247619Y-11588095D01*
X35619048Y-11588095D02*
X35619048Y-10288095D01*
X35495238Y-10473810D01*
X35371429Y-10597619D01*
X35247619Y-10659524D01*
X85247619Y-10411905D02*
X85309524Y-10350000D01*
X85433333Y-10288095D01*
X85742857Y-10288095D01*
X85866667Y-10350000D01*
X85928571Y-10411905D01*
X85990476Y-10535714D01*
X85990476Y-10659524D01*
X85928571Y-10845238D01*
X85185714Y-11588095D01*
X85990476Y-11588095D01*
X135185714Y-10288095D02*
X135990476Y-10288095D01*
X135557143Y-10783333D01*
X135742857Y-10783333D01*
X135866667Y-10845238D01*
X135928571Y-10907143D01*
X135990476Y-11030952D01*
X135990476Y-11340476D01*
X135928571Y-11464286D01*
X135866667Y-11526190D01*
X135742857Y-11588095D01*
X135371429Y-11588095D01*
X135247619Y-11526190D01*
X135185714Y-11464286D01*
X185866667Y-10721429D02*
X185866667Y-11588095D01*
X185557143Y-10226190D02*
X185247619Y-11154762D01*
X186052381Y-11154762D01*
X235928571Y-10288095D02*
X235309524Y-10288095D01*
X235247619Y-10907143D01*
X235309524Y-10845238D01*
X235433333Y-10783333D01*
X235742857Y-10783333D01*
X235866667Y-10845238D01*
X235928571Y-10907143D01*
X235990476Y-11030952D01*
X235990476Y-11340476D01*
X235928571Y-11464286D01*
X235866667Y-11526190D01*
X235742857Y-11588095D01*
X235433333Y-11588095D01*
X235309524Y-11526190D01*
X235247619Y-11464286D01*
X285866667Y-10288095D02*
X285619048Y-10288095D01*
X285495238Y-10350000D01*
X285433333Y-10411905D01*
X285309524Y-10597619D01*
X285247619Y-10845238D01*
X285247619Y-11340476D01*
X285309524Y-11464286D01*
X285371429Y-11526190D01*
X285495238Y-11588095D01*
X285742857Y-11588095D01*
X285866667Y-11526190D01*
X285928571Y-11464286D01*
X285990476Y-11340476D01*
X285990476Y-11030952D01*
X285928571Y-10907143D01*
X285866667Y-10845238D01*
X285742857Y-10783333D01*
X285495238Y-10783333D01*
X285371429Y-10845238D01*
X285309524Y-10907143D01*
X285247619Y-11030952D01*
X60000000Y-198007200D02*
X60000000Y-200007200D01*
X110000000Y-198007200D02*
X110000000Y-200007200D01*
X160000000Y-198007200D02*
X160000000Y-200007200D01*
X210000000Y-198007200D02*
X210000000Y-200007200D01*
X260000000Y-198007200D02*
X260000000Y-200007200D01*
X35990476Y-199595295D02*
X35247619Y-199595295D01*
X35619048Y-199595295D02*
X35619048Y-198295295D01*
X35495238Y-198481010D01*
X35371429Y-198604819D01*
X35247619Y-198666724D01*
X85247619Y-198419105D02*
X85309524Y-198357200D01*
X85433333Y-198295295D01*
X85742857Y-198295295D01*
X85866667Y-198357200D01*
X85928571Y-198419105D01*
X85990476Y-198542914D01*
X85990476Y-198666724D01*
X85928571Y-198852438D01*
X85185714Y-199595295D01*
X85990476Y-199595295D01*
X135185714Y-198295295D02*
X135990476Y-198295295D01*
X135557143Y-198790533D01*
X135742857Y-198790533D01*
X135866667Y-198852438D01*
X135928571Y-198914343D01*
X135990476Y-199038152D01*
X135990476Y-199347676D01*
X135928571Y-199471486D01*
X135866667Y-199533390D01*
X135742857Y-199595295D01*
X135371429Y-199595295D01*
X135247619Y-199533390D01*
X135185714Y-199471486D01*
X185866667Y-198728629D02*
X185866667Y-199595295D01*
X185557143Y-198233390D02*
X185247619Y-199161962D01*
X186052381Y-199161962D01*
X235928571Y-198295295D02*
X235309524Y-198295295D01*
X235247619Y-198914343D01*
X235309524Y-198852438D01*
X235433333Y-198790533D01*
X235742857Y-198790533D01*
X235866667Y-198852438D01*
X235928571Y-198914343D01*
X235990476Y-199038152D01*
X235990476Y-199347676D01*
X235928571Y-199471486D01*
X235866667Y-199533390D01*
X235742857Y-199595295D01*
X235433333Y-199595295D01*
X235309524Y-199533390D01*
X235247619Y-199471486D01*
X285866667Y-198295295D02*
X285619048Y-198295295D01*
X285495238Y-198357200D01*
X285433333Y-198419105D01*
X285309524Y-198604819D01*
X285247619Y-198852438D01*
X285247619Y-199347676D01*
X285309524Y-199471486D01*
X285371429Y-199533390D01*
X285495238Y-199595295D01*
X285742857Y-199595295D01*
X285866667Y-199533390D01*
X285928571Y-199471486D01*
X285990476Y-199347676D01*
X285990476Y-199038152D01*
X285928571Y-198914343D01*
X285866667Y-198852438D01*
X285742857Y-198790533D01*
X285495238Y-198790533D01*
X285371429Y-198852438D01*
X285309524Y-198914343D01*
X285247619Y-199038152D01*
X10000000Y-60000000D02*
X12000000Y-60000000D01*
X10000000Y-110000000D02*
X12000000Y-110000000D01*
X10000000Y-160000000D02*
X12000000Y-160000000D01*
X10690476Y-35216667D02*
X11309524Y-35216667D01*
X10566667Y-35588095D02*
X11000000Y-34288095D01*
X11433333Y-35588095D01*
X11092857Y-84907143D02*
X11278571Y-84969048D01*
X11340476Y-85030952D01*
X11402381Y-85154762D01*
X11402381Y-85340476D01*
X11340476Y-85464286D01*
X11278571Y-85526190D01*
X11154762Y-85588095D01*
X10659524Y-85588095D01*
X10659524Y-84288095D01*
X11092857Y-84288095D01*
X11216667Y-84350000D01*
X11278571Y-84411905D01*
X11340476Y-84535714D01*
X11340476Y-84659524D01*
X11278571Y-84783333D01*
X11216667Y-84845238D01*
X11092857Y-84907143D01*
X10659524Y-84907143D01*
X11402381Y-135464286D02*
X11340476Y-135526190D01*
X11154762Y-135588095D01*
X11030952Y-135588095D01*
X10845238Y-135526190D01*
X10721429Y-135402381D01*
X10659524Y-135278571D01*
X10597619Y-135030952D01*
X10597619Y-134845238D01*
X10659524Y-134597619D01*
X10721429Y-134473810D01*
X10845238Y-134350000D01*
X11030952Y-134288095D01*
X11154762Y-134288095D01*
X11340476Y-134350000D01*
X11402381Y-134411905D01*
X10659524Y-185588095D02*
X10659524Y-184288095D01*
X10969048Y-184288095D01*
X11154762Y-184350000D01*
X11278571Y-184473810D01*
X11340476Y-184597619D01*
X11402381Y-184845238D01*
X11402381Y-185030952D01*
X11340476Y-185278571D01*
X11278571Y-185402381D01*
X11154762Y-185526190D01*
X10969048Y-185588095D01*
X10659524Y-185588095D01*
X287002200Y-60000000D02*
X285002200Y-60000000D01*
X287002200Y-110000000D02*
X285002200Y-110000000D01*
X287002200Y-160000000D02*
X285002200Y-160000000D01*
X285692676Y-35216667D02*
X286311724Y-35216667D01*
X285568867Y-35588095D02*
X286002200Y-34288095D01*
X286435533Y-35588095D01*
X286095057Y-84907143D02*
X286280771Y-84969048D01*
X286342676Y-85030952D01*
X286404581Y-85154762D01*
X286404581Y-85340476D01*
X286342676Y-85464286D01*
X286280771Y-85526190D01*
X286156962Y-85588095D01*
X285661724Y-85588095D01*
X285661724Y-84288095D01*
X286095057Y-84288095D01*
X286218867Y-84350000D01*
X286280771Y-84411905D01*
X286342676Y-84535714D01*
X286342676Y-84659524D01*
X286280771Y-84783333D01*
X286218867Y-84845238D01*
X286095057Y-84907143D01*
X285661724Y-84907143D01*
X286404581Y-135464286D02*
X286342676Y-135526190D01*
X286156962Y-135588095D01*
X286033152Y-135588095D01*
X285847438Y-135526190D01*
X285723629Y-135402381D01*
X285661724Y-135278571D01*
X285599819Y-135030952D01*
X285599819Y-134845238D01*
X285661724Y-134597619D01*
X285723629Y-134473810D01*
X285847438Y-134350000D01*
X286033152Y-134288095D01*
X286156962Y-134288095D01*
X286342676Y-134350000D01*
X286404581Y-134411905D01*
X285661724Y-185588095D02*
X285661724Y-184288095D01*
X285971248Y-184288095D01*
X286156962Y-184350000D01*
X286280771Y-184473810D01*
X286342676Y-184597619D01*
X286404581Y-184845238D01*
X286404581Y-185030952D01*
X286342676Y-185278571D01*
X286280771Y-185402381D01*
X286156962Y-185526190D01*
X285971248Y-185588095D01*
X285661724Y-185588095D01*
X200359343Y-193785771D02*
X200359343Y-192285771D01*
X200716486Y-192285771D01*
X200930771Y-192357200D01*
X201073629Y-192500057D01*
X201145057Y-192642914D01*
X201216486Y-192928629D01*
X201216486Y-193142914D01*
X201145057Y-193428629D01*
X201073629Y-193571486D01*
X200930771Y-193714343D01*
X200716486Y-193785771D01*
X200359343Y-193785771D01*
X202502200Y-193785771D02*
X202502200Y-193000057D01*
X202430771Y-192857200D01*
X202287914Y-192785771D01*
X202002200Y-192785771D01*
X201859343Y-192857200D01*
X202502200Y-193714343D02*
X202359343Y-193785771D01*
X202002200Y-193785771D01*
X201859343Y-193714343D01*
X201787914Y-193571486D01*
X201787914Y-193428629D01*
X201859343Y-193285771D01*
X202002200Y-193214343D01*
X202359343Y-193214343D01*
X202502200Y-193142914D01*
X203002200Y-192785771D02*
X203573629Y-192785771D01*
X203216486Y-192285771D02*
X203216486Y-193571486D01*
X203287914Y-193714343D01*
X203430772Y-193785771D01*
X203573629Y-193785771D01*
X204645057Y-193714343D02*
X204502200Y-193785771D01*
X204216486Y-193785771D01*
X204073629Y-193714343D01*
X204002200Y-193571486D01*
X204002200Y-193000057D01*
X204073629Y-192857200D01*
X204216486Y-192785771D01*
X204502200Y-192785771D01*
X204645057Y-192857200D01*
X204716486Y-193000057D01*
X204716486Y-193142914D01*
X204002200Y-193285771D01*
X205359343Y-193642914D02*
X205430771Y-193714343D01*
X205359343Y-193785771D01*
X205287914Y-193714343D01*
X205359343Y-193642914D01*
X205359343Y-193785771D01*
X205359343Y-192857200D02*
X205430771Y-192928629D01*
X205359343Y-193000057D01*
X205287914Y-192928629D01*
X205359343Y-192857200D01*
X205359343Y-193000057D01*
X207145057Y-192428629D02*
X207216486Y-192357200D01*
X207359343Y-192285771D01*
X207716486Y-192285771D01*
X207859343Y-192357200D01*
X207930772Y-192428629D01*
X208002200Y-192571486D01*
X208002200Y-192714343D01*
X207930772Y-192928629D01*
X207073629Y-193785771D01*
X208002200Y-193785771D01*
X208502200Y-192285771D02*
X209430771Y-192285771D01*
X208930771Y-192857200D01*
X209145057Y-192857200D01*
X209287914Y-192928629D01*
X209359343Y-193000057D01*
X209430771Y-193142914D01*
X209430771Y-193500057D01*
X209359343Y-193642914D01*
X209287914Y-193714343D01*
X209145057Y-193785771D01*
X208716485Y-193785771D01*
X208573628Y-193714343D01*
X208502200Y-193642914D01*
X211216485Y-193785771D02*
X211216485Y-192285771D01*
X211716485Y-193357200D01*
X212216485Y-192285771D01*
X212216485Y-193785771D01*
X213573628Y-193785771D02*
X213573628Y-193000057D01*
X213502199Y-192857200D01*
X213359342Y-192785771D01*
X213073628Y-192785771D01*
X212930771Y-192857200D01*
X213573628Y-193714343D02*
X213430771Y-193785771D01*
X213073628Y-193785771D01*
X212930771Y-193714343D01*
X212859342Y-193571486D01*
X212859342Y-193428629D01*
X212930771Y-193285771D01*
X213073628Y-193214343D01*
X213430771Y-193214343D01*
X213573628Y-193142914D01*
X214145057Y-192785771D02*
X214502200Y-193785771D01*
X214859342Y-192785771D02*
X214502200Y-193785771D01*
X214359342Y-194142914D01*
X214287914Y-194214343D01*
X214145057Y-194285771D01*
X216502199Y-192428629D02*
X216573628Y-192357200D01*
X216716485Y-192285771D01*
X217073628Y-192285771D01*
X217216485Y-192357200D01*
X217287914Y-192428629D01*
X217359342Y-192571486D01*
X217359342Y-192714343D01*
X217287914Y-192928629D01*
X216430771Y-193785771D01*
X217359342Y-193785771D01*
X218287913Y-192285771D02*
X218430770Y-192285771D01*
X218573627Y-192357200D01*
X218645056Y-192428629D01*
X218716485Y-192571486D01*
X218787913Y-192857200D01*
X218787913Y-193214343D01*
X218716485Y-193500057D01*
X218645056Y-193642914D01*
X218573627Y-193714343D01*
X218430770Y-193785771D01*
X218287913Y-193785771D01*
X218145056Y-193714343D01*
X218073627Y-193642914D01*
X218002199Y-193500057D01*
X217930770Y-193214343D01*
X217930770Y-192857200D01*
X218002199Y-192571486D01*
X218073627Y-192428629D01*
X218145056Y-192357200D01*
X218287913Y-192285771D01*
X220216484Y-193785771D02*
X219359341Y-193785771D01*
X219787913Y-193785771D02*
X219787913Y-192285771D01*
X219645056Y-192500057D01*
X219502198Y-192642914D01*
X219359341Y-192714343D01*
X221502198Y-192285771D02*
X221216484Y-192285771D01*
X221073627Y-192357200D01*
X221002198Y-192428629D01*
X220859341Y-192642914D01*
X220787912Y-192928629D01*
X220787912Y-193500057D01*
X220859341Y-193642914D01*
X220930769Y-193714343D01*
X221073627Y-193785771D01*
X221359341Y-193785771D01*
X221502198Y-193714343D01*
X221573627Y-193642914D01*
X221645055Y-193500057D01*
X221645055Y-193142914D01*
X221573627Y-193000057D01*
X221502198Y-192928629D01*
X221359341Y-192857200D01*
X221073627Y-192857200D01*
X220930769Y-192928629D01*
X220859341Y-193000057D01*
X220787912Y-193142914D01*
X177002200Y-194507200D02*
X285002200Y-194507200D01*
X178359343Y-196585771D02*
X178359343Y-195085771D01*
X179216486Y-196585771D02*
X178573629Y-195728629D01*
X179216486Y-195085771D02*
X178359343Y-195942914D01*
X179859343Y-196585771D02*
X179859343Y-195585771D01*
X179859343Y-195085771D02*
X179787914Y-195157200D01*
X179859343Y-195228629D01*
X179930771Y-195157200D01*
X179859343Y-195085771D01*
X179859343Y-195228629D01*
X181430772Y-196442914D02*
X181359343Y-196514343D01*
X181145057Y-196585771D01*
X181002200Y-196585771D01*
X180787915Y-196514343D01*
X180645057Y-196371486D01*
X180573629Y-196228629D01*
X180502200Y-195942914D01*
X180502200Y-195728629D01*
X180573629Y-195442914D01*
X180645057Y-195300057D01*
X180787915Y-195157200D01*
X181002200Y-195085771D01*
X181145057Y-195085771D01*
X181359343Y-195157200D01*
X181430772Y-195228629D01*
X182716486Y-196585771D02*
X182716486Y-195800057D01*
X182645057Y-195657200D01*
X182502200Y-195585771D01*
X182216486Y-195585771D01*
X182073629Y-195657200D01*
X182716486Y-196514343D02*
X182573629Y-196585771D01*
X182216486Y-196585771D01*
X182073629Y-196514343D01*
X182002200Y-196371486D01*
X182002200Y-196228629D01*
X182073629Y-196085771D01*
X182216486Y-196014343D01*
X182573629Y-196014343D01*
X182716486Y-195942914D01*
X184073629Y-196585771D02*
X184073629Y-195085771D01*
X184073629Y-196514343D02*
X183930772Y-196585771D01*
X183645058Y-196585771D01*
X183502200Y-196514343D01*
X183430772Y-196442914D01*
X183359343Y-196300057D01*
X183359343Y-195871486D01*
X183430772Y-195728629D01*
X183502200Y-195657200D01*
X183645058Y-195585771D01*
X183930772Y-195585771D01*
X184073629Y-195657200D01*
X185930772Y-195800057D02*
X186430772Y-195800057D01*
X186645058Y-196585771D02*
X185930772Y-196585771D01*
X185930772Y-195085771D01*
X186645058Y-195085771D01*
X187287915Y-196442914D02*
X187359343Y-196514343D01*
X187287915Y-196585771D01*
X187216486Y-196514343D01*
X187287915Y-196442914D01*
X187287915Y-196585771D01*
X188002201Y-196585771D02*
X188002201Y-195085771D01*
X188359344Y-195085771D01*
X188573629Y-195157200D01*
X188716487Y-195300057D01*
X188787915Y-195442914D01*
X188859344Y-195728629D01*
X188859344Y-195942914D01*
X188787915Y-196228629D01*
X188716487Y-196371486D01*
X188573629Y-196514343D01*
X188359344Y-196585771D01*
X188002201Y-196585771D01*
X189502201Y-196442914D02*
X189573629Y-196514343D01*
X189502201Y-196585771D01*
X189430772Y-196514343D01*
X189502201Y-196442914D01*
X189502201Y-196585771D01*
X190145058Y-196157200D02*
X190859344Y-196157200D01*
X190002201Y-196585771D02*
X190502201Y-195085771D01*
X191002201Y-196585771D01*
X191502201Y-196442914D02*
X191573629Y-196514343D01*
X191502201Y-196585771D01*
X191430772Y-196514343D01*
X191502201Y-196442914D01*
X191502201Y-196585771D01*
X194502201Y-196585771D02*
X194502201Y-195085771D01*
X194645058Y-196014343D02*
X195073629Y-196585771D01*
X195073629Y-195585771D02*
X194502201Y-196157200D01*
X195716487Y-196585771D02*
X195716487Y-195585771D01*
X195716487Y-195085771D02*
X195645058Y-195157200D01*
X195716487Y-195228629D01*
X195787915Y-195157200D01*
X195716487Y-195085771D01*
X195716487Y-195228629D01*
X197073630Y-196514343D02*
X196930773Y-196585771D01*
X196645059Y-196585771D01*
X196502201Y-196514343D01*
X196430773Y-196442914D01*
X196359344Y-196300057D01*
X196359344Y-195871486D01*
X196430773Y-195728629D01*
X196502201Y-195657200D01*
X196645059Y-195585771D01*
X196930773Y-195585771D01*
X197073630Y-195657200D01*
X198359344Y-196585771D02*
X198359344Y-195800057D01*
X198287915Y-195657200D01*
X198145058Y-195585771D01*
X197859344Y-195585771D01*
X197716487Y-195657200D01*
X198359344Y-196514343D02*
X198216487Y-196585771D01*
X197859344Y-196585771D01*
X197716487Y-196514343D01*
X197645058Y-196371486D01*
X197645058Y-196228629D01*
X197716487Y-196085771D01*
X197859344Y-196014343D01*
X198216487Y-196014343D01*
X198359344Y-195942914D01*
X199716487Y-196585771D02*
X199716487Y-195085771D01*
X199716487Y-196514343D02*
X199573630Y-196585771D01*
X199287916Y-196585771D01*
X199145058Y-196514343D01*
X199073630Y-196442914D01*
X199002201Y-196300057D01*
X199002201Y-195871486D01*
X199073630Y-195728629D01*
X199145058Y-195657200D01*
X199287916Y-195585771D01*
X199573630Y-195585771D01*
X199716487Y-195657200D01*
X202216487Y-195585771D02*
X202216487Y-196585771D01*
X201859344Y-195014343D02*
X201502201Y-196085771D01*
X202430773Y-196085771D01*
X203002201Y-196442914D02*
X203073629Y-196514343D01*
X203002201Y-196585771D01*
X202930772Y-196514343D01*
X203002201Y-196442914D01*
X203002201Y-196585771D01*
X204002201Y-195085771D02*
X204145058Y-195085771D01*
X204287915Y-195157200D01*
X204359344Y-195228629D01*
X204430773Y-195371486D01*
X204502201Y-195657200D01*
X204502201Y-196014343D01*
X204430773Y-196300057D01*
X204359344Y-196442914D01*
X204287915Y-196514343D01*
X204145058Y-196585771D01*
X204002201Y-196585771D01*
X203859344Y-196514343D01*
X203787915Y-196442914D01*
X203716487Y-196300057D01*
X203645058Y-196014343D01*
X203645058Y-195657200D01*
X203716487Y-195371486D01*
X203787915Y-195228629D01*
X203859344Y-195157200D01*
X204002201Y-195085771D01*
X205145058Y-196442914D02*
X205216486Y-196514343D01*
X205145058Y-196585771D01*
X205073629Y-196514343D01*
X205145058Y-196442914D01*
X205145058Y-196585771D01*
X205787915Y-195228629D02*
X205859344Y-195157200D01*
X206002201Y-195085771D01*
X206359344Y-195085771D01*
X206502201Y-195157200D01*
X206573630Y-195228629D01*
X206645058Y-195371486D01*
X206645058Y-195514343D01*
X206573630Y-195728629D01*
X205716487Y-196585771D01*
X206645058Y-196585771D01*
X207287915Y-196014343D02*
X208430772Y-196014343D01*
X209073629Y-196514343D02*
X209216486Y-196585771D01*
X209502201Y-196585771D01*
X209645058Y-196514343D01*
X209716486Y-196371486D01*
X209716486Y-196300057D01*
X209645058Y-196157200D01*
X209502201Y-196085771D01*
X209287915Y-196085771D01*
X209145058Y-196014343D01*
X209073629Y-195871486D01*
X209073629Y-195800057D01*
X209145058Y-195657200D01*
X209287915Y-195585771D01*
X209502201Y-195585771D01*
X209645058Y-195657200D01*
X210145058Y-195585771D02*
X210716487Y-195585771D01*
X210359344Y-195085771D02*
X210359344Y-196371486D01*
X210430772Y-196514343D01*
X210573630Y-196585771D01*
X210716487Y-196585771D01*
X211859344Y-196585771D02*
X211859344Y-195800057D01*
X211787915Y-195657200D01*
X211645058Y-195585771D01*
X211359344Y-195585771D01*
X211216487Y-195657200D01*
X211859344Y-196514343D02*
X211716487Y-196585771D01*
X211359344Y-196585771D01*
X211216487Y-196514343D01*
X211145058Y-196371486D01*
X211145058Y-196228629D01*
X211216487Y-196085771D01*
X211359344Y-196014343D01*
X211716487Y-196014343D01*
X211859344Y-195942914D01*
X212573630Y-196585771D02*
X212573630Y-195085771D01*
X212573630Y-195657200D02*
X212716487Y-195585771D01*
X213002201Y-195585771D01*
X213145058Y-195657200D01*
X213216487Y-195728629D01*
X213287916Y-195871486D01*
X213287916Y-196300057D01*
X213216487Y-196442914D01*
X213145058Y-196514343D01*
X213002201Y-196585771D01*
X212716487Y-196585771D01*
X212573630Y-196514343D01*
X214145059Y-196585771D02*
X214002201Y-196514343D01*
X213930773Y-196371486D01*
X213930773Y-195085771D01*
X215287915Y-196514343D02*
X215145058Y-196585771D01*
X214859344Y-196585771D01*
X214716487Y-196514343D01*
X214645058Y-196371486D01*
X214645058Y-195800057D01*
X214716487Y-195657200D01*
X214859344Y-195585771D01*
X215145058Y-195585771D01*
X215287915Y-195657200D01*
X215359344Y-195800057D01*
X215359344Y-195942914D01*
X214645058Y-196085771D01*
X177002200Y-191507200D02*
X285002200Y-191507200D01*
D11*
X264216486Y-193785771D02*
X263716486Y-193071486D01*
X263359343Y-193785771D02*
X263359343Y-192285771D01*
X263930771Y-192285771D01*
X264073629Y-192357200D01*
X264145057Y-192428629D01*
X264216486Y-192571486D01*
X264216486Y-192785771D01*
X264145057Y-192928629D01*
X264073629Y-193000057D01*
X263930771Y-193071486D01*
X263359343Y-193071486D01*
X265430771Y-193714343D02*
X265287914Y-193785771D01*
X265002200Y-193785771D01*
X264859343Y-193714343D01*
X264787914Y-193571486D01*
X264787914Y-193000057D01*
X264859343Y-192857200D01*
X265002200Y-192785771D01*
X265287914Y-192785771D01*
X265430771Y-192857200D01*
X265502200Y-193000057D01*
X265502200Y-193142914D01*
X264787914Y-193285771D01*
X266002200Y-192785771D02*
X266359343Y-193785771D01*
X266716485Y-192785771D01*
X267287914Y-193642914D02*
X267359342Y-193714343D01*
X267287914Y-193785771D01*
X267216485Y-193714343D01*
X267287914Y-193642914D01*
X267287914Y-193785771D01*
X267287914Y-192857200D02*
X267359342Y-192928629D01*
X267287914Y-193000057D01*
X267216485Y-192928629D01*
X267287914Y-192857200D01*
X267287914Y-193000057D01*
X269002200Y-192285771D02*
X269930771Y-192285771D01*
X269430771Y-192857200D01*
X269645057Y-192857200D01*
X269787914Y-192928629D01*
X269859343Y-193000057D01*
X269930771Y-193142914D01*
X269930771Y-193500057D01*
X269859343Y-193642914D01*
X269787914Y-193714343D01*
X269645057Y-193785771D01*
X269216485Y-193785771D01*
X269073628Y-193714343D01*
X269002200Y-193642914D01*
D10*
X178287914Y-193714343D02*
X178502200Y-193785771D01*
X178859343Y-193785771D01*
X179002200Y-193714343D01*
X179073629Y-193642914D01*
X179145057Y-193500057D01*
X179145057Y-193357200D01*
X179073629Y-193214343D01*
X179002200Y-193142914D01*
X178859343Y-193071486D01*
X178573629Y-193000057D01*
X178430771Y-192928629D01*
X178359343Y-192857200D01*
X178287914Y-192714343D01*
X178287914Y-192571486D01*
X178359343Y-192428629D01*
X178430771Y-192357200D01*
X178573629Y-192285771D01*
X178930771Y-192285771D01*
X179145057Y-192357200D01*
X179787914Y-193785771D02*
X179787914Y-192785771D01*
X179787914Y-192285771D02*
X179716485Y-192357200D01*
X179787914Y-192428629D01*
X179859342Y-192357200D01*
X179787914Y-192285771D01*
X179787914Y-192428629D01*
X180359343Y-192785771D02*
X181145057Y-192785771D01*
X180359343Y-193785771D01*
X181145057Y-193785771D01*
X182287914Y-193714343D02*
X182145057Y-193785771D01*
X181859343Y-193785771D01*
X181716486Y-193714343D01*
X181645057Y-193571486D01*
X181645057Y-193000057D01*
X181716486Y-192857200D01*
X181859343Y-192785771D01*
X182145057Y-192785771D01*
X182287914Y-192857200D01*
X182359343Y-193000057D01*
X182359343Y-193142914D01*
X181645057Y-193285771D01*
X183002200Y-193642914D02*
X183073628Y-193714343D01*
X183002200Y-193785771D01*
X182930771Y-193714343D01*
X183002200Y-193642914D01*
X183002200Y-193785771D01*
X183002200Y-192857200D02*
X183073628Y-192928629D01*
X183002200Y-193000057D01*
X182930771Y-192928629D01*
X183002200Y-192857200D01*
X183002200Y-193000057D01*
X184787914Y-193357200D02*
X185502200Y-193357200D01*
X184645057Y-193785771D02*
X185145057Y-192285771D01*
X185645057Y-193785771D01*
X186787914Y-192785771D02*
X186787914Y-193785771D01*
X186430771Y-192214343D02*
X186073628Y-193285771D01*
X187002200Y-193285771D01*
X263359343Y-196585771D02*
X263359343Y-195085771D01*
X264716486Y-196585771D02*
X264716486Y-195085771D01*
X264716486Y-196514343D02*
X264573629Y-196585771D01*
X264287915Y-196585771D01*
X264145057Y-196514343D01*
X264073629Y-196442914D01*
X264002200Y-196300057D01*
X264002200Y-195871486D01*
X264073629Y-195728629D01*
X264145057Y-195657200D01*
X264287915Y-195585771D01*
X264573629Y-195585771D01*
X264716486Y-195657200D01*
X265430772Y-196442914D02*
X265502200Y-196514343D01*
X265430772Y-196585771D01*
X265359343Y-196514343D01*
X265430772Y-196442914D01*
X265430772Y-196585771D01*
X265430772Y-195657200D02*
X265502200Y-195728629D01*
X265430772Y-195800057D01*
X265359343Y-195728629D01*
X265430772Y-195657200D01*
X265430772Y-195800057D01*
X268073629Y-196585771D02*
X267216486Y-196585771D01*
X267645058Y-196585771D02*
X267645058Y-195085771D01*
X267502201Y-195300057D01*
X267359343Y-195442914D01*
X267216486Y-195514343D01*
X269787914Y-195014343D02*
X268502200Y-196942914D01*
X271073629Y-196585771D02*
X270216486Y-196585771D01*
X270645058Y-196585771D02*
X270645058Y-195085771D01*
X270502201Y-195300057D01*
X270359343Y-195442914D01*
X270216486Y-195514343D01*
X177002200Y-187507200D02*
X285002200Y-187507200D01*
D12*
X178454581Y-188211962D02*
X179597438Y-188211962D01*
X178776010Y-190211962D02*
X179026010Y-188211962D01*
X180014105Y-190211962D02*
X180180771Y-188878629D01*
X180264105Y-188211962D02*
X180156962Y-188307200D01*
X180240295Y-188402438D01*
X180347439Y-188307200D01*
X180264105Y-188211962D01*
X180240295Y-188402438D01*
X180847438Y-188878629D02*
X181609343Y-188878629D01*
X181216486Y-188211962D02*
X181002200Y-189926248D01*
X181073630Y-190116724D01*
X181252201Y-190211962D01*
X181442677Y-190211962D01*
X182395058Y-190211962D02*
X182216487Y-190116724D01*
X182145057Y-189926248D01*
X182359343Y-188211962D01*
X183930772Y-190116724D02*
X183728391Y-190211962D01*
X183347439Y-190211962D01*
X183168867Y-190116724D01*
X183097438Y-189926248D01*
X183192676Y-189164343D01*
X183311724Y-188973867D01*
X183514105Y-188878629D01*
X183895057Y-188878629D01*
X184073629Y-188973867D01*
X184145057Y-189164343D01*
X184121248Y-189354819D01*
X183145057Y-189545295D01*
X184895057Y-190021486D02*
X184978392Y-190116724D01*
X184871248Y-190211962D01*
X184787915Y-190116724D01*
X184895057Y-190021486D01*
X184871248Y-190211962D01*
X185026010Y-188973867D02*
X185109344Y-189069105D01*
X185002200Y-189164343D01*
X184918867Y-189069105D01*
X185026010Y-188973867D01*
X185002200Y-189164343D01*
X188299820Y-190211962D02*
X187347439Y-190211962D01*
X187597439Y-188211962D01*
X188966487Y-190211962D02*
X189133153Y-188878629D01*
X189216487Y-188211962D02*
X189109344Y-188307200D01*
X189192677Y-188402438D01*
X189299821Y-188307200D01*
X189216487Y-188211962D01*
X189192677Y-188402438D01*
X189918868Y-190211962D02*
X190085534Y-188878629D01*
X190061725Y-189069105D02*
X190168869Y-188973867D01*
X190371249Y-188878629D01*
X190656963Y-188878629D01*
X190835535Y-188973867D01*
X190906963Y-189164343D01*
X190776011Y-190211962D01*
X190906963Y-189164343D02*
X191026011Y-188973867D01*
X191228392Y-188878629D01*
X191514106Y-188878629D01*
X191692678Y-188973867D01*
X191764106Y-189164343D01*
X191633154Y-190211962D01*
X193359345Y-190116724D02*
X193156964Y-190211962D01*
X192776012Y-190211962D01*
X192597440Y-190116724D01*
X192526011Y-189926248D01*
X192621249Y-189164343D01*
X192740297Y-188973867D01*
X192942678Y-188878629D01*
X193323630Y-188878629D01*
X193502202Y-188973867D01*
X193573630Y-189164343D01*
X193549821Y-189354819D01*
X192573630Y-189545295D01*
X194216488Y-190116724D02*
X194490298Y-190211962D01*
X194966488Y-190211962D01*
X195168869Y-190116724D01*
X195276011Y-190021486D01*
X195395060Y-189831010D01*
X195418869Y-189640533D01*
X195347440Y-189450057D01*
X195264107Y-189354819D01*
X195085535Y-189259581D01*
X194716488Y-189164343D01*
X194537917Y-189069105D01*
X194454583Y-188973867D01*
X194383154Y-188783390D01*
X194406964Y-188592914D01*
X194526011Y-188402438D01*
X194633155Y-188307200D01*
X194835536Y-188211962D01*
X195311726Y-188211962D01*
X195585536Y-188307200D01*
X196204583Y-190211962D02*
X196454583Y-188211962D01*
X196930774Y-188211962D01*
X197204583Y-188307200D01*
X197371250Y-188497676D01*
X197442679Y-188688152D01*
X197490298Y-189069105D01*
X197454584Y-189354819D01*
X197311727Y-189735771D01*
X197192678Y-189926248D01*
X196978393Y-190116724D01*
X196680774Y-190211962D01*
X196204583Y-190211962D01*
X199347441Y-190211962D02*
X198799821Y-189259581D01*
X198204583Y-190211962D02*
X198454583Y-188211962D01*
X199216488Y-188211962D01*
X199395059Y-188307200D01*
X199478393Y-188402438D01*
X199549822Y-188592914D01*
X199514107Y-188878629D01*
X199395060Y-189069105D01*
X199287916Y-189164343D01*
X199085535Y-189259581D01*
X198323630Y-189259581D01*
X200299821Y-189450057D02*
X201823631Y-189450057D01*
X202597440Y-190116724D02*
X202871250Y-190211962D01*
X203347440Y-190211962D01*
X203549821Y-190116724D01*
X203656963Y-190021486D01*
X203776012Y-189831010D01*
X203799821Y-189640533D01*
X203728392Y-189450057D01*
X203645059Y-189354819D01*
X203466487Y-189259581D01*
X203097440Y-189164343D01*
X202918869Y-189069105D01*
X202835535Y-188973867D01*
X202764106Y-188783390D01*
X202787916Y-188592914D01*
X202906963Y-188402438D01*
X203014107Y-188307200D01*
X203216488Y-188211962D01*
X203692678Y-188211962D01*
X203966488Y-188307200D01*
X204871250Y-190211962D02*
X204692679Y-190116724D01*
X204609344Y-190021486D01*
X204537916Y-189831010D01*
X204609344Y-189259581D01*
X204728392Y-189069105D01*
X204835536Y-188973867D01*
X205037916Y-188878629D01*
X205323630Y-188878629D01*
X205502202Y-188973867D01*
X205585535Y-189069105D01*
X205656963Y-189259581D01*
X205585535Y-189831010D01*
X205466487Y-190021486D01*
X205359345Y-190116724D01*
X205156964Y-190211962D01*
X204871250Y-190211962D01*
X206561725Y-188878629D02*
X206395059Y-190211962D01*
X206537916Y-189069105D02*
X206645060Y-188973867D01*
X206847440Y-188878629D01*
X207133154Y-188878629D01*
X207311726Y-188973867D01*
X207383154Y-189164343D01*
X207252202Y-190211962D01*
X208180773Y-188878629D02*
X208490298Y-190211962D01*
X209133154Y-188878629D02*
X208490298Y-190211962D01*
X208240298Y-190688152D01*
X208133154Y-190783390D01*
X207930773Y-190878629D01*
X211228393Y-188878629D02*
X211537918Y-190211962D01*
X212180774Y-188878629D01*
X213823633Y-190211962D02*
X212680775Y-190211962D01*
X213252204Y-190211962D02*
X213502204Y-188211962D01*
X213276014Y-188497676D01*
X213061728Y-188688152D01*
X212859346Y-188783390D01*
D10*
X178859343Y-185600057D02*
X178359343Y-185600057D01*
X178359343Y-186385771D02*
X178359343Y-184885771D01*
X179073629Y-184885771D01*
X179645057Y-186385771D02*
X179645057Y-185385771D01*
X179645057Y-184885771D02*
X179573628Y-184957200D01*
X179645057Y-185028629D01*
X179716485Y-184957200D01*
X179645057Y-184885771D01*
X179645057Y-185028629D01*
X180573629Y-186385771D02*
X180430771Y-186314343D01*
X180359343Y-186171486D01*
X180359343Y-184885771D01*
X181716485Y-186314343D02*
X181573628Y-186385771D01*
X181287914Y-186385771D01*
X181145057Y-186314343D01*
X181073628Y-186171486D01*
X181073628Y-185600057D01*
X181145057Y-185457200D01*
X181287914Y-185385771D01*
X181573628Y-185385771D01*
X181716485Y-185457200D01*
X181787914Y-185600057D01*
X181787914Y-185742914D01*
X181073628Y-185885771D01*
X182430771Y-186242914D02*
X182502199Y-186314343D01*
X182430771Y-186385771D01*
X182359342Y-186314343D01*
X182430771Y-186242914D01*
X182430771Y-186385771D01*
X182430771Y-185457200D02*
X182502199Y-185528629D01*
X182430771Y-185600057D01*
X182359342Y-185528629D01*
X182430771Y-185457200D01*
X182430771Y-185600057D01*
X185002200Y-186385771D02*
X184287914Y-186385771D01*
X184287914Y-184885771D01*
X185502200Y-186385771D02*
X185502200Y-185385771D01*
X185502200Y-184885771D02*
X185430771Y-184957200D01*
X185502200Y-185028629D01*
X185573628Y-184957200D01*
X185502200Y-184885771D01*
X185502200Y-185028629D01*
X186216486Y-186385771D02*
X186216486Y-185385771D01*
X186216486Y-185528629D02*
X186287914Y-185457200D01*
X186430772Y-185385771D01*
X186645057Y-185385771D01*
X186787914Y-185457200D01*
X186859343Y-185600057D01*
X186859343Y-186385771D01*
X186859343Y-185600057D02*
X186930772Y-185457200D01*
X187073629Y-185385771D01*
X187287914Y-185385771D01*
X187430772Y-185457200D01*
X187502200Y-185600057D01*
X187502200Y-186385771D01*
X188787914Y-186314343D02*
X188645057Y-186385771D01*
X188359343Y-186385771D01*
X188216486Y-186314343D01*
X188145057Y-186171486D01*
X188145057Y-185600057D01*
X188216486Y-185457200D01*
X188359343Y-185385771D01*
X188645057Y-185385771D01*
X188787914Y-185457200D01*
X188859343Y-185600057D01*
X188859343Y-185742914D01*
X188145057Y-185885771D01*
X189430771Y-186314343D02*
X189645057Y-186385771D01*
X190002200Y-186385771D01*
X190145057Y-186314343D01*
X190216486Y-186242914D01*
X190287914Y-186100057D01*
X190287914Y-185957200D01*
X190216486Y-185814343D01*
X190145057Y-185742914D01*
X190002200Y-185671486D01*
X189716486Y-185600057D01*
X189573628Y-185528629D01*
X189502200Y-185457200D01*
X189430771Y-185314343D01*
X189430771Y-185171486D01*
X189502200Y-185028629D01*
X189573628Y-184957200D01*
X189716486Y-184885771D01*
X190073628Y-184885771D01*
X190287914Y-184957200D01*
X190930771Y-186385771D02*
X190930771Y-184885771D01*
X191287914Y-184885771D01*
X191502199Y-184957200D01*
X191645057Y-185100057D01*
X191716485Y-185242914D01*
X191787914Y-185528629D01*
X191787914Y-185742914D01*
X191716485Y-186028629D01*
X191645057Y-186171486D01*
X191502199Y-186314343D01*
X191287914Y-186385771D01*
X190930771Y-186385771D01*
X193287914Y-186385771D02*
X192787914Y-185671486D01*
X192430771Y-186385771D02*
X192430771Y-184885771D01*
X193002199Y-184885771D01*
X193145057Y-184957200D01*
X193216485Y-185028629D01*
X193287914Y-185171486D01*
X193287914Y-185385771D01*
X193216485Y-185528629D01*
X193145057Y-185600057D01*
X193002199Y-185671486D01*
X192430771Y-185671486D01*
X193573628Y-186528629D02*
X194716485Y-186528629D01*
X195002199Y-186314343D02*
X195216485Y-186385771D01*
X195573628Y-186385771D01*
X195716485Y-186314343D01*
X195787914Y-186242914D01*
X195859342Y-186100057D01*
X195859342Y-185957200D01*
X195787914Y-185814343D01*
X195716485Y-185742914D01*
X195573628Y-185671486D01*
X195287914Y-185600057D01*
X195145056Y-185528629D01*
X195073628Y-185457200D01*
X195002199Y-185314343D01*
X195002199Y-185171486D01*
X195073628Y-185028629D01*
X195145056Y-184957200D01*
X195287914Y-184885771D01*
X195645056Y-184885771D01*
X195859342Y-184957200D01*
X196716485Y-186385771D02*
X196573627Y-186314343D01*
X196502199Y-186242914D01*
X196430770Y-186100057D01*
X196430770Y-185671486D01*
X196502199Y-185528629D01*
X196573627Y-185457200D01*
X196716485Y-185385771D01*
X196930770Y-185385771D01*
X197073627Y-185457200D01*
X197145056Y-185528629D01*
X197216485Y-185671486D01*
X197216485Y-186100057D01*
X197145056Y-186242914D01*
X197073627Y-186314343D01*
X196930770Y-186385771D01*
X196716485Y-186385771D01*
X197859342Y-185385771D02*
X197859342Y-186385771D01*
X197859342Y-185528629D02*
X197930770Y-185457200D01*
X198073628Y-185385771D01*
X198287913Y-185385771D01*
X198430770Y-185457200D01*
X198502199Y-185600057D01*
X198502199Y-186385771D01*
X199073628Y-185385771D02*
X199430771Y-186385771D01*
X199787913Y-185385771D02*
X199430771Y-186385771D01*
X199287913Y-186742914D01*
X199216485Y-186814343D01*
X199073628Y-186885771D01*
X200359342Y-186242914D02*
X200430770Y-186314343D01*
X200359342Y-186385771D01*
X200287913Y-186314343D01*
X200359342Y-186242914D01*
X200359342Y-186385771D01*
X201073628Y-186385771D02*
X201073628Y-184885771D01*
X201216485Y-185814343D02*
X201645056Y-186385771D01*
X201645056Y-185385771D02*
X201073628Y-185957200D01*
X202287914Y-186385771D02*
X202287914Y-185385771D01*
X202287914Y-184885771D02*
X202216485Y-184957200D01*
X202287914Y-185028629D01*
X202359342Y-184957200D01*
X202287914Y-184885771D01*
X202287914Y-185028629D01*
X203645057Y-186314343D02*
X203502200Y-186385771D01*
X203216486Y-186385771D01*
X203073628Y-186314343D01*
X203002200Y-186242914D01*
X202930771Y-186100057D01*
X202930771Y-185671486D01*
X203002200Y-185528629D01*
X203073628Y-185457200D01*
X203216486Y-185385771D01*
X203502200Y-185385771D01*
X203645057Y-185457200D01*
X204930771Y-186385771D02*
X204930771Y-185600057D01*
X204859342Y-185457200D01*
X204716485Y-185385771D01*
X204430771Y-185385771D01*
X204287914Y-185457200D01*
X204930771Y-186314343D02*
X204787914Y-186385771D01*
X204430771Y-186385771D01*
X204287914Y-186314343D01*
X204216485Y-186171486D01*
X204216485Y-186028629D01*
X204287914Y-185885771D01*
X204430771Y-185814343D01*
X204787914Y-185814343D01*
X204930771Y-185742914D01*
X206287914Y-186385771D02*
X206287914Y-184885771D01*
X206287914Y-186314343D02*
X206145057Y-186385771D01*
X205859343Y-186385771D01*
X205716485Y-186314343D01*
X205645057Y-186242914D01*
X205573628Y-186100057D01*
X205573628Y-185671486D01*
X205645057Y-185528629D01*
X205716485Y-185457200D01*
X205859343Y-185385771D01*
X206145057Y-185385771D01*
X206287914Y-185457200D01*
X206645057Y-186528629D02*
X207787914Y-186528629D01*
X208145057Y-185385771D02*
X208145057Y-186885771D01*
X208145057Y-185457200D02*
X208287914Y-185385771D01*
X208573628Y-185385771D01*
X208716485Y-185457200D01*
X208787914Y-185528629D01*
X208859343Y-185671486D01*
X208859343Y-186100057D01*
X208787914Y-186242914D01*
X208716485Y-186314343D01*
X208573628Y-186385771D01*
X208287914Y-186385771D01*
X208145057Y-186314343D01*
X210145057Y-186314343D02*
X210002200Y-186385771D01*
X209716486Y-186385771D01*
X209573628Y-186314343D01*
X209502200Y-186242914D01*
X209430771Y-186100057D01*
X209430771Y-185671486D01*
X209502200Y-185528629D01*
X209573628Y-185457200D01*
X209716486Y-185385771D01*
X210002200Y-185385771D01*
X210145057Y-185457200D01*
X210787914Y-186385771D02*
X210787914Y-184885771D01*
X210787914Y-185457200D02*
X210930771Y-185385771D01*
X211216485Y-185385771D01*
X211359342Y-185457200D01*
X211430771Y-185528629D01*
X211502200Y-185671486D01*
X211502200Y-186100057D01*
X211430771Y-186242914D01*
X211359342Y-186314343D01*
X211216485Y-186385771D01*
X210930771Y-186385771D01*
X210787914Y-186314343D01*
X177002200Y-181507200D02*
X285002200Y-181507200D01*
X178287914Y-183614343D02*
X178502200Y-183685771D01*
X178859343Y-183685771D01*
X179002200Y-183614343D01*
X179073629Y-183542914D01*
X179145057Y-183400057D01*
X179145057Y-183257200D01*
X179073629Y-183114343D01*
X179002200Y-183042914D01*
X178859343Y-182971486D01*
X178573629Y-182900057D01*
X178430771Y-182828629D01*
X178359343Y-182757200D01*
X178287914Y-182614343D01*
X178287914Y-182471486D01*
X178359343Y-182328629D01*
X178430771Y-182257200D01*
X178573629Y-182185771D01*
X178930771Y-182185771D01*
X179145057Y-182257200D01*
X179787914Y-183685771D02*
X179787914Y-182185771D01*
X180430771Y-183685771D02*
X180430771Y-182900057D01*
X180359342Y-182757200D01*
X180216485Y-182685771D01*
X180002200Y-182685771D01*
X179859342Y-182757200D01*
X179787914Y-182828629D01*
X181716485Y-183614343D02*
X181573628Y-183685771D01*
X181287914Y-183685771D01*
X181145057Y-183614343D01*
X181073628Y-183471486D01*
X181073628Y-182900057D01*
X181145057Y-182757200D01*
X181287914Y-182685771D01*
X181573628Y-182685771D01*
X181716485Y-182757200D01*
X181787914Y-182900057D01*
X181787914Y-183042914D01*
X181073628Y-183185771D01*
X183002199Y-183614343D02*
X182859342Y-183685771D01*
X182573628Y-183685771D01*
X182430771Y-183614343D01*
X182359342Y-183471486D01*
X182359342Y-182900057D01*
X182430771Y-182757200D01*
X182573628Y-182685771D01*
X182859342Y-182685771D01*
X183002199Y-182757200D01*
X183073628Y-182900057D01*
X183073628Y-183042914D01*
X182359342Y-183185771D01*
X183502199Y-182685771D02*
X184073628Y-182685771D01*
X183716485Y-182185771D02*
X183716485Y-183471486D01*
X183787913Y-183614343D01*
X183930771Y-183685771D01*
X184073628Y-183685771D01*
X184573628Y-183542914D02*
X184645056Y-183614343D01*
X184573628Y-183685771D01*
X184502199Y-183614343D01*
X184573628Y-183542914D01*
X184573628Y-183685771D01*
X184573628Y-182757200D02*
X184645056Y-182828629D01*
X184573628Y-182900057D01*
X184502199Y-182828629D01*
X184573628Y-182757200D01*
X184573628Y-182900057D01*
D11*
X179216486Y-180542914D02*
X179145057Y-180614343D01*
X178930771Y-180685771D01*
X178787914Y-180685771D01*
X178573629Y-180614343D01*
X178430771Y-180471486D01*
X178359343Y-180328629D01*
X178287914Y-180042914D01*
X178287914Y-179828629D01*
X178359343Y-179542914D01*
X178430771Y-179400057D01*
X178573629Y-179257200D01*
X178787914Y-179185771D01*
X178930771Y-179185771D01*
X179145057Y-179257200D01*
X179216486Y-179328629D01*
X180073629Y-180685771D02*
X179930771Y-180614343D01*
X179859343Y-180542914D01*
X179787914Y-180400057D01*
X179787914Y-179971486D01*
X179859343Y-179828629D01*
X179930771Y-179757200D01*
X180073629Y-179685771D01*
X180287914Y-179685771D01*
X180430771Y-179757200D01*
X180502200Y-179828629D01*
X180573629Y-179971486D01*
X180573629Y-180400057D01*
X180502200Y-180542914D01*
X180430771Y-180614343D01*
X180287914Y-180685771D01*
X180073629Y-180685771D01*
X181216486Y-179685771D02*
X181216486Y-181185771D01*
X181216486Y-179757200D02*
X181359343Y-179685771D01*
X181645057Y-179685771D01*
X181787914Y-179757200D01*
X181859343Y-179828629D01*
X181930772Y-179971486D01*
X181930772Y-180400057D01*
X181859343Y-180542914D01*
X181787914Y-180614343D01*
X181645057Y-180685771D01*
X181359343Y-180685771D01*
X181216486Y-180614343D01*
X182430772Y-179685771D02*
X182787915Y-180685771D01*
X183145057Y-179685771D02*
X182787915Y-180685771D01*
X182645057Y-181042914D01*
X182573629Y-181114343D01*
X182430772Y-181185771D01*
X183716486Y-180685771D02*
X183716486Y-179685771D01*
X183716486Y-179971486D02*
X183787914Y-179828629D01*
X183859343Y-179757200D01*
X184002200Y-179685771D01*
X184145057Y-179685771D01*
X184645057Y-180685771D02*
X184645057Y-179685771D01*
X184645057Y-179185771D02*
X184573628Y-179257200D01*
X184645057Y-179328629D01*
X184716485Y-179257200D01*
X184645057Y-179185771D01*
X184645057Y-179328629D01*
X186002200Y-179685771D02*
X186002200Y-180900057D01*
X185930771Y-181042914D01*
X185859343Y-181114343D01*
X185716486Y-181185771D01*
X185502200Y-181185771D01*
X185359343Y-181114343D01*
X186002200Y-180614343D02*
X185859343Y-180685771D01*
X185573629Y-180685771D01*
X185430771Y-180614343D01*
X185359343Y-180542914D01*
X185287914Y-180400057D01*
X185287914Y-179971486D01*
X185359343Y-179828629D01*
X185430771Y-179757200D01*
X185573629Y-179685771D01*
X185859343Y-179685771D01*
X186002200Y-179757200D01*
X186716486Y-180685771D02*
X186716486Y-179185771D01*
X187359343Y-180685771D02*
X187359343Y-179900057D01*
X187287914Y-179757200D01*
X187145057Y-179685771D01*
X186930772Y-179685771D01*
X186787914Y-179757200D01*
X186716486Y-179828629D01*
X187859343Y-179685771D02*
X188430772Y-179685771D01*
X188073629Y-179185771D02*
X188073629Y-180471486D01*
X188145057Y-180614343D01*
X188287915Y-180685771D01*
X188430772Y-180685771D01*
X190002200Y-179328629D02*
X190073629Y-179257200D01*
X190216486Y-179185771D01*
X190573629Y-179185771D01*
X190716486Y-179257200D01*
X190787915Y-179328629D01*
X190859343Y-179471486D01*
X190859343Y-179614343D01*
X190787915Y-179828629D01*
X189930772Y-180685771D01*
X190859343Y-180685771D01*
X191787914Y-179185771D02*
X191930771Y-179185771D01*
X192073628Y-179257200D01*
X192145057Y-179328629D01*
X192216486Y-179471486D01*
X192287914Y-179757200D01*
X192287914Y-180114343D01*
X192216486Y-180400057D01*
X192145057Y-180542914D01*
X192073628Y-180614343D01*
X191930771Y-180685771D01*
X191787914Y-180685771D01*
X191645057Y-180614343D01*
X191573628Y-180542914D01*
X191502200Y-180400057D01*
X191430771Y-180114343D01*
X191430771Y-179757200D01*
X191502200Y-179471486D01*
X191573628Y-179328629D01*
X191645057Y-179257200D01*
X191787914Y-179185771D01*
X193716485Y-180685771D02*
X192859342Y-180685771D01*
X193287914Y-180685771D02*
X193287914Y-179185771D01*
X193145057Y-179400057D01*
X193002199Y-179542914D01*
X192859342Y-179614343D01*
X195002199Y-179185771D02*
X194716485Y-179185771D01*
X194573628Y-179257200D01*
X194502199Y-179328629D01*
X194359342Y-179542914D01*
X194287913Y-179828629D01*
X194287913Y-180400057D01*
X194359342Y-180542914D01*
X194430770Y-180614343D01*
X194573628Y-180685771D01*
X194859342Y-180685771D01*
X195002199Y-180614343D01*
X195073628Y-180542914D01*
X195145056Y-180400057D01*
X195145056Y-180042914D01*
X195073628Y-179900057D01*
X195002199Y-179828629D01*
X194859342Y-179757200D01*
X194573628Y-179757200D01*
X194430770Y-179828629D01*
X194359342Y-179900057D01*
X194287913Y-180042914D01*
X197645056Y-180685771D02*
X196930770Y-180685771D01*
X196930770Y-179185771D01*
X198145056Y-180685771D02*
X198145056Y-179685771D01*
X198145056Y-179185771D02*
X198073627Y-179257200D01*
X198145056Y-179328629D01*
X198216484Y-179257200D01*
X198145056Y-179185771D01*
X198145056Y-179328629D01*
X198859342Y-180685771D02*
X198859342Y-179685771D01*
X198859342Y-179828629D02*
X198930770Y-179757200D01*
X199073628Y-179685771D01*
X199287913Y-179685771D01*
X199430770Y-179757200D01*
X199502199Y-179900057D01*
X199502199Y-180685771D01*
X199502199Y-179900057D02*
X199573628Y-179757200D01*
X199716485Y-179685771D01*
X199930770Y-179685771D01*
X200073628Y-179757200D01*
X200145056Y-179900057D01*
X200145056Y-180685771D01*
X201430770Y-180614343D02*
X201287913Y-180685771D01*
X201002199Y-180685771D01*
X200859342Y-180614343D01*
X200787913Y-180471486D01*
X200787913Y-179900057D01*
X200859342Y-179757200D01*
X201002199Y-179685771D01*
X201287913Y-179685771D01*
X201430770Y-179757200D01*
X201502199Y-179900057D01*
X201502199Y-180042914D01*
X200787913Y-180185771D01*
X203287913Y-180685771D02*
X203287913Y-179185771D01*
X203787913Y-180257200D01*
X204287913Y-179185771D01*
X204287913Y-180685771D01*
X205002199Y-180685771D02*
X205002199Y-179685771D01*
X205002199Y-179185771D02*
X204930770Y-179257200D01*
X205002199Y-179328629D01*
X205073627Y-179257200D01*
X205002199Y-179185771D01*
X205002199Y-179328629D01*
X206359342Y-180614343D02*
X206216485Y-180685771D01*
X205930771Y-180685771D01*
X205787913Y-180614343D01*
X205716485Y-180542914D01*
X205645056Y-180400057D01*
X205645056Y-179971486D01*
X205716485Y-179828629D01*
X205787913Y-179757200D01*
X205930771Y-179685771D01*
X206216485Y-179685771D01*
X206359342Y-179757200D01*
X207002199Y-180685771D02*
X207002199Y-179685771D01*
X207002199Y-179971486D02*
X207073627Y-179828629D01*
X207145056Y-179757200D01*
X207287913Y-179685771D01*
X207430770Y-179685771D01*
X208145056Y-180685771D02*
X208002198Y-180614343D01*
X207930770Y-180542914D01*
X207859341Y-180400057D01*
X207859341Y-179971486D01*
X207930770Y-179828629D01*
X208002198Y-179757200D01*
X208145056Y-179685771D01*
X208359341Y-179685771D01*
X208502198Y-179757200D01*
X208573627Y-179828629D01*
X208645056Y-179971486D01*
X208645056Y-180400057D01*
X208573627Y-180542914D01*
X208502198Y-180614343D01*
X208359341Y-180685771D01*
X208145056Y-180685771D01*
X209216484Y-180614343D02*
X209359341Y-180685771D01*
X209645056Y-180685771D01*
X209787913Y-180614343D01*
X209859341Y-180471486D01*
X209859341Y-180400057D01*
X209787913Y-180257200D01*
X209645056Y-180185771D01*
X209430770Y-180185771D01*
X209287913Y-180114343D01*
X209216484Y-179971486D01*
X209216484Y-179900057D01*
X209287913Y-179757200D01*
X209430770Y-179685771D01*
X209645056Y-179685771D01*
X209787913Y-179757200D01*
X210359342Y-179685771D02*
X210716485Y-180685771D01*
X211073627Y-179685771D02*
X210716485Y-180685771D01*
X210573627Y-181042914D01*
X210502199Y-181114343D01*
X210359342Y-181185771D01*
X211573627Y-180614343D02*
X211716484Y-180685771D01*
X212002199Y-180685771D01*
X212145056Y-180614343D01*
X212216484Y-180471486D01*
X212216484Y-180400057D01*
X212145056Y-180257200D01*
X212002199Y-180185771D01*
X211787913Y-180185771D01*
X211645056Y-180114343D01*
X211573627Y-179971486D01*
X211573627Y-179900057D01*
X211645056Y-179757200D01*
X211787913Y-179685771D01*
X212002199Y-179685771D01*
X212145056Y-179757200D01*
X212645056Y-179685771D02*
X213216485Y-179685771D01*
X212859342Y-179185771D02*
X212859342Y-180471486D01*
X212930770Y-180614343D01*
X213073628Y-180685771D01*
X213216485Y-180685771D01*
X214287913Y-180614343D02*
X214145056Y-180685771D01*
X213859342Y-180685771D01*
X213716485Y-180614343D01*
X213645056Y-180471486D01*
X213645056Y-179900057D01*
X213716485Y-179757200D01*
X213859342Y-179685771D01*
X214145056Y-179685771D01*
X214287913Y-179757200D01*
X214359342Y-179900057D01*
X214359342Y-180042914D01*
X213645056Y-180185771D01*
X215002199Y-180685771D02*
X215002199Y-179685771D01*
X215002199Y-179828629D02*
X215073627Y-179757200D01*
X215216485Y-179685771D01*
X215430770Y-179685771D01*
X215573627Y-179757200D01*
X215645056Y-179900057D01*
X215645056Y-180685771D01*
X215645056Y-179900057D02*
X215716485Y-179757200D01*
X215859342Y-179685771D01*
X216073627Y-179685771D01*
X216216485Y-179757200D01*
X216287913Y-179900057D01*
X216287913Y-180685771D01*
X216930770Y-180614343D02*
X217073627Y-180685771D01*
X217359342Y-180685771D01*
X217502199Y-180614343D01*
X217573627Y-180471486D01*
X217573627Y-180400057D01*
X217502199Y-180257200D01*
X217359342Y-180185771D01*
X217145056Y-180185771D01*
X217002199Y-180114343D01*
X216930770Y-179971486D01*
X216930770Y-179900057D01*
X217002199Y-179757200D01*
X217145056Y-179685771D01*
X217359342Y-179685771D01*
X217502199Y-179757200D01*
X218287913Y-180614343D02*
X218287913Y-180685771D01*
X218216485Y-180828629D01*
X218145056Y-180900057D01*
X220787914Y-180685771D02*
X220073628Y-180685771D01*
X220073628Y-179185771D01*
X221073628Y-179685771D02*
X221645057Y-179685771D01*
X221287914Y-179185771D02*
X221287914Y-180471486D01*
X221359342Y-180614343D01*
X221502200Y-180685771D01*
X221645057Y-180685771D01*
X222787914Y-180685771D02*
X222787914Y-179185771D01*
X222787914Y-180614343D02*
X222645057Y-180685771D01*
X222359343Y-180685771D01*
X222216485Y-180614343D01*
X222145057Y-180542914D01*
X222073628Y-180400057D01*
X222073628Y-179971486D01*
X222145057Y-179828629D01*
X222216485Y-179757200D01*
X222359343Y-179685771D01*
X222645057Y-179685771D01*
X222787914Y-179757200D01*
X223502200Y-180542914D02*
X223573628Y-180614343D01*
X223502200Y-180685771D01*
X223430771Y-180614343D01*
X223502200Y-180542914D01*
X223502200Y-180685771D01*
D10*
X178216486Y-176185771D02*
X178573629Y-177685771D01*
X178859343Y-176614343D01*
X179145057Y-177685771D01*
X179502200Y-176185771D01*
X180359343Y-176185771D02*
X180645057Y-176185771D01*
X180787915Y-176257200D01*
X180930772Y-176400057D01*
X181002200Y-176685771D01*
X181002200Y-177185771D01*
X180930772Y-177471486D01*
X180787915Y-177614343D01*
X180645057Y-177685771D01*
X180359343Y-177685771D01*
X180216486Y-177614343D01*
X180073629Y-177471486D01*
X180002200Y-177185771D01*
X180002200Y-176685771D01*
X180073629Y-176400057D01*
X180216486Y-176257200D01*
X180359343Y-176185771D01*
X182502201Y-177685771D02*
X182002201Y-176971486D01*
X181645058Y-177685771D02*
X181645058Y-176185771D01*
X182216486Y-176185771D01*
X182359344Y-176257200D01*
X182430772Y-176328629D01*
X182502201Y-176471486D01*
X182502201Y-176685771D01*
X182430772Y-176828629D01*
X182359344Y-176900057D01*
X182216486Y-176971486D01*
X181645058Y-176971486D01*
X183145058Y-177685771D02*
X183145058Y-176185771D01*
X184002201Y-177685771D02*
X183359344Y-176828629D01*
X184002201Y-176185771D02*
X183145058Y-177042914D01*
X185787915Y-177685771D02*
X185787915Y-176185771D01*
X186430772Y-177614343D02*
X186645058Y-177685771D01*
X187002201Y-177685771D01*
X187145058Y-177614343D01*
X187216487Y-177542914D01*
X187287915Y-177400057D01*
X187287915Y-177257200D01*
X187216487Y-177114343D01*
X187145058Y-177042914D01*
X187002201Y-176971486D01*
X186716487Y-176900057D01*
X186573629Y-176828629D01*
X186502201Y-176757200D01*
X186430772Y-176614343D01*
X186430772Y-176471486D01*
X186502201Y-176328629D01*
X186573629Y-176257200D01*
X186716487Y-176185771D01*
X187073629Y-176185771D01*
X187287915Y-176257200D01*
X189930772Y-177542914D02*
X189859343Y-177614343D01*
X189645057Y-177685771D01*
X189502200Y-177685771D01*
X189287915Y-177614343D01*
X189145057Y-177471486D01*
X189073629Y-177328629D01*
X189002200Y-177042914D01*
X189002200Y-176828629D01*
X189073629Y-176542914D01*
X189145057Y-176400057D01*
X189287915Y-176257200D01*
X189502200Y-176185771D01*
X189645057Y-176185771D01*
X189859343Y-176257200D01*
X189930772Y-176328629D01*
X190859343Y-176185771D02*
X191145057Y-176185771D01*
X191287915Y-176257200D01*
X191430772Y-176400057D01*
X191502200Y-176685771D01*
X191502200Y-177185771D01*
X191430772Y-177471486D01*
X191287915Y-177614343D01*
X191145057Y-177685771D01*
X190859343Y-177685771D01*
X190716486Y-177614343D01*
X190573629Y-177471486D01*
X190502200Y-177185771D01*
X190502200Y-176685771D01*
X190573629Y-176400057D01*
X190716486Y-176257200D01*
X190859343Y-176185771D01*
X191930772Y-176185771D02*
X192430772Y-177685771D01*
X192930772Y-176185771D01*
X193430772Y-176900057D02*
X193930772Y-176900057D01*
X194145058Y-177685771D02*
X193430772Y-177685771D01*
X193430772Y-176185771D01*
X194145058Y-176185771D01*
X195645058Y-177685771D02*
X195145058Y-176971486D01*
X194787915Y-177685771D02*
X194787915Y-176185771D01*
X195359343Y-176185771D01*
X195502201Y-176257200D01*
X195573629Y-176328629D01*
X195645058Y-176471486D01*
X195645058Y-176685771D01*
X195573629Y-176828629D01*
X195502201Y-176900057D01*
X195359343Y-176971486D01*
X194787915Y-176971486D01*
X196287915Y-176900057D02*
X196787915Y-176900057D01*
X197002201Y-177685771D02*
X196287915Y-177685771D01*
X196287915Y-176185771D01*
X197002201Y-176185771D01*
X197645058Y-177685771D02*
X197645058Y-176185771D01*
X198002201Y-176185771D01*
X198216486Y-176257200D01*
X198359344Y-176400057D01*
X198430772Y-176542914D01*
X198502201Y-176828629D01*
X198502201Y-177042914D01*
X198430772Y-177328629D01*
X198359344Y-177471486D01*
X198216486Y-177614343D01*
X198002201Y-177685771D01*
X197645058Y-177685771D01*
X200287915Y-176185771D02*
X200287915Y-177400057D01*
X200359343Y-177542914D01*
X200430772Y-177614343D01*
X200573629Y-177685771D01*
X200859343Y-177685771D01*
X201002201Y-177614343D01*
X201073629Y-177542914D01*
X201145058Y-177400057D01*
X201145058Y-176185771D01*
X201859344Y-177685771D02*
X201859344Y-176185771D01*
X202716487Y-177685771D01*
X202716487Y-176185771D01*
X203430773Y-177685771D02*
X203430773Y-176185771D01*
X203787916Y-176185771D01*
X204002201Y-176257200D01*
X204145059Y-176400057D01*
X204216487Y-176542914D01*
X204287916Y-176828629D01*
X204287916Y-177042914D01*
X204216487Y-177328629D01*
X204145059Y-177471486D01*
X204002201Y-177614343D01*
X203787916Y-177685771D01*
X203430773Y-177685771D01*
X204930773Y-176900057D02*
X205430773Y-176900057D01*
X205645059Y-177685771D02*
X204930773Y-177685771D01*
X204930773Y-176185771D01*
X205645059Y-176185771D01*
X207145059Y-177685771D02*
X206645059Y-176971486D01*
X206287916Y-177685771D02*
X206287916Y-176185771D01*
X206859344Y-176185771D01*
X207002202Y-176257200D01*
X207073630Y-176328629D01*
X207145059Y-176471486D01*
X207145059Y-176685771D01*
X207073630Y-176828629D01*
X207002202Y-176900057D01*
X206859344Y-176971486D01*
X206287916Y-176971486D01*
X208859344Y-177257200D02*
X209573630Y-177257200D01*
X208716487Y-177685771D02*
X209216487Y-176185771D01*
X209716487Y-177685771D01*
X212216487Y-177542914D02*
X212145058Y-177614343D01*
X211930772Y-177685771D01*
X211787915Y-177685771D01*
X211573630Y-177614343D01*
X211430772Y-177471486D01*
X211359344Y-177328629D01*
X211287915Y-177042914D01*
X211287915Y-176828629D01*
X211359344Y-176542914D01*
X211430772Y-176400057D01*
X211573630Y-176257200D01*
X211787915Y-176185771D01*
X211930772Y-176185771D01*
X212145058Y-176257200D01*
X212216487Y-176328629D01*
X213716487Y-177685771D02*
X213216487Y-176971486D01*
X212859344Y-177685771D02*
X212859344Y-176185771D01*
X213430772Y-176185771D01*
X213573630Y-176257200D01*
X213645058Y-176328629D01*
X213716487Y-176471486D01*
X213716487Y-176685771D01*
X213645058Y-176828629D01*
X213573630Y-176900057D01*
X213430772Y-176971486D01*
X212859344Y-176971486D01*
X214359344Y-176900057D02*
X214859344Y-176900057D01*
X215073630Y-177685771D02*
X214359344Y-177685771D01*
X214359344Y-176185771D01*
X215073630Y-176185771D01*
X215645058Y-177257200D02*
X216359344Y-177257200D01*
X215502201Y-177685771D02*
X216002201Y-176185771D01*
X216502201Y-177685771D01*
X216787915Y-176185771D02*
X217645058Y-176185771D01*
X217216487Y-177685771D02*
X217216487Y-176185771D01*
X218145058Y-177685771D02*
X218145058Y-176185771D01*
X218645058Y-176185771D02*
X219145058Y-177685771D01*
X219645058Y-176185771D01*
X220145058Y-176900057D02*
X220645058Y-176900057D01*
X220859344Y-177685771D02*
X220145058Y-177685771D01*
X220145058Y-176185771D01*
X220859344Y-176185771D01*
X223502201Y-177542914D02*
X223430772Y-177614343D01*
X223216486Y-177685771D01*
X223073629Y-177685771D01*
X222859344Y-177614343D01*
X222716486Y-177471486D01*
X222645058Y-177328629D01*
X222573629Y-177042914D01*
X222573629Y-176828629D01*
X222645058Y-176542914D01*
X222716486Y-176400057D01*
X222859344Y-176257200D01*
X223073629Y-176185771D01*
X223216486Y-176185771D01*
X223430772Y-176257200D01*
X223502201Y-176328629D01*
X224430772Y-176185771D02*
X224716486Y-176185771D01*
X224859344Y-176257200D01*
X225002201Y-176400057D01*
X225073629Y-176685771D01*
X225073629Y-177185771D01*
X225002201Y-177471486D01*
X224859344Y-177614343D01*
X224716486Y-177685771D01*
X224430772Y-177685771D01*
X224287915Y-177614343D01*
X224145058Y-177471486D01*
X224073629Y-177185771D01*
X224073629Y-176685771D01*
X224145058Y-176400057D01*
X224287915Y-176257200D01*
X224430772Y-176185771D01*
X225716487Y-177685771D02*
X225716487Y-176185771D01*
X226216487Y-177257200D01*
X226716487Y-176185771D01*
X226716487Y-177685771D01*
X227430773Y-177685771D02*
X227430773Y-176185771D01*
X227930773Y-177257200D01*
X228430773Y-176185771D01*
X228430773Y-177685771D01*
X229430773Y-176185771D02*
X229716487Y-176185771D01*
X229859345Y-176257200D01*
X230002202Y-176400057D01*
X230073630Y-176685771D01*
X230073630Y-177185771D01*
X230002202Y-177471486D01*
X229859345Y-177614343D01*
X229716487Y-177685771D01*
X229430773Y-177685771D01*
X229287916Y-177614343D01*
X229145059Y-177471486D01*
X229073630Y-177185771D01*
X229073630Y-176685771D01*
X229145059Y-176400057D01*
X229287916Y-176257200D01*
X229430773Y-176185771D01*
X230716488Y-177685771D02*
X230716488Y-176185771D01*
X231573631Y-177685771D01*
X231573631Y-176185771D01*
X232216488Y-177614343D02*
X232430774Y-177685771D01*
X232787917Y-177685771D01*
X232930774Y-177614343D01*
X233002203Y-177542914D01*
X233073631Y-177400057D01*
X233073631Y-177257200D01*
X233002203Y-177114343D01*
X232930774Y-177042914D01*
X232787917Y-176971486D01*
X232502203Y-176900057D01*
X232359345Y-176828629D01*
X232287917Y-176757200D01*
X232216488Y-176614343D01*
X232216488Y-176471486D01*
X232287917Y-176328629D01*
X232359345Y-176257200D01*
X232502203Y-176185771D01*
X232859345Y-176185771D01*
X233073631Y-176257200D01*
X235573631Y-177685771D02*
X234859345Y-177685771D01*
X234859345Y-176185771D01*
X236073631Y-177685771D02*
X236073631Y-176185771D01*
X237645060Y-177542914D02*
X237573631Y-177614343D01*
X237359345Y-177685771D01*
X237216488Y-177685771D01*
X237002203Y-177614343D01*
X236859345Y-177471486D01*
X236787917Y-177328629D01*
X236716488Y-177042914D01*
X236716488Y-176828629D01*
X236787917Y-176542914D01*
X236859345Y-176400057D01*
X237002203Y-176257200D01*
X237216488Y-176185771D01*
X237359345Y-176185771D01*
X237573631Y-176257200D01*
X237645060Y-176328629D01*
X238287917Y-176900057D02*
X238787917Y-176900057D01*
X239002203Y-177685771D02*
X238287917Y-177685771D01*
X238287917Y-176185771D01*
X239002203Y-176185771D01*
X239645060Y-177685771D02*
X239645060Y-176185771D01*
X240502203Y-177685771D01*
X240502203Y-176185771D01*
X241145060Y-177614343D02*
X241359346Y-177685771D01*
X241716489Y-177685771D01*
X241859346Y-177614343D01*
X241930775Y-177542914D01*
X242002203Y-177400057D01*
X242002203Y-177257200D01*
X241930775Y-177114343D01*
X241859346Y-177042914D01*
X241716489Y-176971486D01*
X241430775Y-176900057D01*
X241287917Y-176828629D01*
X241216489Y-176757200D01*
X241145060Y-176614343D01*
X241145060Y-176471486D01*
X241216489Y-176328629D01*
X241287917Y-176257200D01*
X241430775Y-176185771D01*
X241787917Y-176185771D01*
X242002203Y-176257200D01*
X242645060Y-176900057D02*
X243145060Y-176900057D01*
X243359346Y-177685771D02*
X242645060Y-177685771D01*
X242645060Y-176185771D01*
X243359346Y-176185771D01*
X245573631Y-178257200D02*
X245502203Y-178185771D01*
X245359346Y-177971486D01*
X245287917Y-177828629D01*
X245216488Y-177614343D01*
X245145060Y-177257200D01*
X245145060Y-176971486D01*
X245216488Y-176614343D01*
X245287917Y-176400057D01*
X245359346Y-176257200D01*
X245502203Y-176042914D01*
X245573631Y-175971486D01*
X247002203Y-177542914D02*
X246930774Y-177614343D01*
X246716488Y-177685771D01*
X246573631Y-177685771D01*
X246359346Y-177614343D01*
X246216488Y-177471486D01*
X246145060Y-177328629D01*
X246073631Y-177042914D01*
X246073631Y-176828629D01*
X246145060Y-176542914D01*
X246216488Y-176400057D01*
X246359346Y-176257200D01*
X246573631Y-176185771D01*
X246716488Y-176185771D01*
X246930774Y-176257200D01*
X247002203Y-176328629D01*
X248502203Y-177542914D02*
X248430774Y-177614343D01*
X248216488Y-177685771D01*
X248073631Y-177685771D01*
X247859346Y-177614343D01*
X247716488Y-177471486D01*
X247645060Y-177328629D01*
X247573631Y-177042914D01*
X247573631Y-176828629D01*
X247645060Y-176542914D01*
X247716488Y-176400057D01*
X247859346Y-176257200D01*
X248073631Y-176185771D01*
X248216488Y-176185771D01*
X248430774Y-176257200D01*
X248502203Y-176328629D01*
X250787917Y-176900057D02*
X251002203Y-176971486D01*
X251073631Y-177042914D01*
X251145060Y-177185771D01*
X251145060Y-177400057D01*
X251073631Y-177542914D01*
X251002203Y-177614343D01*
X250859345Y-177685771D01*
X250287917Y-177685771D01*
X250287917Y-176185771D01*
X250787917Y-176185771D01*
X250930774Y-176257200D01*
X251002203Y-176328629D01*
X251073631Y-176471486D01*
X251073631Y-176614343D01*
X251002203Y-176757200D01*
X250930774Y-176828629D01*
X250787917Y-176900057D01*
X250287917Y-176900057D01*
X252073631Y-176971486D02*
X252073631Y-177685771D01*
X251573631Y-176185771D02*
X252073631Y-176971486D01*
X252573631Y-176185771D01*
X254073631Y-176185771D02*
X255002202Y-176185771D01*
X254502202Y-176757200D01*
X254716488Y-176757200D01*
X254859345Y-176828629D01*
X254930774Y-176900057D01*
X255002202Y-177042914D01*
X255002202Y-177400057D01*
X254930774Y-177542914D01*
X254859345Y-177614343D01*
X254716488Y-177685771D01*
X254287916Y-177685771D01*
X254145059Y-177614343D01*
X254073631Y-177542914D01*
X255645059Y-177542914D02*
X255716487Y-177614343D01*
X255645059Y-177685771D01*
X255573630Y-177614343D01*
X255645059Y-177542914D01*
X255645059Y-177685771D01*
X256645059Y-176185771D02*
X256787916Y-176185771D01*
X256930773Y-176257200D01*
X257002202Y-176328629D01*
X257073631Y-176471486D01*
X257145059Y-176757200D01*
X257145059Y-177114343D01*
X257073631Y-177400057D01*
X257002202Y-177542914D01*
X256930773Y-177614343D01*
X256787916Y-177685771D01*
X256645059Y-177685771D01*
X256502202Y-177614343D01*
X256430773Y-177542914D01*
X256359345Y-177400057D01*
X256287916Y-177114343D01*
X256287916Y-176757200D01*
X256359345Y-176471486D01*
X256430773Y-176328629D01*
X256502202Y-176257200D01*
X256645059Y-176185771D01*
X257645059Y-178257200D02*
X257716487Y-178185771D01*
X257859344Y-177971486D01*
X257930773Y-177828629D01*
X258002202Y-177614343D01*
X258073630Y-177257200D01*
X258073630Y-176971486D01*
X258002202Y-176614343D01*
X257930773Y-176400057D01*
X257859344Y-176257200D01*
X257716487Y-176042914D01*
X257645059Y-175971486D01*
X197002200Y-191507200D02*
X197002200Y-194507200D01*
X261002200Y-191507200D02*
X261002200Y-198007200D01*
D13*
X173050000Y-93950000D02*
X181500000Y-93950000D01*
X172000000Y-95000000D02*
X173050000Y-93950000D01*
X173369048Y-93452381D02*
X173369048Y-92452381D01*
X173607143Y-92452381D01*
X173750001Y-92500000D01*
X173845239Y-92595238D01*
X173892858Y-92690476D01*
X173940477Y-92880952D01*
X173940477Y-93023810D01*
X173892858Y-93214286D01*
X173845239Y-93309524D01*
X173750001Y-93404762D01*
X173607143Y-93452381D01*
X173369048Y-93452381D01*
X174369048Y-92928571D02*
X175130953Y-92928571D01*
X175130953Y-93214286D02*
X174369048Y-93214286D01*
X176130953Y-93452381D02*
X175559524Y-93452381D01*
X175845238Y-93452381D02*
X175845238Y-92452381D01*
X175750000Y-92595238D01*
X175654762Y-92690476D01*
X175559524Y-92738095D01*
X176559524Y-93357143D02*
X176607143Y-93404762D01*
X176559524Y-93452381D01*
X176511905Y-93404762D01*
X176559524Y-93357143D01*
X176559524Y-93452381D01*
X177511905Y-92452381D02*
X177035714Y-92452381D01*
X176988095Y-92928571D01*
X177035714Y-92880952D01*
X177130952Y-92833333D01*
X177369048Y-92833333D01*
X177464286Y-92880952D01*
X177511905Y-92928571D01*
X177559524Y-93023810D01*
X177559524Y-93261905D01*
X177511905Y-93357143D01*
X177464286Y-93404762D01*
X177369048Y-93452381D01*
X177130952Y-93452381D01*
X177035714Y-93404762D01*
X176988095Y-93357143D01*
X178178571Y-92452381D02*
X178273810Y-92452381D01*
X178369048Y-92500000D01*
X178416667Y-92547619D01*
X178464286Y-92642857D01*
X178511905Y-92833333D01*
X178511905Y-93071429D01*
X178464286Y-93261905D01*
X178416667Y-93357143D01*
X178369048Y-93404762D01*
X178273810Y-93452381D01*
X178178571Y-93452381D01*
X178083333Y-93404762D01*
X178035714Y-93357143D01*
X177988095Y-93261905D01*
X177940476Y-93071429D01*
X177940476Y-92833333D01*
X177988095Y-92642857D01*
X178035714Y-92547619D01*
X178083333Y-92500000D01*
X178178571Y-92452381D01*
X178940476Y-93452381D02*
X178940476Y-92785714D01*
X178940476Y-92880952D02*
X178988095Y-92833333D01*
X179083333Y-92785714D01*
X179226191Y-92785714D01*
X179321429Y-92833333D01*
X179369048Y-92928571D01*
X179369048Y-93452381D01*
X179369048Y-92928571D02*
X179416667Y-92833333D01*
X179511905Y-92785714D01*
X179654762Y-92785714D01*
X179750000Y-92833333D01*
X179797619Y-92928571D01*
X179797619Y-93452381D01*
X180273809Y-93452381D02*
X180273809Y-92785714D01*
X180273809Y-92880952D02*
X180321428Y-92833333D01*
X180416666Y-92785714D01*
X180559524Y-92785714D01*
X180654762Y-92833333D01*
X180702381Y-92928571D01*
X180702381Y-93452381D01*
X180702381Y-92928571D02*
X180750000Y-92833333D01*
X180845238Y-92785714D01*
X180988095Y-92785714D01*
X181083333Y-92833333D01*
X181130952Y-92928571D01*
X181130952Y-93452381D01*
X207147619Y-114785715D02*
X207147619Y-115404763D01*
X206766667Y-115071429D01*
X206766667Y-115214287D01*
X206719048Y-115309525D01*
X206671429Y-115357144D01*
X206576190Y-115404763D01*
X206338095Y-115404763D01*
X206242857Y-115357144D01*
X206195238Y-115309525D01*
X206147619Y-115214287D01*
X206147619Y-114928572D01*
X206195238Y-114833334D01*
X206242857Y-114785715D01*
X206242857Y-115833334D02*
X206195238Y-115880953D01*
X206147619Y-115833334D01*
X206195238Y-115785715D01*
X206242857Y-115833334D01*
X206147619Y-115833334D01*
X207147619Y-116500000D02*
X207147619Y-116595239D01*
X207100000Y-116690477D01*
X207052381Y-116738096D01*
X206957143Y-116785715D01*
X206766667Y-116833334D01*
X206528571Y-116833334D01*
X206338095Y-116785715D01*
X206242857Y-116738096D01*
X206195238Y-116690477D01*
X206147619Y-116595239D01*
X206147619Y-116500000D01*
X206195238Y-116404762D01*
X206242857Y-116357143D01*
X206338095Y-116309524D01*
X206528571Y-116261905D01*
X206766667Y-116261905D01*
X206957143Y-116309524D01*
X207052381Y-116357143D01*
X207100000Y-116404762D01*
X207147619Y-116500000D01*
X207147619Y-117452381D02*
X207147619Y-117547620D01*
X207100000Y-117642858D01*
X207052381Y-117690477D01*
X206957143Y-117738096D01*
X206766667Y-117785715D01*
X206528571Y-117785715D01*
X206338095Y-117738096D01*
X206242857Y-117690477D01*
X206195238Y-117642858D01*
X206147619Y-117547620D01*
X206147619Y-117452381D01*
X206195238Y-117357143D01*
X206242857Y-117309524D01*
X206338095Y-117261905D01*
X206528571Y-117214286D01*
X206766667Y-117214286D01*
X206957143Y-117261905D01*
X207052381Y-117309524D01*
X207100000Y-117357143D01*
X207147619Y-117452381D01*
X207147619Y-118404762D02*
X207147619Y-118500001D01*
X207100000Y-118595239D01*
X207052381Y-118642858D01*
X206957143Y-118690477D01*
X206766667Y-118738096D01*
X206528571Y-118738096D01*
X206338095Y-118690477D01*
X206242857Y-118642858D01*
X206195238Y-118595239D01*
X206147619Y-118500001D01*
X206147619Y-118404762D01*
X206195238Y-118309524D01*
X206242857Y-118261905D01*
X206338095Y-118214286D01*
X206528571Y-118166667D01*
X206766667Y-118166667D01*
X206957143Y-118214286D01*
X207052381Y-118261905D01*
X207100000Y-118309524D01*
X207147619Y-118404762D01*
X206147619Y-119928572D02*
X206814286Y-119928572D01*
X206719048Y-119928572D02*
X206766667Y-119976191D01*
X206814286Y-120071429D01*
X206814286Y-120214287D01*
X206766667Y-120309525D01*
X206671429Y-120357144D01*
X206147619Y-120357144D01*
X206671429Y-120357144D02*
X206766667Y-120404763D01*
X206814286Y-120500001D01*
X206814286Y-120642858D01*
X206766667Y-120738096D01*
X206671429Y-120785715D01*
X206147619Y-120785715D01*
X206147619Y-121261905D02*
X206814286Y-121261905D01*
X206719048Y-121261905D02*
X206766667Y-121309524D01*
X206814286Y-121404762D01*
X206814286Y-121547620D01*
X206766667Y-121642858D01*
X206671429Y-121690477D01*
X206147619Y-121690477D01*
X206671429Y-121690477D02*
X206766667Y-121738096D01*
X206814286Y-121833334D01*
X206814286Y-121976191D01*
X206766667Y-122071429D01*
X206671429Y-122119048D01*
X206147619Y-122119048D01*
X205700000Y-117000000D02*
X205700000Y-120000000D01*
X198000000Y-117000000D02*
X207500000Y-117000000D01*
X198000000Y-120000000D02*
X207500000Y-120000000D01*
X205700000Y-120000000D02*
X205113579Y-118873496D01*
X205700000Y-120000000D02*
X206286421Y-118873496D01*
X205700000Y-117000000D02*
X205113579Y-118126504D01*
X205700000Y-117000000D02*
X206286421Y-118126504D01*
X195654763Y-122152380D02*
X195083334Y-122152380D01*
X195369048Y-122152380D02*
X195369048Y-121152380D01*
X195273810Y-121295237D01*
X195178572Y-121390475D01*
X195083334Y-121438094D01*
X196083334Y-122057142D02*
X196130953Y-122104761D01*
X196083334Y-122152380D01*
X196035715Y-122104761D01*
X196083334Y-122057142D01*
X196083334Y-122152380D01*
X197035715Y-121152380D02*
X196559524Y-121152380D01*
X196511905Y-121628570D01*
X196559524Y-121580951D01*
X196654762Y-121533332D01*
X196892858Y-121533332D01*
X196988096Y-121580951D01*
X197035715Y-121628570D01*
X197083334Y-121723809D01*
X197083334Y-121961904D01*
X197035715Y-122057142D01*
X196988096Y-122104761D01*
X196892858Y-122152380D01*
X196654762Y-122152380D01*
X196559524Y-122104761D01*
X196511905Y-122057142D01*
X197702381Y-121152380D02*
X197797620Y-121152380D01*
X197892858Y-121199999D01*
X197940477Y-121247618D01*
X197988096Y-121342856D01*
X198035715Y-121533332D01*
X198035715Y-121771428D01*
X197988096Y-121961904D01*
X197940477Y-122057142D01*
X197892858Y-122104761D01*
X197797620Y-122152380D01*
X197702381Y-122152380D01*
X197607143Y-122104761D01*
X197559524Y-122057142D01*
X197511905Y-121961904D01*
X197464286Y-121771428D01*
X197464286Y-121533332D01*
X197511905Y-121342856D01*
X197559524Y-121247618D01*
X197607143Y-121199999D01*
X197702381Y-121152380D01*
X198654762Y-121152380D02*
X198750001Y-121152380D01*
X198845239Y-121199999D01*
X198892858Y-121247618D01*
X198940477Y-121342856D01*
X198988096Y-121533332D01*
X198988096Y-121771428D01*
X198940477Y-121961904D01*
X198892858Y-122057142D01*
X198845239Y-122104761D01*
X198750001Y-122152380D01*
X198654762Y-122152380D01*
X198559524Y-122104761D01*
X198511905Y-122057142D01*
X198464286Y-121961904D01*
X198416667Y-121771428D01*
X198416667Y-121533332D01*
X198464286Y-121342856D01*
X198511905Y-121247618D01*
X198559524Y-121199999D01*
X198654762Y-121152380D01*
X200178572Y-122152380D02*
X200178572Y-121485713D01*
X200178572Y-121580951D02*
X200226191Y-121533332D01*
X200321429Y-121485713D01*
X200464287Y-121485713D01*
X200559525Y-121533332D01*
X200607144Y-121628570D01*
X200607144Y-122152380D01*
X200607144Y-121628570D02*
X200654763Y-121533332D01*
X200750001Y-121485713D01*
X200892858Y-121485713D01*
X200988096Y-121533332D01*
X201035715Y-121628570D01*
X201035715Y-122152380D01*
X201511905Y-122152380D02*
X201511905Y-121485713D01*
X201511905Y-121580951D02*
X201559524Y-121533332D01*
X201654762Y-121485713D01*
X201797620Y-121485713D01*
X201892858Y-121533332D01*
X201940477Y-121628570D01*
X201940477Y-122152380D01*
X201940477Y-121628570D02*
X201988096Y-121533332D01*
X202083334Y-121485713D01*
X202226191Y-121485713D01*
X202321429Y-121533332D01*
X202369048Y-121628570D01*
X202369048Y-122152380D01*
X198000000Y-120799999D02*
X199500000Y-120799999D01*
X198000000Y-117000000D02*
X198000000Y-122599999D01*
X199500000Y-117000000D02*
X199500000Y-122599999D01*
X199500000Y-120799999D02*
X198373496Y-121386420D01*
X199500000Y-120799999D02*
X198373496Y-120213578D01*
X198000000Y-120799999D02*
X199126504Y-121386420D01*
X198000000Y-120799999D02*
X199126504Y-120213578D01*
X195654763Y-90452382D02*
X195083334Y-90452382D01*
X195369048Y-90452382D02*
X195369048Y-89452382D01*
X195273810Y-89595239D01*
X195178572Y-89690477D01*
X195083334Y-89738096D01*
X196083334Y-90357144D02*
X196130953Y-90404763D01*
X196083334Y-90452382D01*
X196035715Y-90404763D01*
X196083334Y-90357144D01*
X196083334Y-90452382D01*
X197035715Y-89452382D02*
X196559524Y-89452382D01*
X196511905Y-89928572D01*
X196559524Y-89880953D01*
X196654762Y-89833334D01*
X196892858Y-89833334D01*
X196988096Y-89880953D01*
X197035715Y-89928572D01*
X197083334Y-90023811D01*
X197083334Y-90261906D01*
X197035715Y-90357144D01*
X196988096Y-90404763D01*
X196892858Y-90452382D01*
X196654762Y-90452382D01*
X196559524Y-90404763D01*
X196511905Y-90357144D01*
X197702381Y-89452382D02*
X197797620Y-89452382D01*
X197892858Y-89500001D01*
X197940477Y-89547620D01*
X197988096Y-89642858D01*
X198035715Y-89833334D01*
X198035715Y-90071430D01*
X197988096Y-90261906D01*
X197940477Y-90357144D01*
X197892858Y-90404763D01*
X197797620Y-90452382D01*
X197702381Y-90452382D01*
X197607143Y-90404763D01*
X197559524Y-90357144D01*
X197511905Y-90261906D01*
X197464286Y-90071430D01*
X197464286Y-89833334D01*
X197511905Y-89642858D01*
X197559524Y-89547620D01*
X197607143Y-89500001D01*
X197702381Y-89452382D01*
X198654762Y-89452382D02*
X198750001Y-89452382D01*
X198845239Y-89500001D01*
X198892858Y-89547620D01*
X198940477Y-89642858D01*
X198988096Y-89833334D01*
X198988096Y-90071430D01*
X198940477Y-90261906D01*
X198892858Y-90357144D01*
X198845239Y-90404763D01*
X198750001Y-90452382D01*
X198654762Y-90452382D01*
X198559524Y-90404763D01*
X198511905Y-90357144D01*
X198464286Y-90261906D01*
X198416667Y-90071430D01*
X198416667Y-89833334D01*
X198464286Y-89642858D01*
X198511905Y-89547620D01*
X198559524Y-89500001D01*
X198654762Y-89452382D01*
X200178572Y-90452382D02*
X200178572Y-89785715D01*
X200178572Y-89880953D02*
X200226191Y-89833334D01*
X200321429Y-89785715D01*
X200464287Y-89785715D01*
X200559525Y-89833334D01*
X200607144Y-89928572D01*
X200607144Y-90452382D01*
X200607144Y-89928572D02*
X200654763Y-89833334D01*
X200750001Y-89785715D01*
X200892858Y-89785715D01*
X200988096Y-89833334D01*
X201035715Y-89928572D01*
X201035715Y-90452382D01*
X201511905Y-90452382D02*
X201511905Y-89785715D01*
X201511905Y-89880953D02*
X201559524Y-89833334D01*
X201654762Y-89785715D01*
X201797620Y-89785715D01*
X201892858Y-89833334D01*
X201940477Y-89928572D01*
X201940477Y-90452382D01*
X201940477Y-89928572D02*
X201988096Y-89833334D01*
X202083334Y-89785715D01*
X202226191Y-89785715D01*
X202321429Y-89833334D01*
X202369048Y-89928572D01*
X202369048Y-90452382D01*
X198000000Y-90900001D02*
X199500000Y-90900001D01*
X198000000Y-95000000D02*
X198000000Y-89100001D01*
X199500000Y-95000000D02*
X199500000Y-89100001D01*
X199500000Y-90900001D02*
X198373496Y-91486422D01*
X199500000Y-90900001D02*
X198373496Y-90313580D01*
X198000000Y-90900001D02*
X199126504Y-91486422D01*
X198000000Y-90900001D02*
X199126504Y-90313580D01*
X206252380Y-97214285D02*
X206252380Y-96595237D01*
X206633332Y-96928571D01*
X206633332Y-96785713D01*
X206680951Y-96690475D01*
X206728570Y-96642856D01*
X206823809Y-96595237D01*
X207061904Y-96595237D01*
X207157142Y-96642856D01*
X207204761Y-96690475D01*
X207252380Y-96785713D01*
X207252380Y-97071428D01*
X207204761Y-97166666D01*
X207157142Y-97214285D01*
X207157142Y-96166666D02*
X207204761Y-96119047D01*
X207252380Y-96166666D01*
X207204761Y-96214285D01*
X207157142Y-96166666D01*
X207252380Y-96166666D01*
X206252380Y-95500000D02*
X206252380Y-95404761D01*
X206299999Y-95309523D01*
X206347618Y-95261904D01*
X206442856Y-95214285D01*
X206633332Y-95166666D01*
X206871428Y-95166666D01*
X207061904Y-95214285D01*
X207157142Y-95261904D01*
X207204761Y-95309523D01*
X207252380Y-95404761D01*
X207252380Y-95500000D01*
X207204761Y-95595238D01*
X207157142Y-95642857D01*
X207061904Y-95690476D01*
X206871428Y-95738095D01*
X206633332Y-95738095D01*
X206442856Y-95690476D01*
X206347618Y-95642857D01*
X206299999Y-95595238D01*
X206252380Y-95500000D01*
X206252380Y-94547619D02*
X206252380Y-94452380D01*
X206299999Y-94357142D01*
X206347618Y-94309523D01*
X206442856Y-94261904D01*
X206633332Y-94214285D01*
X206871428Y-94214285D01*
X207061904Y-94261904D01*
X207157142Y-94309523D01*
X207204761Y-94357142D01*
X207252380Y-94452380D01*
X207252380Y-94547619D01*
X207204761Y-94642857D01*
X207157142Y-94690476D01*
X207061904Y-94738095D01*
X206871428Y-94785714D01*
X206633332Y-94785714D01*
X206442856Y-94738095D01*
X206347618Y-94690476D01*
X206299999Y-94642857D01*
X206252380Y-94547619D01*
X206252380Y-93595238D02*
X206252380Y-93499999D01*
X206299999Y-93404761D01*
X206347618Y-93357142D01*
X206442856Y-93309523D01*
X206633332Y-93261904D01*
X206871428Y-93261904D01*
X207061904Y-93309523D01*
X207157142Y-93357142D01*
X207204761Y-93404761D01*
X207252380Y-93499999D01*
X207252380Y-93595238D01*
X207204761Y-93690476D01*
X207157142Y-93738095D01*
X207061904Y-93785714D01*
X206871428Y-93833333D01*
X206633332Y-93833333D01*
X206442856Y-93785714D01*
X206347618Y-93738095D01*
X206299999Y-93690476D01*
X206252380Y-93595238D01*
X207252380Y-92071428D02*
X206585713Y-92071428D01*
X206680951Y-92071428D02*
X206633332Y-92023809D01*
X206585713Y-91928571D01*
X206585713Y-91785713D01*
X206633332Y-91690475D01*
X206728570Y-91642856D01*
X207252380Y-91642856D01*
X206728570Y-91642856D02*
X206633332Y-91595237D01*
X206585713Y-91499999D01*
X206585713Y-91357142D01*
X206633332Y-91261904D01*
X206728570Y-91214285D01*
X207252380Y-91214285D01*
X207252380Y-90738095D02*
X206585713Y-90738095D01*
X206680951Y-90738095D02*
X206633332Y-90690476D01*
X206585713Y-90595238D01*
X206585713Y-90452380D01*
X206633332Y-90357142D01*
X206728570Y-90309523D01*
X207252380Y-90309523D01*
X206728570Y-90309523D02*
X206633332Y-90261904D01*
X206585713Y-90166666D01*
X206585713Y-90023809D01*
X206633332Y-89928571D01*
X206728570Y-89880952D01*
X207252380Y-89880952D01*
X205899999Y-95000000D02*
X205899999Y-92000000D01*
X198000000Y-95000000D02*
X207699999Y-95000000D01*
X198000000Y-92000000D02*
X207699999Y-92000000D01*
X205899999Y-92000000D02*
X206486420Y-93126504D01*
X205899999Y-92000000D02*
X205313578Y-93126504D01*
X205899999Y-95000000D02*
X206486420Y-93873496D01*
X205899999Y-95000000D02*
X205313578Y-93873496D01*
X168154763Y-122452380D02*
X167583334Y-122452380D01*
X167869048Y-122452380D02*
X167869048Y-121452380D01*
X167773810Y-121595237D01*
X167678572Y-121690475D01*
X167583334Y-121738094D01*
X168583334Y-122357142D02*
X168630953Y-122404761D01*
X168583334Y-122452380D01*
X168535715Y-122404761D01*
X168583334Y-122357142D01*
X168583334Y-122452380D01*
X169535715Y-121452380D02*
X169059524Y-121452380D01*
X169011905Y-121928570D01*
X169059524Y-121880951D01*
X169154762Y-121833332D01*
X169392858Y-121833332D01*
X169488096Y-121880951D01*
X169535715Y-121928570D01*
X169583334Y-122023809D01*
X169583334Y-122261904D01*
X169535715Y-122357142D01*
X169488096Y-122404761D01*
X169392858Y-122452380D01*
X169154762Y-122452380D01*
X169059524Y-122404761D01*
X169011905Y-122357142D01*
X170202381Y-121452380D02*
X170297620Y-121452380D01*
X170392858Y-121499999D01*
X170440477Y-121547618D01*
X170488096Y-121642856D01*
X170535715Y-121833332D01*
X170535715Y-122071428D01*
X170488096Y-122261904D01*
X170440477Y-122357142D01*
X170392858Y-122404761D01*
X170297620Y-122452380D01*
X170202381Y-122452380D01*
X170107143Y-122404761D01*
X170059524Y-122357142D01*
X170011905Y-122261904D01*
X169964286Y-122071428D01*
X169964286Y-121833332D01*
X170011905Y-121642856D01*
X170059524Y-121547618D01*
X170107143Y-121499999D01*
X170202381Y-121452380D01*
X171154762Y-121452380D02*
X171250001Y-121452380D01*
X171345239Y-121499999D01*
X171392858Y-121547618D01*
X171440477Y-121642856D01*
X171488096Y-121833332D01*
X171488096Y-122071428D01*
X171440477Y-122261904D01*
X171392858Y-122357142D01*
X171345239Y-122404761D01*
X171250001Y-122452380D01*
X171154762Y-122452380D01*
X171059524Y-122404761D01*
X171011905Y-122357142D01*
X170964286Y-122261904D01*
X170916667Y-122071428D01*
X170916667Y-121833332D01*
X170964286Y-121642856D01*
X171011905Y-121547618D01*
X171059524Y-121499999D01*
X171154762Y-121452380D01*
X172678572Y-122452380D02*
X172678572Y-121785713D01*
X172678572Y-121880951D02*
X172726191Y-121833332D01*
X172821429Y-121785713D01*
X172964287Y-121785713D01*
X173059525Y-121833332D01*
X173107144Y-121928570D01*
X173107144Y-122452380D01*
X173107144Y-121928570D02*
X173154763Y-121833332D01*
X173250001Y-121785713D01*
X173392858Y-121785713D01*
X173488096Y-121833332D01*
X173535715Y-121928570D01*
X173535715Y-122452380D01*
X174011905Y-122452380D02*
X174011905Y-121785713D01*
X174011905Y-121880951D02*
X174059524Y-121833332D01*
X174154762Y-121785713D01*
X174297620Y-121785713D01*
X174392858Y-121833332D01*
X174440477Y-121928570D01*
X174440477Y-122452380D01*
X174440477Y-121928570D02*
X174488096Y-121833332D01*
X174583334Y-121785713D01*
X174726191Y-121785713D01*
X174821429Y-121833332D01*
X174869048Y-121928570D01*
X174869048Y-122452380D01*
X172000000Y-121099999D02*
X170500000Y-121099999D01*
X172000000Y-117000000D02*
X172000000Y-122899999D01*
X170500000Y-117000000D02*
X170500000Y-122899999D01*
X170500000Y-121099999D02*
X171626504Y-120513578D01*
X170500000Y-121099999D02*
X171626504Y-121686420D01*
X172000000Y-121099999D02*
X170873496Y-120513578D01*
X172000000Y-121099999D02*
X170873496Y-121686420D01*
X163747620Y-114785715D02*
X163747620Y-115404763D01*
X163366668Y-115071429D01*
X163366668Y-115214287D01*
X163319049Y-115309525D01*
X163271430Y-115357144D01*
X163176191Y-115404763D01*
X162938096Y-115404763D01*
X162842858Y-115357144D01*
X162795239Y-115309525D01*
X162747620Y-115214287D01*
X162747620Y-114928572D01*
X162795239Y-114833334D01*
X162842858Y-114785715D01*
X162842858Y-115833334D02*
X162795239Y-115880953D01*
X162747620Y-115833334D01*
X162795239Y-115785715D01*
X162842858Y-115833334D01*
X162747620Y-115833334D01*
X163747620Y-116500000D02*
X163747620Y-116595239D01*
X163700001Y-116690477D01*
X163652382Y-116738096D01*
X163557144Y-116785715D01*
X163366668Y-116833334D01*
X163128572Y-116833334D01*
X162938096Y-116785715D01*
X162842858Y-116738096D01*
X162795239Y-116690477D01*
X162747620Y-116595239D01*
X162747620Y-116500000D01*
X162795239Y-116404762D01*
X162842858Y-116357143D01*
X162938096Y-116309524D01*
X163128572Y-116261905D01*
X163366668Y-116261905D01*
X163557144Y-116309524D01*
X163652382Y-116357143D01*
X163700001Y-116404762D01*
X163747620Y-116500000D01*
X163747620Y-117452381D02*
X163747620Y-117547620D01*
X163700001Y-117642858D01*
X163652382Y-117690477D01*
X163557144Y-117738096D01*
X163366668Y-117785715D01*
X163128572Y-117785715D01*
X162938096Y-117738096D01*
X162842858Y-117690477D01*
X162795239Y-117642858D01*
X162747620Y-117547620D01*
X162747620Y-117452381D01*
X162795239Y-117357143D01*
X162842858Y-117309524D01*
X162938096Y-117261905D01*
X163128572Y-117214286D01*
X163366668Y-117214286D01*
X163557144Y-117261905D01*
X163652382Y-117309524D01*
X163700001Y-117357143D01*
X163747620Y-117452381D01*
X163747620Y-118404762D02*
X163747620Y-118500001D01*
X163700001Y-118595239D01*
X163652382Y-118642858D01*
X163557144Y-118690477D01*
X163366668Y-118738096D01*
X163128572Y-118738096D01*
X162938096Y-118690477D01*
X162842858Y-118642858D01*
X162795239Y-118595239D01*
X162747620Y-118500001D01*
X162747620Y-118404762D01*
X162795239Y-118309524D01*
X162842858Y-118261905D01*
X162938096Y-118214286D01*
X163128572Y-118166667D01*
X163366668Y-118166667D01*
X163557144Y-118214286D01*
X163652382Y-118261905D01*
X163700001Y-118309524D01*
X163747620Y-118404762D01*
X162747620Y-119928572D02*
X163414287Y-119928572D01*
X163319049Y-119928572D02*
X163366668Y-119976191D01*
X163414287Y-120071429D01*
X163414287Y-120214287D01*
X163366668Y-120309525D01*
X163271430Y-120357144D01*
X162747620Y-120357144D01*
X163271430Y-120357144D02*
X163366668Y-120404763D01*
X163414287Y-120500001D01*
X163414287Y-120642858D01*
X163366668Y-120738096D01*
X163271430Y-120785715D01*
X162747620Y-120785715D01*
X162747620Y-121261905D02*
X163414287Y-121261905D01*
X163319049Y-121261905D02*
X163366668Y-121309524D01*
X163414287Y-121404762D01*
X163414287Y-121547620D01*
X163366668Y-121642858D01*
X163271430Y-121690477D01*
X162747620Y-121690477D01*
X163271430Y-121690477D02*
X163366668Y-121738096D01*
X163414287Y-121833334D01*
X163414287Y-121976191D01*
X163366668Y-122071429D01*
X163271430Y-122119048D01*
X162747620Y-122119048D01*
X164100001Y-117000000D02*
X164100001Y-120000000D01*
X172000000Y-117000000D02*
X162300001Y-117000000D01*
X172000000Y-120000000D02*
X162300001Y-120000000D01*
X164100001Y-120000000D02*
X163513580Y-118873496D01*
X164100001Y-120000000D02*
X164686422Y-118873496D01*
X164100001Y-117000000D02*
X163513580Y-118126504D01*
X164100001Y-117000000D02*
X164686422Y-118126504D01*
X168154763Y-89752382D02*
X167583334Y-89752382D01*
X167869048Y-89752382D02*
X167869048Y-88752382D01*
X167773810Y-88895239D01*
X167678572Y-88990477D01*
X167583334Y-89038096D01*
X168583334Y-89657144D02*
X168630953Y-89704763D01*
X168583334Y-89752382D01*
X168535715Y-89704763D01*
X168583334Y-89657144D01*
X168583334Y-89752382D01*
X169535715Y-88752382D02*
X169059524Y-88752382D01*
X169011905Y-89228572D01*
X169059524Y-89180953D01*
X169154762Y-89133334D01*
X169392858Y-89133334D01*
X169488096Y-89180953D01*
X169535715Y-89228572D01*
X169583334Y-89323811D01*
X169583334Y-89561906D01*
X169535715Y-89657144D01*
X169488096Y-89704763D01*
X169392858Y-89752382D01*
X169154762Y-89752382D01*
X169059524Y-89704763D01*
X169011905Y-89657144D01*
X170202381Y-88752382D02*
X170297620Y-88752382D01*
X170392858Y-88800001D01*
X170440477Y-88847620D01*
X170488096Y-88942858D01*
X170535715Y-89133334D01*
X170535715Y-89371430D01*
X170488096Y-89561906D01*
X170440477Y-89657144D01*
X170392858Y-89704763D01*
X170297620Y-89752382D01*
X170202381Y-89752382D01*
X170107143Y-89704763D01*
X170059524Y-89657144D01*
X170011905Y-89561906D01*
X169964286Y-89371430D01*
X169964286Y-89133334D01*
X170011905Y-88942858D01*
X170059524Y-88847620D01*
X170107143Y-88800001D01*
X170202381Y-88752382D01*
X171154762Y-88752382D02*
X171250001Y-88752382D01*
X171345239Y-88800001D01*
X171392858Y-88847620D01*
X171440477Y-88942858D01*
X171488096Y-89133334D01*
X171488096Y-89371430D01*
X171440477Y-89561906D01*
X171392858Y-89657144D01*
X171345239Y-89704763D01*
X171250001Y-89752382D01*
X171154762Y-89752382D01*
X171059524Y-89704763D01*
X171011905Y-89657144D01*
X170964286Y-89561906D01*
X170916667Y-89371430D01*
X170916667Y-89133334D01*
X170964286Y-88942858D01*
X171011905Y-88847620D01*
X171059524Y-88800001D01*
X171154762Y-88752382D01*
X172678572Y-89752382D02*
X172678572Y-89085715D01*
X172678572Y-89180953D02*
X172726191Y-89133334D01*
X172821429Y-89085715D01*
X172964287Y-89085715D01*
X173059525Y-89133334D01*
X173107144Y-89228572D01*
X173107144Y-89752382D01*
X173107144Y-89228572D02*
X173154763Y-89133334D01*
X173250001Y-89085715D01*
X173392858Y-89085715D01*
X173488096Y-89133334D01*
X173535715Y-89228572D01*
X173535715Y-89752382D01*
X174011905Y-89752382D02*
X174011905Y-89085715D01*
X174011905Y-89180953D02*
X174059524Y-89133334D01*
X174154762Y-89085715D01*
X174297620Y-89085715D01*
X174392858Y-89133334D01*
X174440477Y-89228572D01*
X174440477Y-89752382D01*
X174440477Y-89228572D02*
X174488096Y-89133334D01*
X174583334Y-89085715D01*
X174726191Y-89085715D01*
X174821429Y-89133334D01*
X174869048Y-89228572D01*
X174869048Y-89752382D01*
X172000000Y-90200001D02*
X170500000Y-90200001D01*
X172000000Y-95000000D02*
X172000000Y-88400001D01*
X170500000Y-95000000D02*
X170500000Y-88400001D01*
X170500000Y-90200001D02*
X171626504Y-89613580D01*
X170500000Y-90200001D02*
X171626504Y-90786422D01*
X172000000Y-90200001D02*
X170873496Y-89613580D01*
X172000000Y-90200001D02*
X170873496Y-90786422D01*
X162652382Y-97214285D02*
X162652382Y-96595237D01*
X163033334Y-96928571D01*
X163033334Y-96785713D01*
X163080953Y-96690475D01*
X163128572Y-96642856D01*
X163223811Y-96595237D01*
X163461906Y-96595237D01*
X163557144Y-96642856D01*
X163604763Y-96690475D01*
X163652382Y-96785713D01*
X163652382Y-97071428D01*
X163604763Y-97166666D01*
X163557144Y-97214285D01*
X163557144Y-96166666D02*
X163604763Y-96119047D01*
X163652382Y-96166666D01*
X163604763Y-96214285D01*
X163557144Y-96166666D01*
X163652382Y-96166666D01*
X162652382Y-95500000D02*
X162652382Y-95404761D01*
X162700001Y-95309523D01*
X162747620Y-95261904D01*
X162842858Y-95214285D01*
X163033334Y-95166666D01*
X163271430Y-95166666D01*
X163461906Y-95214285D01*
X163557144Y-95261904D01*
X163604763Y-95309523D01*
X163652382Y-95404761D01*
X163652382Y-95500000D01*
X163604763Y-95595238D01*
X163557144Y-95642857D01*
X163461906Y-95690476D01*
X163271430Y-95738095D01*
X163033334Y-95738095D01*
X162842858Y-95690476D01*
X162747620Y-95642857D01*
X162700001Y-95595238D01*
X162652382Y-95500000D01*
X162652382Y-94547619D02*
X162652382Y-94452380D01*
X162700001Y-94357142D01*
X162747620Y-94309523D01*
X162842858Y-94261904D01*
X163033334Y-94214285D01*
X163271430Y-94214285D01*
X163461906Y-94261904D01*
X163557144Y-94309523D01*
X163604763Y-94357142D01*
X163652382Y-94452380D01*
X163652382Y-94547619D01*
X163604763Y-94642857D01*
X163557144Y-94690476D01*
X163461906Y-94738095D01*
X163271430Y-94785714D01*
X163033334Y-94785714D01*
X162842858Y-94738095D01*
X162747620Y-94690476D01*
X162700001Y-94642857D01*
X162652382Y-94547619D01*
X162652382Y-93595238D02*
X162652382Y-93499999D01*
X162700001Y-93404761D01*
X162747620Y-93357142D01*
X162842858Y-93309523D01*
X163033334Y-93261904D01*
X163271430Y-93261904D01*
X163461906Y-93309523D01*
X163557144Y-93357142D01*
X163604763Y-93404761D01*
X163652382Y-93499999D01*
X163652382Y-93595238D01*
X163604763Y-93690476D01*
X163557144Y-93738095D01*
X163461906Y-93785714D01*
X163271430Y-93833333D01*
X163033334Y-93833333D01*
X162842858Y-93785714D01*
X162747620Y-93738095D01*
X162700001Y-93690476D01*
X162652382Y-93595238D01*
X163652382Y-92071428D02*
X162985715Y-92071428D01*
X163080953Y-92071428D02*
X163033334Y-92023809D01*
X162985715Y-91928571D01*
X162985715Y-91785713D01*
X163033334Y-91690475D01*
X163128572Y-91642856D01*
X163652382Y-91642856D01*
X163128572Y-91642856D02*
X163033334Y-91595237D01*
X162985715Y-91499999D01*
X162985715Y-91357142D01*
X163033334Y-91261904D01*
X163128572Y-91214285D01*
X163652382Y-91214285D01*
X163652382Y-90738095D02*
X162985715Y-90738095D01*
X163080953Y-90738095D02*
X163033334Y-90690476D01*
X162985715Y-90595238D01*
X162985715Y-90452380D01*
X163033334Y-90357142D01*
X163128572Y-90309523D01*
X163652382Y-90309523D01*
X163128572Y-90309523D02*
X163033334Y-90261904D01*
X162985715Y-90166666D01*
X162985715Y-90023809D01*
X163033334Y-89928571D01*
X163128572Y-89880952D01*
X163652382Y-89880952D01*
X164100001Y-95000000D02*
X164100001Y-92000000D01*
X172000000Y-95000000D02*
X162300001Y-95000000D01*
X172000000Y-92000000D02*
X162300001Y-92000000D01*
X164100001Y-92000000D02*
X164686422Y-93126504D01*
X164100001Y-92000000D02*
X163513580Y-93126504D01*
X164100001Y-95000000D02*
X164686422Y-93873496D01*
X164100001Y-95000000D02*
X163513580Y-93873496D01*
X180857143Y-75147619D02*
X180904762Y-75100000D01*
X181000000Y-75052381D01*
X181238096Y-75052381D01*
X181333334Y-75100000D01*
X181380953Y-75147619D01*
X181428572Y-75242857D01*
X181428572Y-75338095D01*
X181380953Y-75480952D01*
X180809524Y-76052381D01*
X181428572Y-76052381D01*
X181904762Y-76052381D02*
X182095238Y-76052381D01*
X182190477Y-76004762D01*
X182238096Y-75957143D01*
X182333334Y-75814286D01*
X182380953Y-75623810D01*
X182380953Y-75242857D01*
X182333334Y-75147619D01*
X182285715Y-75100000D01*
X182190477Y-75052381D01*
X182000000Y-75052381D01*
X181904762Y-75100000D01*
X181857143Y-75147619D01*
X181809524Y-75242857D01*
X181809524Y-75480952D01*
X181857143Y-75576190D01*
X181904762Y-75623810D01*
X182000000Y-75671429D01*
X182190477Y-75671429D01*
X182285715Y-75623810D01*
X182333334Y-75576190D01*
X182380953Y-75480952D01*
X182809524Y-75957143D02*
X182857143Y-76004762D01*
X182809524Y-76052381D01*
X182761905Y-76004762D01*
X182809524Y-75957143D01*
X182809524Y-76052381D01*
X183476190Y-75052381D02*
X183571429Y-75052381D01*
X183666667Y-75100000D01*
X183714286Y-75147619D01*
X183761905Y-75242857D01*
X183809524Y-75433333D01*
X183809524Y-75671429D01*
X183761905Y-75861905D01*
X183714286Y-75957143D01*
X183666667Y-76004762D01*
X183571429Y-76052381D01*
X183476190Y-76052381D01*
X183380952Y-76004762D01*
X183333333Y-75957143D01*
X183285714Y-75861905D01*
X183238095Y-75671429D01*
X183238095Y-75433333D01*
X183285714Y-75242857D01*
X183333333Y-75147619D01*
X183380952Y-75100000D01*
X183476190Y-75052381D01*
X184428571Y-75052381D02*
X184523810Y-75052381D01*
X184619048Y-75100000D01*
X184666667Y-75147619D01*
X184714286Y-75242857D01*
X184761905Y-75433333D01*
X184761905Y-75671429D01*
X184714286Y-75861905D01*
X184666667Y-75957143D01*
X184619048Y-76004762D01*
X184523810Y-76052381D01*
X184428571Y-76052381D01*
X184333333Y-76004762D01*
X184285714Y-75957143D01*
X184238095Y-75861905D01*
X184190476Y-75671429D01*
X184190476Y-75433333D01*
X184238095Y-75242857D01*
X184285714Y-75147619D01*
X184333333Y-75100000D01*
X184428571Y-75052381D01*
X185380952Y-75052381D02*
X185476191Y-75052381D01*
X185571429Y-75100000D01*
X185619048Y-75147619D01*
X185666667Y-75242857D01*
X185714286Y-75433333D01*
X185714286Y-75671429D01*
X185666667Y-75861905D01*
X185619048Y-75957143D01*
X185571429Y-76004762D01*
X185476191Y-76052381D01*
X185380952Y-76052381D01*
X185285714Y-76004762D01*
X185238095Y-75957143D01*
X185190476Y-75861905D01*
X185142857Y-75671429D01*
X185142857Y-75433333D01*
X185190476Y-75242857D01*
X185238095Y-75147619D01*
X185285714Y-75100000D01*
X185380952Y-75052381D01*
X186904762Y-76052381D02*
X186904762Y-75385714D01*
X186904762Y-75480952D02*
X186952381Y-75433333D01*
X187047619Y-75385714D01*
X187190477Y-75385714D01*
X187285715Y-75433333D01*
X187333334Y-75528571D01*
X187333334Y-76052381D01*
X187333334Y-75528571D02*
X187380953Y-75433333D01*
X187476191Y-75385714D01*
X187619048Y-75385714D01*
X187714286Y-75433333D01*
X187761905Y-75528571D01*
X187761905Y-76052381D01*
X188238095Y-76052381D02*
X188238095Y-75385714D01*
X188238095Y-75480952D02*
X188285714Y-75433333D01*
X188380952Y-75385714D01*
X188523810Y-75385714D01*
X188619048Y-75433333D01*
X188666667Y-75528571D01*
X188666667Y-76052381D01*
X188666667Y-75528571D02*
X188714286Y-75433333D01*
X188809524Y-75385714D01*
X188952381Y-75385714D01*
X189047619Y-75433333D01*
X189095238Y-75528571D01*
X189095238Y-76052381D01*
X170500000Y-76500000D02*
X199500000Y-76500000D01*
X170500000Y-92000000D02*
X170500000Y-74700000D01*
X199500000Y-92000000D02*
X199500000Y-74700000D01*
X199500000Y-76500000D02*
X198373496Y-77086421D01*
X199500000Y-76500000D02*
X198373496Y-75913579D01*
X170500000Y-76500000D02*
X171626504Y-77086421D01*
X170500000Y-76500000D02*
X171626504Y-75913579D01*
X159647619Y-110142857D02*
X159600000Y-110095238D01*
X159552381Y-110000000D01*
X159552381Y-109761904D01*
X159600000Y-109666666D01*
X159647619Y-109619047D01*
X159742857Y-109571428D01*
X159838095Y-109571428D01*
X159980952Y-109619047D01*
X160552381Y-110190476D01*
X160552381Y-109571428D01*
X159980952Y-109000000D02*
X159933333Y-109095238D01*
X159885714Y-109142857D01*
X159790476Y-109190476D01*
X159742857Y-109190476D01*
X159647619Y-109142857D01*
X159600000Y-109095238D01*
X159552381Y-109000000D01*
X159552381Y-108809523D01*
X159600000Y-108714285D01*
X159647619Y-108666666D01*
X159742857Y-108619047D01*
X159790476Y-108619047D01*
X159885714Y-108666666D01*
X159933333Y-108714285D01*
X159980952Y-108809523D01*
X159980952Y-109000000D01*
X160028571Y-109095238D01*
X160076190Y-109142857D01*
X160171429Y-109190476D01*
X160361905Y-109190476D01*
X160457143Y-109142857D01*
X160504762Y-109095238D01*
X160552381Y-109000000D01*
X160552381Y-108809523D01*
X160504762Y-108714285D01*
X160457143Y-108666666D01*
X160361905Y-108619047D01*
X160171429Y-108619047D01*
X160076190Y-108666666D01*
X160028571Y-108714285D01*
X159980952Y-108809523D01*
X160457143Y-108190476D02*
X160504762Y-108142857D01*
X160552381Y-108190476D01*
X160504762Y-108238095D01*
X160457143Y-108190476D01*
X160552381Y-108190476D01*
X159552381Y-107523810D02*
X159552381Y-107428571D01*
X159600000Y-107333333D01*
X159647619Y-107285714D01*
X159742857Y-107238095D01*
X159933333Y-107190476D01*
X160171429Y-107190476D01*
X160361905Y-107238095D01*
X160457143Y-107285714D01*
X160504762Y-107333333D01*
X160552381Y-107428571D01*
X160552381Y-107523810D01*
X160504762Y-107619048D01*
X160457143Y-107666667D01*
X160361905Y-107714286D01*
X160171429Y-107761905D01*
X159933333Y-107761905D01*
X159742857Y-107714286D01*
X159647619Y-107666667D01*
X159600000Y-107619048D01*
X159552381Y-107523810D01*
X159552381Y-106571429D02*
X159552381Y-106476190D01*
X159600000Y-106380952D01*
X159647619Y-106333333D01*
X159742857Y-106285714D01*
X159933333Y-106238095D01*
X160171429Y-106238095D01*
X160361905Y-106285714D01*
X160457143Y-106333333D01*
X160504762Y-106380952D01*
X160552381Y-106476190D01*
X160552381Y-106571429D01*
X160504762Y-106666667D01*
X160457143Y-106714286D01*
X160361905Y-106761905D01*
X160171429Y-106809524D01*
X159933333Y-106809524D01*
X159742857Y-106761905D01*
X159647619Y-106714286D01*
X159600000Y-106666667D01*
X159552381Y-106571429D01*
X159552381Y-105619048D02*
X159552381Y-105523809D01*
X159600000Y-105428571D01*
X159647619Y-105380952D01*
X159742857Y-105333333D01*
X159933333Y-105285714D01*
X160171429Y-105285714D01*
X160361905Y-105333333D01*
X160457143Y-105380952D01*
X160504762Y-105428571D01*
X160552381Y-105523809D01*
X160552381Y-105619048D01*
X160504762Y-105714286D01*
X160457143Y-105761905D01*
X160361905Y-105809524D01*
X160171429Y-105857143D01*
X159933333Y-105857143D01*
X159742857Y-105809524D01*
X159647619Y-105761905D01*
X159600000Y-105714286D01*
X159552381Y-105619048D01*
X160552381Y-104095238D02*
X159885714Y-104095238D01*
X159980952Y-104095238D02*
X159933333Y-104047619D01*
X159885714Y-103952381D01*
X159885714Y-103809523D01*
X159933333Y-103714285D01*
X160028571Y-103666666D01*
X160552381Y-103666666D01*
X160028571Y-103666666D02*
X159933333Y-103619047D01*
X159885714Y-103523809D01*
X159885714Y-103380952D01*
X159933333Y-103285714D01*
X160028571Y-103238095D01*
X160552381Y-103238095D01*
X160552381Y-102761905D02*
X159885714Y-102761905D01*
X159980952Y-102761905D02*
X159933333Y-102714286D01*
X159885714Y-102619048D01*
X159885714Y-102476190D01*
X159933333Y-102380952D01*
X160028571Y-102333333D01*
X160552381Y-102333333D01*
X160028571Y-102333333D02*
X159933333Y-102285714D01*
X159885714Y-102190476D01*
X159885714Y-102047619D01*
X159933333Y-101952381D01*
X160028571Y-101904762D01*
X160552381Y-101904762D01*
X161000000Y-120000000D02*
X161000000Y-92000000D01*
X170500000Y-120000000D02*
X159200000Y-120000000D01*
X170500000Y-92000000D02*
X159200000Y-92000000D01*
X161000000Y-92000000D02*
X161586421Y-93126504D01*
X161000000Y-92000000D02*
X160413579Y-93126504D01*
X161000000Y-120000000D02*
X161586421Y-118873496D01*
X161000000Y-120000000D02*
X160413579Y-118873496D01*
X165000000Y-80000000D02*
X165000000Y-102900000D01*
X165000000Y-120000000D02*
X165000000Y-106500000D01*
X205000000Y-80000000D02*
X205000000Y-103200000D01*
X205000000Y-120000000D02*
X205000000Y-106900000D01*
X185000000Y-150200000D02*
X185000000Y-140300000D01*
X185000000Y-125200000D02*
X185000000Y-136700000D01*
X165000000Y-150200000D02*
X165000000Y-140800000D01*
X165000000Y-125200000D02*
X165000000Y-137100000D01*
X165000000Y-125200000D02*
X174000000Y-125200000D01*
X185000000Y-125200000D02*
X177700000Y-125200000D01*
X177700000Y-120000000D02*
X205000000Y-120000000D01*
X155290000Y-94950000D02*
X148240000Y-87900000D01*
X172010000Y-94950000D02*
X155290000Y-94950000D01*
X170500000Y-120000000D02*
X170500000Y-92000000D01*
X199500000Y-120000000D02*
X170500000Y-120000000D01*
X199500000Y-120000000D02*
X199500000Y-92000000D01*
X170500000Y-92000000D02*
X199500000Y-92000000D01*
X158500000Y-153500000D02*
X190600000Y-153500000D01*
X158500000Y-73400000D02*
X158500000Y-153500000D01*
X210400000Y-73400000D02*
X158500000Y-73400000D01*
X210400000Y-124800000D02*
X210400000Y-73400000D01*
X190600000Y-124800000D02*
X210400000Y-124800000D01*
X190600000Y-153500000D02*
X190600000Y-124800000D01*
X188000000Y-151700000D02*
X188000000Y-140300000D01*
X162000000Y-151700000D02*
X188000000Y-151700000D01*
X162000000Y-140752132D02*
X162000000Y-151700000D01*
X162000000Y-106452132D02*
X162000000Y-137152132D01*
X162000000Y-77800000D02*
X162000000Y-102852132D01*
X208000000Y-77800000D02*
X162000000Y-77800000D01*
X208000000Y-103200000D02*
X208000000Y-77800000D01*
X208000000Y-122800000D02*
X208000000Y-106810000D01*
X188000000Y-122800000D02*
X208000000Y-122800000D01*
X188000000Y-136700000D02*
X188000000Y-122800000D01*
X162000000Y-137152132D02*
X164955026Y-137152132D01*
X164955026Y-140752132D02*
X162000000Y-140752132D01*
X162000000Y-102852132D02*
X164955026Y-102852132D01*
X164955026Y-106452132D02*
X162000000Y-106452132D01*
X208000000Y-106810000D02*
X205000000Y-106810000D01*
X205000000Y-103210000D02*
X208000000Y-103210000D01*
X188000000Y-140310000D02*
X185000000Y-140310000D01*
X185000000Y-136710000D02*
X188000000Y-136710000D01*
X177700000Y-125200000D02*
X177800000Y-125200000D01*
X177700000Y-120000000D02*
X177700000Y-125200000D01*
X174000000Y-125200000D02*
X173900000Y-125200000D01*
X174000000Y-120000000D02*
X174000000Y-125200000D01*
X165000000Y-150200000D02*
X185000000Y-150200000D01*
X104338095Y-77052381D02*
X104338095Y-76052381D01*
X104338095Y-76528571D02*
X104909524Y-76528571D01*
X104909524Y-77052381D02*
X104909524Y-76052381D01*
X105766667Y-77004762D02*
X105671429Y-77052381D01*
X105480952Y-77052381D01*
X105385714Y-77004762D01*
X105338095Y-76909524D01*
X105338095Y-76528571D01*
X105385714Y-76433333D01*
X105480952Y-76385714D01*
X105671429Y-76385714D01*
X105766667Y-76433333D01*
X105814286Y-76528571D01*
X105814286Y-76623810D01*
X105338095Y-76719048D01*
X106671429Y-77052381D02*
X106671429Y-76528571D01*
X106623810Y-76433333D01*
X106528572Y-76385714D01*
X106338095Y-76385714D01*
X106242857Y-76433333D01*
X106671429Y-77004762D02*
X106576191Y-77052381D01*
X106338095Y-77052381D01*
X106242857Y-77004762D01*
X106195238Y-76909524D01*
X106195238Y-76814286D01*
X106242857Y-76719048D01*
X106338095Y-76671429D01*
X106576191Y-76671429D01*
X106671429Y-76623810D01*
X107004762Y-76385714D02*
X107385714Y-76385714D01*
X107147619Y-76052381D02*
X107147619Y-76909524D01*
X107195238Y-77004762D01*
X107290476Y-77052381D01*
X107385714Y-77052381D01*
X108433334Y-77004762D02*
X108528572Y-77052381D01*
X108719048Y-77052381D01*
X108814287Y-77004762D01*
X108861906Y-76909524D01*
X108861906Y-76861905D01*
X108814287Y-76766667D01*
X108719048Y-76719048D01*
X108576191Y-76719048D01*
X108480953Y-76671429D01*
X108433334Y-76576190D01*
X108433334Y-76528571D01*
X108480953Y-76433333D01*
X108576191Y-76385714D01*
X108719048Y-76385714D01*
X108814287Y-76433333D01*
X109290477Y-77052381D02*
X109290477Y-76385714D01*
X109290477Y-76052381D02*
X109242858Y-76100000D01*
X109290477Y-76147619D01*
X109338096Y-76100000D01*
X109290477Y-76052381D01*
X109290477Y-76147619D01*
X109766667Y-76385714D02*
X109766667Y-77052381D01*
X109766667Y-76480952D02*
X109814286Y-76433333D01*
X109909524Y-76385714D01*
X110052382Y-76385714D01*
X110147620Y-76433333D01*
X110195239Y-76528571D01*
X110195239Y-77052381D01*
X111100001Y-77004762D02*
X111004763Y-77052381D01*
X110814286Y-77052381D01*
X110719048Y-77004762D01*
X110671429Y-76957143D01*
X110623810Y-76861905D01*
X110623810Y-76576190D01*
X110671429Y-76480952D01*
X110719048Y-76433333D01*
X110814286Y-76385714D01*
X111004763Y-76385714D01*
X111100001Y-76433333D01*
X111528572Y-77052381D02*
X111528572Y-76052381D01*
X111623810Y-76671429D02*
X111909525Y-77052381D01*
X111909525Y-76385714D02*
X111528572Y-76766667D01*
X113100001Y-77052381D02*
X113100001Y-76385714D01*
X113100001Y-76576190D02*
X113147620Y-76480952D01*
X113195239Y-76433333D01*
X113290477Y-76385714D01*
X113385716Y-76385714D01*
X114147621Y-77052381D02*
X114147621Y-76528571D01*
X114100002Y-76433333D01*
X114004764Y-76385714D01*
X113814287Y-76385714D01*
X113719049Y-76433333D01*
X114147621Y-77004762D02*
X114052383Y-77052381D01*
X113814287Y-77052381D01*
X113719049Y-77004762D01*
X113671430Y-76909524D01*
X113671430Y-76814286D01*
X113719049Y-76719048D01*
X113814287Y-76671429D01*
X114052383Y-76671429D01*
X114147621Y-76623810D01*
X115052383Y-77052381D02*
X115052383Y-76052381D01*
X115052383Y-77004762D02*
X114957145Y-77052381D01*
X114766668Y-77052381D01*
X114671430Y-77004762D01*
X114623811Y-76957143D01*
X114576192Y-76861905D01*
X114576192Y-76576190D01*
X114623811Y-76480952D01*
X114671430Y-76433333D01*
X114766668Y-76385714D01*
X114957145Y-76385714D01*
X115052383Y-76433333D01*
X115528573Y-77052381D02*
X115528573Y-76385714D01*
X115528573Y-76052381D02*
X115480954Y-76100000D01*
X115528573Y-76147619D01*
X115576192Y-76100000D01*
X115528573Y-76052381D01*
X115528573Y-76147619D01*
X116433335Y-77052381D02*
X116433335Y-76528571D01*
X116385716Y-76433333D01*
X116290478Y-76385714D01*
X116100001Y-76385714D01*
X116004763Y-76433333D01*
X116433335Y-77004762D02*
X116338097Y-77052381D01*
X116100001Y-77052381D01*
X116004763Y-77004762D01*
X115957144Y-76909524D01*
X115957144Y-76814286D01*
X116004763Y-76719048D01*
X116100001Y-76671429D01*
X116338097Y-76671429D01*
X116433335Y-76623810D01*
X116766668Y-76385714D02*
X117147620Y-76385714D01*
X116909525Y-76052381D02*
X116909525Y-76909524D01*
X116957144Y-77004762D01*
X117052382Y-77052381D01*
X117147620Y-77052381D01*
X117623811Y-77052381D02*
X117528573Y-77004762D01*
X117480954Y-76957143D01*
X117433335Y-76861905D01*
X117433335Y-76576190D01*
X117480954Y-76480952D01*
X117528573Y-76433333D01*
X117623811Y-76385714D01*
X117766669Y-76385714D01*
X117861907Y-76433333D01*
X117909526Y-76480952D01*
X117957145Y-76576190D01*
X117957145Y-76861905D01*
X117909526Y-76957143D01*
X117861907Y-77004762D01*
X117766669Y-77052381D01*
X117623811Y-77052381D01*
X118385716Y-77052381D02*
X118385716Y-76385714D01*
X118385716Y-76576190D02*
X118433335Y-76480952D01*
X118480954Y-76433333D01*
X118576192Y-76385714D01*
X118671431Y-76385714D01*
X104290476Y-78604762D02*
X104433333Y-78652381D01*
X104671429Y-78652381D01*
X104766667Y-78604762D01*
X104814286Y-78557143D01*
X104861905Y-78461905D01*
X104861905Y-78366667D01*
X104814286Y-78271429D01*
X104766667Y-78223810D01*
X104671429Y-78176190D01*
X104480952Y-78128571D01*
X104385714Y-78080952D01*
X104338095Y-78033333D01*
X104290476Y-77938095D01*
X104290476Y-77842857D01*
X104338095Y-77747619D01*
X104385714Y-77700000D01*
X104480952Y-77652381D01*
X104719048Y-77652381D01*
X104861905Y-77700000D01*
X105290476Y-78652381D02*
X105290476Y-77985714D01*
X105290476Y-77652381D02*
X105242857Y-77700000D01*
X105290476Y-77747619D01*
X105338095Y-77700000D01*
X105290476Y-77652381D01*
X105290476Y-77747619D01*
X105671428Y-77985714D02*
X106195238Y-77985714D01*
X105671428Y-78652381D01*
X106195238Y-78652381D01*
X106957143Y-78604762D02*
X106861905Y-78652381D01*
X106671428Y-78652381D01*
X106576190Y-78604762D01*
X106528571Y-78509524D01*
X106528571Y-78128571D01*
X106576190Y-78033333D01*
X106671428Y-77985714D01*
X106861905Y-77985714D01*
X106957143Y-78033333D01*
X107004762Y-78128571D01*
X107004762Y-78223810D01*
X106528571Y-78319048D01*
X107433333Y-78557143D02*
X107480952Y-78604762D01*
X107433333Y-78652381D01*
X107385714Y-78604762D01*
X107433333Y-78557143D01*
X107433333Y-78652381D01*
X107433333Y-78033333D02*
X107480952Y-78080952D01*
X107433333Y-78128571D01*
X107385714Y-78080952D01*
X107433333Y-78033333D01*
X107433333Y-78128571D01*
X108623809Y-77747619D02*
X108671428Y-77700000D01*
X108766666Y-77652381D01*
X109004762Y-77652381D01*
X109100000Y-77700000D01*
X109147619Y-77747619D01*
X109195238Y-77842857D01*
X109195238Y-77938095D01*
X109147619Y-78080952D01*
X108576190Y-78652381D01*
X109195238Y-78652381D01*
X109671428Y-78652381D02*
X109861904Y-78652381D01*
X109957143Y-78604762D01*
X110004762Y-78557143D01*
X110100000Y-78414286D01*
X110147619Y-78223810D01*
X110147619Y-77842857D01*
X110100000Y-77747619D01*
X110052381Y-77700000D01*
X109957143Y-77652381D01*
X109766666Y-77652381D01*
X109671428Y-77700000D01*
X109623809Y-77747619D01*
X109576190Y-77842857D01*
X109576190Y-78080952D01*
X109623809Y-78176190D01*
X109671428Y-78223810D01*
X109766666Y-78271429D01*
X109957143Y-78271429D01*
X110052381Y-78223810D01*
X110100000Y-78176190D01*
X110147619Y-78080952D01*
X111242857Y-78652381D02*
X111766667Y-77985714D01*
X111242857Y-77985714D02*
X111766667Y-78652381D01*
X112861905Y-77747619D02*
X112909524Y-77700000D01*
X113004762Y-77652381D01*
X113242858Y-77652381D01*
X113338096Y-77700000D01*
X113385715Y-77747619D01*
X113433334Y-77842857D01*
X113433334Y-77938095D01*
X113385715Y-78080952D01*
X112814286Y-78652381D01*
X113433334Y-78652381D01*
X114004762Y-78080952D02*
X113909524Y-78033333D01*
X113861905Y-77985714D01*
X113814286Y-77890476D01*
X113814286Y-77842857D01*
X113861905Y-77747619D01*
X113909524Y-77700000D01*
X114004762Y-77652381D01*
X114195239Y-77652381D01*
X114290477Y-77700000D01*
X114338096Y-77747619D01*
X114385715Y-77842857D01*
X114385715Y-77890476D01*
X114338096Y-77985714D01*
X114290477Y-78033333D01*
X114195239Y-78080952D01*
X114004762Y-78080952D01*
X113909524Y-78128571D01*
X113861905Y-78176190D01*
X113814286Y-78271429D01*
X113814286Y-78461905D01*
X113861905Y-78557143D01*
X113909524Y-78604762D01*
X114004762Y-78652381D01*
X114195239Y-78652381D01*
X114290477Y-78604762D01*
X114338096Y-78557143D01*
X114385715Y-78461905D01*
X114385715Y-78271429D01*
X114338096Y-78176190D01*
X114290477Y-78128571D01*
X114195239Y-78080952D01*
X115480953Y-78652381D02*
X116004763Y-77985714D01*
X115480953Y-77985714D02*
X116004763Y-78652381D01*
X117576192Y-77985714D02*
X117576192Y-78652381D01*
X117147620Y-77985714D02*
X117147620Y-78509524D01*
X117195239Y-78604762D01*
X117290477Y-78652381D01*
X117433335Y-78652381D01*
X117528573Y-78604762D01*
X117576192Y-78557143D01*
X118052382Y-77985714D02*
X118052382Y-78985714D01*
X118052382Y-78033333D02*
X118147620Y-77985714D01*
X118338097Y-77985714D01*
X118433335Y-78033333D01*
X118480954Y-78080952D01*
X118528573Y-78176190D01*
X118528573Y-78461905D01*
X118480954Y-78557143D01*
X118433335Y-78604762D01*
X118338097Y-78652381D01*
X118147620Y-78652381D01*
X118052382Y-78604762D01*
X119576192Y-77985714D02*
X119957144Y-77985714D01*
X119719049Y-77652381D02*
X119719049Y-78509524D01*
X119766668Y-78604762D01*
X119861906Y-78652381D01*
X119957144Y-78652381D01*
X120433335Y-78652381D02*
X120338097Y-78604762D01*
X120290478Y-78557143D01*
X120242859Y-78461905D01*
X120242859Y-78176190D01*
X120290478Y-78080952D01*
X120338097Y-78033333D01*
X120433335Y-77985714D01*
X120576193Y-77985714D01*
X120671431Y-78033333D01*
X120719050Y-78080952D01*
X120766669Y-78176190D01*
X120766669Y-78461905D01*
X120719050Y-78557143D01*
X120671431Y-78604762D01*
X120576193Y-78652381D01*
X120433335Y-78652381D01*
X121909526Y-77747619D02*
X121957145Y-77700000D01*
X122052383Y-77652381D01*
X122290479Y-77652381D01*
X122385717Y-77700000D01*
X122433336Y-77747619D01*
X122480955Y-77842857D01*
X122480955Y-77938095D01*
X122433336Y-78080952D01*
X121861907Y-78652381D01*
X122480955Y-78652381D01*
X123100002Y-77652381D02*
X123195241Y-77652381D01*
X123290479Y-77700000D01*
X123338098Y-77747619D01*
X123385717Y-77842857D01*
X123433336Y-78033333D01*
X123433336Y-78271429D01*
X123385717Y-78461905D01*
X123338098Y-78557143D01*
X123290479Y-78604762D01*
X123195241Y-78652381D01*
X123100002Y-78652381D01*
X123004764Y-78604762D01*
X122957145Y-78557143D01*
X122909526Y-78461905D01*
X122861907Y-78271429D01*
X122861907Y-78033333D01*
X122909526Y-77842857D01*
X122957145Y-77747619D01*
X123004764Y-77700000D01*
X123100002Y-77652381D01*
X124623812Y-78652381D02*
X124623812Y-77985714D01*
X124623812Y-78080952D02*
X124671431Y-78033333D01*
X124766669Y-77985714D01*
X124909527Y-77985714D01*
X125004765Y-78033333D01*
X125052384Y-78128571D01*
X125052384Y-78652381D01*
X125052384Y-78128571D02*
X125100003Y-78033333D01*
X125195241Y-77985714D01*
X125338098Y-77985714D01*
X125433336Y-78033333D01*
X125480955Y-78128571D01*
X125480955Y-78652381D01*
X125957145Y-78652381D02*
X125957145Y-77985714D01*
X125957145Y-78080952D02*
X126004764Y-78033333D01*
X126100002Y-77985714D01*
X126242860Y-77985714D01*
X126338098Y-78033333D01*
X126385717Y-78128571D01*
X126385717Y-78652381D01*
X126385717Y-78128571D02*
X126433336Y-78033333D01*
X126528574Y-77985714D01*
X126671431Y-77985714D01*
X126766669Y-78033333D01*
X126814288Y-78128571D01*
X126814288Y-78652381D01*
X104338095Y-80252381D02*
X104338095Y-79252381D01*
X104671429Y-79966667D01*
X105004762Y-79252381D01*
X105004762Y-80252381D01*
X105623809Y-80252381D02*
X105528571Y-80204762D01*
X105480952Y-80157143D01*
X105433333Y-80061905D01*
X105433333Y-79776190D01*
X105480952Y-79680952D01*
X105528571Y-79633333D01*
X105623809Y-79585714D01*
X105766667Y-79585714D01*
X105861905Y-79633333D01*
X105909524Y-79680952D01*
X105957143Y-79776190D01*
X105957143Y-80061905D01*
X105909524Y-80157143D01*
X105861905Y-80204762D01*
X105766667Y-80252381D01*
X105623809Y-80252381D01*
X106814286Y-79585714D02*
X106814286Y-80252381D01*
X106385714Y-79585714D02*
X106385714Y-80109524D01*
X106433333Y-80204762D01*
X106528571Y-80252381D01*
X106671429Y-80252381D01*
X106766667Y-80204762D01*
X106814286Y-80157143D01*
X107290476Y-79585714D02*
X107290476Y-80252381D01*
X107290476Y-79680952D02*
X107338095Y-79633333D01*
X107433333Y-79585714D01*
X107576191Y-79585714D01*
X107671429Y-79633333D01*
X107719048Y-79728571D01*
X107719048Y-80252381D01*
X108052381Y-79585714D02*
X108433333Y-79585714D01*
X108195238Y-79252381D02*
X108195238Y-80109524D01*
X108242857Y-80204762D01*
X108338095Y-80252381D01*
X108433333Y-80252381D01*
X108766667Y-80252381D02*
X108766667Y-79585714D01*
X108766667Y-79252381D02*
X108719048Y-79300000D01*
X108766667Y-79347619D01*
X108814286Y-79300000D01*
X108766667Y-79252381D01*
X108766667Y-79347619D01*
X109242857Y-79585714D02*
X109242857Y-80252381D01*
X109242857Y-79680952D02*
X109290476Y-79633333D01*
X109385714Y-79585714D01*
X109528572Y-79585714D01*
X109623810Y-79633333D01*
X109671429Y-79728571D01*
X109671429Y-80252381D01*
X110576191Y-79585714D02*
X110576191Y-80395238D01*
X110528572Y-80490476D01*
X110480953Y-80538095D01*
X110385714Y-80585714D01*
X110242857Y-80585714D01*
X110147619Y-80538095D01*
X110576191Y-80204762D02*
X110480953Y-80252381D01*
X110290476Y-80252381D01*
X110195238Y-80204762D01*
X110147619Y-80157143D01*
X110100000Y-80061905D01*
X110100000Y-79776190D01*
X110147619Y-79680952D01*
X110195238Y-79633333D01*
X110290476Y-79585714D01*
X110480953Y-79585714D01*
X110576191Y-79633333D01*
X111814286Y-80252381D02*
X111814286Y-79252381D01*
X112242858Y-80252381D02*
X112242858Y-79728571D01*
X112195239Y-79633333D01*
X112100001Y-79585714D01*
X111957143Y-79585714D01*
X111861905Y-79633333D01*
X111814286Y-79680952D01*
X112861905Y-80252381D02*
X112766667Y-80204762D01*
X112719048Y-80157143D01*
X112671429Y-80061905D01*
X112671429Y-79776190D01*
X112719048Y-79680952D01*
X112766667Y-79633333D01*
X112861905Y-79585714D01*
X113004763Y-79585714D01*
X113100001Y-79633333D01*
X113147620Y-79680952D01*
X113195239Y-79776190D01*
X113195239Y-80061905D01*
X113147620Y-80157143D01*
X113100001Y-80204762D01*
X113004763Y-80252381D01*
X112861905Y-80252381D01*
X113766667Y-80252381D02*
X113671429Y-80204762D01*
X113623810Y-80109524D01*
X113623810Y-79252381D01*
X114528573Y-80204762D02*
X114433335Y-80252381D01*
X114242858Y-80252381D01*
X114147620Y-80204762D01*
X114100001Y-80109524D01*
X114100001Y-79728571D01*
X114147620Y-79633333D01*
X114242858Y-79585714D01*
X114433335Y-79585714D01*
X114528573Y-79633333D01*
X114576192Y-79728571D01*
X114576192Y-79823810D01*
X114100001Y-79919048D01*
X116195240Y-80252381D02*
X116195240Y-79252381D01*
X116195240Y-80204762D02*
X116100002Y-80252381D01*
X115909525Y-80252381D01*
X115814287Y-80204762D01*
X115766668Y-80157143D01*
X115719049Y-80061905D01*
X115719049Y-79776190D01*
X115766668Y-79680952D01*
X115814287Y-79633333D01*
X115909525Y-79585714D01*
X116100002Y-79585714D01*
X116195240Y-79633333D01*
X116671430Y-80252381D02*
X116671430Y-79585714D01*
X116671430Y-79252381D02*
X116623811Y-79300000D01*
X116671430Y-79347619D01*
X116719049Y-79300000D01*
X116671430Y-79252381D01*
X116671430Y-79347619D01*
X117576192Y-80252381D02*
X117576192Y-79728571D01*
X117528573Y-79633333D01*
X117433335Y-79585714D01*
X117242858Y-79585714D01*
X117147620Y-79633333D01*
X117576192Y-80204762D02*
X117480954Y-80252381D01*
X117242858Y-80252381D01*
X117147620Y-80204762D01*
X117100001Y-80109524D01*
X117100001Y-80014286D01*
X117147620Y-79919048D01*
X117242858Y-79871429D01*
X117480954Y-79871429D01*
X117576192Y-79823810D01*
X118052382Y-80252381D02*
X118052382Y-79585714D01*
X118052382Y-79680952D02*
X118100001Y-79633333D01*
X118195239Y-79585714D01*
X118338097Y-79585714D01*
X118433335Y-79633333D01*
X118480954Y-79728571D01*
X118480954Y-80252381D01*
X118480954Y-79728571D02*
X118528573Y-79633333D01*
X118623811Y-79585714D01*
X118766668Y-79585714D01*
X118861906Y-79633333D01*
X118909525Y-79728571D01*
X118909525Y-80252381D01*
X119766668Y-80204762D02*
X119671430Y-80252381D01*
X119480953Y-80252381D01*
X119385715Y-80204762D01*
X119338096Y-80109524D01*
X119338096Y-79728571D01*
X119385715Y-79633333D01*
X119480953Y-79585714D01*
X119671430Y-79585714D01*
X119766668Y-79633333D01*
X119814287Y-79728571D01*
X119814287Y-79823810D01*
X119338096Y-79919048D01*
X120100001Y-79585714D02*
X120480953Y-79585714D01*
X120242858Y-79252381D02*
X120242858Y-80109524D01*
X120290477Y-80204762D01*
X120385715Y-80252381D01*
X120480953Y-80252381D01*
X121195240Y-80204762D02*
X121100002Y-80252381D01*
X120909525Y-80252381D01*
X120814287Y-80204762D01*
X120766668Y-80109524D01*
X120766668Y-79728571D01*
X120814287Y-79633333D01*
X120909525Y-79585714D01*
X121100002Y-79585714D01*
X121195240Y-79633333D01*
X121242859Y-79728571D01*
X121242859Y-79823810D01*
X120766668Y-79919048D01*
X121671430Y-80252381D02*
X121671430Y-79585714D01*
X121671430Y-79776190D02*
X121719049Y-79680952D01*
X121766668Y-79633333D01*
X121861906Y-79585714D01*
X121957145Y-79585714D01*
X123576193Y-80252381D02*
X123004764Y-80252381D01*
X123290478Y-80252381D02*
X123290478Y-79252381D01*
X123195240Y-79395238D01*
X123100002Y-79490476D01*
X123004764Y-79538095D01*
X124004764Y-80157143D02*
X124052383Y-80204762D01*
X124004764Y-80252381D01*
X123957145Y-80204762D01*
X124004764Y-80157143D01*
X124004764Y-80252381D01*
X124957145Y-79252381D02*
X124480954Y-79252381D01*
X124433335Y-79728571D01*
X124480954Y-79680952D01*
X124576192Y-79633333D01*
X124814288Y-79633333D01*
X124909526Y-79680952D01*
X124957145Y-79728571D01*
X125004764Y-79823810D01*
X125004764Y-80061905D01*
X124957145Y-80157143D01*
X124909526Y-80204762D01*
X124814288Y-80252381D01*
X124576192Y-80252381D01*
X124480954Y-80204762D01*
X124433335Y-80157143D01*
X126195240Y-80252381D02*
X126195240Y-79585714D01*
X126195240Y-79680952D02*
X126242859Y-79633333D01*
X126338097Y-79585714D01*
X126480955Y-79585714D01*
X126576193Y-79633333D01*
X126623812Y-79728571D01*
X126623812Y-80252381D01*
X126623812Y-79728571D02*
X126671431Y-79633333D01*
X126766669Y-79585714D01*
X126909526Y-79585714D01*
X127004764Y-79633333D01*
X127052383Y-79728571D01*
X127052383Y-80252381D01*
X127528573Y-80252381D02*
X127528573Y-79585714D01*
X127528573Y-79680952D02*
X127576192Y-79633333D01*
X127671430Y-79585714D01*
X127814288Y-79585714D01*
X127909526Y-79633333D01*
X127957145Y-79728571D01*
X127957145Y-80252381D01*
X127957145Y-79728571D02*
X128004764Y-79633333D01*
X128100002Y-79585714D01*
X128242859Y-79585714D01*
X128338097Y-79633333D01*
X128385716Y-79728571D01*
X128385716Y-80252381D01*
X104909524Y-81852381D02*
X104576190Y-81376190D01*
X104338095Y-81852381D02*
X104338095Y-80852381D01*
X104719048Y-80852381D01*
X104814286Y-80900000D01*
X104861905Y-80947619D01*
X104909524Y-81042857D01*
X104909524Y-81185714D01*
X104861905Y-81280952D01*
X104814286Y-81328571D01*
X104719048Y-81376190D01*
X104338095Y-81376190D01*
X105766667Y-81852381D02*
X105766667Y-81328571D01*
X105719048Y-81233333D01*
X105623810Y-81185714D01*
X105433333Y-81185714D01*
X105338095Y-81233333D01*
X105766667Y-81804762D02*
X105671429Y-81852381D01*
X105433333Y-81852381D01*
X105338095Y-81804762D01*
X105290476Y-81709524D01*
X105290476Y-81614286D01*
X105338095Y-81519048D01*
X105433333Y-81471429D01*
X105671429Y-81471429D01*
X105766667Y-81423810D01*
X106671429Y-81852381D02*
X106671429Y-80852381D01*
X106671429Y-81804762D02*
X106576191Y-81852381D01*
X106385714Y-81852381D01*
X106290476Y-81804762D01*
X106242857Y-81757143D01*
X106195238Y-81661905D01*
X106195238Y-81376190D01*
X106242857Y-81280952D01*
X106290476Y-81233333D01*
X106385714Y-81185714D01*
X106576191Y-81185714D01*
X106671429Y-81233333D01*
X107147619Y-81852381D02*
X107147619Y-81185714D01*
X107147619Y-80852381D02*
X107100000Y-80900000D01*
X107147619Y-80947619D01*
X107195238Y-80900000D01*
X107147619Y-80852381D01*
X107147619Y-80947619D01*
X108052381Y-81852381D02*
X108052381Y-81328571D01*
X108004762Y-81233333D01*
X107909524Y-81185714D01*
X107719047Y-81185714D01*
X107623809Y-81233333D01*
X108052381Y-81804762D02*
X107957143Y-81852381D01*
X107719047Y-81852381D01*
X107623809Y-81804762D01*
X107576190Y-81709524D01*
X107576190Y-81614286D01*
X107623809Y-81519048D01*
X107719047Y-81471429D01*
X107957143Y-81471429D01*
X108052381Y-81423810D01*
X108528571Y-81852381D02*
X108528571Y-81185714D01*
X108528571Y-81376190D02*
X108576190Y-81280952D01*
X108623809Y-81233333D01*
X108719047Y-81185714D01*
X108814286Y-81185714D01*
X109290476Y-81852381D02*
X109195238Y-81804762D01*
X109147619Y-81757143D01*
X109100000Y-81661905D01*
X109100000Y-81376190D01*
X109147619Y-81280952D01*
X109195238Y-81233333D01*
X109290476Y-81185714D01*
X109433334Y-81185714D01*
X109528572Y-81233333D01*
X109576191Y-81280952D01*
X109623810Y-81376190D01*
X109623810Y-81661905D01*
X109576191Y-81757143D01*
X109528572Y-81804762D01*
X109433334Y-81852381D01*
X109290476Y-81852381D01*
X109909524Y-81185714D02*
X110290476Y-81185714D01*
X110052381Y-80852381D02*
X110052381Y-81709524D01*
X110100000Y-81804762D01*
X110195238Y-81852381D01*
X110290476Y-81852381D01*
X111338096Y-81804762D02*
X111433334Y-81852381D01*
X111623810Y-81852381D01*
X111719049Y-81804762D01*
X111766668Y-81709524D01*
X111766668Y-81661905D01*
X111719049Y-81566667D01*
X111623810Y-81519048D01*
X111480953Y-81519048D01*
X111385715Y-81471429D01*
X111338096Y-81376190D01*
X111338096Y-81328571D01*
X111385715Y-81233333D01*
X111480953Y-81185714D01*
X111623810Y-81185714D01*
X111719049Y-81233333D01*
X112195239Y-81852381D02*
X112195239Y-81185714D01*
X112195239Y-81376190D02*
X112242858Y-81280952D01*
X112290477Y-81233333D01*
X112385715Y-81185714D01*
X112480954Y-81185714D01*
X113195240Y-81804762D02*
X113100002Y-81852381D01*
X112909525Y-81852381D01*
X112814287Y-81804762D01*
X112766668Y-81709524D01*
X112766668Y-81328571D01*
X112814287Y-81233333D01*
X112909525Y-81185714D01*
X113100002Y-81185714D01*
X113195240Y-81233333D01*
X113242859Y-81328571D01*
X113242859Y-81423810D01*
X112766668Y-81519048D01*
X113576192Y-81185714D02*
X113766668Y-81852381D01*
X113957145Y-81376190D01*
X114147621Y-81852381D01*
X114338097Y-81185714D01*
X115480954Y-81852381D02*
X115480954Y-80852381D01*
X115909526Y-81852381D02*
X115909526Y-81328571D01*
X115861907Y-81233333D01*
X115766669Y-81185714D01*
X115623811Y-81185714D01*
X115528573Y-81233333D01*
X115480954Y-81280952D01*
X116528573Y-81852381D02*
X116433335Y-81804762D01*
X116385716Y-81757143D01*
X116338097Y-81661905D01*
X116338097Y-81376190D01*
X116385716Y-81280952D01*
X116433335Y-81233333D01*
X116528573Y-81185714D01*
X116671431Y-81185714D01*
X116766669Y-81233333D01*
X116814288Y-81280952D01*
X116861907Y-81376190D01*
X116861907Y-81661905D01*
X116814288Y-81757143D01*
X116766669Y-81804762D01*
X116671431Y-81852381D01*
X116528573Y-81852381D01*
X117433335Y-81852381D02*
X117338097Y-81804762D01*
X117290478Y-81709524D01*
X117290478Y-80852381D01*
X118195241Y-81804762D02*
X118100003Y-81852381D01*
X117909526Y-81852381D01*
X117814288Y-81804762D01*
X117766669Y-81709524D01*
X117766669Y-81328571D01*
X117814288Y-81233333D01*
X117909526Y-81185714D01*
X118100003Y-81185714D01*
X118195241Y-81233333D01*
X118242860Y-81328571D01*
X118242860Y-81423810D01*
X117766669Y-81519048D01*
X119861908Y-81852381D02*
X119861908Y-80852381D01*
X119861908Y-81804762D02*
X119766670Y-81852381D01*
X119576193Y-81852381D01*
X119480955Y-81804762D01*
X119433336Y-81757143D01*
X119385717Y-81661905D01*
X119385717Y-81376190D01*
X119433336Y-81280952D01*
X119480955Y-81233333D01*
X119576193Y-81185714D01*
X119766670Y-81185714D01*
X119861908Y-81233333D01*
X120338098Y-81852381D02*
X120338098Y-81185714D01*
X120338098Y-81376190D02*
X120385717Y-81280952D01*
X120433336Y-81233333D01*
X120528574Y-81185714D01*
X120623813Y-81185714D01*
X120957146Y-81852381D02*
X120957146Y-81185714D01*
X120957146Y-80852381D02*
X120909527Y-80900000D01*
X120957146Y-80947619D01*
X121004765Y-80900000D01*
X120957146Y-80852381D01*
X120957146Y-80947619D01*
X121576193Y-81852381D02*
X121480955Y-81804762D01*
X121433336Y-81709524D01*
X121433336Y-80852381D01*
X122100003Y-81852381D02*
X122004765Y-81804762D01*
X121957146Y-81709524D01*
X121957146Y-80852381D01*
X123671433Y-81852381D02*
X123671433Y-80852381D01*
X123671433Y-81804762D02*
X123576195Y-81852381D01*
X123385718Y-81852381D01*
X123290480Y-81804762D01*
X123242861Y-81757143D01*
X123195242Y-81661905D01*
X123195242Y-81376190D01*
X123242861Y-81280952D01*
X123290480Y-81233333D01*
X123385718Y-81185714D01*
X123576195Y-81185714D01*
X123671433Y-81233333D01*
X124147623Y-81852381D02*
X124147623Y-81185714D01*
X124147623Y-80852381D02*
X124100004Y-80900000D01*
X124147623Y-80947619D01*
X124195242Y-80900000D01*
X124147623Y-80852381D01*
X124147623Y-80947619D01*
X125052385Y-81852381D02*
X125052385Y-81328571D01*
X125004766Y-81233333D01*
X124909528Y-81185714D01*
X124719051Y-81185714D01*
X124623813Y-81233333D01*
X125052385Y-81804762D02*
X124957147Y-81852381D01*
X124719051Y-81852381D01*
X124623813Y-81804762D01*
X124576194Y-81709524D01*
X124576194Y-81614286D01*
X124623813Y-81519048D01*
X124719051Y-81471429D01*
X124957147Y-81471429D01*
X125052385Y-81423810D01*
X125528575Y-81852381D02*
X125528575Y-81185714D01*
X125528575Y-81280952D02*
X125576194Y-81233333D01*
X125671432Y-81185714D01*
X125814290Y-81185714D01*
X125909528Y-81233333D01*
X125957147Y-81328571D01*
X125957147Y-81852381D01*
X125957147Y-81328571D02*
X126004766Y-81233333D01*
X126100004Y-81185714D01*
X126242861Y-81185714D01*
X126338099Y-81233333D01*
X126385718Y-81328571D01*
X126385718Y-81852381D01*
X127242861Y-81804762D02*
X127147623Y-81852381D01*
X126957146Y-81852381D01*
X126861908Y-81804762D01*
X126814289Y-81709524D01*
X126814289Y-81328571D01*
X126861908Y-81233333D01*
X126957146Y-81185714D01*
X127147623Y-81185714D01*
X127242861Y-81233333D01*
X127290480Y-81328571D01*
X127290480Y-81423810D01*
X126814289Y-81519048D01*
X127576194Y-81185714D02*
X127957146Y-81185714D01*
X127719051Y-80852381D02*
X127719051Y-81709524D01*
X127766670Y-81804762D01*
X127861908Y-81852381D01*
X127957146Y-81852381D01*
X128671433Y-81804762D02*
X128576195Y-81852381D01*
X128385718Y-81852381D01*
X128290480Y-81804762D01*
X128242861Y-81709524D01*
X128242861Y-81328571D01*
X128290480Y-81233333D01*
X128385718Y-81185714D01*
X128576195Y-81185714D01*
X128671433Y-81233333D01*
X128719052Y-81328571D01*
X128719052Y-81423810D01*
X128242861Y-81519048D01*
X129147623Y-81852381D02*
X129147623Y-81185714D01*
X129147623Y-81376190D02*
X129195242Y-81280952D01*
X129242861Y-81233333D01*
X129338099Y-81185714D01*
X129433338Y-81185714D01*
X130528576Y-81852381D02*
X130528576Y-81185714D01*
X130528576Y-81280952D02*
X130576195Y-81233333D01*
X130671433Y-81185714D01*
X130814291Y-81185714D01*
X130909529Y-81233333D01*
X130957148Y-81328571D01*
X130957148Y-81852381D01*
X130957148Y-81328571D02*
X131004767Y-81233333D01*
X131100005Y-81185714D01*
X131242862Y-81185714D01*
X131338100Y-81233333D01*
X131385719Y-81328571D01*
X131385719Y-81852381D01*
X132290481Y-81852381D02*
X132290481Y-81328571D01*
X132242862Y-81233333D01*
X132147624Y-81185714D01*
X131957147Y-81185714D01*
X131861909Y-81233333D01*
X132290481Y-81804762D02*
X132195243Y-81852381D01*
X131957147Y-81852381D01*
X131861909Y-81804762D01*
X131814290Y-81709524D01*
X131814290Y-81614286D01*
X131861909Y-81519048D01*
X131957147Y-81471429D01*
X132195243Y-81471429D01*
X132290481Y-81423810D01*
X132671433Y-81852381D02*
X133195243Y-81185714D01*
X132671433Y-81185714D02*
X133195243Y-81852381D01*
X134861910Y-81852381D02*
X134290481Y-81852381D01*
X134576195Y-81852381D02*
X134576195Y-80852381D01*
X134480957Y-80995238D01*
X134385719Y-81090476D01*
X134290481Y-81138095D01*
X135290481Y-81757143D02*
X135338100Y-81804762D01*
X135290481Y-81852381D01*
X135242862Y-81804762D01*
X135290481Y-81757143D01*
X135290481Y-81852381D01*
X136195243Y-81185714D02*
X136195243Y-81852381D01*
X135957147Y-80804762D02*
X135719052Y-81519048D01*
X136338100Y-81519048D01*
X137480957Y-81852381D02*
X137480957Y-81185714D01*
X137480957Y-81280952D02*
X137528576Y-81233333D01*
X137623814Y-81185714D01*
X137766672Y-81185714D01*
X137861910Y-81233333D01*
X137909529Y-81328571D01*
X137909529Y-81852381D01*
X137909529Y-81328571D02*
X137957148Y-81233333D01*
X138052386Y-81185714D01*
X138195243Y-81185714D01*
X138290481Y-81233333D01*
X138338100Y-81328571D01*
X138338100Y-81852381D01*
X138814290Y-81852381D02*
X138814290Y-81185714D01*
X138814290Y-81280952D02*
X138861909Y-81233333D01*
X138957147Y-81185714D01*
X139100005Y-81185714D01*
X139195243Y-81233333D01*
X139242862Y-81328571D01*
X139242862Y-81852381D01*
X139242862Y-81328571D02*
X139290481Y-81233333D01*
X139385719Y-81185714D01*
X139528576Y-81185714D01*
X139623814Y-81233333D01*
X139671433Y-81328571D01*
X139671433Y-81852381D01*
X141195243Y-82233333D02*
X141147623Y-82185714D01*
X141052385Y-82042857D01*
X141004766Y-81947619D01*
X140957147Y-81804762D01*
X140909528Y-81566667D01*
X140909528Y-81376190D01*
X140957147Y-81138095D01*
X141004766Y-80995238D01*
X141052385Y-80900000D01*
X141147623Y-80757143D01*
X141195243Y-80709524D01*
X141576195Y-81852381D02*
X141576195Y-80852381D01*
X141909529Y-81566667D01*
X142242862Y-80852381D01*
X142242862Y-81852381D01*
X143242862Y-81852381D02*
X142671433Y-81852381D01*
X142957147Y-81852381D02*
X142957147Y-80852381D01*
X142861909Y-80995238D01*
X142766671Y-81090476D01*
X142671433Y-81138095D01*
X143671433Y-81757143D02*
X143719052Y-81804762D01*
X143671433Y-81852381D01*
X143623814Y-81804762D01*
X143671433Y-81757143D01*
X143671433Y-81852381D01*
X144576195Y-81185714D02*
X144576195Y-81852381D01*
X144338099Y-80804762D02*
X144100004Y-81519048D01*
X144719052Y-81519048D01*
X145004766Y-82233333D02*
X145052385Y-82185714D01*
X145147623Y-82042857D01*
X145195242Y-81947619D01*
X145242861Y-81804762D01*
X145290480Y-81566667D01*
X145290480Y-81376190D01*
X145242861Y-81138095D01*
X145195242Y-80995238D01*
X145147623Y-80900000D01*
X145052385Y-80757143D01*
X145004766Y-80709524D01*
X104338095Y-83452381D02*
X104338095Y-82452381D01*
X104671429Y-83166667D01*
X105004762Y-82452381D01*
X105004762Y-83452381D01*
X105623809Y-83452381D02*
X105528571Y-83404762D01*
X105480952Y-83357143D01*
X105433333Y-83261905D01*
X105433333Y-82976190D01*
X105480952Y-82880952D01*
X105528571Y-82833333D01*
X105623809Y-82785714D01*
X105766667Y-82785714D01*
X105861905Y-82833333D01*
X105909524Y-82880952D01*
X105957143Y-82976190D01*
X105957143Y-83261905D01*
X105909524Y-83357143D01*
X105861905Y-83404762D01*
X105766667Y-83452381D01*
X105623809Y-83452381D01*
X106814286Y-82785714D02*
X106814286Y-83452381D01*
X106385714Y-82785714D02*
X106385714Y-83309524D01*
X106433333Y-83404762D01*
X106528571Y-83452381D01*
X106671429Y-83452381D01*
X106766667Y-83404762D01*
X106814286Y-83357143D01*
X107290476Y-82785714D02*
X107290476Y-83452381D01*
X107290476Y-82880952D02*
X107338095Y-82833333D01*
X107433333Y-82785714D01*
X107576191Y-82785714D01*
X107671429Y-82833333D01*
X107719048Y-82928571D01*
X107719048Y-83452381D01*
X108052381Y-82785714D02*
X108433333Y-82785714D01*
X108195238Y-82452381D02*
X108195238Y-83309524D01*
X108242857Y-83404762D01*
X108338095Y-83452381D01*
X108433333Y-83452381D01*
X108766667Y-83452381D02*
X108766667Y-82785714D01*
X108766667Y-82452381D02*
X108719048Y-82500000D01*
X108766667Y-82547619D01*
X108814286Y-82500000D01*
X108766667Y-82452381D01*
X108766667Y-82547619D01*
X109242857Y-82785714D02*
X109242857Y-83452381D01*
X109242857Y-82880952D02*
X109290476Y-82833333D01*
X109385714Y-82785714D01*
X109528572Y-82785714D01*
X109623810Y-82833333D01*
X109671429Y-82928571D01*
X109671429Y-83452381D01*
X110576191Y-82785714D02*
X110576191Y-83595238D01*
X110528572Y-83690476D01*
X110480953Y-83738095D01*
X110385714Y-83785714D01*
X110242857Y-83785714D01*
X110147619Y-83738095D01*
X110576191Y-83404762D02*
X110480953Y-83452381D01*
X110290476Y-83452381D01*
X110195238Y-83404762D01*
X110147619Y-83357143D01*
X110100000Y-83261905D01*
X110100000Y-82976190D01*
X110147619Y-82880952D01*
X110195238Y-82833333D01*
X110290476Y-82785714D01*
X110480953Y-82785714D01*
X110576191Y-82833333D01*
X111814286Y-83452381D02*
X111814286Y-82452381D01*
X112242858Y-83452381D02*
X112242858Y-82928571D01*
X112195239Y-82833333D01*
X112100001Y-82785714D01*
X111957143Y-82785714D01*
X111861905Y-82833333D01*
X111814286Y-82880952D01*
X112861905Y-83452381D02*
X112766667Y-83404762D01*
X112719048Y-83357143D01*
X112671429Y-83261905D01*
X112671429Y-82976190D01*
X112719048Y-82880952D01*
X112766667Y-82833333D01*
X112861905Y-82785714D01*
X113004763Y-82785714D01*
X113100001Y-82833333D01*
X113147620Y-82880952D01*
X113195239Y-82976190D01*
X113195239Y-83261905D01*
X113147620Y-83357143D01*
X113100001Y-83404762D01*
X113004763Y-83452381D01*
X112861905Y-83452381D01*
X113766667Y-83452381D02*
X113671429Y-83404762D01*
X113623810Y-83309524D01*
X113623810Y-82452381D01*
X114528573Y-83404762D02*
X114433335Y-83452381D01*
X114242858Y-83452381D01*
X114147620Y-83404762D01*
X114100001Y-83309524D01*
X114100001Y-82928571D01*
X114147620Y-82833333D01*
X114242858Y-82785714D01*
X114433335Y-82785714D01*
X114528573Y-82833333D01*
X114576192Y-82928571D01*
X114576192Y-83023810D01*
X114100001Y-83119048D01*
X114957144Y-83404762D02*
X115052382Y-83452381D01*
X115242858Y-83452381D01*
X115338097Y-83404762D01*
X115385716Y-83309524D01*
X115385716Y-83261905D01*
X115338097Y-83166667D01*
X115242858Y-83119048D01*
X115100001Y-83119048D01*
X115004763Y-83071429D01*
X114957144Y-82976190D01*
X114957144Y-82928571D01*
X115004763Y-82833333D01*
X115100001Y-82785714D01*
X115242858Y-82785714D01*
X115338097Y-82833333D01*
X117004764Y-83452381D02*
X117004764Y-82452381D01*
X117004764Y-83404762D02*
X116909526Y-83452381D01*
X116719049Y-83452381D01*
X116623811Y-83404762D01*
X116576192Y-83357143D01*
X116528573Y-83261905D01*
X116528573Y-82976190D01*
X116576192Y-82880952D01*
X116623811Y-82833333D01*
X116719049Y-82785714D01*
X116909526Y-82785714D01*
X117004764Y-82833333D01*
X117480954Y-83452381D02*
X117480954Y-82785714D01*
X117480954Y-82452381D02*
X117433335Y-82500000D01*
X117480954Y-82547619D01*
X117528573Y-82500000D01*
X117480954Y-82452381D01*
X117480954Y-82547619D01*
X117909525Y-83404762D02*
X118004763Y-83452381D01*
X118195239Y-83452381D01*
X118290478Y-83404762D01*
X118338097Y-83309524D01*
X118338097Y-83261905D01*
X118290478Y-83166667D01*
X118195239Y-83119048D01*
X118052382Y-83119048D01*
X117957144Y-83071429D01*
X117909525Y-82976190D01*
X117909525Y-82928571D01*
X117957144Y-82833333D01*
X118052382Y-82785714D01*
X118195239Y-82785714D01*
X118290478Y-82833333D01*
X118623811Y-82785714D02*
X119004763Y-82785714D01*
X118766668Y-82452381D02*
X118766668Y-83309524D01*
X118814287Y-83404762D01*
X118909525Y-83452381D01*
X119004763Y-83452381D01*
X119766669Y-83452381D02*
X119766669Y-82928571D01*
X119719050Y-82833333D01*
X119623812Y-82785714D01*
X119433335Y-82785714D01*
X119338097Y-82833333D01*
X119766669Y-83404762D02*
X119671431Y-83452381D01*
X119433335Y-83452381D01*
X119338097Y-83404762D01*
X119290478Y-83309524D01*
X119290478Y-83214286D01*
X119338097Y-83119048D01*
X119433335Y-83071429D01*
X119671431Y-83071429D01*
X119766669Y-83023810D01*
X120242859Y-82785714D02*
X120242859Y-83452381D01*
X120242859Y-82880952D02*
X120290478Y-82833333D01*
X120385716Y-82785714D01*
X120528574Y-82785714D01*
X120623812Y-82833333D01*
X120671431Y-82928571D01*
X120671431Y-83452381D01*
X121576193Y-83404762D02*
X121480955Y-83452381D01*
X121290478Y-83452381D01*
X121195240Y-83404762D01*
X121147621Y-83357143D01*
X121100002Y-83261905D01*
X121100002Y-82976190D01*
X121147621Y-82880952D01*
X121195240Y-82833333D01*
X121290478Y-82785714D01*
X121480955Y-82785714D01*
X121576193Y-82833333D01*
X122385717Y-83404762D02*
X122290479Y-83452381D01*
X122100002Y-83452381D01*
X122004764Y-83404762D01*
X121957145Y-83309524D01*
X121957145Y-82928571D01*
X122004764Y-82833333D01*
X122100002Y-82785714D01*
X122290479Y-82785714D01*
X122385717Y-82833333D01*
X122433336Y-82928571D01*
X122433336Y-83023810D01*
X121957145Y-83119048D01*
X123480955Y-82785714D02*
X123861907Y-82785714D01*
X123623812Y-83452381D02*
X123623812Y-82595238D01*
X123671431Y-82500000D01*
X123766669Y-82452381D01*
X123861907Y-82452381D01*
X124195241Y-83452381D02*
X124195241Y-82785714D01*
X124195241Y-82976190D02*
X124242860Y-82880952D01*
X124290479Y-82833333D01*
X124385717Y-82785714D01*
X124480956Y-82785714D01*
X124957146Y-83452381D02*
X124861908Y-83404762D01*
X124814289Y-83357143D01*
X124766670Y-83261905D01*
X124766670Y-82976190D01*
X124814289Y-82880952D01*
X124861908Y-82833333D01*
X124957146Y-82785714D01*
X125100004Y-82785714D01*
X125195242Y-82833333D01*
X125242861Y-82880952D01*
X125290480Y-82976190D01*
X125290480Y-83261905D01*
X125242861Y-83357143D01*
X125195242Y-83404762D01*
X125100004Y-83452381D01*
X124957146Y-83452381D01*
X125719051Y-83452381D02*
X125719051Y-82785714D01*
X125719051Y-82880952D02*
X125766670Y-82833333D01*
X125861908Y-82785714D01*
X126004766Y-82785714D01*
X126100004Y-82833333D01*
X126147623Y-82928571D01*
X126147623Y-83452381D01*
X126147623Y-82928571D02*
X126195242Y-82833333D01*
X126290480Y-82785714D01*
X126433337Y-82785714D01*
X126528575Y-82833333D01*
X126576194Y-82928571D01*
X126576194Y-83452381D01*
X128242861Y-83404762D02*
X128147623Y-83452381D01*
X127957146Y-83452381D01*
X127861908Y-83404762D01*
X127814289Y-83357143D01*
X127766670Y-83261905D01*
X127766670Y-82976190D01*
X127814289Y-82880952D01*
X127861908Y-82833333D01*
X127957146Y-82785714D01*
X128147623Y-82785714D01*
X128242861Y-82833333D01*
X128814289Y-83452381D02*
X128719051Y-83404762D01*
X128671432Y-83357143D01*
X128623813Y-83261905D01*
X128623813Y-82976190D01*
X128671432Y-82880952D01*
X128719051Y-82833333D01*
X128814289Y-82785714D01*
X128957147Y-82785714D01*
X129052385Y-82833333D01*
X129100004Y-82880952D01*
X129147623Y-82976190D01*
X129147623Y-83261905D01*
X129100004Y-83357143D01*
X129052385Y-83404762D01*
X128957147Y-83452381D01*
X128814289Y-83452381D01*
X129576194Y-83452381D02*
X129576194Y-82785714D01*
X129576194Y-82976190D02*
X129623813Y-82880952D01*
X129671432Y-82833333D01*
X129766670Y-82785714D01*
X129861909Y-82785714D01*
X130195242Y-82785714D02*
X130195242Y-83452381D01*
X130195242Y-82880952D02*
X130242861Y-82833333D01*
X130338099Y-82785714D01*
X130480957Y-82785714D01*
X130576195Y-82833333D01*
X130623814Y-82928571D01*
X130623814Y-83452381D01*
X131100004Y-82785714D02*
X131100004Y-83452381D01*
X131100004Y-82880952D02*
X131147623Y-82833333D01*
X131242861Y-82785714D01*
X131385719Y-82785714D01*
X131480957Y-82833333D01*
X131528576Y-82928571D01*
X131528576Y-83452381D01*
X132385719Y-83404762D02*
X132290481Y-83452381D01*
X132100004Y-83452381D01*
X132004766Y-83404762D01*
X131957147Y-83309524D01*
X131957147Y-82928571D01*
X132004766Y-82833333D01*
X132100004Y-82785714D01*
X132290481Y-82785714D01*
X132385719Y-82833333D01*
X132433338Y-82928571D01*
X132433338Y-83023810D01*
X131957147Y-83119048D01*
X132861909Y-83452381D02*
X132861909Y-82785714D01*
X132861909Y-82976190D02*
X132909528Y-82880952D01*
X132957147Y-82833333D01*
X133052385Y-82785714D01*
X133147624Y-82785714D01*
X134623815Y-83404762D02*
X134528577Y-83452381D01*
X134338100Y-83452381D01*
X134242862Y-83404762D01*
X134195243Y-83309524D01*
X134195243Y-82928571D01*
X134242862Y-82833333D01*
X134338100Y-82785714D01*
X134528577Y-82785714D01*
X134623815Y-82833333D01*
X134671434Y-82928571D01*
X134671434Y-83023810D01*
X134195243Y-83119048D01*
X135528577Y-83452381D02*
X135528577Y-82452381D01*
X135528577Y-83404762D02*
X135433339Y-83452381D01*
X135242862Y-83452381D01*
X135147624Y-83404762D01*
X135100005Y-83357143D01*
X135052386Y-83261905D01*
X135052386Y-82976190D01*
X135100005Y-82880952D01*
X135147624Y-82833333D01*
X135242862Y-82785714D01*
X135433339Y-82785714D01*
X135528577Y-82833333D01*
X136433339Y-82785714D02*
X136433339Y-83595238D01*
X136385720Y-83690476D01*
X136338101Y-83738095D01*
X136242862Y-83785714D01*
X136100005Y-83785714D01*
X136004767Y-83738095D01*
X136433339Y-83404762D02*
X136338101Y-83452381D01*
X136147624Y-83452381D01*
X136052386Y-83404762D01*
X136004767Y-83357143D01*
X135957148Y-83261905D01*
X135957148Y-82976190D01*
X136004767Y-82880952D01*
X136052386Y-82833333D01*
X136147624Y-82785714D01*
X136338101Y-82785714D01*
X136433339Y-82833333D01*
X137290482Y-83404762D02*
X137195244Y-83452381D01*
X137004767Y-83452381D01*
X136909529Y-83404762D01*
X136861910Y-83309524D01*
X136861910Y-82928571D01*
X136909529Y-82833333D01*
X137004767Y-82785714D01*
X137195244Y-82785714D01*
X137290482Y-82833333D01*
X137338101Y-82928571D01*
X137338101Y-83023810D01*
X136861910Y-83119048D01*
X137719053Y-83404762D02*
X137814291Y-83452381D01*
X138004767Y-83452381D01*
X138100006Y-83404762D01*
X138147625Y-83309524D01*
X138147625Y-83261905D01*
X138100006Y-83166667D01*
X138004767Y-83119048D01*
X137861910Y-83119048D01*
X137766672Y-83071429D01*
X137719053Y-82976190D01*
X137719053Y-82928571D01*
X137766672Y-82833333D01*
X137861910Y-82785714D01*
X138004767Y-82785714D01*
X138100006Y-82833333D01*
X138576196Y-83357143D02*
X138623815Y-83404762D01*
X138576196Y-83452381D01*
X138528577Y-83404762D01*
X138576196Y-83357143D01*
X138576196Y-83452381D01*
X138576196Y-82833333D02*
X138623815Y-82880952D01*
X138576196Y-82928571D01*
X138528577Y-82880952D01*
X138576196Y-82833333D01*
X138576196Y-82928571D01*
X104861905Y-85052381D02*
X104290476Y-85052381D01*
X104576190Y-85052381D02*
X104576190Y-84052381D01*
X104480952Y-84195238D01*
X104385714Y-84290476D01*
X104290476Y-84338095D01*
X105290476Y-84957143D02*
X105338095Y-85004762D01*
X105290476Y-85052381D01*
X105242857Y-85004762D01*
X105290476Y-84957143D01*
X105290476Y-85052381D01*
X106242857Y-84052381D02*
X105766666Y-84052381D01*
X105719047Y-84528571D01*
X105766666Y-84480952D01*
X105861904Y-84433333D01*
X106100000Y-84433333D01*
X106195238Y-84480952D01*
X106242857Y-84528571D01*
X106290476Y-84623810D01*
X106290476Y-84861905D01*
X106242857Y-84957143D01*
X106195238Y-85004762D01*
X106100000Y-85052381D01*
X105861904Y-85052381D01*
X105766666Y-85004762D01*
X105719047Y-84957143D01*
X106909523Y-84052381D02*
X107004762Y-84052381D01*
X107100000Y-84100000D01*
X107147619Y-84147619D01*
X107195238Y-84242857D01*
X107242857Y-84433333D01*
X107242857Y-84671429D01*
X107195238Y-84861905D01*
X107147619Y-84957143D01*
X107100000Y-85004762D01*
X107004762Y-85052381D01*
X106909523Y-85052381D01*
X106814285Y-85004762D01*
X106766666Y-84957143D01*
X106719047Y-84861905D01*
X106671428Y-84671429D01*
X106671428Y-84433333D01*
X106719047Y-84242857D01*
X106766666Y-84147619D01*
X106814285Y-84100000D01*
X106909523Y-84052381D01*
X108433333Y-85052381D02*
X108433333Y-84385714D01*
X108433333Y-84480952D02*
X108480952Y-84433333D01*
X108576190Y-84385714D01*
X108719048Y-84385714D01*
X108814286Y-84433333D01*
X108861905Y-84528571D01*
X108861905Y-85052381D01*
X108861905Y-84528571D02*
X108909524Y-84433333D01*
X109004762Y-84385714D01*
X109147619Y-84385714D01*
X109242857Y-84433333D01*
X109290476Y-84528571D01*
X109290476Y-85052381D01*
X109766666Y-85052381D02*
X109766666Y-84385714D01*
X109766666Y-84480952D02*
X109814285Y-84433333D01*
X109909523Y-84385714D01*
X110052381Y-84385714D01*
X110147619Y-84433333D01*
X110195238Y-84528571D01*
X110195238Y-85052381D01*
X110195238Y-84528571D02*
X110242857Y-84433333D01*
X110338095Y-84385714D01*
X110480952Y-84385714D01*
X110576190Y-84433333D01*
X110623809Y-84528571D01*
X110623809Y-85052381D01*
X111719047Y-84385714D02*
X112099999Y-84385714D01*
X111861904Y-85052381D02*
X111861904Y-84195238D01*
X111909523Y-84100000D01*
X112004761Y-84052381D01*
X112099999Y-84052381D01*
X112433333Y-85052381D02*
X112433333Y-84385714D01*
X112433333Y-84576190D02*
X112480952Y-84480952D01*
X112528571Y-84433333D01*
X112623809Y-84385714D01*
X112719048Y-84385714D01*
X113195238Y-85052381D02*
X113100000Y-85004762D01*
X113052381Y-84957143D01*
X113004762Y-84861905D01*
X113004762Y-84576190D01*
X113052381Y-84480952D01*
X113100000Y-84433333D01*
X113195238Y-84385714D01*
X113338096Y-84385714D01*
X113433334Y-84433333D01*
X113480953Y-84480952D01*
X113528572Y-84576190D01*
X113528572Y-84861905D01*
X113480953Y-84957143D01*
X113433334Y-85004762D01*
X113338096Y-85052381D01*
X113195238Y-85052381D01*
X113957143Y-85052381D02*
X113957143Y-84385714D01*
X113957143Y-84480952D02*
X114004762Y-84433333D01*
X114100000Y-84385714D01*
X114242858Y-84385714D01*
X114338096Y-84433333D01*
X114385715Y-84528571D01*
X114385715Y-85052381D01*
X114385715Y-84528571D02*
X114433334Y-84433333D01*
X114528572Y-84385714D01*
X114671429Y-84385714D01*
X114766667Y-84433333D01*
X114814286Y-84528571D01*
X114814286Y-85052381D01*
X115909524Y-84385714D02*
X116290476Y-84385714D01*
X116052381Y-85052381D02*
X116052381Y-84195238D01*
X116100000Y-84100000D01*
X116195238Y-84052381D01*
X116290476Y-84052381D01*
X117004763Y-85004762D02*
X116909525Y-85052381D01*
X116719048Y-85052381D01*
X116623810Y-85004762D01*
X116576191Y-84909524D01*
X116576191Y-84528571D01*
X116623810Y-84433333D01*
X116719048Y-84385714D01*
X116909525Y-84385714D01*
X117004763Y-84433333D01*
X117052382Y-84528571D01*
X117052382Y-84623810D01*
X116576191Y-84719048D01*
X117338096Y-84385714D02*
X117719048Y-84385714D01*
X117480953Y-85052381D02*
X117480953Y-84195238D01*
X117528572Y-84100000D01*
X117623810Y-84052381D01*
X117719048Y-84052381D01*
X117909525Y-84385714D02*
X118290477Y-84385714D01*
X118052382Y-84052381D02*
X118052382Y-84909524D01*
X118100001Y-85004762D01*
X118195239Y-85052381D01*
X118290477Y-85052381D01*
X120100002Y-84004762D02*
X119242859Y-85290476D01*
X121195240Y-85052381D02*
X121195240Y-84385714D01*
X121195240Y-84576190D02*
X121242859Y-84480952D01*
X121290478Y-84433333D01*
X121385716Y-84385714D01*
X121480955Y-84385714D01*
X121814288Y-85052381D02*
X121814288Y-84385714D01*
X121814288Y-84052381D02*
X121766669Y-84100000D01*
X121814288Y-84147619D01*
X121861907Y-84100000D01*
X121814288Y-84052381D01*
X121814288Y-84147619D01*
X122719050Y-84385714D02*
X122719050Y-85195238D01*
X122671431Y-85290476D01*
X122623812Y-85338095D01*
X122528573Y-85385714D01*
X122385716Y-85385714D01*
X122290478Y-85338095D01*
X122719050Y-85004762D02*
X122623812Y-85052381D01*
X122433335Y-85052381D01*
X122338097Y-85004762D01*
X122290478Y-84957143D01*
X122242859Y-84861905D01*
X122242859Y-84576190D01*
X122290478Y-84480952D01*
X122338097Y-84433333D01*
X122433335Y-84385714D01*
X122623812Y-84385714D01*
X122719050Y-84433333D01*
X123195240Y-85052381D02*
X123195240Y-84052381D01*
X123623812Y-85052381D02*
X123623812Y-84528571D01*
X123576193Y-84433333D01*
X123480955Y-84385714D01*
X123338097Y-84385714D01*
X123242859Y-84433333D01*
X123195240Y-84480952D01*
X123957145Y-84385714D02*
X124338097Y-84385714D01*
X124100002Y-84052381D02*
X124100002Y-84909524D01*
X124147621Y-85004762D01*
X124242859Y-85052381D01*
X124338097Y-85052381D01*
X125861908Y-85052381D02*
X125861908Y-84528571D01*
X125814289Y-84433333D01*
X125719051Y-84385714D01*
X125528574Y-84385714D01*
X125433336Y-84433333D01*
X125861908Y-85004762D02*
X125766670Y-85052381D01*
X125528574Y-85052381D01*
X125433336Y-85004762D01*
X125385717Y-84909524D01*
X125385717Y-84814286D01*
X125433336Y-84719048D01*
X125528574Y-84671429D01*
X125766670Y-84671429D01*
X125861908Y-84623810D01*
X126338098Y-84385714D02*
X126338098Y-85052381D01*
X126338098Y-84480952D02*
X126385717Y-84433333D01*
X126480955Y-84385714D01*
X126623813Y-84385714D01*
X126719051Y-84433333D01*
X126766670Y-84528571D01*
X126766670Y-85052381D01*
X127671432Y-85052381D02*
X127671432Y-84052381D01*
X127671432Y-85004762D02*
X127576194Y-85052381D01*
X127385717Y-85052381D01*
X127290479Y-85004762D01*
X127242860Y-84957143D01*
X127195241Y-84861905D01*
X127195241Y-84576190D01*
X127242860Y-84480952D01*
X127290479Y-84433333D01*
X127385717Y-84385714D01*
X127576194Y-84385714D01*
X127671432Y-84433333D01*
X104242857Y-85652381D02*
X104861905Y-85652381D01*
X104528571Y-86033333D01*
X104671429Y-86033333D01*
X104766667Y-86080952D01*
X104814286Y-86128571D01*
X104861905Y-86223810D01*
X104861905Y-86461905D01*
X104814286Y-86557143D01*
X104766667Y-86604762D01*
X104671429Y-86652381D01*
X104385714Y-86652381D01*
X104290476Y-86604762D01*
X104242857Y-86557143D01*
X105290476Y-86557143D02*
X105338095Y-86604762D01*
X105290476Y-86652381D01*
X105242857Y-86604762D01*
X105290476Y-86557143D01*
X105290476Y-86652381D01*
X105957142Y-85652381D02*
X106052381Y-85652381D01*
X106147619Y-85700000D01*
X106195238Y-85747619D01*
X106242857Y-85842857D01*
X106290476Y-86033333D01*
X106290476Y-86271429D01*
X106242857Y-86461905D01*
X106195238Y-86557143D01*
X106147619Y-86604762D01*
X106052381Y-86652381D01*
X105957142Y-86652381D01*
X105861904Y-86604762D01*
X105814285Y-86557143D01*
X105766666Y-86461905D01*
X105719047Y-86271429D01*
X105719047Y-86033333D01*
X105766666Y-85842857D01*
X105814285Y-85747619D01*
X105861904Y-85700000D01*
X105957142Y-85652381D01*
X106909523Y-85652381D02*
X107004762Y-85652381D01*
X107100000Y-85700000D01*
X107147619Y-85747619D01*
X107195238Y-85842857D01*
X107242857Y-86033333D01*
X107242857Y-86271429D01*
X107195238Y-86461905D01*
X107147619Y-86557143D01*
X107100000Y-86604762D01*
X107004762Y-86652381D01*
X106909523Y-86652381D01*
X106814285Y-86604762D01*
X106766666Y-86557143D01*
X106719047Y-86461905D01*
X106671428Y-86271429D01*
X106671428Y-86033333D01*
X106719047Y-85842857D01*
X106766666Y-85747619D01*
X106814285Y-85700000D01*
X106909523Y-85652381D01*
X108433333Y-86652381D02*
X108433333Y-85985714D01*
X108433333Y-86080952D02*
X108480952Y-86033333D01*
X108576190Y-85985714D01*
X108719048Y-85985714D01*
X108814286Y-86033333D01*
X108861905Y-86128571D01*
X108861905Y-86652381D01*
X108861905Y-86128571D02*
X108909524Y-86033333D01*
X109004762Y-85985714D01*
X109147619Y-85985714D01*
X109242857Y-86033333D01*
X109290476Y-86128571D01*
X109290476Y-86652381D01*
X109766666Y-86652381D02*
X109766666Y-85985714D01*
X109766666Y-86080952D02*
X109814285Y-86033333D01*
X109909523Y-85985714D01*
X110052381Y-85985714D01*
X110147619Y-86033333D01*
X110195238Y-86128571D01*
X110195238Y-86652381D01*
X110195238Y-86128571D02*
X110242857Y-86033333D01*
X110338095Y-85985714D01*
X110480952Y-85985714D01*
X110576190Y-86033333D01*
X110623809Y-86128571D01*
X110623809Y-86652381D01*
X111719047Y-85985714D02*
X112099999Y-85985714D01*
X111861904Y-86652381D02*
X111861904Y-85795238D01*
X111909523Y-85700000D01*
X112004761Y-85652381D01*
X112099999Y-85652381D01*
X112433333Y-86652381D02*
X112433333Y-85985714D01*
X112433333Y-86176190D02*
X112480952Y-86080952D01*
X112528571Y-86033333D01*
X112623809Y-85985714D01*
X112719048Y-85985714D01*
X113195238Y-86652381D02*
X113100000Y-86604762D01*
X113052381Y-86557143D01*
X113004762Y-86461905D01*
X113004762Y-86176190D01*
X113052381Y-86080952D01*
X113100000Y-86033333D01*
X113195238Y-85985714D01*
X113338096Y-85985714D01*
X113433334Y-86033333D01*
X113480953Y-86080952D01*
X113528572Y-86176190D01*
X113528572Y-86461905D01*
X113480953Y-86557143D01*
X113433334Y-86604762D01*
X113338096Y-86652381D01*
X113195238Y-86652381D01*
X113957143Y-86652381D02*
X113957143Y-85985714D01*
X113957143Y-86080952D02*
X114004762Y-86033333D01*
X114100000Y-85985714D01*
X114242858Y-85985714D01*
X114338096Y-86033333D01*
X114385715Y-86128571D01*
X114385715Y-86652381D01*
X114385715Y-86128571D02*
X114433334Y-86033333D01*
X114528572Y-85985714D01*
X114671429Y-85985714D01*
X114766667Y-86033333D01*
X114814286Y-86128571D01*
X114814286Y-86652381D01*
X115909524Y-85985714D02*
X116290476Y-85985714D01*
X116052381Y-85652381D02*
X116052381Y-86509524D01*
X116100000Y-86604762D01*
X116195238Y-86652381D01*
X116290476Y-86652381D01*
X116766667Y-86652381D02*
X116671429Y-86604762D01*
X116623810Y-86557143D01*
X116576191Y-86461905D01*
X116576191Y-86176190D01*
X116623810Y-86080952D01*
X116671429Y-86033333D01*
X116766667Y-85985714D01*
X116909525Y-85985714D01*
X117004763Y-86033333D01*
X117052382Y-86080952D01*
X117100001Y-86176190D01*
X117100001Y-86461905D01*
X117052382Y-86557143D01*
X117004763Y-86604762D01*
X116909525Y-86652381D01*
X116766667Y-86652381D01*
X117528572Y-85985714D02*
X117528572Y-86985714D01*
X117528572Y-86033333D02*
X117623810Y-85985714D01*
X117814287Y-85985714D01*
X117909525Y-86033333D01*
X117957144Y-86080952D01*
X118004763Y-86176190D01*
X118004763Y-86461905D01*
X117957144Y-86557143D01*
X117909525Y-86604762D01*
X117814287Y-86652381D01*
X117623810Y-86652381D01*
X117528572Y-86604762D01*
X119909525Y-85604762D02*
X119052382Y-86890476D01*
X121004763Y-86652381D02*
X121004763Y-85652381D01*
X121004763Y-86033333D02*
X121100001Y-85985714D01*
X121290478Y-85985714D01*
X121385716Y-86033333D01*
X121433335Y-86080952D01*
X121480954Y-86176190D01*
X121480954Y-86461905D01*
X121433335Y-86557143D01*
X121385716Y-86604762D01*
X121290478Y-86652381D01*
X121100001Y-86652381D01*
X121004763Y-86604762D01*
X122052382Y-86652381D02*
X121957144Y-86604762D01*
X121909525Y-86557143D01*
X121861906Y-86461905D01*
X121861906Y-86176190D01*
X121909525Y-86080952D01*
X121957144Y-86033333D01*
X122052382Y-85985714D01*
X122195240Y-85985714D01*
X122290478Y-86033333D01*
X122338097Y-86080952D01*
X122385716Y-86176190D01*
X122385716Y-86461905D01*
X122338097Y-86557143D01*
X122290478Y-86604762D01*
X122195240Y-86652381D01*
X122052382Y-86652381D01*
X122671430Y-85985714D02*
X123052382Y-85985714D01*
X122814287Y-85652381D02*
X122814287Y-86509524D01*
X122861906Y-86604762D01*
X122957144Y-86652381D01*
X123052382Y-86652381D01*
X123242859Y-85985714D02*
X123623811Y-85985714D01*
X123385716Y-85652381D02*
X123385716Y-86509524D01*
X123433335Y-86604762D01*
X123528573Y-86652381D01*
X123623811Y-86652381D01*
X124100002Y-86652381D02*
X124004764Y-86604762D01*
X123957145Y-86557143D01*
X123909526Y-86461905D01*
X123909526Y-86176190D01*
X123957145Y-86080952D01*
X124004764Y-86033333D01*
X124100002Y-85985714D01*
X124242860Y-85985714D01*
X124338098Y-86033333D01*
X124385717Y-86080952D01*
X124433336Y-86176190D01*
X124433336Y-86461905D01*
X124385717Y-86557143D01*
X124338098Y-86604762D01*
X124242860Y-86652381D01*
X124100002Y-86652381D01*
X124861907Y-86652381D02*
X124861907Y-85985714D01*
X124861907Y-86080952D02*
X124909526Y-86033333D01*
X125004764Y-85985714D01*
X125147622Y-85985714D01*
X125242860Y-86033333D01*
X125290479Y-86128571D01*
X125290479Y-86652381D01*
X125290479Y-86128571D02*
X125338098Y-86033333D01*
X125433336Y-85985714D01*
X125576193Y-85985714D01*
X125671431Y-86033333D01*
X125719050Y-86128571D01*
X125719050Y-86652381D01*
X126195240Y-86557143D02*
X126242859Y-86604762D01*
X126195240Y-86652381D01*
X126147621Y-86604762D01*
X126195240Y-86557143D01*
X126195240Y-86652381D01*
X174000000Y-120000000D02*
X165000000Y-120000000D01*
X165000000Y-80000000D02*
X205000000Y-80000000D01*
M02*
