G04 #@! TF.FileFunction,Paste,Top*
%FSLAX46Y46*%
G04 Gerber Fmt 4.6, Leading zero omitted, Abs format (unit mm)*
G04 Created by KiCad (PCBNEW 4.0.2-stable) date 23/05/2016 22:28:53*
%MOMM*%
G01*
G04 APERTURE LIST*
%ADD10C,0.150000*%
%ADD11C,0.300000*%
%ADD12C,0.400000*%
%ADD13C,0.200000*%
%ADD14R,0.995680X0.995680*%
%ADD15R,4.696460X1.496060*%
%ADD16R,1.496060X0.698500*%
%ADD17R,0.495300X0.495300*%
%ADD18R,1.500000X1.500000*%
%ADD19R,0.320000X0.520000*%
%ADD20R,0.520000X0.320000*%
%ADD21R,1.516380X1.516380*%
%ADD22C,1.516380*%
%ADD23R,0.355600X0.657860*%
%ADD24R,0.657860X0.355600*%
%ADD25R,0.300000X0.500000*%
%ADD26R,0.500000X0.300000*%
%ADD27R,1.600000X1.400000*%
%ADD28R,0.800000X1.700000*%
%ADD29O,1.600000X0.900000*%
%ADD30R,0.495300X0.444500*%
%ADD31R,0.740000X2.400000*%
%ADD32R,0.700000X0.400000*%
%ADD33R,1.700000X0.710000*%
G04 APERTURE END LIST*
D10*
X177002200Y-166007200D02*
X177002200Y-198007200D01*
X285002200Y-198007200D01*
X285002200Y-166007200D01*
X177002200Y-166007200D01*
X10000000Y-10000000D02*
X10000000Y-200007200D01*
X287002200Y-200007200D01*
X287002200Y-10000000D01*
X10000000Y-10000000D01*
X12000000Y-12000000D02*
X12000000Y-198007200D01*
X285002200Y-198007200D01*
X285002200Y-12000000D01*
X12000000Y-12000000D01*
X60000000Y-12000000D02*
X60000000Y-10000000D01*
X110000000Y-12000000D02*
X110000000Y-10000000D01*
X160000000Y-12000000D02*
X160000000Y-10000000D01*
X210000000Y-12000000D02*
X210000000Y-10000000D01*
X260000000Y-12000000D02*
X260000000Y-10000000D01*
X35990476Y-11588095D02*
X35247619Y-11588095D01*
X35619048Y-11588095D02*
X35619048Y-10288095D01*
X35495238Y-10473810D01*
X35371429Y-10597619D01*
X35247619Y-10659524D01*
X85247619Y-10411905D02*
X85309524Y-10350000D01*
X85433333Y-10288095D01*
X85742857Y-10288095D01*
X85866667Y-10350000D01*
X85928571Y-10411905D01*
X85990476Y-10535714D01*
X85990476Y-10659524D01*
X85928571Y-10845238D01*
X85185714Y-11588095D01*
X85990476Y-11588095D01*
X135185714Y-10288095D02*
X135990476Y-10288095D01*
X135557143Y-10783333D01*
X135742857Y-10783333D01*
X135866667Y-10845238D01*
X135928571Y-10907143D01*
X135990476Y-11030952D01*
X135990476Y-11340476D01*
X135928571Y-11464286D01*
X135866667Y-11526190D01*
X135742857Y-11588095D01*
X135371429Y-11588095D01*
X135247619Y-11526190D01*
X135185714Y-11464286D01*
X185866667Y-10721429D02*
X185866667Y-11588095D01*
X185557143Y-10226190D02*
X185247619Y-11154762D01*
X186052381Y-11154762D01*
X235928571Y-10288095D02*
X235309524Y-10288095D01*
X235247619Y-10907143D01*
X235309524Y-10845238D01*
X235433333Y-10783333D01*
X235742857Y-10783333D01*
X235866667Y-10845238D01*
X235928571Y-10907143D01*
X235990476Y-11030952D01*
X235990476Y-11340476D01*
X235928571Y-11464286D01*
X235866667Y-11526190D01*
X235742857Y-11588095D01*
X235433333Y-11588095D01*
X235309524Y-11526190D01*
X235247619Y-11464286D01*
X285866667Y-10288095D02*
X285619048Y-10288095D01*
X285495238Y-10350000D01*
X285433333Y-10411905D01*
X285309524Y-10597619D01*
X285247619Y-10845238D01*
X285247619Y-11340476D01*
X285309524Y-11464286D01*
X285371429Y-11526190D01*
X285495238Y-11588095D01*
X285742857Y-11588095D01*
X285866667Y-11526190D01*
X285928571Y-11464286D01*
X285990476Y-11340476D01*
X285990476Y-11030952D01*
X285928571Y-10907143D01*
X285866667Y-10845238D01*
X285742857Y-10783333D01*
X285495238Y-10783333D01*
X285371429Y-10845238D01*
X285309524Y-10907143D01*
X285247619Y-11030952D01*
X60000000Y-198007200D02*
X60000000Y-200007200D01*
X110000000Y-198007200D02*
X110000000Y-200007200D01*
X160000000Y-198007200D02*
X160000000Y-200007200D01*
X210000000Y-198007200D02*
X210000000Y-200007200D01*
X260000000Y-198007200D02*
X260000000Y-200007200D01*
X35990476Y-199595295D02*
X35247619Y-199595295D01*
X35619048Y-199595295D02*
X35619048Y-198295295D01*
X35495238Y-198481010D01*
X35371429Y-198604819D01*
X35247619Y-198666724D01*
X85247619Y-198419105D02*
X85309524Y-198357200D01*
X85433333Y-198295295D01*
X85742857Y-198295295D01*
X85866667Y-198357200D01*
X85928571Y-198419105D01*
X85990476Y-198542914D01*
X85990476Y-198666724D01*
X85928571Y-198852438D01*
X85185714Y-199595295D01*
X85990476Y-199595295D01*
X135185714Y-198295295D02*
X135990476Y-198295295D01*
X135557143Y-198790533D01*
X135742857Y-198790533D01*
X135866667Y-198852438D01*
X135928571Y-198914343D01*
X135990476Y-199038152D01*
X135990476Y-199347676D01*
X135928571Y-199471486D01*
X135866667Y-199533390D01*
X135742857Y-199595295D01*
X135371429Y-199595295D01*
X135247619Y-199533390D01*
X135185714Y-199471486D01*
X185866667Y-198728629D02*
X185866667Y-199595295D01*
X185557143Y-198233390D02*
X185247619Y-199161962D01*
X186052381Y-199161962D01*
X235928571Y-198295295D02*
X235309524Y-198295295D01*
X235247619Y-198914343D01*
X235309524Y-198852438D01*
X235433333Y-198790533D01*
X235742857Y-198790533D01*
X235866667Y-198852438D01*
X235928571Y-198914343D01*
X235990476Y-199038152D01*
X235990476Y-199347676D01*
X235928571Y-199471486D01*
X235866667Y-199533390D01*
X235742857Y-199595295D01*
X235433333Y-199595295D01*
X235309524Y-199533390D01*
X235247619Y-199471486D01*
X285866667Y-198295295D02*
X285619048Y-198295295D01*
X285495238Y-198357200D01*
X285433333Y-198419105D01*
X285309524Y-198604819D01*
X285247619Y-198852438D01*
X285247619Y-199347676D01*
X285309524Y-199471486D01*
X285371429Y-199533390D01*
X285495238Y-199595295D01*
X285742857Y-199595295D01*
X285866667Y-199533390D01*
X285928571Y-199471486D01*
X285990476Y-199347676D01*
X285990476Y-199038152D01*
X285928571Y-198914343D01*
X285866667Y-198852438D01*
X285742857Y-198790533D01*
X285495238Y-198790533D01*
X285371429Y-198852438D01*
X285309524Y-198914343D01*
X285247619Y-199038152D01*
X10000000Y-60000000D02*
X12000000Y-60000000D01*
X10000000Y-110000000D02*
X12000000Y-110000000D01*
X10000000Y-160000000D02*
X12000000Y-160000000D01*
X10690476Y-35216667D02*
X11309524Y-35216667D01*
X10566667Y-35588095D02*
X11000000Y-34288095D01*
X11433333Y-35588095D01*
X11092857Y-84907143D02*
X11278571Y-84969048D01*
X11340476Y-85030952D01*
X11402381Y-85154762D01*
X11402381Y-85340476D01*
X11340476Y-85464286D01*
X11278571Y-85526190D01*
X11154762Y-85588095D01*
X10659524Y-85588095D01*
X10659524Y-84288095D01*
X11092857Y-84288095D01*
X11216667Y-84350000D01*
X11278571Y-84411905D01*
X11340476Y-84535714D01*
X11340476Y-84659524D01*
X11278571Y-84783333D01*
X11216667Y-84845238D01*
X11092857Y-84907143D01*
X10659524Y-84907143D01*
X11402381Y-135464286D02*
X11340476Y-135526190D01*
X11154762Y-135588095D01*
X11030952Y-135588095D01*
X10845238Y-135526190D01*
X10721429Y-135402381D01*
X10659524Y-135278571D01*
X10597619Y-135030952D01*
X10597619Y-134845238D01*
X10659524Y-134597619D01*
X10721429Y-134473810D01*
X10845238Y-134350000D01*
X11030952Y-134288095D01*
X11154762Y-134288095D01*
X11340476Y-134350000D01*
X11402381Y-134411905D01*
X10659524Y-185588095D02*
X10659524Y-184288095D01*
X10969048Y-184288095D01*
X11154762Y-184350000D01*
X11278571Y-184473810D01*
X11340476Y-184597619D01*
X11402381Y-184845238D01*
X11402381Y-185030952D01*
X11340476Y-185278571D01*
X11278571Y-185402381D01*
X11154762Y-185526190D01*
X10969048Y-185588095D01*
X10659524Y-185588095D01*
X287002200Y-60000000D02*
X285002200Y-60000000D01*
X287002200Y-110000000D02*
X285002200Y-110000000D01*
X287002200Y-160000000D02*
X285002200Y-160000000D01*
X285692676Y-35216667D02*
X286311724Y-35216667D01*
X285568867Y-35588095D02*
X286002200Y-34288095D01*
X286435533Y-35588095D01*
X286095057Y-84907143D02*
X286280771Y-84969048D01*
X286342676Y-85030952D01*
X286404581Y-85154762D01*
X286404581Y-85340476D01*
X286342676Y-85464286D01*
X286280771Y-85526190D01*
X286156962Y-85588095D01*
X285661724Y-85588095D01*
X285661724Y-84288095D01*
X286095057Y-84288095D01*
X286218867Y-84350000D01*
X286280771Y-84411905D01*
X286342676Y-84535714D01*
X286342676Y-84659524D01*
X286280771Y-84783333D01*
X286218867Y-84845238D01*
X286095057Y-84907143D01*
X285661724Y-84907143D01*
X286404581Y-135464286D02*
X286342676Y-135526190D01*
X286156962Y-135588095D01*
X286033152Y-135588095D01*
X285847438Y-135526190D01*
X285723629Y-135402381D01*
X285661724Y-135278571D01*
X285599819Y-135030952D01*
X285599819Y-134845238D01*
X285661724Y-134597619D01*
X285723629Y-134473810D01*
X285847438Y-134350000D01*
X286033152Y-134288095D01*
X286156962Y-134288095D01*
X286342676Y-134350000D01*
X286404581Y-134411905D01*
X285661724Y-185588095D02*
X285661724Y-184288095D01*
X285971248Y-184288095D01*
X286156962Y-184350000D01*
X286280771Y-184473810D01*
X286342676Y-184597619D01*
X286404581Y-184845238D01*
X286404581Y-185030952D01*
X286342676Y-185278571D01*
X286280771Y-185402381D01*
X286156962Y-185526190D01*
X285971248Y-185588095D01*
X285661724Y-185588095D01*
X200359343Y-193785771D02*
X200359343Y-192285771D01*
X200716486Y-192285771D01*
X200930771Y-192357200D01*
X201073629Y-192500057D01*
X201145057Y-192642914D01*
X201216486Y-192928629D01*
X201216486Y-193142914D01*
X201145057Y-193428629D01*
X201073629Y-193571486D01*
X200930771Y-193714343D01*
X200716486Y-193785771D01*
X200359343Y-193785771D01*
X202502200Y-193785771D02*
X202502200Y-193000057D01*
X202430771Y-192857200D01*
X202287914Y-192785771D01*
X202002200Y-192785771D01*
X201859343Y-192857200D01*
X202502200Y-193714343D02*
X202359343Y-193785771D01*
X202002200Y-193785771D01*
X201859343Y-193714343D01*
X201787914Y-193571486D01*
X201787914Y-193428629D01*
X201859343Y-193285771D01*
X202002200Y-193214343D01*
X202359343Y-193214343D01*
X202502200Y-193142914D01*
X203002200Y-192785771D02*
X203573629Y-192785771D01*
X203216486Y-192285771D02*
X203216486Y-193571486D01*
X203287914Y-193714343D01*
X203430772Y-193785771D01*
X203573629Y-193785771D01*
X204645057Y-193714343D02*
X204502200Y-193785771D01*
X204216486Y-193785771D01*
X204073629Y-193714343D01*
X204002200Y-193571486D01*
X204002200Y-193000057D01*
X204073629Y-192857200D01*
X204216486Y-192785771D01*
X204502200Y-192785771D01*
X204645057Y-192857200D01*
X204716486Y-193000057D01*
X204716486Y-193142914D01*
X204002200Y-193285771D01*
X205359343Y-193642914D02*
X205430771Y-193714343D01*
X205359343Y-193785771D01*
X205287914Y-193714343D01*
X205359343Y-193642914D01*
X205359343Y-193785771D01*
X205359343Y-192857200D02*
X205430771Y-192928629D01*
X205359343Y-193000057D01*
X205287914Y-192928629D01*
X205359343Y-192857200D01*
X205359343Y-193000057D01*
X207145057Y-192428629D02*
X207216486Y-192357200D01*
X207359343Y-192285771D01*
X207716486Y-192285771D01*
X207859343Y-192357200D01*
X207930772Y-192428629D01*
X208002200Y-192571486D01*
X208002200Y-192714343D01*
X207930772Y-192928629D01*
X207073629Y-193785771D01*
X208002200Y-193785771D01*
X208502200Y-192285771D02*
X209430771Y-192285771D01*
X208930771Y-192857200D01*
X209145057Y-192857200D01*
X209287914Y-192928629D01*
X209359343Y-193000057D01*
X209430771Y-193142914D01*
X209430771Y-193500057D01*
X209359343Y-193642914D01*
X209287914Y-193714343D01*
X209145057Y-193785771D01*
X208716485Y-193785771D01*
X208573628Y-193714343D01*
X208502200Y-193642914D01*
X211216485Y-193785771D02*
X211216485Y-192285771D01*
X211716485Y-193357200D01*
X212216485Y-192285771D01*
X212216485Y-193785771D01*
X213573628Y-193785771D02*
X213573628Y-193000057D01*
X213502199Y-192857200D01*
X213359342Y-192785771D01*
X213073628Y-192785771D01*
X212930771Y-192857200D01*
X213573628Y-193714343D02*
X213430771Y-193785771D01*
X213073628Y-193785771D01*
X212930771Y-193714343D01*
X212859342Y-193571486D01*
X212859342Y-193428629D01*
X212930771Y-193285771D01*
X213073628Y-193214343D01*
X213430771Y-193214343D01*
X213573628Y-193142914D01*
X214145057Y-192785771D02*
X214502200Y-193785771D01*
X214859342Y-192785771D02*
X214502200Y-193785771D01*
X214359342Y-194142914D01*
X214287914Y-194214343D01*
X214145057Y-194285771D01*
X216502199Y-192428629D02*
X216573628Y-192357200D01*
X216716485Y-192285771D01*
X217073628Y-192285771D01*
X217216485Y-192357200D01*
X217287914Y-192428629D01*
X217359342Y-192571486D01*
X217359342Y-192714343D01*
X217287914Y-192928629D01*
X216430771Y-193785771D01*
X217359342Y-193785771D01*
X218287913Y-192285771D02*
X218430770Y-192285771D01*
X218573627Y-192357200D01*
X218645056Y-192428629D01*
X218716485Y-192571486D01*
X218787913Y-192857200D01*
X218787913Y-193214343D01*
X218716485Y-193500057D01*
X218645056Y-193642914D01*
X218573627Y-193714343D01*
X218430770Y-193785771D01*
X218287913Y-193785771D01*
X218145056Y-193714343D01*
X218073627Y-193642914D01*
X218002199Y-193500057D01*
X217930770Y-193214343D01*
X217930770Y-192857200D01*
X218002199Y-192571486D01*
X218073627Y-192428629D01*
X218145056Y-192357200D01*
X218287913Y-192285771D01*
X220216484Y-193785771D02*
X219359341Y-193785771D01*
X219787913Y-193785771D02*
X219787913Y-192285771D01*
X219645056Y-192500057D01*
X219502198Y-192642914D01*
X219359341Y-192714343D01*
X221502198Y-192285771D02*
X221216484Y-192285771D01*
X221073627Y-192357200D01*
X221002198Y-192428629D01*
X220859341Y-192642914D01*
X220787912Y-192928629D01*
X220787912Y-193500057D01*
X220859341Y-193642914D01*
X220930769Y-193714343D01*
X221073627Y-193785771D01*
X221359341Y-193785771D01*
X221502198Y-193714343D01*
X221573627Y-193642914D01*
X221645055Y-193500057D01*
X221645055Y-193142914D01*
X221573627Y-193000057D01*
X221502198Y-192928629D01*
X221359341Y-192857200D01*
X221073627Y-192857200D01*
X220930769Y-192928629D01*
X220859341Y-193000057D01*
X220787912Y-193142914D01*
X177002200Y-194507200D02*
X285002200Y-194507200D01*
X178359343Y-196585771D02*
X178359343Y-195085771D01*
X179216486Y-196585771D02*
X178573629Y-195728629D01*
X179216486Y-195085771D02*
X178359343Y-195942914D01*
X179859343Y-196585771D02*
X179859343Y-195585771D01*
X179859343Y-195085771D02*
X179787914Y-195157200D01*
X179859343Y-195228629D01*
X179930771Y-195157200D01*
X179859343Y-195085771D01*
X179859343Y-195228629D01*
X181430772Y-196442914D02*
X181359343Y-196514343D01*
X181145057Y-196585771D01*
X181002200Y-196585771D01*
X180787915Y-196514343D01*
X180645057Y-196371486D01*
X180573629Y-196228629D01*
X180502200Y-195942914D01*
X180502200Y-195728629D01*
X180573629Y-195442914D01*
X180645057Y-195300057D01*
X180787915Y-195157200D01*
X181002200Y-195085771D01*
X181145057Y-195085771D01*
X181359343Y-195157200D01*
X181430772Y-195228629D01*
X182716486Y-196585771D02*
X182716486Y-195800057D01*
X182645057Y-195657200D01*
X182502200Y-195585771D01*
X182216486Y-195585771D01*
X182073629Y-195657200D01*
X182716486Y-196514343D02*
X182573629Y-196585771D01*
X182216486Y-196585771D01*
X182073629Y-196514343D01*
X182002200Y-196371486D01*
X182002200Y-196228629D01*
X182073629Y-196085771D01*
X182216486Y-196014343D01*
X182573629Y-196014343D01*
X182716486Y-195942914D01*
X184073629Y-196585771D02*
X184073629Y-195085771D01*
X184073629Y-196514343D02*
X183930772Y-196585771D01*
X183645058Y-196585771D01*
X183502200Y-196514343D01*
X183430772Y-196442914D01*
X183359343Y-196300057D01*
X183359343Y-195871486D01*
X183430772Y-195728629D01*
X183502200Y-195657200D01*
X183645058Y-195585771D01*
X183930772Y-195585771D01*
X184073629Y-195657200D01*
X185930772Y-195800057D02*
X186430772Y-195800057D01*
X186645058Y-196585771D02*
X185930772Y-196585771D01*
X185930772Y-195085771D01*
X186645058Y-195085771D01*
X187287915Y-196442914D02*
X187359343Y-196514343D01*
X187287915Y-196585771D01*
X187216486Y-196514343D01*
X187287915Y-196442914D01*
X187287915Y-196585771D01*
X188002201Y-196585771D02*
X188002201Y-195085771D01*
X188359344Y-195085771D01*
X188573629Y-195157200D01*
X188716487Y-195300057D01*
X188787915Y-195442914D01*
X188859344Y-195728629D01*
X188859344Y-195942914D01*
X188787915Y-196228629D01*
X188716487Y-196371486D01*
X188573629Y-196514343D01*
X188359344Y-196585771D01*
X188002201Y-196585771D01*
X189502201Y-196442914D02*
X189573629Y-196514343D01*
X189502201Y-196585771D01*
X189430772Y-196514343D01*
X189502201Y-196442914D01*
X189502201Y-196585771D01*
X190145058Y-196157200D02*
X190859344Y-196157200D01*
X190002201Y-196585771D02*
X190502201Y-195085771D01*
X191002201Y-196585771D01*
X191502201Y-196442914D02*
X191573629Y-196514343D01*
X191502201Y-196585771D01*
X191430772Y-196514343D01*
X191502201Y-196442914D01*
X191502201Y-196585771D01*
X194502201Y-196585771D02*
X194502201Y-195085771D01*
X194645058Y-196014343D02*
X195073629Y-196585771D01*
X195073629Y-195585771D02*
X194502201Y-196157200D01*
X195716487Y-196585771D02*
X195716487Y-195585771D01*
X195716487Y-195085771D02*
X195645058Y-195157200D01*
X195716487Y-195228629D01*
X195787915Y-195157200D01*
X195716487Y-195085771D01*
X195716487Y-195228629D01*
X197073630Y-196514343D02*
X196930773Y-196585771D01*
X196645059Y-196585771D01*
X196502201Y-196514343D01*
X196430773Y-196442914D01*
X196359344Y-196300057D01*
X196359344Y-195871486D01*
X196430773Y-195728629D01*
X196502201Y-195657200D01*
X196645059Y-195585771D01*
X196930773Y-195585771D01*
X197073630Y-195657200D01*
X198359344Y-196585771D02*
X198359344Y-195800057D01*
X198287915Y-195657200D01*
X198145058Y-195585771D01*
X197859344Y-195585771D01*
X197716487Y-195657200D01*
X198359344Y-196514343D02*
X198216487Y-196585771D01*
X197859344Y-196585771D01*
X197716487Y-196514343D01*
X197645058Y-196371486D01*
X197645058Y-196228629D01*
X197716487Y-196085771D01*
X197859344Y-196014343D01*
X198216487Y-196014343D01*
X198359344Y-195942914D01*
X199716487Y-196585771D02*
X199716487Y-195085771D01*
X199716487Y-196514343D02*
X199573630Y-196585771D01*
X199287916Y-196585771D01*
X199145058Y-196514343D01*
X199073630Y-196442914D01*
X199002201Y-196300057D01*
X199002201Y-195871486D01*
X199073630Y-195728629D01*
X199145058Y-195657200D01*
X199287916Y-195585771D01*
X199573630Y-195585771D01*
X199716487Y-195657200D01*
X202216487Y-195585771D02*
X202216487Y-196585771D01*
X201859344Y-195014343D02*
X201502201Y-196085771D01*
X202430773Y-196085771D01*
X203002201Y-196442914D02*
X203073629Y-196514343D01*
X203002201Y-196585771D01*
X202930772Y-196514343D01*
X203002201Y-196442914D01*
X203002201Y-196585771D01*
X204002201Y-195085771D02*
X204145058Y-195085771D01*
X204287915Y-195157200D01*
X204359344Y-195228629D01*
X204430773Y-195371486D01*
X204502201Y-195657200D01*
X204502201Y-196014343D01*
X204430773Y-196300057D01*
X204359344Y-196442914D01*
X204287915Y-196514343D01*
X204145058Y-196585771D01*
X204002201Y-196585771D01*
X203859344Y-196514343D01*
X203787915Y-196442914D01*
X203716487Y-196300057D01*
X203645058Y-196014343D01*
X203645058Y-195657200D01*
X203716487Y-195371486D01*
X203787915Y-195228629D01*
X203859344Y-195157200D01*
X204002201Y-195085771D01*
X205145058Y-196442914D02*
X205216486Y-196514343D01*
X205145058Y-196585771D01*
X205073629Y-196514343D01*
X205145058Y-196442914D01*
X205145058Y-196585771D01*
X205787915Y-195228629D02*
X205859344Y-195157200D01*
X206002201Y-195085771D01*
X206359344Y-195085771D01*
X206502201Y-195157200D01*
X206573630Y-195228629D01*
X206645058Y-195371486D01*
X206645058Y-195514343D01*
X206573630Y-195728629D01*
X205716487Y-196585771D01*
X206645058Y-196585771D01*
X207287915Y-196014343D02*
X208430772Y-196014343D01*
X209073629Y-196514343D02*
X209216486Y-196585771D01*
X209502201Y-196585771D01*
X209645058Y-196514343D01*
X209716486Y-196371486D01*
X209716486Y-196300057D01*
X209645058Y-196157200D01*
X209502201Y-196085771D01*
X209287915Y-196085771D01*
X209145058Y-196014343D01*
X209073629Y-195871486D01*
X209073629Y-195800057D01*
X209145058Y-195657200D01*
X209287915Y-195585771D01*
X209502201Y-195585771D01*
X209645058Y-195657200D01*
X210145058Y-195585771D02*
X210716487Y-195585771D01*
X210359344Y-195085771D02*
X210359344Y-196371486D01*
X210430772Y-196514343D01*
X210573630Y-196585771D01*
X210716487Y-196585771D01*
X211859344Y-196585771D02*
X211859344Y-195800057D01*
X211787915Y-195657200D01*
X211645058Y-195585771D01*
X211359344Y-195585771D01*
X211216487Y-195657200D01*
X211859344Y-196514343D02*
X211716487Y-196585771D01*
X211359344Y-196585771D01*
X211216487Y-196514343D01*
X211145058Y-196371486D01*
X211145058Y-196228629D01*
X211216487Y-196085771D01*
X211359344Y-196014343D01*
X211716487Y-196014343D01*
X211859344Y-195942914D01*
X212573630Y-196585771D02*
X212573630Y-195085771D01*
X212573630Y-195657200D02*
X212716487Y-195585771D01*
X213002201Y-195585771D01*
X213145058Y-195657200D01*
X213216487Y-195728629D01*
X213287916Y-195871486D01*
X213287916Y-196300057D01*
X213216487Y-196442914D01*
X213145058Y-196514343D01*
X213002201Y-196585771D01*
X212716487Y-196585771D01*
X212573630Y-196514343D01*
X214145059Y-196585771D02*
X214002201Y-196514343D01*
X213930773Y-196371486D01*
X213930773Y-195085771D01*
X215287915Y-196514343D02*
X215145058Y-196585771D01*
X214859344Y-196585771D01*
X214716487Y-196514343D01*
X214645058Y-196371486D01*
X214645058Y-195800057D01*
X214716487Y-195657200D01*
X214859344Y-195585771D01*
X215145058Y-195585771D01*
X215287915Y-195657200D01*
X215359344Y-195800057D01*
X215359344Y-195942914D01*
X214645058Y-196085771D01*
X177002200Y-191507200D02*
X285002200Y-191507200D01*
D11*
X264216486Y-193785771D02*
X263716486Y-193071486D01*
X263359343Y-193785771D02*
X263359343Y-192285771D01*
X263930771Y-192285771D01*
X264073629Y-192357200D01*
X264145057Y-192428629D01*
X264216486Y-192571486D01*
X264216486Y-192785771D01*
X264145057Y-192928629D01*
X264073629Y-193000057D01*
X263930771Y-193071486D01*
X263359343Y-193071486D01*
X265430771Y-193714343D02*
X265287914Y-193785771D01*
X265002200Y-193785771D01*
X264859343Y-193714343D01*
X264787914Y-193571486D01*
X264787914Y-193000057D01*
X264859343Y-192857200D01*
X265002200Y-192785771D01*
X265287914Y-192785771D01*
X265430771Y-192857200D01*
X265502200Y-193000057D01*
X265502200Y-193142914D01*
X264787914Y-193285771D01*
X266002200Y-192785771D02*
X266359343Y-193785771D01*
X266716485Y-192785771D01*
X267287914Y-193642914D02*
X267359342Y-193714343D01*
X267287914Y-193785771D01*
X267216485Y-193714343D01*
X267287914Y-193642914D01*
X267287914Y-193785771D01*
X267287914Y-192857200D02*
X267359342Y-192928629D01*
X267287914Y-193000057D01*
X267216485Y-192928629D01*
X267287914Y-192857200D01*
X267287914Y-193000057D01*
X269002200Y-192285771D02*
X269930771Y-192285771D01*
X269430771Y-192857200D01*
X269645057Y-192857200D01*
X269787914Y-192928629D01*
X269859343Y-193000057D01*
X269930771Y-193142914D01*
X269930771Y-193500057D01*
X269859343Y-193642914D01*
X269787914Y-193714343D01*
X269645057Y-193785771D01*
X269216485Y-193785771D01*
X269073628Y-193714343D01*
X269002200Y-193642914D01*
D10*
X178287914Y-193714343D02*
X178502200Y-193785771D01*
X178859343Y-193785771D01*
X179002200Y-193714343D01*
X179073629Y-193642914D01*
X179145057Y-193500057D01*
X179145057Y-193357200D01*
X179073629Y-193214343D01*
X179002200Y-193142914D01*
X178859343Y-193071486D01*
X178573629Y-193000057D01*
X178430771Y-192928629D01*
X178359343Y-192857200D01*
X178287914Y-192714343D01*
X178287914Y-192571486D01*
X178359343Y-192428629D01*
X178430771Y-192357200D01*
X178573629Y-192285771D01*
X178930771Y-192285771D01*
X179145057Y-192357200D01*
X179787914Y-193785771D02*
X179787914Y-192785771D01*
X179787914Y-192285771D02*
X179716485Y-192357200D01*
X179787914Y-192428629D01*
X179859342Y-192357200D01*
X179787914Y-192285771D01*
X179787914Y-192428629D01*
X180359343Y-192785771D02*
X181145057Y-192785771D01*
X180359343Y-193785771D01*
X181145057Y-193785771D01*
X182287914Y-193714343D02*
X182145057Y-193785771D01*
X181859343Y-193785771D01*
X181716486Y-193714343D01*
X181645057Y-193571486D01*
X181645057Y-193000057D01*
X181716486Y-192857200D01*
X181859343Y-192785771D01*
X182145057Y-192785771D01*
X182287914Y-192857200D01*
X182359343Y-193000057D01*
X182359343Y-193142914D01*
X181645057Y-193285771D01*
X183002200Y-193642914D02*
X183073628Y-193714343D01*
X183002200Y-193785771D01*
X182930771Y-193714343D01*
X183002200Y-193642914D01*
X183002200Y-193785771D01*
X183002200Y-192857200D02*
X183073628Y-192928629D01*
X183002200Y-193000057D01*
X182930771Y-192928629D01*
X183002200Y-192857200D01*
X183002200Y-193000057D01*
X184787914Y-193357200D02*
X185502200Y-193357200D01*
X184645057Y-193785771D02*
X185145057Y-192285771D01*
X185645057Y-193785771D01*
X186787914Y-192785771D02*
X186787914Y-193785771D01*
X186430771Y-192214343D02*
X186073628Y-193285771D01*
X187002200Y-193285771D01*
X263359343Y-196585771D02*
X263359343Y-195085771D01*
X264716486Y-196585771D02*
X264716486Y-195085771D01*
X264716486Y-196514343D02*
X264573629Y-196585771D01*
X264287915Y-196585771D01*
X264145057Y-196514343D01*
X264073629Y-196442914D01*
X264002200Y-196300057D01*
X264002200Y-195871486D01*
X264073629Y-195728629D01*
X264145057Y-195657200D01*
X264287915Y-195585771D01*
X264573629Y-195585771D01*
X264716486Y-195657200D01*
X265430772Y-196442914D02*
X265502200Y-196514343D01*
X265430772Y-196585771D01*
X265359343Y-196514343D01*
X265430772Y-196442914D01*
X265430772Y-196585771D01*
X265430772Y-195657200D02*
X265502200Y-195728629D01*
X265430772Y-195800057D01*
X265359343Y-195728629D01*
X265430772Y-195657200D01*
X265430772Y-195800057D01*
X268073629Y-196585771D02*
X267216486Y-196585771D01*
X267645058Y-196585771D02*
X267645058Y-195085771D01*
X267502201Y-195300057D01*
X267359343Y-195442914D01*
X267216486Y-195514343D01*
X269787914Y-195014343D02*
X268502200Y-196942914D01*
X271073629Y-196585771D02*
X270216486Y-196585771D01*
X270645058Y-196585771D02*
X270645058Y-195085771D01*
X270502201Y-195300057D01*
X270359343Y-195442914D01*
X270216486Y-195514343D01*
X177002200Y-187507200D02*
X285002200Y-187507200D01*
D12*
X178454581Y-188211962D02*
X179597438Y-188211962D01*
X178776010Y-190211962D02*
X179026010Y-188211962D01*
X180014105Y-190211962D02*
X180180771Y-188878629D01*
X180264105Y-188211962D02*
X180156962Y-188307200D01*
X180240295Y-188402438D01*
X180347439Y-188307200D01*
X180264105Y-188211962D01*
X180240295Y-188402438D01*
X180847438Y-188878629D02*
X181609343Y-188878629D01*
X181216486Y-188211962D02*
X181002200Y-189926248D01*
X181073630Y-190116724D01*
X181252201Y-190211962D01*
X181442677Y-190211962D01*
X182395058Y-190211962D02*
X182216487Y-190116724D01*
X182145057Y-189926248D01*
X182359343Y-188211962D01*
X183930772Y-190116724D02*
X183728391Y-190211962D01*
X183347439Y-190211962D01*
X183168867Y-190116724D01*
X183097438Y-189926248D01*
X183192676Y-189164343D01*
X183311724Y-188973867D01*
X183514105Y-188878629D01*
X183895057Y-188878629D01*
X184073629Y-188973867D01*
X184145057Y-189164343D01*
X184121248Y-189354819D01*
X183145057Y-189545295D01*
X184895057Y-190021486D02*
X184978392Y-190116724D01*
X184871248Y-190211962D01*
X184787915Y-190116724D01*
X184895057Y-190021486D01*
X184871248Y-190211962D01*
X185026010Y-188973867D02*
X185109344Y-189069105D01*
X185002200Y-189164343D01*
X184918867Y-189069105D01*
X185026010Y-188973867D01*
X185002200Y-189164343D01*
X188299820Y-190211962D02*
X187347439Y-190211962D01*
X187597439Y-188211962D01*
X188966487Y-190211962D02*
X189133153Y-188878629D01*
X189216487Y-188211962D02*
X189109344Y-188307200D01*
X189192677Y-188402438D01*
X189299821Y-188307200D01*
X189216487Y-188211962D01*
X189192677Y-188402438D01*
X189918868Y-190211962D02*
X190085534Y-188878629D01*
X190061725Y-189069105D02*
X190168869Y-188973867D01*
X190371249Y-188878629D01*
X190656963Y-188878629D01*
X190835535Y-188973867D01*
X190906963Y-189164343D01*
X190776011Y-190211962D01*
X190906963Y-189164343D02*
X191026011Y-188973867D01*
X191228392Y-188878629D01*
X191514106Y-188878629D01*
X191692678Y-188973867D01*
X191764106Y-189164343D01*
X191633154Y-190211962D01*
X193359345Y-190116724D02*
X193156964Y-190211962D01*
X192776012Y-190211962D01*
X192597440Y-190116724D01*
X192526011Y-189926248D01*
X192621249Y-189164343D01*
X192740297Y-188973867D01*
X192942678Y-188878629D01*
X193323630Y-188878629D01*
X193502202Y-188973867D01*
X193573630Y-189164343D01*
X193549821Y-189354819D01*
X192573630Y-189545295D01*
X194216488Y-190116724D02*
X194490298Y-190211962D01*
X194966488Y-190211962D01*
X195168869Y-190116724D01*
X195276011Y-190021486D01*
X195395060Y-189831010D01*
X195418869Y-189640533D01*
X195347440Y-189450057D01*
X195264107Y-189354819D01*
X195085535Y-189259581D01*
X194716488Y-189164343D01*
X194537917Y-189069105D01*
X194454583Y-188973867D01*
X194383154Y-188783390D01*
X194406964Y-188592914D01*
X194526011Y-188402438D01*
X194633155Y-188307200D01*
X194835536Y-188211962D01*
X195311726Y-188211962D01*
X195585536Y-188307200D01*
X196204583Y-190211962D02*
X196454583Y-188211962D01*
X196930774Y-188211962D01*
X197204583Y-188307200D01*
X197371250Y-188497676D01*
X197442679Y-188688152D01*
X197490298Y-189069105D01*
X197454584Y-189354819D01*
X197311727Y-189735771D01*
X197192678Y-189926248D01*
X196978393Y-190116724D01*
X196680774Y-190211962D01*
X196204583Y-190211962D01*
X199347441Y-190211962D02*
X198799821Y-189259581D01*
X198204583Y-190211962D02*
X198454583Y-188211962D01*
X199216488Y-188211962D01*
X199395059Y-188307200D01*
X199478393Y-188402438D01*
X199549822Y-188592914D01*
X199514107Y-188878629D01*
X199395060Y-189069105D01*
X199287916Y-189164343D01*
X199085535Y-189259581D01*
X198323630Y-189259581D01*
X200299821Y-189450057D02*
X201823631Y-189450057D01*
X202597440Y-190116724D02*
X202871250Y-190211962D01*
X203347440Y-190211962D01*
X203549821Y-190116724D01*
X203656963Y-190021486D01*
X203776012Y-189831010D01*
X203799821Y-189640533D01*
X203728392Y-189450057D01*
X203645059Y-189354819D01*
X203466487Y-189259581D01*
X203097440Y-189164343D01*
X202918869Y-189069105D01*
X202835535Y-188973867D01*
X202764106Y-188783390D01*
X202787916Y-188592914D01*
X202906963Y-188402438D01*
X203014107Y-188307200D01*
X203216488Y-188211962D01*
X203692678Y-188211962D01*
X203966488Y-188307200D01*
X204871250Y-190211962D02*
X204692679Y-190116724D01*
X204609344Y-190021486D01*
X204537916Y-189831010D01*
X204609344Y-189259581D01*
X204728392Y-189069105D01*
X204835536Y-188973867D01*
X205037916Y-188878629D01*
X205323630Y-188878629D01*
X205502202Y-188973867D01*
X205585535Y-189069105D01*
X205656963Y-189259581D01*
X205585535Y-189831010D01*
X205466487Y-190021486D01*
X205359345Y-190116724D01*
X205156964Y-190211962D01*
X204871250Y-190211962D01*
X206561725Y-188878629D02*
X206395059Y-190211962D01*
X206537916Y-189069105D02*
X206645060Y-188973867D01*
X206847440Y-188878629D01*
X207133154Y-188878629D01*
X207311726Y-188973867D01*
X207383154Y-189164343D01*
X207252202Y-190211962D01*
X208180773Y-188878629D02*
X208490298Y-190211962D01*
X209133154Y-188878629D02*
X208490298Y-190211962D01*
X208240298Y-190688152D01*
X208133154Y-190783390D01*
X207930773Y-190878629D01*
X211228393Y-188878629D02*
X211537918Y-190211962D01*
X212180774Y-188878629D01*
X213823633Y-190211962D02*
X212680775Y-190211962D01*
X213252204Y-190211962D02*
X213502204Y-188211962D01*
X213276014Y-188497676D01*
X213061728Y-188688152D01*
X212859346Y-188783390D01*
D10*
X178859343Y-185600057D02*
X178359343Y-185600057D01*
X178359343Y-186385771D02*
X178359343Y-184885771D01*
X179073629Y-184885771D01*
X179645057Y-186385771D02*
X179645057Y-185385771D01*
X179645057Y-184885771D02*
X179573628Y-184957200D01*
X179645057Y-185028629D01*
X179716485Y-184957200D01*
X179645057Y-184885771D01*
X179645057Y-185028629D01*
X180573629Y-186385771D02*
X180430771Y-186314343D01*
X180359343Y-186171486D01*
X180359343Y-184885771D01*
X181716485Y-186314343D02*
X181573628Y-186385771D01*
X181287914Y-186385771D01*
X181145057Y-186314343D01*
X181073628Y-186171486D01*
X181073628Y-185600057D01*
X181145057Y-185457200D01*
X181287914Y-185385771D01*
X181573628Y-185385771D01*
X181716485Y-185457200D01*
X181787914Y-185600057D01*
X181787914Y-185742914D01*
X181073628Y-185885771D01*
X182430771Y-186242914D02*
X182502199Y-186314343D01*
X182430771Y-186385771D01*
X182359342Y-186314343D01*
X182430771Y-186242914D01*
X182430771Y-186385771D01*
X182430771Y-185457200D02*
X182502199Y-185528629D01*
X182430771Y-185600057D01*
X182359342Y-185528629D01*
X182430771Y-185457200D01*
X182430771Y-185600057D01*
X185002200Y-186385771D02*
X184287914Y-186385771D01*
X184287914Y-184885771D01*
X185502200Y-186385771D02*
X185502200Y-185385771D01*
X185502200Y-184885771D02*
X185430771Y-184957200D01*
X185502200Y-185028629D01*
X185573628Y-184957200D01*
X185502200Y-184885771D01*
X185502200Y-185028629D01*
X186216486Y-186385771D02*
X186216486Y-185385771D01*
X186216486Y-185528629D02*
X186287914Y-185457200D01*
X186430772Y-185385771D01*
X186645057Y-185385771D01*
X186787914Y-185457200D01*
X186859343Y-185600057D01*
X186859343Y-186385771D01*
X186859343Y-185600057D02*
X186930772Y-185457200D01*
X187073629Y-185385771D01*
X187287914Y-185385771D01*
X187430772Y-185457200D01*
X187502200Y-185600057D01*
X187502200Y-186385771D01*
X188787914Y-186314343D02*
X188645057Y-186385771D01*
X188359343Y-186385771D01*
X188216486Y-186314343D01*
X188145057Y-186171486D01*
X188145057Y-185600057D01*
X188216486Y-185457200D01*
X188359343Y-185385771D01*
X188645057Y-185385771D01*
X188787914Y-185457200D01*
X188859343Y-185600057D01*
X188859343Y-185742914D01*
X188145057Y-185885771D01*
X189430771Y-186314343D02*
X189645057Y-186385771D01*
X190002200Y-186385771D01*
X190145057Y-186314343D01*
X190216486Y-186242914D01*
X190287914Y-186100057D01*
X190287914Y-185957200D01*
X190216486Y-185814343D01*
X190145057Y-185742914D01*
X190002200Y-185671486D01*
X189716486Y-185600057D01*
X189573628Y-185528629D01*
X189502200Y-185457200D01*
X189430771Y-185314343D01*
X189430771Y-185171486D01*
X189502200Y-185028629D01*
X189573628Y-184957200D01*
X189716486Y-184885771D01*
X190073628Y-184885771D01*
X190287914Y-184957200D01*
X190930771Y-186385771D02*
X190930771Y-184885771D01*
X191287914Y-184885771D01*
X191502199Y-184957200D01*
X191645057Y-185100057D01*
X191716485Y-185242914D01*
X191787914Y-185528629D01*
X191787914Y-185742914D01*
X191716485Y-186028629D01*
X191645057Y-186171486D01*
X191502199Y-186314343D01*
X191287914Y-186385771D01*
X190930771Y-186385771D01*
X193287914Y-186385771D02*
X192787914Y-185671486D01*
X192430771Y-186385771D02*
X192430771Y-184885771D01*
X193002199Y-184885771D01*
X193145057Y-184957200D01*
X193216485Y-185028629D01*
X193287914Y-185171486D01*
X193287914Y-185385771D01*
X193216485Y-185528629D01*
X193145057Y-185600057D01*
X193002199Y-185671486D01*
X192430771Y-185671486D01*
X193573628Y-186528629D02*
X194716485Y-186528629D01*
X195002199Y-186314343D02*
X195216485Y-186385771D01*
X195573628Y-186385771D01*
X195716485Y-186314343D01*
X195787914Y-186242914D01*
X195859342Y-186100057D01*
X195859342Y-185957200D01*
X195787914Y-185814343D01*
X195716485Y-185742914D01*
X195573628Y-185671486D01*
X195287914Y-185600057D01*
X195145056Y-185528629D01*
X195073628Y-185457200D01*
X195002199Y-185314343D01*
X195002199Y-185171486D01*
X195073628Y-185028629D01*
X195145056Y-184957200D01*
X195287914Y-184885771D01*
X195645056Y-184885771D01*
X195859342Y-184957200D01*
X196716485Y-186385771D02*
X196573627Y-186314343D01*
X196502199Y-186242914D01*
X196430770Y-186100057D01*
X196430770Y-185671486D01*
X196502199Y-185528629D01*
X196573627Y-185457200D01*
X196716485Y-185385771D01*
X196930770Y-185385771D01*
X197073627Y-185457200D01*
X197145056Y-185528629D01*
X197216485Y-185671486D01*
X197216485Y-186100057D01*
X197145056Y-186242914D01*
X197073627Y-186314343D01*
X196930770Y-186385771D01*
X196716485Y-186385771D01*
X197859342Y-185385771D02*
X197859342Y-186385771D01*
X197859342Y-185528629D02*
X197930770Y-185457200D01*
X198073628Y-185385771D01*
X198287913Y-185385771D01*
X198430770Y-185457200D01*
X198502199Y-185600057D01*
X198502199Y-186385771D01*
X199073628Y-185385771D02*
X199430771Y-186385771D01*
X199787913Y-185385771D02*
X199430771Y-186385771D01*
X199287913Y-186742914D01*
X199216485Y-186814343D01*
X199073628Y-186885771D01*
X200359342Y-186242914D02*
X200430770Y-186314343D01*
X200359342Y-186385771D01*
X200287913Y-186314343D01*
X200359342Y-186242914D01*
X200359342Y-186385771D01*
X201073628Y-186385771D02*
X201073628Y-184885771D01*
X201216485Y-185814343D02*
X201645056Y-186385771D01*
X201645056Y-185385771D02*
X201073628Y-185957200D01*
X202287914Y-186385771D02*
X202287914Y-185385771D01*
X202287914Y-184885771D02*
X202216485Y-184957200D01*
X202287914Y-185028629D01*
X202359342Y-184957200D01*
X202287914Y-184885771D01*
X202287914Y-185028629D01*
X203645057Y-186314343D02*
X203502200Y-186385771D01*
X203216486Y-186385771D01*
X203073628Y-186314343D01*
X203002200Y-186242914D01*
X202930771Y-186100057D01*
X202930771Y-185671486D01*
X203002200Y-185528629D01*
X203073628Y-185457200D01*
X203216486Y-185385771D01*
X203502200Y-185385771D01*
X203645057Y-185457200D01*
X204930771Y-186385771D02*
X204930771Y-185600057D01*
X204859342Y-185457200D01*
X204716485Y-185385771D01*
X204430771Y-185385771D01*
X204287914Y-185457200D01*
X204930771Y-186314343D02*
X204787914Y-186385771D01*
X204430771Y-186385771D01*
X204287914Y-186314343D01*
X204216485Y-186171486D01*
X204216485Y-186028629D01*
X204287914Y-185885771D01*
X204430771Y-185814343D01*
X204787914Y-185814343D01*
X204930771Y-185742914D01*
X206287914Y-186385771D02*
X206287914Y-184885771D01*
X206287914Y-186314343D02*
X206145057Y-186385771D01*
X205859343Y-186385771D01*
X205716485Y-186314343D01*
X205645057Y-186242914D01*
X205573628Y-186100057D01*
X205573628Y-185671486D01*
X205645057Y-185528629D01*
X205716485Y-185457200D01*
X205859343Y-185385771D01*
X206145057Y-185385771D01*
X206287914Y-185457200D01*
X206645057Y-186528629D02*
X207787914Y-186528629D01*
X208145057Y-185385771D02*
X208145057Y-186885771D01*
X208145057Y-185457200D02*
X208287914Y-185385771D01*
X208573628Y-185385771D01*
X208716485Y-185457200D01*
X208787914Y-185528629D01*
X208859343Y-185671486D01*
X208859343Y-186100057D01*
X208787914Y-186242914D01*
X208716485Y-186314343D01*
X208573628Y-186385771D01*
X208287914Y-186385771D01*
X208145057Y-186314343D01*
X210145057Y-186314343D02*
X210002200Y-186385771D01*
X209716486Y-186385771D01*
X209573628Y-186314343D01*
X209502200Y-186242914D01*
X209430771Y-186100057D01*
X209430771Y-185671486D01*
X209502200Y-185528629D01*
X209573628Y-185457200D01*
X209716486Y-185385771D01*
X210002200Y-185385771D01*
X210145057Y-185457200D01*
X210787914Y-186385771D02*
X210787914Y-184885771D01*
X210787914Y-185457200D02*
X210930771Y-185385771D01*
X211216485Y-185385771D01*
X211359342Y-185457200D01*
X211430771Y-185528629D01*
X211502200Y-185671486D01*
X211502200Y-186100057D01*
X211430771Y-186242914D01*
X211359342Y-186314343D01*
X211216485Y-186385771D01*
X210930771Y-186385771D01*
X210787914Y-186314343D01*
X177002200Y-181507200D02*
X285002200Y-181507200D01*
X178287914Y-183614343D02*
X178502200Y-183685771D01*
X178859343Y-183685771D01*
X179002200Y-183614343D01*
X179073629Y-183542914D01*
X179145057Y-183400057D01*
X179145057Y-183257200D01*
X179073629Y-183114343D01*
X179002200Y-183042914D01*
X178859343Y-182971486D01*
X178573629Y-182900057D01*
X178430771Y-182828629D01*
X178359343Y-182757200D01*
X178287914Y-182614343D01*
X178287914Y-182471486D01*
X178359343Y-182328629D01*
X178430771Y-182257200D01*
X178573629Y-182185771D01*
X178930771Y-182185771D01*
X179145057Y-182257200D01*
X179787914Y-183685771D02*
X179787914Y-182185771D01*
X180430771Y-183685771D02*
X180430771Y-182900057D01*
X180359342Y-182757200D01*
X180216485Y-182685771D01*
X180002200Y-182685771D01*
X179859342Y-182757200D01*
X179787914Y-182828629D01*
X181716485Y-183614343D02*
X181573628Y-183685771D01*
X181287914Y-183685771D01*
X181145057Y-183614343D01*
X181073628Y-183471486D01*
X181073628Y-182900057D01*
X181145057Y-182757200D01*
X181287914Y-182685771D01*
X181573628Y-182685771D01*
X181716485Y-182757200D01*
X181787914Y-182900057D01*
X181787914Y-183042914D01*
X181073628Y-183185771D01*
X183002199Y-183614343D02*
X182859342Y-183685771D01*
X182573628Y-183685771D01*
X182430771Y-183614343D01*
X182359342Y-183471486D01*
X182359342Y-182900057D01*
X182430771Y-182757200D01*
X182573628Y-182685771D01*
X182859342Y-182685771D01*
X183002199Y-182757200D01*
X183073628Y-182900057D01*
X183073628Y-183042914D01*
X182359342Y-183185771D01*
X183502199Y-182685771D02*
X184073628Y-182685771D01*
X183716485Y-182185771D02*
X183716485Y-183471486D01*
X183787913Y-183614343D01*
X183930771Y-183685771D01*
X184073628Y-183685771D01*
X184573628Y-183542914D02*
X184645056Y-183614343D01*
X184573628Y-183685771D01*
X184502199Y-183614343D01*
X184573628Y-183542914D01*
X184573628Y-183685771D01*
X184573628Y-182757200D02*
X184645056Y-182828629D01*
X184573628Y-182900057D01*
X184502199Y-182828629D01*
X184573628Y-182757200D01*
X184573628Y-182900057D01*
D11*
X179216486Y-180542914D02*
X179145057Y-180614343D01*
X178930771Y-180685771D01*
X178787914Y-180685771D01*
X178573629Y-180614343D01*
X178430771Y-180471486D01*
X178359343Y-180328629D01*
X178287914Y-180042914D01*
X178287914Y-179828629D01*
X178359343Y-179542914D01*
X178430771Y-179400057D01*
X178573629Y-179257200D01*
X178787914Y-179185771D01*
X178930771Y-179185771D01*
X179145057Y-179257200D01*
X179216486Y-179328629D01*
X180073629Y-180685771D02*
X179930771Y-180614343D01*
X179859343Y-180542914D01*
X179787914Y-180400057D01*
X179787914Y-179971486D01*
X179859343Y-179828629D01*
X179930771Y-179757200D01*
X180073629Y-179685771D01*
X180287914Y-179685771D01*
X180430771Y-179757200D01*
X180502200Y-179828629D01*
X180573629Y-179971486D01*
X180573629Y-180400057D01*
X180502200Y-180542914D01*
X180430771Y-180614343D01*
X180287914Y-180685771D01*
X180073629Y-180685771D01*
X181216486Y-179685771D02*
X181216486Y-181185771D01*
X181216486Y-179757200D02*
X181359343Y-179685771D01*
X181645057Y-179685771D01*
X181787914Y-179757200D01*
X181859343Y-179828629D01*
X181930772Y-179971486D01*
X181930772Y-180400057D01*
X181859343Y-180542914D01*
X181787914Y-180614343D01*
X181645057Y-180685771D01*
X181359343Y-180685771D01*
X181216486Y-180614343D01*
X182430772Y-179685771D02*
X182787915Y-180685771D01*
X183145057Y-179685771D02*
X182787915Y-180685771D01*
X182645057Y-181042914D01*
X182573629Y-181114343D01*
X182430772Y-181185771D01*
X183716486Y-180685771D02*
X183716486Y-179685771D01*
X183716486Y-179971486D02*
X183787914Y-179828629D01*
X183859343Y-179757200D01*
X184002200Y-179685771D01*
X184145057Y-179685771D01*
X184645057Y-180685771D02*
X184645057Y-179685771D01*
X184645057Y-179185771D02*
X184573628Y-179257200D01*
X184645057Y-179328629D01*
X184716485Y-179257200D01*
X184645057Y-179185771D01*
X184645057Y-179328629D01*
X186002200Y-179685771D02*
X186002200Y-180900057D01*
X185930771Y-181042914D01*
X185859343Y-181114343D01*
X185716486Y-181185771D01*
X185502200Y-181185771D01*
X185359343Y-181114343D01*
X186002200Y-180614343D02*
X185859343Y-180685771D01*
X185573629Y-180685771D01*
X185430771Y-180614343D01*
X185359343Y-180542914D01*
X185287914Y-180400057D01*
X185287914Y-179971486D01*
X185359343Y-179828629D01*
X185430771Y-179757200D01*
X185573629Y-179685771D01*
X185859343Y-179685771D01*
X186002200Y-179757200D01*
X186716486Y-180685771D02*
X186716486Y-179185771D01*
X187359343Y-180685771D02*
X187359343Y-179900057D01*
X187287914Y-179757200D01*
X187145057Y-179685771D01*
X186930772Y-179685771D01*
X186787914Y-179757200D01*
X186716486Y-179828629D01*
X187859343Y-179685771D02*
X188430772Y-179685771D01*
X188073629Y-179185771D02*
X188073629Y-180471486D01*
X188145057Y-180614343D01*
X188287915Y-180685771D01*
X188430772Y-180685771D01*
X190002200Y-179328629D02*
X190073629Y-179257200D01*
X190216486Y-179185771D01*
X190573629Y-179185771D01*
X190716486Y-179257200D01*
X190787915Y-179328629D01*
X190859343Y-179471486D01*
X190859343Y-179614343D01*
X190787915Y-179828629D01*
X189930772Y-180685771D01*
X190859343Y-180685771D01*
X191787914Y-179185771D02*
X191930771Y-179185771D01*
X192073628Y-179257200D01*
X192145057Y-179328629D01*
X192216486Y-179471486D01*
X192287914Y-179757200D01*
X192287914Y-180114343D01*
X192216486Y-180400057D01*
X192145057Y-180542914D01*
X192073628Y-180614343D01*
X191930771Y-180685771D01*
X191787914Y-180685771D01*
X191645057Y-180614343D01*
X191573628Y-180542914D01*
X191502200Y-180400057D01*
X191430771Y-180114343D01*
X191430771Y-179757200D01*
X191502200Y-179471486D01*
X191573628Y-179328629D01*
X191645057Y-179257200D01*
X191787914Y-179185771D01*
X193716485Y-180685771D02*
X192859342Y-180685771D01*
X193287914Y-180685771D02*
X193287914Y-179185771D01*
X193145057Y-179400057D01*
X193002199Y-179542914D01*
X192859342Y-179614343D01*
X195002199Y-179185771D02*
X194716485Y-179185771D01*
X194573628Y-179257200D01*
X194502199Y-179328629D01*
X194359342Y-179542914D01*
X194287913Y-179828629D01*
X194287913Y-180400057D01*
X194359342Y-180542914D01*
X194430770Y-180614343D01*
X194573628Y-180685771D01*
X194859342Y-180685771D01*
X195002199Y-180614343D01*
X195073628Y-180542914D01*
X195145056Y-180400057D01*
X195145056Y-180042914D01*
X195073628Y-179900057D01*
X195002199Y-179828629D01*
X194859342Y-179757200D01*
X194573628Y-179757200D01*
X194430770Y-179828629D01*
X194359342Y-179900057D01*
X194287913Y-180042914D01*
X197645056Y-180685771D02*
X196930770Y-180685771D01*
X196930770Y-179185771D01*
X198145056Y-180685771D02*
X198145056Y-179685771D01*
X198145056Y-179185771D02*
X198073627Y-179257200D01*
X198145056Y-179328629D01*
X198216484Y-179257200D01*
X198145056Y-179185771D01*
X198145056Y-179328629D01*
X198859342Y-180685771D02*
X198859342Y-179685771D01*
X198859342Y-179828629D02*
X198930770Y-179757200D01*
X199073628Y-179685771D01*
X199287913Y-179685771D01*
X199430770Y-179757200D01*
X199502199Y-179900057D01*
X199502199Y-180685771D01*
X199502199Y-179900057D02*
X199573628Y-179757200D01*
X199716485Y-179685771D01*
X199930770Y-179685771D01*
X200073628Y-179757200D01*
X200145056Y-179900057D01*
X200145056Y-180685771D01*
X201430770Y-180614343D02*
X201287913Y-180685771D01*
X201002199Y-180685771D01*
X200859342Y-180614343D01*
X200787913Y-180471486D01*
X200787913Y-179900057D01*
X200859342Y-179757200D01*
X201002199Y-179685771D01*
X201287913Y-179685771D01*
X201430770Y-179757200D01*
X201502199Y-179900057D01*
X201502199Y-180042914D01*
X200787913Y-180185771D01*
X203287913Y-180685771D02*
X203287913Y-179185771D01*
X203787913Y-180257200D01*
X204287913Y-179185771D01*
X204287913Y-180685771D01*
X205002199Y-180685771D02*
X205002199Y-179685771D01*
X205002199Y-179185771D02*
X204930770Y-179257200D01*
X205002199Y-179328629D01*
X205073627Y-179257200D01*
X205002199Y-179185771D01*
X205002199Y-179328629D01*
X206359342Y-180614343D02*
X206216485Y-180685771D01*
X205930771Y-180685771D01*
X205787913Y-180614343D01*
X205716485Y-180542914D01*
X205645056Y-180400057D01*
X205645056Y-179971486D01*
X205716485Y-179828629D01*
X205787913Y-179757200D01*
X205930771Y-179685771D01*
X206216485Y-179685771D01*
X206359342Y-179757200D01*
X207002199Y-180685771D02*
X207002199Y-179685771D01*
X207002199Y-179971486D02*
X207073627Y-179828629D01*
X207145056Y-179757200D01*
X207287913Y-179685771D01*
X207430770Y-179685771D01*
X208145056Y-180685771D02*
X208002198Y-180614343D01*
X207930770Y-180542914D01*
X207859341Y-180400057D01*
X207859341Y-179971486D01*
X207930770Y-179828629D01*
X208002198Y-179757200D01*
X208145056Y-179685771D01*
X208359341Y-179685771D01*
X208502198Y-179757200D01*
X208573627Y-179828629D01*
X208645056Y-179971486D01*
X208645056Y-180400057D01*
X208573627Y-180542914D01*
X208502198Y-180614343D01*
X208359341Y-180685771D01*
X208145056Y-180685771D01*
X209216484Y-180614343D02*
X209359341Y-180685771D01*
X209645056Y-180685771D01*
X209787913Y-180614343D01*
X209859341Y-180471486D01*
X209859341Y-180400057D01*
X209787913Y-180257200D01*
X209645056Y-180185771D01*
X209430770Y-180185771D01*
X209287913Y-180114343D01*
X209216484Y-179971486D01*
X209216484Y-179900057D01*
X209287913Y-179757200D01*
X209430770Y-179685771D01*
X209645056Y-179685771D01*
X209787913Y-179757200D01*
X210359342Y-179685771D02*
X210716485Y-180685771D01*
X211073627Y-179685771D02*
X210716485Y-180685771D01*
X210573627Y-181042914D01*
X210502199Y-181114343D01*
X210359342Y-181185771D01*
X211573627Y-180614343D02*
X211716484Y-180685771D01*
X212002199Y-180685771D01*
X212145056Y-180614343D01*
X212216484Y-180471486D01*
X212216484Y-180400057D01*
X212145056Y-180257200D01*
X212002199Y-180185771D01*
X211787913Y-180185771D01*
X211645056Y-180114343D01*
X211573627Y-179971486D01*
X211573627Y-179900057D01*
X211645056Y-179757200D01*
X211787913Y-179685771D01*
X212002199Y-179685771D01*
X212145056Y-179757200D01*
X212645056Y-179685771D02*
X213216485Y-179685771D01*
X212859342Y-179185771D02*
X212859342Y-180471486D01*
X212930770Y-180614343D01*
X213073628Y-180685771D01*
X213216485Y-180685771D01*
X214287913Y-180614343D02*
X214145056Y-180685771D01*
X213859342Y-180685771D01*
X213716485Y-180614343D01*
X213645056Y-180471486D01*
X213645056Y-179900057D01*
X213716485Y-179757200D01*
X213859342Y-179685771D01*
X214145056Y-179685771D01*
X214287913Y-179757200D01*
X214359342Y-179900057D01*
X214359342Y-180042914D01*
X213645056Y-180185771D01*
X215002199Y-180685771D02*
X215002199Y-179685771D01*
X215002199Y-179828629D02*
X215073627Y-179757200D01*
X215216485Y-179685771D01*
X215430770Y-179685771D01*
X215573627Y-179757200D01*
X215645056Y-179900057D01*
X215645056Y-180685771D01*
X215645056Y-179900057D02*
X215716485Y-179757200D01*
X215859342Y-179685771D01*
X216073627Y-179685771D01*
X216216485Y-179757200D01*
X216287913Y-179900057D01*
X216287913Y-180685771D01*
X216930770Y-180614343D02*
X217073627Y-180685771D01*
X217359342Y-180685771D01*
X217502199Y-180614343D01*
X217573627Y-180471486D01*
X217573627Y-180400057D01*
X217502199Y-180257200D01*
X217359342Y-180185771D01*
X217145056Y-180185771D01*
X217002199Y-180114343D01*
X216930770Y-179971486D01*
X216930770Y-179900057D01*
X217002199Y-179757200D01*
X217145056Y-179685771D01*
X217359342Y-179685771D01*
X217502199Y-179757200D01*
X218287913Y-180614343D02*
X218287913Y-180685771D01*
X218216485Y-180828629D01*
X218145056Y-180900057D01*
X220787914Y-180685771D02*
X220073628Y-180685771D01*
X220073628Y-179185771D01*
X221073628Y-179685771D02*
X221645057Y-179685771D01*
X221287914Y-179185771D02*
X221287914Y-180471486D01*
X221359342Y-180614343D01*
X221502200Y-180685771D01*
X221645057Y-180685771D01*
X222787914Y-180685771D02*
X222787914Y-179185771D01*
X222787914Y-180614343D02*
X222645057Y-180685771D01*
X222359343Y-180685771D01*
X222216485Y-180614343D01*
X222145057Y-180542914D01*
X222073628Y-180400057D01*
X222073628Y-179971486D01*
X222145057Y-179828629D01*
X222216485Y-179757200D01*
X222359343Y-179685771D01*
X222645057Y-179685771D01*
X222787914Y-179757200D01*
X223502200Y-180542914D02*
X223573628Y-180614343D01*
X223502200Y-180685771D01*
X223430771Y-180614343D01*
X223502200Y-180542914D01*
X223502200Y-180685771D01*
D10*
X178216486Y-176185771D02*
X178573629Y-177685771D01*
X178859343Y-176614343D01*
X179145057Y-177685771D01*
X179502200Y-176185771D01*
X180359343Y-176185771D02*
X180645057Y-176185771D01*
X180787915Y-176257200D01*
X180930772Y-176400057D01*
X181002200Y-176685771D01*
X181002200Y-177185771D01*
X180930772Y-177471486D01*
X180787915Y-177614343D01*
X180645057Y-177685771D01*
X180359343Y-177685771D01*
X180216486Y-177614343D01*
X180073629Y-177471486D01*
X180002200Y-177185771D01*
X180002200Y-176685771D01*
X180073629Y-176400057D01*
X180216486Y-176257200D01*
X180359343Y-176185771D01*
X182502201Y-177685771D02*
X182002201Y-176971486D01*
X181645058Y-177685771D02*
X181645058Y-176185771D01*
X182216486Y-176185771D01*
X182359344Y-176257200D01*
X182430772Y-176328629D01*
X182502201Y-176471486D01*
X182502201Y-176685771D01*
X182430772Y-176828629D01*
X182359344Y-176900057D01*
X182216486Y-176971486D01*
X181645058Y-176971486D01*
X183145058Y-177685771D02*
X183145058Y-176185771D01*
X184002201Y-177685771D02*
X183359344Y-176828629D01*
X184002201Y-176185771D02*
X183145058Y-177042914D01*
X185787915Y-177685771D02*
X185787915Y-176185771D01*
X186430772Y-177614343D02*
X186645058Y-177685771D01*
X187002201Y-177685771D01*
X187145058Y-177614343D01*
X187216487Y-177542914D01*
X187287915Y-177400057D01*
X187287915Y-177257200D01*
X187216487Y-177114343D01*
X187145058Y-177042914D01*
X187002201Y-176971486D01*
X186716487Y-176900057D01*
X186573629Y-176828629D01*
X186502201Y-176757200D01*
X186430772Y-176614343D01*
X186430772Y-176471486D01*
X186502201Y-176328629D01*
X186573629Y-176257200D01*
X186716487Y-176185771D01*
X187073629Y-176185771D01*
X187287915Y-176257200D01*
X189930772Y-177542914D02*
X189859343Y-177614343D01*
X189645057Y-177685771D01*
X189502200Y-177685771D01*
X189287915Y-177614343D01*
X189145057Y-177471486D01*
X189073629Y-177328629D01*
X189002200Y-177042914D01*
X189002200Y-176828629D01*
X189073629Y-176542914D01*
X189145057Y-176400057D01*
X189287915Y-176257200D01*
X189502200Y-176185771D01*
X189645057Y-176185771D01*
X189859343Y-176257200D01*
X189930772Y-176328629D01*
X190859343Y-176185771D02*
X191145057Y-176185771D01*
X191287915Y-176257200D01*
X191430772Y-176400057D01*
X191502200Y-176685771D01*
X191502200Y-177185771D01*
X191430772Y-177471486D01*
X191287915Y-177614343D01*
X191145057Y-177685771D01*
X190859343Y-177685771D01*
X190716486Y-177614343D01*
X190573629Y-177471486D01*
X190502200Y-177185771D01*
X190502200Y-176685771D01*
X190573629Y-176400057D01*
X190716486Y-176257200D01*
X190859343Y-176185771D01*
X191930772Y-176185771D02*
X192430772Y-177685771D01*
X192930772Y-176185771D01*
X193430772Y-176900057D02*
X193930772Y-176900057D01*
X194145058Y-177685771D02*
X193430772Y-177685771D01*
X193430772Y-176185771D01*
X194145058Y-176185771D01*
X195645058Y-177685771D02*
X195145058Y-176971486D01*
X194787915Y-177685771D02*
X194787915Y-176185771D01*
X195359343Y-176185771D01*
X195502201Y-176257200D01*
X195573629Y-176328629D01*
X195645058Y-176471486D01*
X195645058Y-176685771D01*
X195573629Y-176828629D01*
X195502201Y-176900057D01*
X195359343Y-176971486D01*
X194787915Y-176971486D01*
X196287915Y-176900057D02*
X196787915Y-176900057D01*
X197002201Y-177685771D02*
X196287915Y-177685771D01*
X196287915Y-176185771D01*
X197002201Y-176185771D01*
X197645058Y-177685771D02*
X197645058Y-176185771D01*
X198002201Y-176185771D01*
X198216486Y-176257200D01*
X198359344Y-176400057D01*
X198430772Y-176542914D01*
X198502201Y-176828629D01*
X198502201Y-177042914D01*
X198430772Y-177328629D01*
X198359344Y-177471486D01*
X198216486Y-177614343D01*
X198002201Y-177685771D01*
X197645058Y-177685771D01*
X200287915Y-176185771D02*
X200287915Y-177400057D01*
X200359343Y-177542914D01*
X200430772Y-177614343D01*
X200573629Y-177685771D01*
X200859343Y-177685771D01*
X201002201Y-177614343D01*
X201073629Y-177542914D01*
X201145058Y-177400057D01*
X201145058Y-176185771D01*
X201859344Y-177685771D02*
X201859344Y-176185771D01*
X202716487Y-177685771D01*
X202716487Y-176185771D01*
X203430773Y-177685771D02*
X203430773Y-176185771D01*
X203787916Y-176185771D01*
X204002201Y-176257200D01*
X204145059Y-176400057D01*
X204216487Y-176542914D01*
X204287916Y-176828629D01*
X204287916Y-177042914D01*
X204216487Y-177328629D01*
X204145059Y-177471486D01*
X204002201Y-177614343D01*
X203787916Y-177685771D01*
X203430773Y-177685771D01*
X204930773Y-176900057D02*
X205430773Y-176900057D01*
X205645059Y-177685771D02*
X204930773Y-177685771D01*
X204930773Y-176185771D01*
X205645059Y-176185771D01*
X207145059Y-177685771D02*
X206645059Y-176971486D01*
X206287916Y-177685771D02*
X206287916Y-176185771D01*
X206859344Y-176185771D01*
X207002202Y-176257200D01*
X207073630Y-176328629D01*
X207145059Y-176471486D01*
X207145059Y-176685771D01*
X207073630Y-176828629D01*
X207002202Y-176900057D01*
X206859344Y-176971486D01*
X206287916Y-176971486D01*
X208859344Y-177257200D02*
X209573630Y-177257200D01*
X208716487Y-177685771D02*
X209216487Y-176185771D01*
X209716487Y-177685771D01*
X212216487Y-177542914D02*
X212145058Y-177614343D01*
X211930772Y-177685771D01*
X211787915Y-177685771D01*
X211573630Y-177614343D01*
X211430772Y-177471486D01*
X211359344Y-177328629D01*
X211287915Y-177042914D01*
X211287915Y-176828629D01*
X211359344Y-176542914D01*
X211430772Y-176400057D01*
X211573630Y-176257200D01*
X211787915Y-176185771D01*
X211930772Y-176185771D01*
X212145058Y-176257200D01*
X212216487Y-176328629D01*
X213716487Y-177685771D02*
X213216487Y-176971486D01*
X212859344Y-177685771D02*
X212859344Y-176185771D01*
X213430772Y-176185771D01*
X213573630Y-176257200D01*
X213645058Y-176328629D01*
X213716487Y-176471486D01*
X213716487Y-176685771D01*
X213645058Y-176828629D01*
X213573630Y-176900057D01*
X213430772Y-176971486D01*
X212859344Y-176971486D01*
X214359344Y-176900057D02*
X214859344Y-176900057D01*
X215073630Y-177685771D02*
X214359344Y-177685771D01*
X214359344Y-176185771D01*
X215073630Y-176185771D01*
X215645058Y-177257200D02*
X216359344Y-177257200D01*
X215502201Y-177685771D02*
X216002201Y-176185771D01*
X216502201Y-177685771D01*
X216787915Y-176185771D02*
X217645058Y-176185771D01*
X217216487Y-177685771D02*
X217216487Y-176185771D01*
X218145058Y-177685771D02*
X218145058Y-176185771D01*
X218645058Y-176185771D02*
X219145058Y-177685771D01*
X219645058Y-176185771D01*
X220145058Y-176900057D02*
X220645058Y-176900057D01*
X220859344Y-177685771D02*
X220145058Y-177685771D01*
X220145058Y-176185771D01*
X220859344Y-176185771D01*
X223502201Y-177542914D02*
X223430772Y-177614343D01*
X223216486Y-177685771D01*
X223073629Y-177685771D01*
X222859344Y-177614343D01*
X222716486Y-177471486D01*
X222645058Y-177328629D01*
X222573629Y-177042914D01*
X222573629Y-176828629D01*
X222645058Y-176542914D01*
X222716486Y-176400057D01*
X222859344Y-176257200D01*
X223073629Y-176185771D01*
X223216486Y-176185771D01*
X223430772Y-176257200D01*
X223502201Y-176328629D01*
X224430772Y-176185771D02*
X224716486Y-176185771D01*
X224859344Y-176257200D01*
X225002201Y-176400057D01*
X225073629Y-176685771D01*
X225073629Y-177185771D01*
X225002201Y-177471486D01*
X224859344Y-177614343D01*
X224716486Y-177685771D01*
X224430772Y-177685771D01*
X224287915Y-177614343D01*
X224145058Y-177471486D01*
X224073629Y-177185771D01*
X224073629Y-176685771D01*
X224145058Y-176400057D01*
X224287915Y-176257200D01*
X224430772Y-176185771D01*
X225716487Y-177685771D02*
X225716487Y-176185771D01*
X226216487Y-177257200D01*
X226716487Y-176185771D01*
X226716487Y-177685771D01*
X227430773Y-177685771D02*
X227430773Y-176185771D01*
X227930773Y-177257200D01*
X228430773Y-176185771D01*
X228430773Y-177685771D01*
X229430773Y-176185771D02*
X229716487Y-176185771D01*
X229859345Y-176257200D01*
X230002202Y-176400057D01*
X230073630Y-176685771D01*
X230073630Y-177185771D01*
X230002202Y-177471486D01*
X229859345Y-177614343D01*
X229716487Y-177685771D01*
X229430773Y-177685771D01*
X229287916Y-177614343D01*
X229145059Y-177471486D01*
X229073630Y-177185771D01*
X229073630Y-176685771D01*
X229145059Y-176400057D01*
X229287916Y-176257200D01*
X229430773Y-176185771D01*
X230716488Y-177685771D02*
X230716488Y-176185771D01*
X231573631Y-177685771D01*
X231573631Y-176185771D01*
X232216488Y-177614343D02*
X232430774Y-177685771D01*
X232787917Y-177685771D01*
X232930774Y-177614343D01*
X233002203Y-177542914D01*
X233073631Y-177400057D01*
X233073631Y-177257200D01*
X233002203Y-177114343D01*
X232930774Y-177042914D01*
X232787917Y-176971486D01*
X232502203Y-176900057D01*
X232359345Y-176828629D01*
X232287917Y-176757200D01*
X232216488Y-176614343D01*
X232216488Y-176471486D01*
X232287917Y-176328629D01*
X232359345Y-176257200D01*
X232502203Y-176185771D01*
X232859345Y-176185771D01*
X233073631Y-176257200D01*
X235573631Y-177685771D02*
X234859345Y-177685771D01*
X234859345Y-176185771D01*
X236073631Y-177685771D02*
X236073631Y-176185771D01*
X237645060Y-177542914D02*
X237573631Y-177614343D01*
X237359345Y-177685771D01*
X237216488Y-177685771D01*
X237002203Y-177614343D01*
X236859345Y-177471486D01*
X236787917Y-177328629D01*
X236716488Y-177042914D01*
X236716488Y-176828629D01*
X236787917Y-176542914D01*
X236859345Y-176400057D01*
X237002203Y-176257200D01*
X237216488Y-176185771D01*
X237359345Y-176185771D01*
X237573631Y-176257200D01*
X237645060Y-176328629D01*
X238287917Y-176900057D02*
X238787917Y-176900057D01*
X239002203Y-177685771D02*
X238287917Y-177685771D01*
X238287917Y-176185771D01*
X239002203Y-176185771D01*
X239645060Y-177685771D02*
X239645060Y-176185771D01*
X240502203Y-177685771D01*
X240502203Y-176185771D01*
X241145060Y-177614343D02*
X241359346Y-177685771D01*
X241716489Y-177685771D01*
X241859346Y-177614343D01*
X241930775Y-177542914D01*
X242002203Y-177400057D01*
X242002203Y-177257200D01*
X241930775Y-177114343D01*
X241859346Y-177042914D01*
X241716489Y-176971486D01*
X241430775Y-176900057D01*
X241287917Y-176828629D01*
X241216489Y-176757200D01*
X241145060Y-176614343D01*
X241145060Y-176471486D01*
X241216489Y-176328629D01*
X241287917Y-176257200D01*
X241430775Y-176185771D01*
X241787917Y-176185771D01*
X242002203Y-176257200D01*
X242645060Y-176900057D02*
X243145060Y-176900057D01*
X243359346Y-177685771D02*
X242645060Y-177685771D01*
X242645060Y-176185771D01*
X243359346Y-176185771D01*
X245573631Y-178257200D02*
X245502203Y-178185771D01*
X245359346Y-177971486D01*
X245287917Y-177828629D01*
X245216488Y-177614343D01*
X245145060Y-177257200D01*
X245145060Y-176971486D01*
X245216488Y-176614343D01*
X245287917Y-176400057D01*
X245359346Y-176257200D01*
X245502203Y-176042914D01*
X245573631Y-175971486D01*
X247002203Y-177542914D02*
X246930774Y-177614343D01*
X246716488Y-177685771D01*
X246573631Y-177685771D01*
X246359346Y-177614343D01*
X246216488Y-177471486D01*
X246145060Y-177328629D01*
X246073631Y-177042914D01*
X246073631Y-176828629D01*
X246145060Y-176542914D01*
X246216488Y-176400057D01*
X246359346Y-176257200D01*
X246573631Y-176185771D01*
X246716488Y-176185771D01*
X246930774Y-176257200D01*
X247002203Y-176328629D01*
X248502203Y-177542914D02*
X248430774Y-177614343D01*
X248216488Y-177685771D01*
X248073631Y-177685771D01*
X247859346Y-177614343D01*
X247716488Y-177471486D01*
X247645060Y-177328629D01*
X247573631Y-177042914D01*
X247573631Y-176828629D01*
X247645060Y-176542914D01*
X247716488Y-176400057D01*
X247859346Y-176257200D01*
X248073631Y-176185771D01*
X248216488Y-176185771D01*
X248430774Y-176257200D01*
X248502203Y-176328629D01*
X250787917Y-176900057D02*
X251002203Y-176971486D01*
X251073631Y-177042914D01*
X251145060Y-177185771D01*
X251145060Y-177400057D01*
X251073631Y-177542914D01*
X251002203Y-177614343D01*
X250859345Y-177685771D01*
X250287917Y-177685771D01*
X250287917Y-176185771D01*
X250787917Y-176185771D01*
X250930774Y-176257200D01*
X251002203Y-176328629D01*
X251073631Y-176471486D01*
X251073631Y-176614343D01*
X251002203Y-176757200D01*
X250930774Y-176828629D01*
X250787917Y-176900057D01*
X250287917Y-176900057D01*
X252073631Y-176971486D02*
X252073631Y-177685771D01*
X251573631Y-176185771D02*
X252073631Y-176971486D01*
X252573631Y-176185771D01*
X254073631Y-176185771D02*
X255002202Y-176185771D01*
X254502202Y-176757200D01*
X254716488Y-176757200D01*
X254859345Y-176828629D01*
X254930774Y-176900057D01*
X255002202Y-177042914D01*
X255002202Y-177400057D01*
X254930774Y-177542914D01*
X254859345Y-177614343D01*
X254716488Y-177685771D01*
X254287916Y-177685771D01*
X254145059Y-177614343D01*
X254073631Y-177542914D01*
X255645059Y-177542914D02*
X255716487Y-177614343D01*
X255645059Y-177685771D01*
X255573630Y-177614343D01*
X255645059Y-177542914D01*
X255645059Y-177685771D01*
X256645059Y-176185771D02*
X256787916Y-176185771D01*
X256930773Y-176257200D01*
X257002202Y-176328629D01*
X257073631Y-176471486D01*
X257145059Y-176757200D01*
X257145059Y-177114343D01*
X257073631Y-177400057D01*
X257002202Y-177542914D01*
X256930773Y-177614343D01*
X256787916Y-177685771D01*
X256645059Y-177685771D01*
X256502202Y-177614343D01*
X256430773Y-177542914D01*
X256359345Y-177400057D01*
X256287916Y-177114343D01*
X256287916Y-176757200D01*
X256359345Y-176471486D01*
X256430773Y-176328629D01*
X256502202Y-176257200D01*
X256645059Y-176185771D01*
X257645059Y-178257200D02*
X257716487Y-178185771D01*
X257859344Y-177971486D01*
X257930773Y-177828629D01*
X258002202Y-177614343D01*
X258073630Y-177257200D01*
X258073630Y-176971486D01*
X258002202Y-176614343D01*
X257930773Y-176400057D01*
X257859344Y-176257200D01*
X257716487Y-176042914D01*
X257645059Y-175971486D01*
X197002200Y-191507200D02*
X197002200Y-194507200D01*
X261002200Y-191507200D02*
X261002200Y-198007200D01*
D13*
X165000000Y-80000000D02*
X165000000Y-102900000D01*
X165000000Y-120000000D02*
X165000000Y-106500000D01*
X205000000Y-80000000D02*
X205000000Y-103200000D01*
X205000000Y-120000000D02*
X205000000Y-106900000D01*
X185000000Y-150200000D02*
X185000000Y-140300000D01*
X185000000Y-125200000D02*
X185000000Y-136700000D01*
X165000000Y-150200000D02*
X165000000Y-140800000D01*
X165000000Y-125200000D02*
X165000000Y-137100000D01*
X165000000Y-125200000D02*
X174000000Y-125200000D01*
X185000000Y-125200000D02*
X177700000Y-125200000D01*
X177700000Y-120000000D02*
X205000000Y-120000000D01*
X158500000Y-153500000D02*
X190600000Y-153500000D01*
X158500000Y-73400000D02*
X158500000Y-153500000D01*
X210400000Y-73400000D02*
X158500000Y-73400000D01*
X210400000Y-124800000D02*
X210400000Y-73400000D01*
X190600000Y-124800000D02*
X210400000Y-124800000D01*
X190600000Y-153500000D02*
X190600000Y-124800000D01*
X188000000Y-151700000D02*
X188000000Y-140300000D01*
X162000000Y-151700000D02*
X188000000Y-151700000D01*
X162000000Y-140752132D02*
X162000000Y-151700000D01*
X162000000Y-106452132D02*
X162000000Y-137152132D01*
X162000000Y-77800000D02*
X162000000Y-102852132D01*
X208000000Y-77800000D02*
X162000000Y-77800000D01*
X208000000Y-103200000D02*
X208000000Y-77800000D01*
X208000000Y-122800000D02*
X208000000Y-106810000D01*
X188000000Y-122800000D02*
X208000000Y-122800000D01*
X188000000Y-136700000D02*
X188000000Y-122800000D01*
X162000000Y-137152132D02*
X164955026Y-137152132D01*
X164955026Y-140752132D02*
X162000000Y-140752132D01*
X162000000Y-102852132D02*
X164955026Y-102852132D01*
X164955026Y-106452132D02*
X162000000Y-106452132D01*
X208000000Y-106810000D02*
X205000000Y-106810000D01*
X205000000Y-103210000D02*
X208000000Y-103210000D01*
X188000000Y-140310000D02*
X185000000Y-140310000D01*
X185000000Y-136710000D02*
X188000000Y-136710000D01*
X177700000Y-125200000D02*
X177800000Y-125200000D01*
X177700000Y-120000000D02*
X177700000Y-125200000D01*
X174000000Y-125200000D02*
X173900000Y-125200000D01*
X174000000Y-120000000D02*
X174000000Y-125200000D01*
X165000000Y-150200000D02*
X185000000Y-150200000D01*
X174000000Y-120000000D02*
X165000000Y-120000000D01*
X165000000Y-80000000D02*
X205000000Y-80000000D01*
D14*
X206000000Y-75000000D03*
X189400000Y-152100000D03*
D15*
X167500000Y-114672080D03*
X167500000Y-109327920D03*
D16*
X166103000Y-112000000D03*
D14*
X160100000Y-152200000D03*
X164000000Y-75000000D03*
D17*
X183620420Y-98920000D03*
X184519580Y-98920000D03*
D10*
G36*
X184702099Y-102698131D02*
X184351869Y-102347901D01*
X184702099Y-101997671D01*
X185052329Y-102347901D01*
X184702099Y-102698131D01*
X184702099Y-102698131D01*
G37*
G36*
X185337901Y-102062329D02*
X184987671Y-101712099D01*
X185337901Y-101361869D01*
X185688131Y-101712099D01*
X185337901Y-102062329D01*
X185337901Y-102062329D01*
G37*
D17*
X186100000Y-107449580D03*
X186100000Y-106550420D03*
X187260000Y-109150420D03*
X187260000Y-110049580D03*
X174550420Y-106940000D03*
X175449580Y-106940000D03*
X191990420Y-108300000D03*
X192889580Y-108300000D03*
X183840000Y-109789580D03*
X183840000Y-108890420D03*
X184570000Y-109779580D03*
X184570000Y-108880420D03*
X194600000Y-103549580D03*
X194600000Y-102650420D03*
X193800000Y-103549580D03*
X193800000Y-102650420D03*
X193000000Y-103549580D03*
X193000000Y-102650420D03*
X186089580Y-103520000D03*
X185190420Y-103520000D03*
X191149580Y-98890000D03*
X190250420Y-98890000D03*
X190260000Y-98069580D03*
X190260000Y-97170420D03*
D10*
G36*
X180057901Y-102831869D02*
X180408131Y-103182099D01*
X180057901Y-103532329D01*
X179707671Y-103182099D01*
X180057901Y-102831869D01*
X180057901Y-102831869D01*
G37*
G36*
X179422099Y-103467671D02*
X179772329Y-103817901D01*
X179422099Y-104168131D01*
X179071869Y-103817901D01*
X179422099Y-103467671D01*
X179422099Y-103467671D01*
G37*
D17*
X178449580Y-96160000D03*
X177550420Y-96160000D03*
X195989580Y-96500000D03*
X195090420Y-96500000D03*
X195949580Y-108340000D03*
X195050420Y-108340000D03*
X186089580Y-115430000D03*
X185190420Y-115430000D03*
D10*
G36*
X191507901Y-114191869D02*
X191858131Y-114542099D01*
X191507901Y-114892329D01*
X191157671Y-114542099D01*
X191507901Y-114191869D01*
X191507901Y-114191869D01*
G37*
G36*
X190872099Y-114827671D02*
X191222329Y-115177901D01*
X190872099Y-115528131D01*
X190521869Y-115177901D01*
X190872099Y-114827671D01*
X190872099Y-114827671D01*
G37*
D17*
X191149580Y-110820000D03*
X190250420Y-110820000D03*
X190260000Y-109989580D03*
X190260000Y-109090420D03*
D10*
G36*
X180027901Y-114931869D02*
X180378131Y-115282099D01*
X180027901Y-115632329D01*
X179677671Y-115282099D01*
X180027901Y-114931869D01*
X180027901Y-114931869D01*
G37*
G36*
X179392099Y-115567671D02*
X179742329Y-115917901D01*
X179392099Y-116268131D01*
X179041869Y-115917901D01*
X179392099Y-115567671D01*
X179392099Y-115567671D01*
G37*
D17*
X178449580Y-106940000D03*
X177550420Y-106940000D03*
D10*
G36*
X184652099Y-114518131D02*
X184301869Y-114167901D01*
X184652099Y-113817671D01*
X185002329Y-114167901D01*
X184652099Y-114518131D01*
X184652099Y-114518131D01*
G37*
G36*
X185287901Y-113882329D02*
X184937671Y-113532099D01*
X185287901Y-113181869D01*
X185638131Y-113532099D01*
X185287901Y-113882329D01*
X185287901Y-113882329D01*
G37*
D17*
X183500420Y-110610000D03*
X184399580Y-110610000D03*
X185310000Y-109769580D03*
X185310000Y-108870420D03*
X184390000Y-111350420D03*
X184390000Y-112249580D03*
X200700420Y-112000000D03*
X201599580Y-112000000D03*
X183230000Y-115260420D03*
X183230000Y-116159580D03*
X193000000Y-115249580D03*
X193000000Y-114350420D03*
X193800000Y-115249580D03*
X193800000Y-114350420D03*
X194600000Y-115249580D03*
X194600000Y-114350420D03*
D10*
G36*
X191567901Y-102371869D02*
X191918131Y-102722099D01*
X191567901Y-103072329D01*
X191217671Y-102722099D01*
X191567901Y-102371869D01*
X191567901Y-102371869D01*
G37*
G36*
X190932099Y-103007671D02*
X191282329Y-103357901D01*
X190932099Y-103708131D01*
X190581869Y-103357901D01*
X190932099Y-103007671D01*
X190932099Y-103007671D01*
G37*
D17*
X183890000Y-97819580D03*
X183890000Y-96920420D03*
X191990420Y-96400000D03*
X192889580Y-96400000D03*
X174550420Y-96210000D03*
X175449580Y-96210000D03*
X187080000Y-96940420D03*
X187080000Y-97839580D03*
X185810000Y-95479580D03*
X185810000Y-94580420D03*
X168750420Y-146000000D03*
X169649580Y-146000000D03*
X173770000Y-148669580D03*
X173770000Y-147770420D03*
X180650420Y-146000000D03*
X181549580Y-146000000D03*
X172870000Y-148659580D03*
X172870000Y-147760420D03*
X172940000Y-134069580D03*
X172940000Y-133170420D03*
X168750420Y-131500000D03*
X169649580Y-131500000D03*
X173750000Y-134069580D03*
X173750000Y-133170420D03*
X180420420Y-131500000D03*
X181319580Y-131500000D03*
X184640000Y-97809580D03*
X184640000Y-96910420D03*
X185410000Y-97789580D03*
X185410000Y-96890420D03*
D18*
X176320000Y-131250000D03*
D19*
X176070000Y-132570000D03*
X176570000Y-132570000D03*
X177070000Y-132570000D03*
X175570000Y-132570000D03*
X176570000Y-129930000D03*
X177070000Y-129930000D03*
X176070000Y-129930000D03*
X175570000Y-129930000D03*
D20*
X177640000Y-131500000D03*
X177640000Y-132000000D03*
X177640000Y-131000000D03*
X177640000Y-130500000D03*
X175000000Y-131500000D03*
X175000000Y-132000000D03*
X175000000Y-131000000D03*
X175000000Y-130500000D03*
D18*
X176320000Y-145750000D03*
D19*
X176070000Y-147070000D03*
X176570000Y-147070000D03*
X177070000Y-147070000D03*
X175570000Y-147070000D03*
X176570000Y-144430000D03*
X177070000Y-144430000D03*
X176070000Y-144430000D03*
X175570000Y-144430000D03*
D20*
X177640000Y-146000000D03*
X177640000Y-146500000D03*
X177640000Y-145500000D03*
X177640000Y-145000000D03*
X175000000Y-146000000D03*
X175000000Y-146500000D03*
X175000000Y-145500000D03*
X175000000Y-145000000D03*
D21*
X200746200Y-81548880D03*
D22*
X203286200Y-81548880D03*
D23*
X175931800Y-100600000D03*
X175068200Y-100600000D03*
X175931800Y-111550000D03*
X175068200Y-111550000D03*
D10*
G36*
X179238464Y-102336359D02*
X179703641Y-102801536D01*
X179452194Y-103052983D01*
X178987017Y-102587806D01*
X179238464Y-102336359D01*
X179238464Y-102336359D01*
G37*
G36*
X178627806Y-102947017D02*
X179092983Y-103412194D01*
X178841536Y-103663641D01*
X178376359Y-103198464D01*
X178627806Y-102947017D01*
X178627806Y-102947017D01*
G37*
D24*
X193300000Y-112668200D03*
X193300000Y-113531800D03*
D10*
G36*
X188766359Y-102951536D02*
X189231536Y-102486359D01*
X189482983Y-102737806D01*
X189017806Y-103202983D01*
X188766359Y-102951536D01*
X188766359Y-102951536D01*
G37*
G36*
X189377017Y-103562194D02*
X189842194Y-103097017D01*
X190093641Y-103348464D01*
X189628464Y-103813641D01*
X189377017Y-103562194D01*
X189377017Y-103562194D01*
G37*
D24*
X193330000Y-100848200D03*
X193330000Y-101711800D03*
D10*
G36*
X185491536Y-111193641D02*
X185026359Y-110728464D01*
X185277806Y-110477017D01*
X185742983Y-110942194D01*
X185491536Y-111193641D01*
X185491536Y-111193641D01*
G37*
G36*
X186102194Y-110582983D02*
X185637017Y-110117806D01*
X185888464Y-109866359D01*
X186353641Y-110331536D01*
X186102194Y-110582983D01*
X186102194Y-110582983D01*
G37*
G36*
X190066359Y-101631536D02*
X190531536Y-101166359D01*
X190782983Y-101417806D01*
X190317806Y-101882983D01*
X190066359Y-101631536D01*
X190066359Y-101631536D01*
G37*
G36*
X190677017Y-102242194D02*
X191142194Y-101777017D01*
X191393641Y-102028464D01*
X190928464Y-102493641D01*
X190677017Y-102242194D01*
X190677017Y-102242194D01*
G37*
G36*
X191793641Y-100308464D02*
X191328464Y-100773641D01*
X191077017Y-100522194D01*
X191542194Y-100057017D01*
X191793641Y-100308464D01*
X191793641Y-100308464D01*
G37*
G36*
X191182983Y-99697806D02*
X190717806Y-100162983D01*
X190466359Y-99911536D01*
X190931536Y-99446359D01*
X191182983Y-99697806D01*
X191182983Y-99697806D01*
G37*
G36*
X190733641Y-102698464D02*
X190268464Y-103163641D01*
X190017017Y-102912194D01*
X190482194Y-102447017D01*
X190733641Y-102698464D01*
X190733641Y-102698464D01*
G37*
G36*
X190122983Y-102087806D02*
X189657806Y-102552983D01*
X189406359Y-102301536D01*
X189871536Y-101836359D01*
X190122983Y-102087806D01*
X190122983Y-102087806D01*
G37*
D23*
X186828200Y-103520000D03*
X187691800Y-103520000D03*
D24*
X173770000Y-146863800D03*
X173770000Y-146000200D03*
D10*
G36*
X185541536Y-99413641D02*
X185076359Y-98948464D01*
X185327806Y-98697017D01*
X185792983Y-99162194D01*
X185541536Y-99413641D01*
X185541536Y-99413641D01*
G37*
G36*
X186152194Y-98802983D02*
X185687017Y-98337806D01*
X185938464Y-98086359D01*
X186403641Y-98551536D01*
X186152194Y-98802983D01*
X186152194Y-98802983D01*
G37*
D23*
X186818200Y-115420000D03*
X187681800Y-115420000D03*
D10*
G36*
X190623641Y-114468464D02*
X190158464Y-114933641D01*
X189907017Y-114682194D01*
X190372194Y-114217017D01*
X190623641Y-114468464D01*
X190623641Y-114468464D01*
G37*
G36*
X190012983Y-113857806D02*
X189547806Y-114322983D01*
X189296359Y-114071536D01*
X189761536Y-113606359D01*
X190012983Y-113857806D01*
X190012983Y-113857806D01*
G37*
G36*
X188626359Y-114741536D02*
X189091536Y-114276359D01*
X189342983Y-114527806D01*
X188877806Y-114992983D01*
X188626359Y-114741536D01*
X188626359Y-114741536D01*
G37*
G36*
X189237017Y-115352194D02*
X189702194Y-114887017D01*
X189953641Y-115138464D01*
X189488464Y-115603641D01*
X189237017Y-115352194D01*
X189237017Y-115352194D01*
G37*
G36*
X189966359Y-113391536D02*
X190431536Y-112926359D01*
X190682983Y-113177806D01*
X190217806Y-113642983D01*
X189966359Y-113391536D01*
X189966359Y-113391536D01*
G37*
G36*
X190577017Y-114002194D02*
X191042194Y-113537017D01*
X191293641Y-113788464D01*
X190828464Y-114253641D01*
X190577017Y-114002194D01*
X190577017Y-114002194D01*
G37*
G36*
X191773641Y-112198464D02*
X191308464Y-112663641D01*
X191057017Y-112412194D01*
X191522194Y-111947017D01*
X191773641Y-112198464D01*
X191773641Y-112198464D01*
G37*
G36*
X191162983Y-111587806D02*
X190697806Y-112052983D01*
X190446359Y-111801536D01*
X190911536Y-111336359D01*
X191162983Y-111587806D01*
X191162983Y-111587806D01*
G37*
D24*
X173770000Y-132361800D03*
X173770000Y-131498200D03*
D10*
G36*
X179318464Y-114286359D02*
X179783641Y-114751536D01*
X179532194Y-115002983D01*
X179067017Y-114537806D01*
X179318464Y-114286359D01*
X179318464Y-114286359D01*
G37*
G36*
X178707806Y-114897017D02*
X179172983Y-115362194D01*
X178921536Y-115613641D01*
X178456359Y-115148464D01*
X178707806Y-114897017D01*
X178707806Y-114897017D01*
G37*
G36*
X187858579Y-98931522D02*
X188212132Y-99285075D01*
X188035355Y-99461852D01*
X187681802Y-99108299D01*
X187858579Y-98931522D01*
X187858579Y-98931522D01*
G37*
G36*
X189484925Y-100557868D02*
X189838478Y-100911421D01*
X189661701Y-101088198D01*
X189308148Y-100734645D01*
X189484925Y-100557868D01*
X189484925Y-100557868D01*
G37*
G36*
X187964645Y-102078148D02*
X188318198Y-102431701D01*
X188141421Y-102608478D01*
X187787868Y-102254925D01*
X187964645Y-102078148D01*
X187964645Y-102078148D01*
G37*
G36*
X186338299Y-100451802D02*
X186691852Y-100805355D01*
X186515075Y-100982132D01*
X186161522Y-100628579D01*
X186338299Y-100451802D01*
X186338299Y-100451802D01*
G37*
G36*
X187646447Y-102254925D02*
X187292894Y-102608478D01*
X187116117Y-102431701D01*
X187469670Y-102078148D01*
X187646447Y-102254925D01*
X187646447Y-102254925D01*
G37*
G36*
X186691852Y-101300330D02*
X186338299Y-101653883D01*
X186161522Y-101477106D01*
X186515075Y-101123553D01*
X186691852Y-101300330D01*
X186691852Y-101300330D01*
G37*
G36*
X189838478Y-100062894D02*
X189484925Y-100416447D01*
X189308148Y-100239670D01*
X189661701Y-99886117D01*
X189838478Y-100062894D01*
X189838478Y-100062894D01*
G37*
G36*
X188883883Y-99108299D02*
X188530330Y-99461852D01*
X188353553Y-99285075D01*
X188707106Y-98931522D01*
X188883883Y-99108299D01*
X188883883Y-99108299D01*
G37*
G36*
X189467247Y-99691662D02*
X189042983Y-100115926D01*
X188936917Y-100009860D01*
X189361181Y-99585596D01*
X189467247Y-99691662D01*
X189467247Y-99691662D01*
G37*
G36*
X189184404Y-99408819D02*
X188760140Y-99833083D01*
X188654074Y-99727017D01*
X189078338Y-99302753D01*
X189184404Y-99408819D01*
X189184404Y-99408819D01*
G37*
G36*
X187063083Y-101530140D02*
X186638819Y-101954404D01*
X186532753Y-101848338D01*
X186957017Y-101424074D01*
X187063083Y-101530140D01*
X187063083Y-101530140D01*
G37*
G36*
X187345926Y-101812983D02*
X186921662Y-102237247D01*
X186815596Y-102131181D01*
X187239860Y-101706917D01*
X187345926Y-101812983D01*
X187345926Y-101812983D01*
G37*
G36*
X186957017Y-100681612D02*
X186532753Y-100257348D01*
X186638819Y-100151282D01*
X187063083Y-100575546D01*
X186957017Y-100681612D01*
X186957017Y-100681612D01*
G37*
G36*
X187239860Y-100398769D02*
X186815596Y-99974505D01*
X186921662Y-99868439D01*
X187345926Y-100292703D01*
X187239860Y-100398769D01*
X187239860Y-100398769D01*
G37*
G36*
X187805546Y-99833083D02*
X187381282Y-99408819D01*
X187487348Y-99302753D01*
X187911612Y-99727017D01*
X187805546Y-99833083D01*
X187805546Y-99833083D01*
G37*
G36*
X187522703Y-100115926D02*
X187098439Y-99691662D01*
X187204505Y-99585596D01*
X187628769Y-100009860D01*
X187522703Y-100115926D01*
X187522703Y-100115926D01*
G37*
G36*
X187717157Y-101759949D02*
X187010051Y-101052843D01*
X188282843Y-99780051D01*
X188989949Y-100487157D01*
X187717157Y-101759949D01*
X187717157Y-101759949D01*
G37*
G36*
X189078338Y-101671561D02*
X188654074Y-101247297D01*
X188760140Y-101141231D01*
X189184404Y-101565495D01*
X189078338Y-101671561D01*
X189078338Y-101671561D01*
G37*
G36*
X189361181Y-101388718D02*
X188936917Y-100964454D01*
X189042983Y-100858388D01*
X189467247Y-101282652D01*
X189361181Y-101388718D01*
X189361181Y-101388718D01*
G37*
G36*
X188795495Y-101954404D02*
X188371231Y-101530140D01*
X188477297Y-101424074D01*
X188901561Y-101848338D01*
X188795495Y-101954404D01*
X188795495Y-101954404D01*
G37*
G36*
X188512652Y-102237247D02*
X188088388Y-101812983D01*
X188194454Y-101706917D01*
X188618718Y-102131181D01*
X188512652Y-102237247D01*
X188512652Y-102237247D01*
G37*
G36*
X187858579Y-110761522D02*
X188212132Y-111115075D01*
X188035355Y-111291852D01*
X187681802Y-110938299D01*
X187858579Y-110761522D01*
X187858579Y-110761522D01*
G37*
G36*
X189484925Y-112387868D02*
X189838478Y-112741421D01*
X189661701Y-112918198D01*
X189308148Y-112564645D01*
X189484925Y-112387868D01*
X189484925Y-112387868D01*
G37*
G36*
X187964645Y-113908148D02*
X188318198Y-114261701D01*
X188141421Y-114438478D01*
X187787868Y-114084925D01*
X187964645Y-113908148D01*
X187964645Y-113908148D01*
G37*
G36*
X186338299Y-112281802D02*
X186691852Y-112635355D01*
X186515075Y-112812132D01*
X186161522Y-112458579D01*
X186338299Y-112281802D01*
X186338299Y-112281802D01*
G37*
G36*
X187646447Y-114084925D02*
X187292894Y-114438478D01*
X187116117Y-114261701D01*
X187469670Y-113908148D01*
X187646447Y-114084925D01*
X187646447Y-114084925D01*
G37*
G36*
X186691852Y-113130330D02*
X186338299Y-113483883D01*
X186161522Y-113307106D01*
X186515075Y-112953553D01*
X186691852Y-113130330D01*
X186691852Y-113130330D01*
G37*
G36*
X189838478Y-111892894D02*
X189484925Y-112246447D01*
X189308148Y-112069670D01*
X189661701Y-111716117D01*
X189838478Y-111892894D01*
X189838478Y-111892894D01*
G37*
G36*
X188883883Y-110938299D02*
X188530330Y-111291852D01*
X188353553Y-111115075D01*
X188707106Y-110761522D01*
X188883883Y-110938299D01*
X188883883Y-110938299D01*
G37*
G36*
X189467247Y-111521662D02*
X189042983Y-111945926D01*
X188936917Y-111839860D01*
X189361181Y-111415596D01*
X189467247Y-111521662D01*
X189467247Y-111521662D01*
G37*
G36*
X189184404Y-111238819D02*
X188760140Y-111663083D01*
X188654074Y-111557017D01*
X189078338Y-111132753D01*
X189184404Y-111238819D01*
X189184404Y-111238819D01*
G37*
G36*
X187063083Y-113360140D02*
X186638819Y-113784404D01*
X186532753Y-113678338D01*
X186957017Y-113254074D01*
X187063083Y-113360140D01*
X187063083Y-113360140D01*
G37*
G36*
X187345926Y-113642983D02*
X186921662Y-114067247D01*
X186815596Y-113961181D01*
X187239860Y-113536917D01*
X187345926Y-113642983D01*
X187345926Y-113642983D01*
G37*
G36*
X186957017Y-112511612D02*
X186532753Y-112087348D01*
X186638819Y-111981282D01*
X187063083Y-112405546D01*
X186957017Y-112511612D01*
X186957017Y-112511612D01*
G37*
G36*
X187239860Y-112228769D02*
X186815596Y-111804505D01*
X186921662Y-111698439D01*
X187345926Y-112122703D01*
X187239860Y-112228769D01*
X187239860Y-112228769D01*
G37*
G36*
X187805546Y-111663083D02*
X187381282Y-111238819D01*
X187487348Y-111132753D01*
X187911612Y-111557017D01*
X187805546Y-111663083D01*
X187805546Y-111663083D01*
G37*
G36*
X187522703Y-111945926D02*
X187098439Y-111521662D01*
X187204505Y-111415596D01*
X187628769Y-111839860D01*
X187522703Y-111945926D01*
X187522703Y-111945926D01*
G37*
G36*
X187717157Y-113589949D02*
X187010051Y-112882843D01*
X188282843Y-111610051D01*
X188989949Y-112317157D01*
X187717157Y-113589949D01*
X187717157Y-113589949D01*
G37*
G36*
X189078338Y-113501561D02*
X188654074Y-113077297D01*
X188760140Y-112971231D01*
X189184404Y-113395495D01*
X189078338Y-113501561D01*
X189078338Y-113501561D01*
G37*
G36*
X189361181Y-113218718D02*
X188936917Y-112794454D01*
X189042983Y-112688388D01*
X189467247Y-113112652D01*
X189361181Y-113218718D01*
X189361181Y-113218718D01*
G37*
G36*
X188795495Y-113784404D02*
X188371231Y-113360140D01*
X188477297Y-113254074D01*
X188901561Y-113678338D01*
X188795495Y-113784404D01*
X188795495Y-113784404D01*
G37*
G36*
X188512652Y-114067247D02*
X188088388Y-113642983D01*
X188194454Y-113536917D01*
X188618718Y-113961181D01*
X188512652Y-114067247D01*
X188512652Y-114067247D01*
G37*
D25*
X175500000Y-96980000D03*
X175500000Y-99680000D03*
X176000000Y-96980000D03*
X177500000Y-96980000D03*
X176000000Y-99680000D03*
X177500000Y-99680000D03*
X176500000Y-99680000D03*
X177000000Y-99680000D03*
X177000000Y-96980000D03*
X176500000Y-96980000D03*
D26*
X177950000Y-97580000D03*
X177950000Y-98080000D03*
X177950000Y-99080000D03*
X177950000Y-98580000D03*
D27*
X176500000Y-98330000D03*
D26*
X175050000Y-98580000D03*
X175050000Y-99080000D03*
X175050000Y-98080000D03*
X175050000Y-97580000D03*
D25*
X193000000Y-97290000D03*
X193000000Y-99990000D03*
X193500000Y-97290000D03*
X195000000Y-97290000D03*
X193500000Y-99990000D03*
X195000000Y-99990000D03*
X194000000Y-99990000D03*
X194500000Y-99990000D03*
X194500000Y-97290000D03*
X194000000Y-97290000D03*
D26*
X195450000Y-97890000D03*
X195450000Y-98390000D03*
X195450000Y-99390000D03*
X195450000Y-98890000D03*
D27*
X194000000Y-98640000D03*
D26*
X192550000Y-98890000D03*
X192550000Y-99390000D03*
X192550000Y-98390000D03*
X192550000Y-97890000D03*
D10*
G36*
X181818198Y-99555456D02*
X182030330Y-99767588D01*
X181676776Y-100121142D01*
X181464644Y-99909010D01*
X181818198Y-99555456D01*
X181818198Y-99555456D01*
G37*
G36*
X179909010Y-101464644D02*
X180121142Y-101676776D01*
X179767588Y-102030330D01*
X179555456Y-101818198D01*
X179909010Y-101464644D01*
X179909010Y-101464644D01*
G37*
G36*
X182171752Y-99909009D02*
X182383884Y-100121141D01*
X182030330Y-100474695D01*
X181818198Y-100262563D01*
X182171752Y-99909009D01*
X182171752Y-99909009D01*
G37*
G36*
X183232412Y-100969670D02*
X183444544Y-101181802D01*
X183090990Y-101535356D01*
X182878858Y-101323224D01*
X183232412Y-100969670D01*
X183232412Y-100969670D01*
G37*
G36*
X180262563Y-101818198D02*
X180474695Y-102030330D01*
X180121141Y-102383884D01*
X179909009Y-102171752D01*
X180262563Y-101818198D01*
X180262563Y-101818198D01*
G37*
G36*
X181323224Y-102878858D02*
X181535356Y-103090990D01*
X181181802Y-103444544D01*
X180969670Y-103232412D01*
X181323224Y-102878858D01*
X181323224Y-102878858D01*
G37*
G36*
X180616117Y-102171751D02*
X180828249Y-102383883D01*
X180474695Y-102737437D01*
X180262563Y-102525305D01*
X180616117Y-102171751D01*
X180616117Y-102171751D01*
G37*
G36*
X180969670Y-102525305D02*
X181181802Y-102737437D01*
X180828248Y-103090991D01*
X180616116Y-102878859D01*
X180969670Y-102525305D01*
X180969670Y-102525305D01*
G37*
G36*
X182878859Y-100616116D02*
X183090991Y-100828248D01*
X182737437Y-101181802D01*
X182525305Y-100969670D01*
X182878859Y-100616116D01*
X182878859Y-100616116D01*
G37*
G36*
X182525305Y-100262563D02*
X182737437Y-100474695D01*
X182383883Y-100828249D01*
X182171751Y-100616117D01*
X182525305Y-100262563D01*
X182525305Y-100262563D01*
G37*
G36*
X182984924Y-101712132D02*
X183338478Y-102065686D01*
X183126346Y-102277818D01*
X182772792Y-101924264D01*
X182984924Y-101712132D01*
X182984924Y-101712132D01*
G37*
G36*
X182631371Y-102065685D02*
X182984925Y-102419239D01*
X182772793Y-102631371D01*
X182419239Y-102277817D01*
X182631371Y-102065685D01*
X182631371Y-102065685D01*
G37*
G36*
X181924264Y-102772792D02*
X182277818Y-103126346D01*
X182065686Y-103338478D01*
X181712132Y-102984924D01*
X181924264Y-102772792D01*
X181924264Y-102772792D01*
G37*
G36*
X182277817Y-102419239D02*
X182631371Y-102772793D01*
X182419239Y-102984925D01*
X182065685Y-102631371D01*
X182277817Y-102419239D01*
X182277817Y-102419239D01*
G37*
G36*
X181429289Y-100439340D02*
X182560660Y-101570711D01*
X181570711Y-102560660D01*
X180439340Y-101429289D01*
X181429289Y-100439340D01*
X181429289Y-100439340D01*
G37*
G36*
X180227207Y-100368629D02*
X180580761Y-100722183D01*
X180368629Y-100934315D01*
X180015075Y-100580761D01*
X180227207Y-100368629D01*
X180227207Y-100368629D01*
G37*
G36*
X179873654Y-100722182D02*
X180227208Y-101075736D01*
X180015076Y-101287868D01*
X179661522Y-100934314D01*
X179873654Y-100722182D01*
X179873654Y-100722182D01*
G37*
G36*
X180580761Y-100015075D02*
X180934315Y-100368629D01*
X180722183Y-100580761D01*
X180368629Y-100227207D01*
X180580761Y-100015075D01*
X180580761Y-100015075D01*
G37*
G36*
X180934314Y-99661522D02*
X181287868Y-100015076D01*
X181075736Y-100227208D01*
X180722182Y-99873654D01*
X180934314Y-99661522D01*
X180934314Y-99661522D01*
G37*
D25*
X175500000Y-107900000D03*
X175500000Y-110600000D03*
X176000000Y-107900000D03*
X177500000Y-107900000D03*
X176000000Y-110600000D03*
X177500000Y-110600000D03*
X176500000Y-110600000D03*
X177000000Y-110600000D03*
X177000000Y-107900000D03*
X176500000Y-107900000D03*
D26*
X177950000Y-108500000D03*
X177950000Y-109000000D03*
X177950000Y-110000000D03*
X177950000Y-109500000D03*
D27*
X176500000Y-109250000D03*
D26*
X175050000Y-109500000D03*
X175050000Y-110000000D03*
X175050000Y-109000000D03*
X175050000Y-108500000D03*
D25*
X193000000Y-109220000D03*
X193000000Y-111920000D03*
X193500000Y-109220000D03*
X195000000Y-109220000D03*
X193500000Y-111920000D03*
X195000000Y-111920000D03*
X194000000Y-111920000D03*
X194500000Y-111920000D03*
X194500000Y-109220000D03*
X194000000Y-109220000D03*
D26*
X195450000Y-109820000D03*
X195450000Y-110320000D03*
X195450000Y-111320000D03*
X195450000Y-110820000D03*
D27*
X194000000Y-110570000D03*
D26*
X192550000Y-110820000D03*
X192550000Y-111320000D03*
X192550000Y-110320000D03*
X192550000Y-109820000D03*
D10*
G36*
X181818198Y-111555456D02*
X182030330Y-111767588D01*
X181676776Y-112121142D01*
X181464644Y-111909010D01*
X181818198Y-111555456D01*
X181818198Y-111555456D01*
G37*
G36*
X179909010Y-113464644D02*
X180121142Y-113676776D01*
X179767588Y-114030330D01*
X179555456Y-113818198D01*
X179909010Y-113464644D01*
X179909010Y-113464644D01*
G37*
G36*
X182171752Y-111909009D02*
X182383884Y-112121141D01*
X182030330Y-112474695D01*
X181818198Y-112262563D01*
X182171752Y-111909009D01*
X182171752Y-111909009D01*
G37*
G36*
X183232412Y-112969670D02*
X183444544Y-113181802D01*
X183090990Y-113535356D01*
X182878858Y-113323224D01*
X183232412Y-112969670D01*
X183232412Y-112969670D01*
G37*
G36*
X180262563Y-113818198D02*
X180474695Y-114030330D01*
X180121141Y-114383884D01*
X179909009Y-114171752D01*
X180262563Y-113818198D01*
X180262563Y-113818198D01*
G37*
G36*
X181323224Y-114878858D02*
X181535356Y-115090990D01*
X181181802Y-115444544D01*
X180969670Y-115232412D01*
X181323224Y-114878858D01*
X181323224Y-114878858D01*
G37*
G36*
X180616117Y-114171751D02*
X180828249Y-114383883D01*
X180474695Y-114737437D01*
X180262563Y-114525305D01*
X180616117Y-114171751D01*
X180616117Y-114171751D01*
G37*
G36*
X180969670Y-114525305D02*
X181181802Y-114737437D01*
X180828248Y-115090991D01*
X180616116Y-114878859D01*
X180969670Y-114525305D01*
X180969670Y-114525305D01*
G37*
G36*
X182878859Y-112616116D02*
X183090991Y-112828248D01*
X182737437Y-113181802D01*
X182525305Y-112969670D01*
X182878859Y-112616116D01*
X182878859Y-112616116D01*
G37*
G36*
X182525305Y-112262563D02*
X182737437Y-112474695D01*
X182383883Y-112828249D01*
X182171751Y-112616117D01*
X182525305Y-112262563D01*
X182525305Y-112262563D01*
G37*
G36*
X182984924Y-113712132D02*
X183338478Y-114065686D01*
X183126346Y-114277818D01*
X182772792Y-113924264D01*
X182984924Y-113712132D01*
X182984924Y-113712132D01*
G37*
G36*
X182631371Y-114065685D02*
X182984925Y-114419239D01*
X182772793Y-114631371D01*
X182419239Y-114277817D01*
X182631371Y-114065685D01*
X182631371Y-114065685D01*
G37*
G36*
X181924264Y-114772792D02*
X182277818Y-115126346D01*
X182065686Y-115338478D01*
X181712132Y-114984924D01*
X181924264Y-114772792D01*
X181924264Y-114772792D01*
G37*
G36*
X182277817Y-114419239D02*
X182631371Y-114772793D01*
X182419239Y-114984925D01*
X182065685Y-114631371D01*
X182277817Y-114419239D01*
X182277817Y-114419239D01*
G37*
G36*
X181429289Y-112439340D02*
X182560660Y-113570711D01*
X181570711Y-114560660D01*
X180439340Y-113429289D01*
X181429289Y-112439340D01*
X181429289Y-112439340D01*
G37*
G36*
X180227207Y-112368629D02*
X180580761Y-112722183D01*
X180368629Y-112934315D01*
X180015075Y-112580761D01*
X180227207Y-112368629D01*
X180227207Y-112368629D01*
G37*
G36*
X179873654Y-112722182D02*
X180227208Y-113075736D01*
X180015076Y-113287868D01*
X179661522Y-112934314D01*
X179873654Y-112722182D01*
X179873654Y-112722182D01*
G37*
G36*
X180580761Y-112015075D02*
X180934315Y-112368629D01*
X180722183Y-112580761D01*
X180368629Y-112227207D01*
X180580761Y-112015075D01*
X180580761Y-112015075D01*
G37*
G36*
X180934314Y-111661522D02*
X181287868Y-112015076D01*
X181075736Y-112227208D01*
X180722182Y-111873654D01*
X180934314Y-111661522D01*
X180934314Y-111661522D01*
G37*
D17*
X184510000Y-99620420D03*
X184510000Y-100519580D03*
X183330000Y-103110420D03*
X183330000Y-104009580D03*
X200000420Y-97500000D03*
X200899580Y-97500000D03*
X168900420Y-97500000D03*
X169799580Y-97500000D03*
X168750420Y-112000000D03*
X169649580Y-112000000D03*
X176780420Y-100670000D03*
X177679580Y-100670000D03*
X194220000Y-100840420D03*
X194220000Y-101739580D03*
X176590420Y-111560000D03*
X177489580Y-111560000D03*
X194370000Y-112690420D03*
X194370000Y-113589580D03*
D28*
X188750000Y-83250000D03*
X185350000Y-83250000D03*
D17*
X196189580Y-82940000D03*
X195290420Y-82940000D03*
D15*
X167500000Y-134172080D03*
X167500000Y-128827920D03*
D16*
X166103000Y-131500000D03*
D15*
X167500000Y-148672080D03*
X167500000Y-143327920D03*
D16*
X166103000Y-146000000D03*
D15*
X182500000Y-128827920D03*
X182500000Y-134172080D03*
D16*
X183897000Y-131500000D03*
D15*
X182500000Y-143327920D03*
X182500000Y-148672080D03*
D16*
X183897000Y-146000000D03*
D15*
X167500000Y-100172080D03*
X167500000Y-94827920D03*
D16*
X166103000Y-97500000D03*
D15*
X202500000Y-94827920D03*
X202500000Y-100172080D03*
D16*
X203897000Y-97500000D03*
D15*
X202500000Y-109327920D03*
X202500000Y-114672080D03*
D16*
X203897000Y-112000000D03*
D29*
X203550000Y-90450000D03*
X203550000Y-83850000D03*
D30*
X167000000Y-91830100D03*
X167000000Y-92769900D03*
X168600000Y-91830100D03*
X168600000Y-92769900D03*
X170100000Y-91830100D03*
X170100000Y-92769900D03*
X171600000Y-91830100D03*
X171600000Y-92769900D03*
X173100000Y-91830100D03*
X173100000Y-92769900D03*
X167100000Y-82530100D03*
X167100000Y-83469900D03*
X168700000Y-82530100D03*
X168700000Y-83469900D03*
X170200000Y-82530100D03*
X170200000Y-83469900D03*
X171700000Y-82530100D03*
X171700000Y-83469900D03*
X173200000Y-82530100D03*
X173200000Y-83469900D03*
X174800000Y-82530100D03*
X174800000Y-83469900D03*
D31*
X168695000Y-85550000D03*
X169965000Y-85550000D03*
X171235000Y-85550000D03*
X173775000Y-85550000D03*
X172505000Y-85550000D03*
X172505000Y-89450000D03*
X173775000Y-89450000D03*
X171235000Y-89450000D03*
X169965000Y-89450000D03*
X167425000Y-89450000D03*
X167425000Y-85550000D03*
X168695000Y-89450000D03*
D21*
X168653800Y-118781120D03*
D22*
X166113800Y-118781120D03*
D21*
X168653800Y-126341120D03*
D22*
X166113800Y-126341120D03*
D32*
X192590000Y-83020000D03*
X193890000Y-83020000D03*
X193890000Y-82320000D03*
X192590000Y-82320000D03*
D28*
X182050000Y-83250000D03*
X178650000Y-83250000D03*
D33*
X200780000Y-90310000D03*
X197980000Y-89045000D03*
X200780000Y-87770000D03*
M02*
