G04 #@! TF.FileFunction,Drawing*
%FSLAX46Y46*%
G04 Gerber Fmt 4.6, Leading zero omitted, Abs format (unit mm)*
G04 Created by KiCad (PCBNEW 4.0.2-stable) date 23/05/2016 22:28:53*
%MOMM*%
G01*
G04 APERTURE LIST*
%ADD10C,0.150000*%
%ADD11C,0.300000*%
%ADD12C,0.400000*%
%ADD13C,0.200000*%
G04 APERTURE END LIST*
D10*
X177002200Y-166007200D02*
X177002200Y-198007200D01*
X285002200Y-198007200D01*
X285002200Y-166007200D01*
X177002200Y-166007200D01*
X10000000Y-10000000D02*
X10000000Y-200007200D01*
X287002200Y-200007200D01*
X287002200Y-10000000D01*
X10000000Y-10000000D01*
X12000000Y-12000000D02*
X12000000Y-198007200D01*
X285002200Y-198007200D01*
X285002200Y-12000000D01*
X12000000Y-12000000D01*
X60000000Y-12000000D02*
X60000000Y-10000000D01*
X110000000Y-12000000D02*
X110000000Y-10000000D01*
X160000000Y-12000000D02*
X160000000Y-10000000D01*
X210000000Y-12000000D02*
X210000000Y-10000000D01*
X260000000Y-12000000D02*
X260000000Y-10000000D01*
X35990476Y-11588095D02*
X35247619Y-11588095D01*
X35619048Y-11588095D02*
X35619048Y-10288095D01*
X35495238Y-10473810D01*
X35371429Y-10597619D01*
X35247619Y-10659524D01*
X85247619Y-10411905D02*
X85309524Y-10350000D01*
X85433333Y-10288095D01*
X85742857Y-10288095D01*
X85866667Y-10350000D01*
X85928571Y-10411905D01*
X85990476Y-10535714D01*
X85990476Y-10659524D01*
X85928571Y-10845238D01*
X85185714Y-11588095D01*
X85990476Y-11588095D01*
X135185714Y-10288095D02*
X135990476Y-10288095D01*
X135557143Y-10783333D01*
X135742857Y-10783333D01*
X135866667Y-10845238D01*
X135928571Y-10907143D01*
X135990476Y-11030952D01*
X135990476Y-11340476D01*
X135928571Y-11464286D01*
X135866667Y-11526190D01*
X135742857Y-11588095D01*
X135371429Y-11588095D01*
X135247619Y-11526190D01*
X135185714Y-11464286D01*
X185866667Y-10721429D02*
X185866667Y-11588095D01*
X185557143Y-10226190D02*
X185247619Y-11154762D01*
X186052381Y-11154762D01*
X235928571Y-10288095D02*
X235309524Y-10288095D01*
X235247619Y-10907143D01*
X235309524Y-10845238D01*
X235433333Y-10783333D01*
X235742857Y-10783333D01*
X235866667Y-10845238D01*
X235928571Y-10907143D01*
X235990476Y-11030952D01*
X235990476Y-11340476D01*
X235928571Y-11464286D01*
X235866667Y-11526190D01*
X235742857Y-11588095D01*
X235433333Y-11588095D01*
X235309524Y-11526190D01*
X235247619Y-11464286D01*
X285866667Y-10288095D02*
X285619048Y-10288095D01*
X285495238Y-10350000D01*
X285433333Y-10411905D01*
X285309524Y-10597619D01*
X285247619Y-10845238D01*
X285247619Y-11340476D01*
X285309524Y-11464286D01*
X285371429Y-11526190D01*
X285495238Y-11588095D01*
X285742857Y-11588095D01*
X285866667Y-11526190D01*
X285928571Y-11464286D01*
X285990476Y-11340476D01*
X285990476Y-11030952D01*
X285928571Y-10907143D01*
X285866667Y-10845238D01*
X285742857Y-10783333D01*
X285495238Y-10783333D01*
X285371429Y-10845238D01*
X285309524Y-10907143D01*
X285247619Y-11030952D01*
X60000000Y-198007200D02*
X60000000Y-200007200D01*
X110000000Y-198007200D02*
X110000000Y-200007200D01*
X160000000Y-198007200D02*
X160000000Y-200007200D01*
X210000000Y-198007200D02*
X210000000Y-200007200D01*
X260000000Y-198007200D02*
X260000000Y-200007200D01*
X35990476Y-199595295D02*
X35247619Y-199595295D01*
X35619048Y-199595295D02*
X35619048Y-198295295D01*
X35495238Y-198481010D01*
X35371429Y-198604819D01*
X35247619Y-198666724D01*
X85247619Y-198419105D02*
X85309524Y-198357200D01*
X85433333Y-198295295D01*
X85742857Y-198295295D01*
X85866667Y-198357200D01*
X85928571Y-198419105D01*
X85990476Y-198542914D01*
X85990476Y-198666724D01*
X85928571Y-198852438D01*
X85185714Y-199595295D01*
X85990476Y-199595295D01*
X135185714Y-198295295D02*
X135990476Y-198295295D01*
X135557143Y-198790533D01*
X135742857Y-198790533D01*
X135866667Y-198852438D01*
X135928571Y-198914343D01*
X135990476Y-199038152D01*
X135990476Y-199347676D01*
X135928571Y-199471486D01*
X135866667Y-199533390D01*
X135742857Y-199595295D01*
X135371429Y-199595295D01*
X135247619Y-199533390D01*
X135185714Y-199471486D01*
X185866667Y-198728629D02*
X185866667Y-199595295D01*
X185557143Y-198233390D02*
X185247619Y-199161962D01*
X186052381Y-199161962D01*
X235928571Y-198295295D02*
X235309524Y-198295295D01*
X235247619Y-198914343D01*
X235309524Y-198852438D01*
X235433333Y-198790533D01*
X235742857Y-198790533D01*
X235866667Y-198852438D01*
X235928571Y-198914343D01*
X235990476Y-199038152D01*
X235990476Y-199347676D01*
X235928571Y-199471486D01*
X235866667Y-199533390D01*
X235742857Y-199595295D01*
X235433333Y-199595295D01*
X235309524Y-199533390D01*
X235247619Y-199471486D01*
X285866667Y-198295295D02*
X285619048Y-198295295D01*
X285495238Y-198357200D01*
X285433333Y-198419105D01*
X285309524Y-198604819D01*
X285247619Y-198852438D01*
X285247619Y-199347676D01*
X285309524Y-199471486D01*
X285371429Y-199533390D01*
X285495238Y-199595295D01*
X285742857Y-199595295D01*
X285866667Y-199533390D01*
X285928571Y-199471486D01*
X285990476Y-199347676D01*
X285990476Y-199038152D01*
X285928571Y-198914343D01*
X285866667Y-198852438D01*
X285742857Y-198790533D01*
X285495238Y-198790533D01*
X285371429Y-198852438D01*
X285309524Y-198914343D01*
X285247619Y-199038152D01*
X10000000Y-60000000D02*
X12000000Y-60000000D01*
X10000000Y-110000000D02*
X12000000Y-110000000D01*
X10000000Y-160000000D02*
X12000000Y-160000000D01*
X10690476Y-35216667D02*
X11309524Y-35216667D01*
X10566667Y-35588095D02*
X11000000Y-34288095D01*
X11433333Y-35588095D01*
X11092857Y-84907143D02*
X11278571Y-84969048D01*
X11340476Y-85030952D01*
X11402381Y-85154762D01*
X11402381Y-85340476D01*
X11340476Y-85464286D01*
X11278571Y-85526190D01*
X11154762Y-85588095D01*
X10659524Y-85588095D01*
X10659524Y-84288095D01*
X11092857Y-84288095D01*
X11216667Y-84350000D01*
X11278571Y-84411905D01*
X11340476Y-84535714D01*
X11340476Y-84659524D01*
X11278571Y-84783333D01*
X11216667Y-84845238D01*
X11092857Y-84907143D01*
X10659524Y-84907143D01*
X11402381Y-135464286D02*
X11340476Y-135526190D01*
X11154762Y-135588095D01*
X11030952Y-135588095D01*
X10845238Y-135526190D01*
X10721429Y-135402381D01*
X10659524Y-135278571D01*
X10597619Y-135030952D01*
X10597619Y-134845238D01*
X10659524Y-134597619D01*
X10721429Y-134473810D01*
X10845238Y-134350000D01*
X11030952Y-134288095D01*
X11154762Y-134288095D01*
X11340476Y-134350000D01*
X11402381Y-134411905D01*
X10659524Y-185588095D02*
X10659524Y-184288095D01*
X10969048Y-184288095D01*
X11154762Y-184350000D01*
X11278571Y-184473810D01*
X11340476Y-184597619D01*
X11402381Y-184845238D01*
X11402381Y-185030952D01*
X11340476Y-185278571D01*
X11278571Y-185402381D01*
X11154762Y-185526190D01*
X10969048Y-185588095D01*
X10659524Y-185588095D01*
X287002200Y-60000000D02*
X285002200Y-60000000D01*
X287002200Y-110000000D02*
X285002200Y-110000000D01*
X287002200Y-160000000D02*
X285002200Y-160000000D01*
X285692676Y-35216667D02*
X286311724Y-35216667D01*
X285568867Y-35588095D02*
X286002200Y-34288095D01*
X286435533Y-35588095D01*
X286095057Y-84907143D02*
X286280771Y-84969048D01*
X286342676Y-85030952D01*
X286404581Y-85154762D01*
X286404581Y-85340476D01*
X286342676Y-85464286D01*
X286280771Y-85526190D01*
X286156962Y-85588095D01*
X285661724Y-85588095D01*
X285661724Y-84288095D01*
X286095057Y-84288095D01*
X286218867Y-84350000D01*
X286280771Y-84411905D01*
X286342676Y-84535714D01*
X286342676Y-84659524D01*
X286280771Y-84783333D01*
X286218867Y-84845238D01*
X286095057Y-84907143D01*
X285661724Y-84907143D01*
X286404581Y-135464286D02*
X286342676Y-135526190D01*
X286156962Y-135588095D01*
X286033152Y-135588095D01*
X285847438Y-135526190D01*
X285723629Y-135402381D01*
X285661724Y-135278571D01*
X285599819Y-135030952D01*
X285599819Y-134845238D01*
X285661724Y-134597619D01*
X285723629Y-134473810D01*
X285847438Y-134350000D01*
X286033152Y-134288095D01*
X286156962Y-134288095D01*
X286342676Y-134350000D01*
X286404581Y-134411905D01*
X285661724Y-185588095D02*
X285661724Y-184288095D01*
X285971248Y-184288095D01*
X286156962Y-184350000D01*
X286280771Y-184473810D01*
X286342676Y-184597619D01*
X286404581Y-184845238D01*
X286404581Y-185030952D01*
X286342676Y-185278571D01*
X286280771Y-185402381D01*
X286156962Y-185526190D01*
X285971248Y-185588095D01*
X285661724Y-185588095D01*
X200359343Y-193785771D02*
X200359343Y-192285771D01*
X200716486Y-192285771D01*
X200930771Y-192357200D01*
X201073629Y-192500057D01*
X201145057Y-192642914D01*
X201216486Y-192928629D01*
X201216486Y-193142914D01*
X201145057Y-193428629D01*
X201073629Y-193571486D01*
X200930771Y-193714343D01*
X200716486Y-193785771D01*
X200359343Y-193785771D01*
X202502200Y-193785771D02*
X202502200Y-193000057D01*
X202430771Y-192857200D01*
X202287914Y-192785771D01*
X202002200Y-192785771D01*
X201859343Y-192857200D01*
X202502200Y-193714343D02*
X202359343Y-193785771D01*
X202002200Y-193785771D01*
X201859343Y-193714343D01*
X201787914Y-193571486D01*
X201787914Y-193428629D01*
X201859343Y-193285771D01*
X202002200Y-193214343D01*
X202359343Y-193214343D01*
X202502200Y-193142914D01*
X203002200Y-192785771D02*
X203573629Y-192785771D01*
X203216486Y-192285771D02*
X203216486Y-193571486D01*
X203287914Y-193714343D01*
X203430772Y-193785771D01*
X203573629Y-193785771D01*
X204645057Y-193714343D02*
X204502200Y-193785771D01*
X204216486Y-193785771D01*
X204073629Y-193714343D01*
X204002200Y-193571486D01*
X204002200Y-193000057D01*
X204073629Y-192857200D01*
X204216486Y-192785771D01*
X204502200Y-192785771D01*
X204645057Y-192857200D01*
X204716486Y-193000057D01*
X204716486Y-193142914D01*
X204002200Y-193285771D01*
X205359343Y-193642914D02*
X205430771Y-193714343D01*
X205359343Y-193785771D01*
X205287914Y-193714343D01*
X205359343Y-193642914D01*
X205359343Y-193785771D01*
X205359343Y-192857200D02*
X205430771Y-192928629D01*
X205359343Y-193000057D01*
X205287914Y-192928629D01*
X205359343Y-192857200D01*
X205359343Y-193000057D01*
X207145057Y-192428629D02*
X207216486Y-192357200D01*
X207359343Y-192285771D01*
X207716486Y-192285771D01*
X207859343Y-192357200D01*
X207930772Y-192428629D01*
X208002200Y-192571486D01*
X208002200Y-192714343D01*
X207930772Y-192928629D01*
X207073629Y-193785771D01*
X208002200Y-193785771D01*
X208502200Y-192285771D02*
X209430771Y-192285771D01*
X208930771Y-192857200D01*
X209145057Y-192857200D01*
X209287914Y-192928629D01*
X209359343Y-193000057D01*
X209430771Y-193142914D01*
X209430771Y-193500057D01*
X209359343Y-193642914D01*
X209287914Y-193714343D01*
X209145057Y-193785771D01*
X208716485Y-193785771D01*
X208573628Y-193714343D01*
X208502200Y-193642914D01*
X211216485Y-193785771D02*
X211216485Y-192285771D01*
X211716485Y-193357200D01*
X212216485Y-192285771D01*
X212216485Y-193785771D01*
X213573628Y-193785771D02*
X213573628Y-193000057D01*
X213502199Y-192857200D01*
X213359342Y-192785771D01*
X213073628Y-192785771D01*
X212930771Y-192857200D01*
X213573628Y-193714343D02*
X213430771Y-193785771D01*
X213073628Y-193785771D01*
X212930771Y-193714343D01*
X212859342Y-193571486D01*
X212859342Y-193428629D01*
X212930771Y-193285771D01*
X213073628Y-193214343D01*
X213430771Y-193214343D01*
X213573628Y-193142914D01*
X214145057Y-192785771D02*
X214502200Y-193785771D01*
X214859342Y-192785771D02*
X214502200Y-193785771D01*
X214359342Y-194142914D01*
X214287914Y-194214343D01*
X214145057Y-194285771D01*
X216502199Y-192428629D02*
X216573628Y-192357200D01*
X216716485Y-192285771D01*
X217073628Y-192285771D01*
X217216485Y-192357200D01*
X217287914Y-192428629D01*
X217359342Y-192571486D01*
X217359342Y-192714343D01*
X217287914Y-192928629D01*
X216430771Y-193785771D01*
X217359342Y-193785771D01*
X218287913Y-192285771D02*
X218430770Y-192285771D01*
X218573627Y-192357200D01*
X218645056Y-192428629D01*
X218716485Y-192571486D01*
X218787913Y-192857200D01*
X218787913Y-193214343D01*
X218716485Y-193500057D01*
X218645056Y-193642914D01*
X218573627Y-193714343D01*
X218430770Y-193785771D01*
X218287913Y-193785771D01*
X218145056Y-193714343D01*
X218073627Y-193642914D01*
X218002199Y-193500057D01*
X217930770Y-193214343D01*
X217930770Y-192857200D01*
X218002199Y-192571486D01*
X218073627Y-192428629D01*
X218145056Y-192357200D01*
X218287913Y-192285771D01*
X220216484Y-193785771D02*
X219359341Y-193785771D01*
X219787913Y-193785771D02*
X219787913Y-192285771D01*
X219645056Y-192500057D01*
X219502198Y-192642914D01*
X219359341Y-192714343D01*
X221502198Y-192285771D02*
X221216484Y-192285771D01*
X221073627Y-192357200D01*
X221002198Y-192428629D01*
X220859341Y-192642914D01*
X220787912Y-192928629D01*
X220787912Y-193500057D01*
X220859341Y-193642914D01*
X220930769Y-193714343D01*
X221073627Y-193785771D01*
X221359341Y-193785771D01*
X221502198Y-193714343D01*
X221573627Y-193642914D01*
X221645055Y-193500057D01*
X221645055Y-193142914D01*
X221573627Y-193000057D01*
X221502198Y-192928629D01*
X221359341Y-192857200D01*
X221073627Y-192857200D01*
X220930769Y-192928629D01*
X220859341Y-193000057D01*
X220787912Y-193142914D01*
X177002200Y-194507200D02*
X285002200Y-194507200D01*
X178359343Y-196585771D02*
X178359343Y-195085771D01*
X179216486Y-196585771D02*
X178573629Y-195728629D01*
X179216486Y-195085771D02*
X178359343Y-195942914D01*
X179859343Y-196585771D02*
X179859343Y-195585771D01*
X179859343Y-195085771D02*
X179787914Y-195157200D01*
X179859343Y-195228629D01*
X179930771Y-195157200D01*
X179859343Y-195085771D01*
X179859343Y-195228629D01*
X181430772Y-196442914D02*
X181359343Y-196514343D01*
X181145057Y-196585771D01*
X181002200Y-196585771D01*
X180787915Y-196514343D01*
X180645057Y-196371486D01*
X180573629Y-196228629D01*
X180502200Y-195942914D01*
X180502200Y-195728629D01*
X180573629Y-195442914D01*
X180645057Y-195300057D01*
X180787915Y-195157200D01*
X181002200Y-195085771D01*
X181145057Y-195085771D01*
X181359343Y-195157200D01*
X181430772Y-195228629D01*
X182716486Y-196585771D02*
X182716486Y-195800057D01*
X182645057Y-195657200D01*
X182502200Y-195585771D01*
X182216486Y-195585771D01*
X182073629Y-195657200D01*
X182716486Y-196514343D02*
X182573629Y-196585771D01*
X182216486Y-196585771D01*
X182073629Y-196514343D01*
X182002200Y-196371486D01*
X182002200Y-196228629D01*
X182073629Y-196085771D01*
X182216486Y-196014343D01*
X182573629Y-196014343D01*
X182716486Y-195942914D01*
X184073629Y-196585771D02*
X184073629Y-195085771D01*
X184073629Y-196514343D02*
X183930772Y-196585771D01*
X183645058Y-196585771D01*
X183502200Y-196514343D01*
X183430772Y-196442914D01*
X183359343Y-196300057D01*
X183359343Y-195871486D01*
X183430772Y-195728629D01*
X183502200Y-195657200D01*
X183645058Y-195585771D01*
X183930772Y-195585771D01*
X184073629Y-195657200D01*
X185930772Y-195800057D02*
X186430772Y-195800057D01*
X186645058Y-196585771D02*
X185930772Y-196585771D01*
X185930772Y-195085771D01*
X186645058Y-195085771D01*
X187287915Y-196442914D02*
X187359343Y-196514343D01*
X187287915Y-196585771D01*
X187216486Y-196514343D01*
X187287915Y-196442914D01*
X187287915Y-196585771D01*
X188002201Y-196585771D02*
X188002201Y-195085771D01*
X188359344Y-195085771D01*
X188573629Y-195157200D01*
X188716487Y-195300057D01*
X188787915Y-195442914D01*
X188859344Y-195728629D01*
X188859344Y-195942914D01*
X188787915Y-196228629D01*
X188716487Y-196371486D01*
X188573629Y-196514343D01*
X188359344Y-196585771D01*
X188002201Y-196585771D01*
X189502201Y-196442914D02*
X189573629Y-196514343D01*
X189502201Y-196585771D01*
X189430772Y-196514343D01*
X189502201Y-196442914D01*
X189502201Y-196585771D01*
X190145058Y-196157200D02*
X190859344Y-196157200D01*
X190002201Y-196585771D02*
X190502201Y-195085771D01*
X191002201Y-196585771D01*
X191502201Y-196442914D02*
X191573629Y-196514343D01*
X191502201Y-196585771D01*
X191430772Y-196514343D01*
X191502201Y-196442914D01*
X191502201Y-196585771D01*
X194502201Y-196585771D02*
X194502201Y-195085771D01*
X194645058Y-196014343D02*
X195073629Y-196585771D01*
X195073629Y-195585771D02*
X194502201Y-196157200D01*
X195716487Y-196585771D02*
X195716487Y-195585771D01*
X195716487Y-195085771D02*
X195645058Y-195157200D01*
X195716487Y-195228629D01*
X195787915Y-195157200D01*
X195716487Y-195085771D01*
X195716487Y-195228629D01*
X197073630Y-196514343D02*
X196930773Y-196585771D01*
X196645059Y-196585771D01*
X196502201Y-196514343D01*
X196430773Y-196442914D01*
X196359344Y-196300057D01*
X196359344Y-195871486D01*
X196430773Y-195728629D01*
X196502201Y-195657200D01*
X196645059Y-195585771D01*
X196930773Y-195585771D01*
X197073630Y-195657200D01*
X198359344Y-196585771D02*
X198359344Y-195800057D01*
X198287915Y-195657200D01*
X198145058Y-195585771D01*
X197859344Y-195585771D01*
X197716487Y-195657200D01*
X198359344Y-196514343D02*
X198216487Y-196585771D01*
X197859344Y-196585771D01*
X197716487Y-196514343D01*
X197645058Y-196371486D01*
X197645058Y-196228629D01*
X197716487Y-196085771D01*
X197859344Y-196014343D01*
X198216487Y-196014343D01*
X198359344Y-195942914D01*
X199716487Y-196585771D02*
X199716487Y-195085771D01*
X199716487Y-196514343D02*
X199573630Y-196585771D01*
X199287916Y-196585771D01*
X199145058Y-196514343D01*
X199073630Y-196442914D01*
X199002201Y-196300057D01*
X199002201Y-195871486D01*
X199073630Y-195728629D01*
X199145058Y-195657200D01*
X199287916Y-195585771D01*
X199573630Y-195585771D01*
X199716487Y-195657200D01*
X202216487Y-195585771D02*
X202216487Y-196585771D01*
X201859344Y-195014343D02*
X201502201Y-196085771D01*
X202430773Y-196085771D01*
X203002201Y-196442914D02*
X203073629Y-196514343D01*
X203002201Y-196585771D01*
X202930772Y-196514343D01*
X203002201Y-196442914D01*
X203002201Y-196585771D01*
X204002201Y-195085771D02*
X204145058Y-195085771D01*
X204287915Y-195157200D01*
X204359344Y-195228629D01*
X204430773Y-195371486D01*
X204502201Y-195657200D01*
X204502201Y-196014343D01*
X204430773Y-196300057D01*
X204359344Y-196442914D01*
X204287915Y-196514343D01*
X204145058Y-196585771D01*
X204002201Y-196585771D01*
X203859344Y-196514343D01*
X203787915Y-196442914D01*
X203716487Y-196300057D01*
X203645058Y-196014343D01*
X203645058Y-195657200D01*
X203716487Y-195371486D01*
X203787915Y-195228629D01*
X203859344Y-195157200D01*
X204002201Y-195085771D01*
X205145058Y-196442914D02*
X205216486Y-196514343D01*
X205145058Y-196585771D01*
X205073629Y-196514343D01*
X205145058Y-196442914D01*
X205145058Y-196585771D01*
X205787915Y-195228629D02*
X205859344Y-195157200D01*
X206002201Y-195085771D01*
X206359344Y-195085771D01*
X206502201Y-195157200D01*
X206573630Y-195228629D01*
X206645058Y-195371486D01*
X206645058Y-195514343D01*
X206573630Y-195728629D01*
X205716487Y-196585771D01*
X206645058Y-196585771D01*
X207287915Y-196014343D02*
X208430772Y-196014343D01*
X209073629Y-196514343D02*
X209216486Y-196585771D01*
X209502201Y-196585771D01*
X209645058Y-196514343D01*
X209716486Y-196371486D01*
X209716486Y-196300057D01*
X209645058Y-196157200D01*
X209502201Y-196085771D01*
X209287915Y-196085771D01*
X209145058Y-196014343D01*
X209073629Y-195871486D01*
X209073629Y-195800057D01*
X209145058Y-195657200D01*
X209287915Y-195585771D01*
X209502201Y-195585771D01*
X209645058Y-195657200D01*
X210145058Y-195585771D02*
X210716487Y-195585771D01*
X210359344Y-195085771D02*
X210359344Y-196371486D01*
X210430772Y-196514343D01*
X210573630Y-196585771D01*
X210716487Y-196585771D01*
X211859344Y-196585771D02*
X211859344Y-195800057D01*
X211787915Y-195657200D01*
X211645058Y-195585771D01*
X211359344Y-195585771D01*
X211216487Y-195657200D01*
X211859344Y-196514343D02*
X211716487Y-196585771D01*
X211359344Y-196585771D01*
X211216487Y-196514343D01*
X211145058Y-196371486D01*
X211145058Y-196228629D01*
X211216487Y-196085771D01*
X211359344Y-196014343D01*
X211716487Y-196014343D01*
X211859344Y-195942914D01*
X212573630Y-196585771D02*
X212573630Y-195085771D01*
X212573630Y-195657200D02*
X212716487Y-195585771D01*
X213002201Y-195585771D01*
X213145058Y-195657200D01*
X213216487Y-195728629D01*
X213287916Y-195871486D01*
X213287916Y-196300057D01*
X213216487Y-196442914D01*
X213145058Y-196514343D01*
X213002201Y-196585771D01*
X212716487Y-196585771D01*
X212573630Y-196514343D01*
X214145059Y-196585771D02*
X214002201Y-196514343D01*
X213930773Y-196371486D01*
X213930773Y-195085771D01*
X215287915Y-196514343D02*
X215145058Y-196585771D01*
X214859344Y-196585771D01*
X214716487Y-196514343D01*
X214645058Y-196371486D01*
X214645058Y-195800057D01*
X214716487Y-195657200D01*
X214859344Y-195585771D01*
X215145058Y-195585771D01*
X215287915Y-195657200D01*
X215359344Y-195800057D01*
X215359344Y-195942914D01*
X214645058Y-196085771D01*
X177002200Y-191507200D02*
X285002200Y-191507200D01*
D11*
X264216486Y-193785771D02*
X263716486Y-193071486D01*
X263359343Y-193785771D02*
X263359343Y-192285771D01*
X263930771Y-192285771D01*
X264073629Y-192357200D01*
X264145057Y-192428629D01*
X264216486Y-192571486D01*
X264216486Y-192785771D01*
X264145057Y-192928629D01*
X264073629Y-193000057D01*
X263930771Y-193071486D01*
X263359343Y-193071486D01*
X265430771Y-193714343D02*
X265287914Y-193785771D01*
X265002200Y-193785771D01*
X264859343Y-193714343D01*
X264787914Y-193571486D01*
X264787914Y-193000057D01*
X264859343Y-192857200D01*
X265002200Y-192785771D01*
X265287914Y-192785771D01*
X265430771Y-192857200D01*
X265502200Y-193000057D01*
X265502200Y-193142914D01*
X264787914Y-193285771D01*
X266002200Y-192785771D02*
X266359343Y-193785771D01*
X266716485Y-192785771D01*
X267287914Y-193642914D02*
X267359342Y-193714343D01*
X267287914Y-193785771D01*
X267216485Y-193714343D01*
X267287914Y-193642914D01*
X267287914Y-193785771D01*
X267287914Y-192857200D02*
X267359342Y-192928629D01*
X267287914Y-193000057D01*
X267216485Y-192928629D01*
X267287914Y-192857200D01*
X267287914Y-193000057D01*
X269002200Y-192285771D02*
X269930771Y-192285771D01*
X269430771Y-192857200D01*
X269645057Y-192857200D01*
X269787914Y-192928629D01*
X269859343Y-193000057D01*
X269930771Y-193142914D01*
X269930771Y-193500057D01*
X269859343Y-193642914D01*
X269787914Y-193714343D01*
X269645057Y-193785771D01*
X269216485Y-193785771D01*
X269073628Y-193714343D01*
X269002200Y-193642914D01*
D10*
X178287914Y-193714343D02*
X178502200Y-193785771D01*
X178859343Y-193785771D01*
X179002200Y-193714343D01*
X179073629Y-193642914D01*
X179145057Y-193500057D01*
X179145057Y-193357200D01*
X179073629Y-193214343D01*
X179002200Y-193142914D01*
X178859343Y-193071486D01*
X178573629Y-193000057D01*
X178430771Y-192928629D01*
X178359343Y-192857200D01*
X178287914Y-192714343D01*
X178287914Y-192571486D01*
X178359343Y-192428629D01*
X178430771Y-192357200D01*
X178573629Y-192285771D01*
X178930771Y-192285771D01*
X179145057Y-192357200D01*
X179787914Y-193785771D02*
X179787914Y-192785771D01*
X179787914Y-192285771D02*
X179716485Y-192357200D01*
X179787914Y-192428629D01*
X179859342Y-192357200D01*
X179787914Y-192285771D01*
X179787914Y-192428629D01*
X180359343Y-192785771D02*
X181145057Y-192785771D01*
X180359343Y-193785771D01*
X181145057Y-193785771D01*
X182287914Y-193714343D02*
X182145057Y-193785771D01*
X181859343Y-193785771D01*
X181716486Y-193714343D01*
X181645057Y-193571486D01*
X181645057Y-193000057D01*
X181716486Y-192857200D01*
X181859343Y-192785771D01*
X182145057Y-192785771D01*
X182287914Y-192857200D01*
X182359343Y-193000057D01*
X182359343Y-193142914D01*
X181645057Y-193285771D01*
X183002200Y-193642914D02*
X183073628Y-193714343D01*
X183002200Y-193785771D01*
X182930771Y-193714343D01*
X183002200Y-193642914D01*
X183002200Y-193785771D01*
X183002200Y-192857200D02*
X183073628Y-192928629D01*
X183002200Y-193000057D01*
X182930771Y-192928629D01*
X183002200Y-192857200D01*
X183002200Y-193000057D01*
X184787914Y-193357200D02*
X185502200Y-193357200D01*
X184645057Y-193785771D02*
X185145057Y-192285771D01*
X185645057Y-193785771D01*
X186787914Y-192785771D02*
X186787914Y-193785771D01*
X186430771Y-192214343D02*
X186073628Y-193285771D01*
X187002200Y-193285771D01*
X263359343Y-196585771D02*
X263359343Y-195085771D01*
X264716486Y-196585771D02*
X264716486Y-195085771D01*
X264716486Y-196514343D02*
X264573629Y-196585771D01*
X264287915Y-196585771D01*
X264145057Y-196514343D01*
X264073629Y-196442914D01*
X264002200Y-196300057D01*
X264002200Y-195871486D01*
X264073629Y-195728629D01*
X264145057Y-195657200D01*
X264287915Y-195585771D01*
X264573629Y-195585771D01*
X264716486Y-195657200D01*
X265430772Y-196442914D02*
X265502200Y-196514343D01*
X265430772Y-196585771D01*
X265359343Y-196514343D01*
X265430772Y-196442914D01*
X265430772Y-196585771D01*
X265430772Y-195657200D02*
X265502200Y-195728629D01*
X265430772Y-195800057D01*
X265359343Y-195728629D01*
X265430772Y-195657200D01*
X265430772Y-195800057D01*
X268073629Y-196585771D02*
X267216486Y-196585771D01*
X267645058Y-196585771D02*
X267645058Y-195085771D01*
X267502201Y-195300057D01*
X267359343Y-195442914D01*
X267216486Y-195514343D01*
X269787914Y-195014343D02*
X268502200Y-196942914D01*
X271073629Y-196585771D02*
X270216486Y-196585771D01*
X270645058Y-196585771D02*
X270645058Y-195085771D01*
X270502201Y-195300057D01*
X270359343Y-195442914D01*
X270216486Y-195514343D01*
X177002200Y-187507200D02*
X285002200Y-187507200D01*
D12*
X178454581Y-188211962D02*
X179597438Y-188211962D01*
X178776010Y-190211962D02*
X179026010Y-188211962D01*
X180014105Y-190211962D02*
X180180771Y-188878629D01*
X180264105Y-188211962D02*
X180156962Y-188307200D01*
X180240295Y-188402438D01*
X180347439Y-188307200D01*
X180264105Y-188211962D01*
X180240295Y-188402438D01*
X180847438Y-188878629D02*
X181609343Y-188878629D01*
X181216486Y-188211962D02*
X181002200Y-189926248D01*
X181073630Y-190116724D01*
X181252201Y-190211962D01*
X181442677Y-190211962D01*
X182395058Y-190211962D02*
X182216487Y-190116724D01*
X182145057Y-189926248D01*
X182359343Y-188211962D01*
X183930772Y-190116724D02*
X183728391Y-190211962D01*
X183347439Y-190211962D01*
X183168867Y-190116724D01*
X183097438Y-189926248D01*
X183192676Y-189164343D01*
X183311724Y-188973867D01*
X183514105Y-188878629D01*
X183895057Y-188878629D01*
X184073629Y-188973867D01*
X184145057Y-189164343D01*
X184121248Y-189354819D01*
X183145057Y-189545295D01*
X184895057Y-190021486D02*
X184978392Y-190116724D01*
X184871248Y-190211962D01*
X184787915Y-190116724D01*
X184895057Y-190021486D01*
X184871248Y-190211962D01*
X185026010Y-188973867D02*
X185109344Y-189069105D01*
X185002200Y-189164343D01*
X184918867Y-189069105D01*
X185026010Y-188973867D01*
X185002200Y-189164343D01*
X188299820Y-190211962D02*
X187347439Y-190211962D01*
X187597439Y-188211962D01*
X188966487Y-190211962D02*
X189133153Y-188878629D01*
X189216487Y-188211962D02*
X189109344Y-188307200D01*
X189192677Y-188402438D01*
X189299821Y-188307200D01*
X189216487Y-188211962D01*
X189192677Y-188402438D01*
X189918868Y-190211962D02*
X190085534Y-188878629D01*
X190061725Y-189069105D02*
X190168869Y-188973867D01*
X190371249Y-188878629D01*
X190656963Y-188878629D01*
X190835535Y-188973867D01*
X190906963Y-189164343D01*
X190776011Y-190211962D01*
X190906963Y-189164343D02*
X191026011Y-188973867D01*
X191228392Y-188878629D01*
X191514106Y-188878629D01*
X191692678Y-188973867D01*
X191764106Y-189164343D01*
X191633154Y-190211962D01*
X193359345Y-190116724D02*
X193156964Y-190211962D01*
X192776012Y-190211962D01*
X192597440Y-190116724D01*
X192526011Y-189926248D01*
X192621249Y-189164343D01*
X192740297Y-188973867D01*
X192942678Y-188878629D01*
X193323630Y-188878629D01*
X193502202Y-188973867D01*
X193573630Y-189164343D01*
X193549821Y-189354819D01*
X192573630Y-189545295D01*
X194216488Y-190116724D02*
X194490298Y-190211962D01*
X194966488Y-190211962D01*
X195168869Y-190116724D01*
X195276011Y-190021486D01*
X195395060Y-189831010D01*
X195418869Y-189640533D01*
X195347440Y-189450057D01*
X195264107Y-189354819D01*
X195085535Y-189259581D01*
X194716488Y-189164343D01*
X194537917Y-189069105D01*
X194454583Y-188973867D01*
X194383154Y-188783390D01*
X194406964Y-188592914D01*
X194526011Y-188402438D01*
X194633155Y-188307200D01*
X194835536Y-188211962D01*
X195311726Y-188211962D01*
X195585536Y-188307200D01*
X196204583Y-190211962D02*
X196454583Y-188211962D01*
X196930774Y-188211962D01*
X197204583Y-188307200D01*
X197371250Y-188497676D01*
X197442679Y-188688152D01*
X197490298Y-189069105D01*
X197454584Y-189354819D01*
X197311727Y-189735771D01*
X197192678Y-189926248D01*
X196978393Y-190116724D01*
X196680774Y-190211962D01*
X196204583Y-190211962D01*
X199347441Y-190211962D02*
X198799821Y-189259581D01*
X198204583Y-190211962D02*
X198454583Y-188211962D01*
X199216488Y-188211962D01*
X199395059Y-188307200D01*
X199478393Y-188402438D01*
X199549822Y-188592914D01*
X199514107Y-188878629D01*
X199395060Y-189069105D01*
X199287916Y-189164343D01*
X199085535Y-189259581D01*
X198323630Y-189259581D01*
X200299821Y-189450057D02*
X201823631Y-189450057D01*
X202597440Y-190116724D02*
X202871250Y-190211962D01*
X203347440Y-190211962D01*
X203549821Y-190116724D01*
X203656963Y-190021486D01*
X203776012Y-189831010D01*
X203799821Y-189640533D01*
X203728392Y-189450057D01*
X203645059Y-189354819D01*
X203466487Y-189259581D01*
X203097440Y-189164343D01*
X202918869Y-189069105D01*
X202835535Y-188973867D01*
X202764106Y-188783390D01*
X202787916Y-188592914D01*
X202906963Y-188402438D01*
X203014107Y-188307200D01*
X203216488Y-188211962D01*
X203692678Y-188211962D01*
X203966488Y-188307200D01*
X204871250Y-190211962D02*
X204692679Y-190116724D01*
X204609344Y-190021486D01*
X204537916Y-189831010D01*
X204609344Y-189259581D01*
X204728392Y-189069105D01*
X204835536Y-188973867D01*
X205037916Y-188878629D01*
X205323630Y-188878629D01*
X205502202Y-188973867D01*
X205585535Y-189069105D01*
X205656963Y-189259581D01*
X205585535Y-189831010D01*
X205466487Y-190021486D01*
X205359345Y-190116724D01*
X205156964Y-190211962D01*
X204871250Y-190211962D01*
X206561725Y-188878629D02*
X206395059Y-190211962D01*
X206537916Y-189069105D02*
X206645060Y-188973867D01*
X206847440Y-188878629D01*
X207133154Y-188878629D01*
X207311726Y-188973867D01*
X207383154Y-189164343D01*
X207252202Y-190211962D01*
X208180773Y-188878629D02*
X208490298Y-190211962D01*
X209133154Y-188878629D02*
X208490298Y-190211962D01*
X208240298Y-190688152D01*
X208133154Y-190783390D01*
X207930773Y-190878629D01*
X211228393Y-188878629D02*
X211537918Y-190211962D01*
X212180774Y-188878629D01*
X213823633Y-190211962D02*
X212680775Y-190211962D01*
X213252204Y-190211962D02*
X213502204Y-188211962D01*
X213276014Y-188497676D01*
X213061728Y-188688152D01*
X212859346Y-188783390D01*
D10*
X178859343Y-185600057D02*
X178359343Y-185600057D01*
X178359343Y-186385771D02*
X178359343Y-184885771D01*
X179073629Y-184885771D01*
X179645057Y-186385771D02*
X179645057Y-185385771D01*
X179645057Y-184885771D02*
X179573628Y-184957200D01*
X179645057Y-185028629D01*
X179716485Y-184957200D01*
X179645057Y-184885771D01*
X179645057Y-185028629D01*
X180573629Y-186385771D02*
X180430771Y-186314343D01*
X180359343Y-186171486D01*
X180359343Y-184885771D01*
X181716485Y-186314343D02*
X181573628Y-186385771D01*
X181287914Y-186385771D01*
X181145057Y-186314343D01*
X181073628Y-186171486D01*
X181073628Y-185600057D01*
X181145057Y-185457200D01*
X181287914Y-185385771D01*
X181573628Y-185385771D01*
X181716485Y-185457200D01*
X181787914Y-185600057D01*
X181787914Y-185742914D01*
X181073628Y-185885771D01*
X182430771Y-186242914D02*
X182502199Y-186314343D01*
X182430771Y-186385771D01*
X182359342Y-186314343D01*
X182430771Y-186242914D01*
X182430771Y-186385771D01*
X182430771Y-185457200D02*
X182502199Y-185528629D01*
X182430771Y-185600057D01*
X182359342Y-185528629D01*
X182430771Y-185457200D01*
X182430771Y-185600057D01*
X185002200Y-186385771D02*
X184287914Y-186385771D01*
X184287914Y-184885771D01*
X185502200Y-186385771D02*
X185502200Y-185385771D01*
X185502200Y-184885771D02*
X185430771Y-184957200D01*
X185502200Y-185028629D01*
X185573628Y-184957200D01*
X185502200Y-184885771D01*
X185502200Y-185028629D01*
X186216486Y-186385771D02*
X186216486Y-185385771D01*
X186216486Y-185528629D02*
X186287914Y-185457200D01*
X186430772Y-185385771D01*
X186645057Y-185385771D01*
X186787914Y-185457200D01*
X186859343Y-185600057D01*
X186859343Y-186385771D01*
X186859343Y-185600057D02*
X186930772Y-185457200D01*
X187073629Y-185385771D01*
X187287914Y-185385771D01*
X187430772Y-185457200D01*
X187502200Y-185600057D01*
X187502200Y-186385771D01*
X188787914Y-186314343D02*
X188645057Y-186385771D01*
X188359343Y-186385771D01*
X188216486Y-186314343D01*
X188145057Y-186171486D01*
X188145057Y-185600057D01*
X188216486Y-185457200D01*
X188359343Y-185385771D01*
X188645057Y-185385771D01*
X188787914Y-185457200D01*
X188859343Y-185600057D01*
X188859343Y-185742914D01*
X188145057Y-185885771D01*
X189430771Y-186314343D02*
X189645057Y-186385771D01*
X190002200Y-186385771D01*
X190145057Y-186314343D01*
X190216486Y-186242914D01*
X190287914Y-186100057D01*
X190287914Y-185957200D01*
X190216486Y-185814343D01*
X190145057Y-185742914D01*
X190002200Y-185671486D01*
X189716486Y-185600057D01*
X189573628Y-185528629D01*
X189502200Y-185457200D01*
X189430771Y-185314343D01*
X189430771Y-185171486D01*
X189502200Y-185028629D01*
X189573628Y-184957200D01*
X189716486Y-184885771D01*
X190073628Y-184885771D01*
X190287914Y-184957200D01*
X190930771Y-186385771D02*
X190930771Y-184885771D01*
X191287914Y-184885771D01*
X191502199Y-184957200D01*
X191645057Y-185100057D01*
X191716485Y-185242914D01*
X191787914Y-185528629D01*
X191787914Y-185742914D01*
X191716485Y-186028629D01*
X191645057Y-186171486D01*
X191502199Y-186314343D01*
X191287914Y-186385771D01*
X190930771Y-186385771D01*
X193287914Y-186385771D02*
X192787914Y-185671486D01*
X192430771Y-186385771D02*
X192430771Y-184885771D01*
X193002199Y-184885771D01*
X193145057Y-184957200D01*
X193216485Y-185028629D01*
X193287914Y-185171486D01*
X193287914Y-185385771D01*
X193216485Y-185528629D01*
X193145057Y-185600057D01*
X193002199Y-185671486D01*
X192430771Y-185671486D01*
X193573628Y-186528629D02*
X194716485Y-186528629D01*
X195002199Y-186314343D02*
X195216485Y-186385771D01*
X195573628Y-186385771D01*
X195716485Y-186314343D01*
X195787914Y-186242914D01*
X195859342Y-186100057D01*
X195859342Y-185957200D01*
X195787914Y-185814343D01*
X195716485Y-185742914D01*
X195573628Y-185671486D01*
X195287914Y-185600057D01*
X195145056Y-185528629D01*
X195073628Y-185457200D01*
X195002199Y-185314343D01*
X195002199Y-185171486D01*
X195073628Y-185028629D01*
X195145056Y-184957200D01*
X195287914Y-184885771D01*
X195645056Y-184885771D01*
X195859342Y-184957200D01*
X196716485Y-186385771D02*
X196573627Y-186314343D01*
X196502199Y-186242914D01*
X196430770Y-186100057D01*
X196430770Y-185671486D01*
X196502199Y-185528629D01*
X196573627Y-185457200D01*
X196716485Y-185385771D01*
X196930770Y-185385771D01*
X197073627Y-185457200D01*
X197145056Y-185528629D01*
X197216485Y-185671486D01*
X197216485Y-186100057D01*
X197145056Y-186242914D01*
X197073627Y-186314343D01*
X196930770Y-186385771D01*
X196716485Y-186385771D01*
X197859342Y-185385771D02*
X197859342Y-186385771D01*
X197859342Y-185528629D02*
X197930770Y-185457200D01*
X198073628Y-185385771D01*
X198287913Y-185385771D01*
X198430770Y-185457200D01*
X198502199Y-185600057D01*
X198502199Y-186385771D01*
X199073628Y-185385771D02*
X199430771Y-186385771D01*
X199787913Y-185385771D02*
X199430771Y-186385771D01*
X199287913Y-186742914D01*
X199216485Y-186814343D01*
X199073628Y-186885771D01*
X200359342Y-186242914D02*
X200430770Y-186314343D01*
X200359342Y-186385771D01*
X200287913Y-186314343D01*
X200359342Y-186242914D01*
X200359342Y-186385771D01*
X201073628Y-186385771D02*
X201073628Y-184885771D01*
X201216485Y-185814343D02*
X201645056Y-186385771D01*
X201645056Y-185385771D02*
X201073628Y-185957200D01*
X202287914Y-186385771D02*
X202287914Y-185385771D01*
X202287914Y-184885771D02*
X202216485Y-184957200D01*
X202287914Y-185028629D01*
X202359342Y-184957200D01*
X202287914Y-184885771D01*
X202287914Y-185028629D01*
X203645057Y-186314343D02*
X203502200Y-186385771D01*
X203216486Y-186385771D01*
X203073628Y-186314343D01*
X203002200Y-186242914D01*
X202930771Y-186100057D01*
X202930771Y-185671486D01*
X203002200Y-185528629D01*
X203073628Y-185457200D01*
X203216486Y-185385771D01*
X203502200Y-185385771D01*
X203645057Y-185457200D01*
X204930771Y-186385771D02*
X204930771Y-185600057D01*
X204859342Y-185457200D01*
X204716485Y-185385771D01*
X204430771Y-185385771D01*
X204287914Y-185457200D01*
X204930771Y-186314343D02*
X204787914Y-186385771D01*
X204430771Y-186385771D01*
X204287914Y-186314343D01*
X204216485Y-186171486D01*
X204216485Y-186028629D01*
X204287914Y-185885771D01*
X204430771Y-185814343D01*
X204787914Y-185814343D01*
X204930771Y-185742914D01*
X206287914Y-186385771D02*
X206287914Y-184885771D01*
X206287914Y-186314343D02*
X206145057Y-186385771D01*
X205859343Y-186385771D01*
X205716485Y-186314343D01*
X205645057Y-186242914D01*
X205573628Y-186100057D01*
X205573628Y-185671486D01*
X205645057Y-185528629D01*
X205716485Y-185457200D01*
X205859343Y-185385771D01*
X206145057Y-185385771D01*
X206287914Y-185457200D01*
X206645057Y-186528629D02*
X207787914Y-186528629D01*
X208145057Y-185385771D02*
X208145057Y-186885771D01*
X208145057Y-185457200D02*
X208287914Y-185385771D01*
X208573628Y-185385771D01*
X208716485Y-185457200D01*
X208787914Y-185528629D01*
X208859343Y-185671486D01*
X208859343Y-186100057D01*
X208787914Y-186242914D01*
X208716485Y-186314343D01*
X208573628Y-186385771D01*
X208287914Y-186385771D01*
X208145057Y-186314343D01*
X210145057Y-186314343D02*
X210002200Y-186385771D01*
X209716486Y-186385771D01*
X209573628Y-186314343D01*
X209502200Y-186242914D01*
X209430771Y-186100057D01*
X209430771Y-185671486D01*
X209502200Y-185528629D01*
X209573628Y-185457200D01*
X209716486Y-185385771D01*
X210002200Y-185385771D01*
X210145057Y-185457200D01*
X210787914Y-186385771D02*
X210787914Y-184885771D01*
X210787914Y-185457200D02*
X210930771Y-185385771D01*
X211216485Y-185385771D01*
X211359342Y-185457200D01*
X211430771Y-185528629D01*
X211502200Y-185671486D01*
X211502200Y-186100057D01*
X211430771Y-186242914D01*
X211359342Y-186314343D01*
X211216485Y-186385771D01*
X210930771Y-186385771D01*
X210787914Y-186314343D01*
X177002200Y-181507200D02*
X285002200Y-181507200D01*
X178287914Y-183614343D02*
X178502200Y-183685771D01*
X178859343Y-183685771D01*
X179002200Y-183614343D01*
X179073629Y-183542914D01*
X179145057Y-183400057D01*
X179145057Y-183257200D01*
X179073629Y-183114343D01*
X179002200Y-183042914D01*
X178859343Y-182971486D01*
X178573629Y-182900057D01*
X178430771Y-182828629D01*
X178359343Y-182757200D01*
X178287914Y-182614343D01*
X178287914Y-182471486D01*
X178359343Y-182328629D01*
X178430771Y-182257200D01*
X178573629Y-182185771D01*
X178930771Y-182185771D01*
X179145057Y-182257200D01*
X179787914Y-183685771D02*
X179787914Y-182185771D01*
X180430771Y-183685771D02*
X180430771Y-182900057D01*
X180359342Y-182757200D01*
X180216485Y-182685771D01*
X180002200Y-182685771D01*
X179859342Y-182757200D01*
X179787914Y-182828629D01*
X181716485Y-183614343D02*
X181573628Y-183685771D01*
X181287914Y-183685771D01*
X181145057Y-183614343D01*
X181073628Y-183471486D01*
X181073628Y-182900057D01*
X181145057Y-182757200D01*
X181287914Y-182685771D01*
X181573628Y-182685771D01*
X181716485Y-182757200D01*
X181787914Y-182900057D01*
X181787914Y-183042914D01*
X181073628Y-183185771D01*
X183002199Y-183614343D02*
X182859342Y-183685771D01*
X182573628Y-183685771D01*
X182430771Y-183614343D01*
X182359342Y-183471486D01*
X182359342Y-182900057D01*
X182430771Y-182757200D01*
X182573628Y-182685771D01*
X182859342Y-182685771D01*
X183002199Y-182757200D01*
X183073628Y-182900057D01*
X183073628Y-183042914D01*
X182359342Y-183185771D01*
X183502199Y-182685771D02*
X184073628Y-182685771D01*
X183716485Y-182185771D02*
X183716485Y-183471486D01*
X183787913Y-183614343D01*
X183930771Y-183685771D01*
X184073628Y-183685771D01*
X184573628Y-183542914D02*
X184645056Y-183614343D01*
X184573628Y-183685771D01*
X184502199Y-183614343D01*
X184573628Y-183542914D01*
X184573628Y-183685771D01*
X184573628Y-182757200D02*
X184645056Y-182828629D01*
X184573628Y-182900057D01*
X184502199Y-182828629D01*
X184573628Y-182757200D01*
X184573628Y-182900057D01*
D11*
X179216486Y-180542914D02*
X179145057Y-180614343D01*
X178930771Y-180685771D01*
X178787914Y-180685771D01*
X178573629Y-180614343D01*
X178430771Y-180471486D01*
X178359343Y-180328629D01*
X178287914Y-180042914D01*
X178287914Y-179828629D01*
X178359343Y-179542914D01*
X178430771Y-179400057D01*
X178573629Y-179257200D01*
X178787914Y-179185771D01*
X178930771Y-179185771D01*
X179145057Y-179257200D01*
X179216486Y-179328629D01*
X180073629Y-180685771D02*
X179930771Y-180614343D01*
X179859343Y-180542914D01*
X179787914Y-180400057D01*
X179787914Y-179971486D01*
X179859343Y-179828629D01*
X179930771Y-179757200D01*
X180073629Y-179685771D01*
X180287914Y-179685771D01*
X180430771Y-179757200D01*
X180502200Y-179828629D01*
X180573629Y-179971486D01*
X180573629Y-180400057D01*
X180502200Y-180542914D01*
X180430771Y-180614343D01*
X180287914Y-180685771D01*
X180073629Y-180685771D01*
X181216486Y-179685771D02*
X181216486Y-181185771D01*
X181216486Y-179757200D02*
X181359343Y-179685771D01*
X181645057Y-179685771D01*
X181787914Y-179757200D01*
X181859343Y-179828629D01*
X181930772Y-179971486D01*
X181930772Y-180400057D01*
X181859343Y-180542914D01*
X181787914Y-180614343D01*
X181645057Y-180685771D01*
X181359343Y-180685771D01*
X181216486Y-180614343D01*
X182430772Y-179685771D02*
X182787915Y-180685771D01*
X183145057Y-179685771D02*
X182787915Y-180685771D01*
X182645057Y-181042914D01*
X182573629Y-181114343D01*
X182430772Y-181185771D01*
X183716486Y-180685771D02*
X183716486Y-179685771D01*
X183716486Y-179971486D02*
X183787914Y-179828629D01*
X183859343Y-179757200D01*
X184002200Y-179685771D01*
X184145057Y-179685771D01*
X184645057Y-180685771D02*
X184645057Y-179685771D01*
X184645057Y-179185771D02*
X184573628Y-179257200D01*
X184645057Y-179328629D01*
X184716485Y-179257200D01*
X184645057Y-179185771D01*
X184645057Y-179328629D01*
X186002200Y-179685771D02*
X186002200Y-180900057D01*
X185930771Y-181042914D01*
X185859343Y-181114343D01*
X185716486Y-181185771D01*
X185502200Y-181185771D01*
X185359343Y-181114343D01*
X186002200Y-180614343D02*
X185859343Y-180685771D01*
X185573629Y-180685771D01*
X185430771Y-180614343D01*
X185359343Y-180542914D01*
X185287914Y-180400057D01*
X185287914Y-179971486D01*
X185359343Y-179828629D01*
X185430771Y-179757200D01*
X185573629Y-179685771D01*
X185859343Y-179685771D01*
X186002200Y-179757200D01*
X186716486Y-180685771D02*
X186716486Y-179185771D01*
X187359343Y-180685771D02*
X187359343Y-179900057D01*
X187287914Y-179757200D01*
X187145057Y-179685771D01*
X186930772Y-179685771D01*
X186787914Y-179757200D01*
X186716486Y-179828629D01*
X187859343Y-179685771D02*
X188430772Y-179685771D01*
X188073629Y-179185771D02*
X188073629Y-180471486D01*
X188145057Y-180614343D01*
X188287915Y-180685771D01*
X188430772Y-180685771D01*
X190002200Y-179328629D02*
X190073629Y-179257200D01*
X190216486Y-179185771D01*
X190573629Y-179185771D01*
X190716486Y-179257200D01*
X190787915Y-179328629D01*
X190859343Y-179471486D01*
X190859343Y-179614343D01*
X190787915Y-179828629D01*
X189930772Y-180685771D01*
X190859343Y-180685771D01*
X191787914Y-179185771D02*
X191930771Y-179185771D01*
X192073628Y-179257200D01*
X192145057Y-179328629D01*
X192216486Y-179471486D01*
X192287914Y-179757200D01*
X192287914Y-180114343D01*
X192216486Y-180400057D01*
X192145057Y-180542914D01*
X192073628Y-180614343D01*
X191930771Y-180685771D01*
X191787914Y-180685771D01*
X191645057Y-180614343D01*
X191573628Y-180542914D01*
X191502200Y-180400057D01*
X191430771Y-180114343D01*
X191430771Y-179757200D01*
X191502200Y-179471486D01*
X191573628Y-179328629D01*
X191645057Y-179257200D01*
X191787914Y-179185771D01*
X193716485Y-180685771D02*
X192859342Y-180685771D01*
X193287914Y-180685771D02*
X193287914Y-179185771D01*
X193145057Y-179400057D01*
X193002199Y-179542914D01*
X192859342Y-179614343D01*
X195002199Y-179185771D02*
X194716485Y-179185771D01*
X194573628Y-179257200D01*
X194502199Y-179328629D01*
X194359342Y-179542914D01*
X194287913Y-179828629D01*
X194287913Y-180400057D01*
X194359342Y-180542914D01*
X194430770Y-180614343D01*
X194573628Y-180685771D01*
X194859342Y-180685771D01*
X195002199Y-180614343D01*
X195073628Y-180542914D01*
X195145056Y-180400057D01*
X195145056Y-180042914D01*
X195073628Y-179900057D01*
X195002199Y-179828629D01*
X194859342Y-179757200D01*
X194573628Y-179757200D01*
X194430770Y-179828629D01*
X194359342Y-179900057D01*
X194287913Y-180042914D01*
X197645056Y-180685771D02*
X196930770Y-180685771D01*
X196930770Y-179185771D01*
X198145056Y-180685771D02*
X198145056Y-179685771D01*
X198145056Y-179185771D02*
X198073627Y-179257200D01*
X198145056Y-179328629D01*
X198216484Y-179257200D01*
X198145056Y-179185771D01*
X198145056Y-179328629D01*
X198859342Y-180685771D02*
X198859342Y-179685771D01*
X198859342Y-179828629D02*
X198930770Y-179757200D01*
X199073628Y-179685771D01*
X199287913Y-179685771D01*
X199430770Y-179757200D01*
X199502199Y-179900057D01*
X199502199Y-180685771D01*
X199502199Y-179900057D02*
X199573628Y-179757200D01*
X199716485Y-179685771D01*
X199930770Y-179685771D01*
X200073628Y-179757200D01*
X200145056Y-179900057D01*
X200145056Y-180685771D01*
X201430770Y-180614343D02*
X201287913Y-180685771D01*
X201002199Y-180685771D01*
X200859342Y-180614343D01*
X200787913Y-180471486D01*
X200787913Y-179900057D01*
X200859342Y-179757200D01*
X201002199Y-179685771D01*
X201287913Y-179685771D01*
X201430770Y-179757200D01*
X201502199Y-179900057D01*
X201502199Y-180042914D01*
X200787913Y-180185771D01*
X203287913Y-180685771D02*
X203287913Y-179185771D01*
X203787913Y-180257200D01*
X204287913Y-179185771D01*
X204287913Y-180685771D01*
X205002199Y-180685771D02*
X205002199Y-179685771D01*
X205002199Y-179185771D02*
X204930770Y-179257200D01*
X205002199Y-179328629D01*
X205073627Y-179257200D01*
X205002199Y-179185771D01*
X205002199Y-179328629D01*
X206359342Y-180614343D02*
X206216485Y-180685771D01*
X205930771Y-180685771D01*
X205787913Y-180614343D01*
X205716485Y-180542914D01*
X205645056Y-180400057D01*
X205645056Y-179971486D01*
X205716485Y-179828629D01*
X205787913Y-179757200D01*
X205930771Y-179685771D01*
X206216485Y-179685771D01*
X206359342Y-179757200D01*
X207002199Y-180685771D02*
X207002199Y-179685771D01*
X207002199Y-179971486D02*
X207073627Y-179828629D01*
X207145056Y-179757200D01*
X207287913Y-179685771D01*
X207430770Y-179685771D01*
X208145056Y-180685771D02*
X208002198Y-180614343D01*
X207930770Y-180542914D01*
X207859341Y-180400057D01*
X207859341Y-179971486D01*
X207930770Y-179828629D01*
X208002198Y-179757200D01*
X208145056Y-179685771D01*
X208359341Y-179685771D01*
X208502198Y-179757200D01*
X208573627Y-179828629D01*
X208645056Y-179971486D01*
X208645056Y-180400057D01*
X208573627Y-180542914D01*
X208502198Y-180614343D01*
X208359341Y-180685771D01*
X208145056Y-180685771D01*
X209216484Y-180614343D02*
X209359341Y-180685771D01*
X209645056Y-180685771D01*
X209787913Y-180614343D01*
X209859341Y-180471486D01*
X209859341Y-180400057D01*
X209787913Y-180257200D01*
X209645056Y-180185771D01*
X209430770Y-180185771D01*
X209287913Y-180114343D01*
X209216484Y-179971486D01*
X209216484Y-179900057D01*
X209287913Y-179757200D01*
X209430770Y-179685771D01*
X209645056Y-179685771D01*
X209787913Y-179757200D01*
X210359342Y-179685771D02*
X210716485Y-180685771D01*
X211073627Y-179685771D02*
X210716485Y-180685771D01*
X210573627Y-181042914D01*
X210502199Y-181114343D01*
X210359342Y-181185771D01*
X211573627Y-180614343D02*
X211716484Y-180685771D01*
X212002199Y-180685771D01*
X212145056Y-180614343D01*
X212216484Y-180471486D01*
X212216484Y-180400057D01*
X212145056Y-180257200D01*
X212002199Y-180185771D01*
X211787913Y-180185771D01*
X211645056Y-180114343D01*
X211573627Y-179971486D01*
X211573627Y-179900057D01*
X211645056Y-179757200D01*
X211787913Y-179685771D01*
X212002199Y-179685771D01*
X212145056Y-179757200D01*
X212645056Y-179685771D02*
X213216485Y-179685771D01*
X212859342Y-179185771D02*
X212859342Y-180471486D01*
X212930770Y-180614343D01*
X213073628Y-180685771D01*
X213216485Y-180685771D01*
X214287913Y-180614343D02*
X214145056Y-180685771D01*
X213859342Y-180685771D01*
X213716485Y-180614343D01*
X213645056Y-180471486D01*
X213645056Y-179900057D01*
X213716485Y-179757200D01*
X213859342Y-179685771D01*
X214145056Y-179685771D01*
X214287913Y-179757200D01*
X214359342Y-179900057D01*
X214359342Y-180042914D01*
X213645056Y-180185771D01*
X215002199Y-180685771D02*
X215002199Y-179685771D01*
X215002199Y-179828629D02*
X215073627Y-179757200D01*
X215216485Y-179685771D01*
X215430770Y-179685771D01*
X215573627Y-179757200D01*
X215645056Y-179900057D01*
X215645056Y-180685771D01*
X215645056Y-179900057D02*
X215716485Y-179757200D01*
X215859342Y-179685771D01*
X216073627Y-179685771D01*
X216216485Y-179757200D01*
X216287913Y-179900057D01*
X216287913Y-180685771D01*
X216930770Y-180614343D02*
X217073627Y-180685771D01*
X217359342Y-180685771D01*
X217502199Y-180614343D01*
X217573627Y-180471486D01*
X217573627Y-180400057D01*
X217502199Y-180257200D01*
X217359342Y-180185771D01*
X217145056Y-180185771D01*
X217002199Y-180114343D01*
X216930770Y-179971486D01*
X216930770Y-179900057D01*
X217002199Y-179757200D01*
X217145056Y-179685771D01*
X217359342Y-179685771D01*
X217502199Y-179757200D01*
X218287913Y-180614343D02*
X218287913Y-180685771D01*
X218216485Y-180828629D01*
X218145056Y-180900057D01*
X220787914Y-180685771D02*
X220073628Y-180685771D01*
X220073628Y-179185771D01*
X221073628Y-179685771D02*
X221645057Y-179685771D01*
X221287914Y-179185771D02*
X221287914Y-180471486D01*
X221359342Y-180614343D01*
X221502200Y-180685771D01*
X221645057Y-180685771D01*
X222787914Y-180685771D02*
X222787914Y-179185771D01*
X222787914Y-180614343D02*
X222645057Y-180685771D01*
X222359343Y-180685771D01*
X222216485Y-180614343D01*
X222145057Y-180542914D01*
X222073628Y-180400057D01*
X222073628Y-179971486D01*
X222145057Y-179828629D01*
X222216485Y-179757200D01*
X222359343Y-179685771D01*
X222645057Y-179685771D01*
X222787914Y-179757200D01*
X223502200Y-180542914D02*
X223573628Y-180614343D01*
X223502200Y-180685771D01*
X223430771Y-180614343D01*
X223502200Y-180542914D01*
X223502200Y-180685771D01*
D10*
X178216486Y-176185771D02*
X178573629Y-177685771D01*
X178859343Y-176614343D01*
X179145057Y-177685771D01*
X179502200Y-176185771D01*
X180359343Y-176185771D02*
X180645057Y-176185771D01*
X180787915Y-176257200D01*
X180930772Y-176400057D01*
X181002200Y-176685771D01*
X181002200Y-177185771D01*
X180930772Y-177471486D01*
X180787915Y-177614343D01*
X180645057Y-177685771D01*
X180359343Y-177685771D01*
X180216486Y-177614343D01*
X180073629Y-177471486D01*
X180002200Y-177185771D01*
X180002200Y-176685771D01*
X180073629Y-176400057D01*
X180216486Y-176257200D01*
X180359343Y-176185771D01*
X182502201Y-177685771D02*
X182002201Y-176971486D01*
X181645058Y-177685771D02*
X181645058Y-176185771D01*
X182216486Y-176185771D01*
X182359344Y-176257200D01*
X182430772Y-176328629D01*
X182502201Y-176471486D01*
X182502201Y-176685771D01*
X182430772Y-176828629D01*
X182359344Y-176900057D01*
X182216486Y-176971486D01*
X181645058Y-176971486D01*
X183145058Y-177685771D02*
X183145058Y-176185771D01*
X184002201Y-177685771D02*
X183359344Y-176828629D01*
X184002201Y-176185771D02*
X183145058Y-177042914D01*
X185787915Y-177685771D02*
X185787915Y-176185771D01*
X186430772Y-177614343D02*
X186645058Y-177685771D01*
X187002201Y-177685771D01*
X187145058Y-177614343D01*
X187216487Y-177542914D01*
X187287915Y-177400057D01*
X187287915Y-177257200D01*
X187216487Y-177114343D01*
X187145058Y-177042914D01*
X187002201Y-176971486D01*
X186716487Y-176900057D01*
X186573629Y-176828629D01*
X186502201Y-176757200D01*
X186430772Y-176614343D01*
X186430772Y-176471486D01*
X186502201Y-176328629D01*
X186573629Y-176257200D01*
X186716487Y-176185771D01*
X187073629Y-176185771D01*
X187287915Y-176257200D01*
X189930772Y-177542914D02*
X189859343Y-177614343D01*
X189645057Y-177685771D01*
X189502200Y-177685771D01*
X189287915Y-177614343D01*
X189145057Y-177471486D01*
X189073629Y-177328629D01*
X189002200Y-177042914D01*
X189002200Y-176828629D01*
X189073629Y-176542914D01*
X189145057Y-176400057D01*
X189287915Y-176257200D01*
X189502200Y-176185771D01*
X189645057Y-176185771D01*
X189859343Y-176257200D01*
X189930772Y-176328629D01*
X190859343Y-176185771D02*
X191145057Y-176185771D01*
X191287915Y-176257200D01*
X191430772Y-176400057D01*
X191502200Y-176685771D01*
X191502200Y-177185771D01*
X191430772Y-177471486D01*
X191287915Y-177614343D01*
X191145057Y-177685771D01*
X190859343Y-177685771D01*
X190716486Y-177614343D01*
X190573629Y-177471486D01*
X190502200Y-177185771D01*
X190502200Y-176685771D01*
X190573629Y-176400057D01*
X190716486Y-176257200D01*
X190859343Y-176185771D01*
X191930772Y-176185771D02*
X192430772Y-177685771D01*
X192930772Y-176185771D01*
X193430772Y-176900057D02*
X193930772Y-176900057D01*
X194145058Y-177685771D02*
X193430772Y-177685771D01*
X193430772Y-176185771D01*
X194145058Y-176185771D01*
X195645058Y-177685771D02*
X195145058Y-176971486D01*
X194787915Y-177685771D02*
X194787915Y-176185771D01*
X195359343Y-176185771D01*
X195502201Y-176257200D01*
X195573629Y-176328629D01*
X195645058Y-176471486D01*
X195645058Y-176685771D01*
X195573629Y-176828629D01*
X195502201Y-176900057D01*
X195359343Y-176971486D01*
X194787915Y-176971486D01*
X196287915Y-176900057D02*
X196787915Y-176900057D01*
X197002201Y-177685771D02*
X196287915Y-177685771D01*
X196287915Y-176185771D01*
X197002201Y-176185771D01*
X197645058Y-177685771D02*
X197645058Y-176185771D01*
X198002201Y-176185771D01*
X198216486Y-176257200D01*
X198359344Y-176400057D01*
X198430772Y-176542914D01*
X198502201Y-176828629D01*
X198502201Y-177042914D01*
X198430772Y-177328629D01*
X198359344Y-177471486D01*
X198216486Y-177614343D01*
X198002201Y-177685771D01*
X197645058Y-177685771D01*
X200287915Y-176185771D02*
X200287915Y-177400057D01*
X200359343Y-177542914D01*
X200430772Y-177614343D01*
X200573629Y-177685771D01*
X200859343Y-177685771D01*
X201002201Y-177614343D01*
X201073629Y-177542914D01*
X201145058Y-177400057D01*
X201145058Y-176185771D01*
X201859344Y-177685771D02*
X201859344Y-176185771D01*
X202716487Y-177685771D01*
X202716487Y-176185771D01*
X203430773Y-177685771D02*
X203430773Y-176185771D01*
X203787916Y-176185771D01*
X204002201Y-176257200D01*
X204145059Y-176400057D01*
X204216487Y-176542914D01*
X204287916Y-176828629D01*
X204287916Y-177042914D01*
X204216487Y-177328629D01*
X204145059Y-177471486D01*
X204002201Y-177614343D01*
X203787916Y-177685771D01*
X203430773Y-177685771D01*
X204930773Y-176900057D02*
X205430773Y-176900057D01*
X205645059Y-177685771D02*
X204930773Y-177685771D01*
X204930773Y-176185771D01*
X205645059Y-176185771D01*
X207145059Y-177685771D02*
X206645059Y-176971486D01*
X206287916Y-177685771D02*
X206287916Y-176185771D01*
X206859344Y-176185771D01*
X207002202Y-176257200D01*
X207073630Y-176328629D01*
X207145059Y-176471486D01*
X207145059Y-176685771D01*
X207073630Y-176828629D01*
X207002202Y-176900057D01*
X206859344Y-176971486D01*
X206287916Y-176971486D01*
X208859344Y-177257200D02*
X209573630Y-177257200D01*
X208716487Y-177685771D02*
X209216487Y-176185771D01*
X209716487Y-177685771D01*
X212216487Y-177542914D02*
X212145058Y-177614343D01*
X211930772Y-177685771D01*
X211787915Y-177685771D01*
X211573630Y-177614343D01*
X211430772Y-177471486D01*
X211359344Y-177328629D01*
X211287915Y-177042914D01*
X211287915Y-176828629D01*
X211359344Y-176542914D01*
X211430772Y-176400057D01*
X211573630Y-176257200D01*
X211787915Y-176185771D01*
X211930772Y-176185771D01*
X212145058Y-176257200D01*
X212216487Y-176328629D01*
X213716487Y-177685771D02*
X213216487Y-176971486D01*
X212859344Y-177685771D02*
X212859344Y-176185771D01*
X213430772Y-176185771D01*
X213573630Y-176257200D01*
X213645058Y-176328629D01*
X213716487Y-176471486D01*
X213716487Y-176685771D01*
X213645058Y-176828629D01*
X213573630Y-176900057D01*
X213430772Y-176971486D01*
X212859344Y-176971486D01*
X214359344Y-176900057D02*
X214859344Y-176900057D01*
X215073630Y-177685771D02*
X214359344Y-177685771D01*
X214359344Y-176185771D01*
X215073630Y-176185771D01*
X215645058Y-177257200D02*
X216359344Y-177257200D01*
X215502201Y-177685771D02*
X216002201Y-176185771D01*
X216502201Y-177685771D01*
X216787915Y-176185771D02*
X217645058Y-176185771D01*
X217216487Y-177685771D02*
X217216487Y-176185771D01*
X218145058Y-177685771D02*
X218145058Y-176185771D01*
X218645058Y-176185771D02*
X219145058Y-177685771D01*
X219645058Y-176185771D01*
X220145058Y-176900057D02*
X220645058Y-176900057D01*
X220859344Y-177685771D02*
X220145058Y-177685771D01*
X220145058Y-176185771D01*
X220859344Y-176185771D01*
X223502201Y-177542914D02*
X223430772Y-177614343D01*
X223216486Y-177685771D01*
X223073629Y-177685771D01*
X222859344Y-177614343D01*
X222716486Y-177471486D01*
X222645058Y-177328629D01*
X222573629Y-177042914D01*
X222573629Y-176828629D01*
X222645058Y-176542914D01*
X222716486Y-176400057D01*
X222859344Y-176257200D01*
X223073629Y-176185771D01*
X223216486Y-176185771D01*
X223430772Y-176257200D01*
X223502201Y-176328629D01*
X224430772Y-176185771D02*
X224716486Y-176185771D01*
X224859344Y-176257200D01*
X225002201Y-176400057D01*
X225073629Y-176685771D01*
X225073629Y-177185771D01*
X225002201Y-177471486D01*
X224859344Y-177614343D01*
X224716486Y-177685771D01*
X224430772Y-177685771D01*
X224287915Y-177614343D01*
X224145058Y-177471486D01*
X224073629Y-177185771D01*
X224073629Y-176685771D01*
X224145058Y-176400057D01*
X224287915Y-176257200D01*
X224430772Y-176185771D01*
X225716487Y-177685771D02*
X225716487Y-176185771D01*
X226216487Y-177257200D01*
X226716487Y-176185771D01*
X226716487Y-177685771D01*
X227430773Y-177685771D02*
X227430773Y-176185771D01*
X227930773Y-177257200D01*
X228430773Y-176185771D01*
X228430773Y-177685771D01*
X229430773Y-176185771D02*
X229716487Y-176185771D01*
X229859345Y-176257200D01*
X230002202Y-176400057D01*
X230073630Y-176685771D01*
X230073630Y-177185771D01*
X230002202Y-177471486D01*
X229859345Y-177614343D01*
X229716487Y-177685771D01*
X229430773Y-177685771D01*
X229287916Y-177614343D01*
X229145059Y-177471486D01*
X229073630Y-177185771D01*
X229073630Y-176685771D01*
X229145059Y-176400057D01*
X229287916Y-176257200D01*
X229430773Y-176185771D01*
X230716488Y-177685771D02*
X230716488Y-176185771D01*
X231573631Y-177685771D01*
X231573631Y-176185771D01*
X232216488Y-177614343D02*
X232430774Y-177685771D01*
X232787917Y-177685771D01*
X232930774Y-177614343D01*
X233002203Y-177542914D01*
X233073631Y-177400057D01*
X233073631Y-177257200D01*
X233002203Y-177114343D01*
X232930774Y-177042914D01*
X232787917Y-176971486D01*
X232502203Y-176900057D01*
X232359345Y-176828629D01*
X232287917Y-176757200D01*
X232216488Y-176614343D01*
X232216488Y-176471486D01*
X232287917Y-176328629D01*
X232359345Y-176257200D01*
X232502203Y-176185771D01*
X232859345Y-176185771D01*
X233073631Y-176257200D01*
X235573631Y-177685771D02*
X234859345Y-177685771D01*
X234859345Y-176185771D01*
X236073631Y-177685771D02*
X236073631Y-176185771D01*
X237645060Y-177542914D02*
X237573631Y-177614343D01*
X237359345Y-177685771D01*
X237216488Y-177685771D01*
X237002203Y-177614343D01*
X236859345Y-177471486D01*
X236787917Y-177328629D01*
X236716488Y-177042914D01*
X236716488Y-176828629D01*
X236787917Y-176542914D01*
X236859345Y-176400057D01*
X237002203Y-176257200D01*
X237216488Y-176185771D01*
X237359345Y-176185771D01*
X237573631Y-176257200D01*
X237645060Y-176328629D01*
X238287917Y-176900057D02*
X238787917Y-176900057D01*
X239002203Y-177685771D02*
X238287917Y-177685771D01*
X238287917Y-176185771D01*
X239002203Y-176185771D01*
X239645060Y-177685771D02*
X239645060Y-176185771D01*
X240502203Y-177685771D01*
X240502203Y-176185771D01*
X241145060Y-177614343D02*
X241359346Y-177685771D01*
X241716489Y-177685771D01*
X241859346Y-177614343D01*
X241930775Y-177542914D01*
X242002203Y-177400057D01*
X242002203Y-177257200D01*
X241930775Y-177114343D01*
X241859346Y-177042914D01*
X241716489Y-176971486D01*
X241430775Y-176900057D01*
X241287917Y-176828629D01*
X241216489Y-176757200D01*
X241145060Y-176614343D01*
X241145060Y-176471486D01*
X241216489Y-176328629D01*
X241287917Y-176257200D01*
X241430775Y-176185771D01*
X241787917Y-176185771D01*
X242002203Y-176257200D01*
X242645060Y-176900057D02*
X243145060Y-176900057D01*
X243359346Y-177685771D02*
X242645060Y-177685771D01*
X242645060Y-176185771D01*
X243359346Y-176185771D01*
X245573631Y-178257200D02*
X245502203Y-178185771D01*
X245359346Y-177971486D01*
X245287917Y-177828629D01*
X245216488Y-177614343D01*
X245145060Y-177257200D01*
X245145060Y-176971486D01*
X245216488Y-176614343D01*
X245287917Y-176400057D01*
X245359346Y-176257200D01*
X245502203Y-176042914D01*
X245573631Y-175971486D01*
X247002203Y-177542914D02*
X246930774Y-177614343D01*
X246716488Y-177685771D01*
X246573631Y-177685771D01*
X246359346Y-177614343D01*
X246216488Y-177471486D01*
X246145060Y-177328629D01*
X246073631Y-177042914D01*
X246073631Y-176828629D01*
X246145060Y-176542914D01*
X246216488Y-176400057D01*
X246359346Y-176257200D01*
X246573631Y-176185771D01*
X246716488Y-176185771D01*
X246930774Y-176257200D01*
X247002203Y-176328629D01*
X248502203Y-177542914D02*
X248430774Y-177614343D01*
X248216488Y-177685771D01*
X248073631Y-177685771D01*
X247859346Y-177614343D01*
X247716488Y-177471486D01*
X247645060Y-177328629D01*
X247573631Y-177042914D01*
X247573631Y-176828629D01*
X247645060Y-176542914D01*
X247716488Y-176400057D01*
X247859346Y-176257200D01*
X248073631Y-176185771D01*
X248216488Y-176185771D01*
X248430774Y-176257200D01*
X248502203Y-176328629D01*
X250787917Y-176900057D02*
X251002203Y-176971486D01*
X251073631Y-177042914D01*
X251145060Y-177185771D01*
X251145060Y-177400057D01*
X251073631Y-177542914D01*
X251002203Y-177614343D01*
X250859345Y-177685771D01*
X250287917Y-177685771D01*
X250287917Y-176185771D01*
X250787917Y-176185771D01*
X250930774Y-176257200D01*
X251002203Y-176328629D01*
X251073631Y-176471486D01*
X251073631Y-176614343D01*
X251002203Y-176757200D01*
X250930774Y-176828629D01*
X250787917Y-176900057D01*
X250287917Y-176900057D01*
X252073631Y-176971486D02*
X252073631Y-177685771D01*
X251573631Y-176185771D02*
X252073631Y-176971486D01*
X252573631Y-176185771D01*
X254073631Y-176185771D02*
X255002202Y-176185771D01*
X254502202Y-176757200D01*
X254716488Y-176757200D01*
X254859345Y-176828629D01*
X254930774Y-176900057D01*
X255002202Y-177042914D01*
X255002202Y-177400057D01*
X254930774Y-177542914D01*
X254859345Y-177614343D01*
X254716488Y-177685771D01*
X254287916Y-177685771D01*
X254145059Y-177614343D01*
X254073631Y-177542914D01*
X255645059Y-177542914D02*
X255716487Y-177614343D01*
X255645059Y-177685771D01*
X255573630Y-177614343D01*
X255645059Y-177542914D01*
X255645059Y-177685771D01*
X256645059Y-176185771D02*
X256787916Y-176185771D01*
X256930773Y-176257200D01*
X257002202Y-176328629D01*
X257073631Y-176471486D01*
X257145059Y-176757200D01*
X257145059Y-177114343D01*
X257073631Y-177400057D01*
X257002202Y-177542914D01*
X256930773Y-177614343D01*
X256787916Y-177685771D01*
X256645059Y-177685771D01*
X256502202Y-177614343D01*
X256430773Y-177542914D01*
X256359345Y-177400057D01*
X256287916Y-177114343D01*
X256287916Y-176757200D01*
X256359345Y-176471486D01*
X256430773Y-176328629D01*
X256502202Y-176257200D01*
X256645059Y-176185771D01*
X257645059Y-178257200D02*
X257716487Y-178185771D01*
X257859344Y-177971486D01*
X257930773Y-177828629D01*
X258002202Y-177614343D01*
X258073630Y-177257200D01*
X258073630Y-176971486D01*
X258002202Y-176614343D01*
X257930773Y-176400057D01*
X257859344Y-176257200D01*
X257716487Y-176042914D01*
X257645059Y-175971486D01*
X197002200Y-191507200D02*
X197002200Y-194507200D01*
X261002200Y-191507200D02*
X261002200Y-198007200D01*
D13*
X151819049Y-109973810D02*
X151866668Y-109878572D01*
X151914287Y-109830953D01*
X152009525Y-109783334D01*
X152057144Y-109783334D01*
X152152382Y-109830953D01*
X152200001Y-109878572D01*
X152247620Y-109973810D01*
X152247620Y-110164287D01*
X152200001Y-110259525D01*
X152152382Y-110307144D01*
X152057144Y-110354763D01*
X152009525Y-110354763D01*
X151914287Y-110307144D01*
X151866668Y-110259525D01*
X151819049Y-110164287D01*
X151819049Y-109973810D01*
X151771430Y-109878572D01*
X151723811Y-109830953D01*
X151628572Y-109783334D01*
X151438096Y-109783334D01*
X151342858Y-109830953D01*
X151295239Y-109878572D01*
X151247620Y-109973810D01*
X151247620Y-110164287D01*
X151295239Y-110259525D01*
X151342858Y-110307144D01*
X151438096Y-110354763D01*
X151628572Y-110354763D01*
X151723811Y-110307144D01*
X151771430Y-110259525D01*
X151819049Y-110164287D01*
X152247620Y-110973810D02*
X152247620Y-111069049D01*
X152200001Y-111164287D01*
X152152382Y-111211906D01*
X152057144Y-111259525D01*
X151866668Y-111307144D01*
X151628572Y-111307144D01*
X151438096Y-111259525D01*
X151342858Y-111211906D01*
X151295239Y-111164287D01*
X151247620Y-111069049D01*
X151247620Y-110973810D01*
X151295239Y-110878572D01*
X151342858Y-110830953D01*
X151438096Y-110783334D01*
X151628572Y-110735715D01*
X151866668Y-110735715D01*
X152057144Y-110783334D01*
X152152382Y-110830953D01*
X152200001Y-110878572D01*
X152247620Y-110973810D01*
X151342858Y-111735715D02*
X151295239Y-111783334D01*
X151247620Y-111735715D01*
X151295239Y-111688096D01*
X151342858Y-111735715D01*
X151247620Y-111735715D01*
X151247620Y-112735715D02*
X151247620Y-112164286D01*
X151247620Y-112450000D02*
X152247620Y-112450000D01*
X152104763Y-112354762D01*
X152009525Y-112259524D01*
X151961906Y-112164286D01*
X152247620Y-113354762D02*
X152247620Y-113450001D01*
X152200001Y-113545239D01*
X152152382Y-113592858D01*
X152057144Y-113640477D01*
X151866668Y-113688096D01*
X151628572Y-113688096D01*
X151438096Y-113640477D01*
X151342858Y-113592858D01*
X151295239Y-113545239D01*
X151247620Y-113450001D01*
X151247620Y-113354762D01*
X151295239Y-113259524D01*
X151342858Y-113211905D01*
X151438096Y-113164286D01*
X151628572Y-113116667D01*
X151866668Y-113116667D01*
X152057144Y-113164286D01*
X152152382Y-113211905D01*
X152200001Y-113259524D01*
X152247620Y-113354762D01*
X151247620Y-114878572D02*
X151914287Y-114878572D01*
X151819049Y-114878572D02*
X151866668Y-114926191D01*
X151914287Y-115021429D01*
X151914287Y-115164287D01*
X151866668Y-115259525D01*
X151771430Y-115307144D01*
X151247620Y-115307144D01*
X151771430Y-115307144D02*
X151866668Y-115354763D01*
X151914287Y-115450001D01*
X151914287Y-115592858D01*
X151866668Y-115688096D01*
X151771430Y-115735715D01*
X151247620Y-115735715D01*
X151247620Y-116211905D02*
X151914287Y-116211905D01*
X151819049Y-116211905D02*
X151866668Y-116259524D01*
X151914287Y-116354762D01*
X151914287Y-116497620D01*
X151866668Y-116592858D01*
X151771430Y-116640477D01*
X151247620Y-116640477D01*
X151771430Y-116640477D02*
X151866668Y-116688096D01*
X151914287Y-116783334D01*
X151914287Y-116926191D01*
X151866668Y-117021429D01*
X151771430Y-117069048D01*
X151247620Y-117069048D01*
X152600001Y-73400000D02*
X152600001Y-153500000D01*
X158500000Y-73400000D02*
X150800001Y-73400000D01*
X158500000Y-153500000D02*
X150800001Y-153500000D01*
X152600001Y-153500000D02*
X152013580Y-152373496D01*
X152600001Y-153500000D02*
X153186422Y-152373496D01*
X152600001Y-73400000D02*
X152013580Y-74526504D01*
X152600001Y-73400000D02*
X153186422Y-74526504D01*
X181307144Y-64452381D02*
X180830953Y-64452381D01*
X180783334Y-64928571D01*
X180830953Y-64880952D01*
X180926191Y-64833333D01*
X181164287Y-64833333D01*
X181259525Y-64880952D01*
X181307144Y-64928571D01*
X181354763Y-65023810D01*
X181354763Y-65261905D01*
X181307144Y-65357143D01*
X181259525Y-65404762D01*
X181164287Y-65452381D01*
X180926191Y-65452381D01*
X180830953Y-65404762D01*
X180783334Y-65357143D01*
X182307144Y-65452381D02*
X181735715Y-65452381D01*
X182021429Y-65452381D02*
X182021429Y-64452381D01*
X181926191Y-64595238D01*
X181830953Y-64690476D01*
X181735715Y-64738095D01*
X182735715Y-65357143D02*
X182783334Y-65404762D01*
X182735715Y-65452381D01*
X182688096Y-65404762D01*
X182735715Y-65357143D01*
X182735715Y-65452381D01*
X183259524Y-65452381D02*
X183450000Y-65452381D01*
X183545239Y-65404762D01*
X183592858Y-65357143D01*
X183688096Y-65214286D01*
X183735715Y-65023810D01*
X183735715Y-64642857D01*
X183688096Y-64547619D01*
X183640477Y-64500000D01*
X183545239Y-64452381D01*
X183354762Y-64452381D01*
X183259524Y-64500000D01*
X183211905Y-64547619D01*
X183164286Y-64642857D01*
X183164286Y-64880952D01*
X183211905Y-64976190D01*
X183259524Y-65023810D01*
X183354762Y-65071429D01*
X183545239Y-65071429D01*
X183640477Y-65023810D01*
X183688096Y-64976190D01*
X183735715Y-64880952D01*
X184354762Y-64452381D02*
X184450001Y-64452381D01*
X184545239Y-64500000D01*
X184592858Y-64547619D01*
X184640477Y-64642857D01*
X184688096Y-64833333D01*
X184688096Y-65071429D01*
X184640477Y-65261905D01*
X184592858Y-65357143D01*
X184545239Y-65404762D01*
X184450001Y-65452381D01*
X184354762Y-65452381D01*
X184259524Y-65404762D01*
X184211905Y-65357143D01*
X184164286Y-65261905D01*
X184116667Y-65071429D01*
X184116667Y-64833333D01*
X184164286Y-64642857D01*
X184211905Y-64547619D01*
X184259524Y-64500000D01*
X184354762Y-64452381D01*
X185878572Y-65452381D02*
X185878572Y-64785714D01*
X185878572Y-64880952D02*
X185926191Y-64833333D01*
X186021429Y-64785714D01*
X186164287Y-64785714D01*
X186259525Y-64833333D01*
X186307144Y-64928571D01*
X186307144Y-65452381D01*
X186307144Y-64928571D02*
X186354763Y-64833333D01*
X186450001Y-64785714D01*
X186592858Y-64785714D01*
X186688096Y-64833333D01*
X186735715Y-64928571D01*
X186735715Y-65452381D01*
X187211905Y-65452381D02*
X187211905Y-64785714D01*
X187211905Y-64880952D02*
X187259524Y-64833333D01*
X187354762Y-64785714D01*
X187497620Y-64785714D01*
X187592858Y-64833333D01*
X187640477Y-64928571D01*
X187640477Y-65452381D01*
X187640477Y-64928571D02*
X187688096Y-64833333D01*
X187783334Y-64785714D01*
X187926191Y-64785714D01*
X188021429Y-64833333D01*
X188069048Y-64928571D01*
X188069048Y-65452381D01*
X158500000Y-65900000D02*
X210400000Y-65900000D01*
X158500000Y-73400000D02*
X158500000Y-64100000D01*
X210400000Y-73400000D02*
X210400000Y-64100000D01*
X210400000Y-65900000D02*
X209273496Y-66486421D01*
X210400000Y-65900000D02*
X209273496Y-65313579D01*
X158500000Y-65900000D02*
X159626504Y-66486421D01*
X158500000Y-65900000D02*
X159626504Y-65313579D01*
X165000000Y-80000000D02*
X165000000Y-102900000D01*
X165000000Y-120000000D02*
X165000000Y-106500000D01*
X205000000Y-80000000D02*
X205000000Y-103200000D01*
X205000000Y-120000000D02*
X205000000Y-106900000D01*
X185000000Y-150200000D02*
X185000000Y-140300000D01*
X185000000Y-125200000D02*
X185000000Y-136700000D01*
X165000000Y-150200000D02*
X165000000Y-140800000D01*
X165000000Y-125200000D02*
X165000000Y-137100000D01*
X165000000Y-125200000D02*
X174000000Y-125200000D01*
X185000000Y-125200000D02*
X177700000Y-125200000D01*
X177700000Y-120000000D02*
X205000000Y-120000000D01*
X171333334Y-155347618D02*
X171380953Y-155299999D01*
X171476191Y-155252380D01*
X171714287Y-155252380D01*
X171809525Y-155299999D01*
X171857144Y-155347618D01*
X171904763Y-155442856D01*
X171904763Y-155538094D01*
X171857144Y-155680951D01*
X171285715Y-156252380D01*
X171904763Y-156252380D01*
X172523810Y-155252380D02*
X172619049Y-155252380D01*
X172714287Y-155299999D01*
X172761906Y-155347618D01*
X172809525Y-155442856D01*
X172857144Y-155633332D01*
X172857144Y-155871428D01*
X172809525Y-156061904D01*
X172761906Y-156157142D01*
X172714287Y-156204761D01*
X172619049Y-156252380D01*
X172523810Y-156252380D01*
X172428572Y-156204761D01*
X172380953Y-156157142D01*
X172333334Y-156061904D01*
X172285715Y-155871428D01*
X172285715Y-155633332D01*
X172333334Y-155442856D01*
X172380953Y-155347618D01*
X172428572Y-155299999D01*
X172523810Y-155252380D01*
X173285715Y-156157142D02*
X173333334Y-156204761D01*
X173285715Y-156252380D01*
X173238096Y-156204761D01*
X173285715Y-156157142D01*
X173285715Y-156252380D01*
X173952381Y-155252380D02*
X174047620Y-155252380D01*
X174142858Y-155299999D01*
X174190477Y-155347618D01*
X174238096Y-155442856D01*
X174285715Y-155633332D01*
X174285715Y-155871428D01*
X174238096Y-156061904D01*
X174190477Y-156157142D01*
X174142858Y-156204761D01*
X174047620Y-156252380D01*
X173952381Y-156252380D01*
X173857143Y-156204761D01*
X173809524Y-156157142D01*
X173761905Y-156061904D01*
X173714286Y-155871428D01*
X173714286Y-155633332D01*
X173761905Y-155442856D01*
X173809524Y-155347618D01*
X173857143Y-155299999D01*
X173952381Y-155252380D01*
X174904762Y-155252380D02*
X175000001Y-155252380D01*
X175095239Y-155299999D01*
X175142858Y-155347618D01*
X175190477Y-155442856D01*
X175238096Y-155633332D01*
X175238096Y-155871428D01*
X175190477Y-156061904D01*
X175142858Y-156157142D01*
X175095239Y-156204761D01*
X175000001Y-156252380D01*
X174904762Y-156252380D01*
X174809524Y-156204761D01*
X174761905Y-156157142D01*
X174714286Y-156061904D01*
X174666667Y-155871428D01*
X174666667Y-155633332D01*
X174714286Y-155442856D01*
X174761905Y-155347618D01*
X174809524Y-155299999D01*
X174904762Y-155252380D01*
X176428572Y-156252380D02*
X176428572Y-155585713D01*
X176428572Y-155680951D02*
X176476191Y-155633332D01*
X176571429Y-155585713D01*
X176714287Y-155585713D01*
X176809525Y-155633332D01*
X176857144Y-155728570D01*
X176857144Y-156252380D01*
X176857144Y-155728570D02*
X176904763Y-155633332D01*
X177000001Y-155585713D01*
X177142858Y-155585713D01*
X177238096Y-155633332D01*
X177285715Y-155728570D01*
X177285715Y-156252380D01*
X177761905Y-156252380D02*
X177761905Y-155585713D01*
X177761905Y-155680951D02*
X177809524Y-155633332D01*
X177904762Y-155585713D01*
X178047620Y-155585713D01*
X178142858Y-155633332D01*
X178190477Y-155728570D01*
X178190477Y-156252380D01*
X178190477Y-155728570D02*
X178238096Y-155633332D01*
X178333334Y-155585713D01*
X178476191Y-155585713D01*
X178571429Y-155633332D01*
X178619048Y-155728570D01*
X178619048Y-156252380D01*
X165000000Y-154899999D02*
X185000000Y-154899999D01*
X165000000Y-150200000D02*
X165000000Y-156699999D01*
X185000000Y-150200000D02*
X185000000Y-156699999D01*
X185000000Y-154899999D02*
X183873496Y-155486420D01*
X185000000Y-154899999D02*
X183873496Y-154313578D01*
X165000000Y-154899999D02*
X166126504Y-155486420D01*
X165000000Y-154899999D02*
X166126504Y-154313578D01*
X193352381Y-134033334D02*
X193400000Y-134080953D01*
X193447619Y-134176191D01*
X193447619Y-134414287D01*
X193400000Y-134509525D01*
X193352381Y-134557144D01*
X193257143Y-134604763D01*
X193161905Y-134604763D01*
X193019048Y-134557144D01*
X192447619Y-133985715D01*
X192447619Y-134604763D01*
X193447619Y-135509525D02*
X193447619Y-135033334D01*
X192971429Y-134985715D01*
X193019048Y-135033334D01*
X193066667Y-135128572D01*
X193066667Y-135366668D01*
X193019048Y-135461906D01*
X192971429Y-135509525D01*
X192876190Y-135557144D01*
X192638095Y-135557144D01*
X192542857Y-135509525D01*
X192495238Y-135461906D01*
X192447619Y-135366668D01*
X192447619Y-135128572D01*
X192495238Y-135033334D01*
X192542857Y-134985715D01*
X192542857Y-135985715D02*
X192495238Y-136033334D01*
X192447619Y-135985715D01*
X192495238Y-135938096D01*
X192542857Y-135985715D01*
X192447619Y-135985715D01*
X193447619Y-136652381D02*
X193447619Y-136747620D01*
X193400000Y-136842858D01*
X193352381Y-136890477D01*
X193257143Y-136938096D01*
X193066667Y-136985715D01*
X192828571Y-136985715D01*
X192638095Y-136938096D01*
X192542857Y-136890477D01*
X192495238Y-136842858D01*
X192447619Y-136747620D01*
X192447619Y-136652381D01*
X192495238Y-136557143D01*
X192542857Y-136509524D01*
X192638095Y-136461905D01*
X192828571Y-136414286D01*
X193066667Y-136414286D01*
X193257143Y-136461905D01*
X193352381Y-136509524D01*
X193400000Y-136557143D01*
X193447619Y-136652381D01*
X193447619Y-137604762D02*
X193447619Y-137700001D01*
X193400000Y-137795239D01*
X193352381Y-137842858D01*
X193257143Y-137890477D01*
X193066667Y-137938096D01*
X192828571Y-137938096D01*
X192638095Y-137890477D01*
X192542857Y-137842858D01*
X192495238Y-137795239D01*
X192447619Y-137700001D01*
X192447619Y-137604762D01*
X192495238Y-137509524D01*
X192542857Y-137461905D01*
X192638095Y-137414286D01*
X192828571Y-137366667D01*
X193066667Y-137366667D01*
X193257143Y-137414286D01*
X193352381Y-137461905D01*
X193400000Y-137509524D01*
X193447619Y-137604762D01*
X192447619Y-139128572D02*
X193114286Y-139128572D01*
X193019048Y-139128572D02*
X193066667Y-139176191D01*
X193114286Y-139271429D01*
X193114286Y-139414287D01*
X193066667Y-139509525D01*
X192971429Y-139557144D01*
X192447619Y-139557144D01*
X192971429Y-139557144D02*
X193066667Y-139604763D01*
X193114286Y-139700001D01*
X193114286Y-139842858D01*
X193066667Y-139938096D01*
X192971429Y-139985715D01*
X192447619Y-139985715D01*
X192447619Y-140461905D02*
X193114286Y-140461905D01*
X193019048Y-140461905D02*
X193066667Y-140509524D01*
X193114286Y-140604762D01*
X193114286Y-140747620D01*
X193066667Y-140842858D01*
X192971429Y-140890477D01*
X192447619Y-140890477D01*
X192971429Y-140890477D02*
X193066667Y-140938096D01*
X193114286Y-141033334D01*
X193114286Y-141176191D01*
X193066667Y-141271429D01*
X192971429Y-141319048D01*
X192447619Y-141319048D01*
X192000000Y-125200000D02*
X192000000Y-150200000D01*
X185000000Y-125200000D02*
X193800000Y-125200000D01*
X185000000Y-150200000D02*
X193800000Y-150200000D01*
X192000000Y-150200000D02*
X191413579Y-149073496D01*
X192000000Y-150200000D02*
X192586421Y-149073496D01*
X192000000Y-125200000D02*
X191413579Y-126326504D01*
X192000000Y-125200000D02*
X192586421Y-126326504D01*
X181809525Y-70385715D02*
X181809525Y-71052382D01*
X181571429Y-70004763D02*
X181333334Y-70719049D01*
X181952382Y-70719049D01*
X182523810Y-70052382D02*
X182619049Y-70052382D01*
X182714287Y-70100001D01*
X182761906Y-70147620D01*
X182809525Y-70242858D01*
X182857144Y-70433334D01*
X182857144Y-70671430D01*
X182809525Y-70861906D01*
X182761906Y-70957144D01*
X182714287Y-71004763D01*
X182619049Y-71052382D01*
X182523810Y-71052382D01*
X182428572Y-71004763D01*
X182380953Y-70957144D01*
X182333334Y-70861906D01*
X182285715Y-70671430D01*
X182285715Y-70433334D01*
X182333334Y-70242858D01*
X182380953Y-70147620D01*
X182428572Y-70100001D01*
X182523810Y-70052382D01*
X183285715Y-70957144D02*
X183333334Y-71004763D01*
X183285715Y-71052382D01*
X183238096Y-71004763D01*
X183285715Y-70957144D01*
X183285715Y-71052382D01*
X183952381Y-70052382D02*
X184047620Y-70052382D01*
X184142858Y-70100001D01*
X184190477Y-70147620D01*
X184238096Y-70242858D01*
X184285715Y-70433334D01*
X184285715Y-70671430D01*
X184238096Y-70861906D01*
X184190477Y-70957144D01*
X184142858Y-71004763D01*
X184047620Y-71052382D01*
X183952381Y-71052382D01*
X183857143Y-71004763D01*
X183809524Y-70957144D01*
X183761905Y-70861906D01*
X183714286Y-70671430D01*
X183714286Y-70433334D01*
X183761905Y-70242858D01*
X183809524Y-70147620D01*
X183857143Y-70100001D01*
X183952381Y-70052382D01*
X184904762Y-70052382D02*
X185000001Y-70052382D01*
X185095239Y-70100001D01*
X185142858Y-70147620D01*
X185190477Y-70242858D01*
X185238096Y-70433334D01*
X185238096Y-70671430D01*
X185190477Y-70861906D01*
X185142858Y-70957144D01*
X185095239Y-71004763D01*
X185000001Y-71052382D01*
X184904762Y-71052382D01*
X184809524Y-71004763D01*
X184761905Y-70957144D01*
X184714286Y-70861906D01*
X184666667Y-70671430D01*
X184666667Y-70433334D01*
X184714286Y-70242858D01*
X184761905Y-70147620D01*
X184809524Y-70100001D01*
X184904762Y-70052382D01*
X186428572Y-71052382D02*
X186428572Y-70385715D01*
X186428572Y-70480953D02*
X186476191Y-70433334D01*
X186571429Y-70385715D01*
X186714287Y-70385715D01*
X186809525Y-70433334D01*
X186857144Y-70528572D01*
X186857144Y-71052382D01*
X186857144Y-70528572D02*
X186904763Y-70433334D01*
X187000001Y-70385715D01*
X187142858Y-70385715D01*
X187238096Y-70433334D01*
X187285715Y-70528572D01*
X187285715Y-71052382D01*
X187761905Y-71052382D02*
X187761905Y-70385715D01*
X187761905Y-70480953D02*
X187809524Y-70433334D01*
X187904762Y-70385715D01*
X188047620Y-70385715D01*
X188142858Y-70433334D01*
X188190477Y-70528572D01*
X188190477Y-71052382D01*
X188190477Y-70528572D02*
X188238096Y-70433334D01*
X188333334Y-70385715D01*
X188476191Y-70385715D01*
X188571429Y-70433334D01*
X188619048Y-70528572D01*
X188619048Y-71052382D01*
X165000000Y-71500001D02*
X205000000Y-71500001D01*
X165000000Y-80000000D02*
X165000000Y-69700001D01*
X205000000Y-80000000D02*
X205000000Y-69700001D01*
X205000000Y-71500001D02*
X203873496Y-72086422D01*
X205000000Y-71500001D02*
X203873496Y-70913580D01*
X165000000Y-71500001D02*
X166126504Y-72086422D01*
X165000000Y-71500001D02*
X166126504Y-70913580D01*
X213314286Y-96809525D02*
X212647619Y-96809525D01*
X213695238Y-96571429D02*
X212980952Y-96333334D01*
X212980952Y-96952382D01*
X213647619Y-97523810D02*
X213647619Y-97619049D01*
X213600000Y-97714287D01*
X213552381Y-97761906D01*
X213457143Y-97809525D01*
X213266667Y-97857144D01*
X213028571Y-97857144D01*
X212838095Y-97809525D01*
X212742857Y-97761906D01*
X212695238Y-97714287D01*
X212647619Y-97619049D01*
X212647619Y-97523810D01*
X212695238Y-97428572D01*
X212742857Y-97380953D01*
X212838095Y-97333334D01*
X213028571Y-97285715D01*
X213266667Y-97285715D01*
X213457143Y-97333334D01*
X213552381Y-97380953D01*
X213600000Y-97428572D01*
X213647619Y-97523810D01*
X212742857Y-98285715D02*
X212695238Y-98333334D01*
X212647619Y-98285715D01*
X212695238Y-98238096D01*
X212742857Y-98285715D01*
X212647619Y-98285715D01*
X213647619Y-98952381D02*
X213647619Y-99047620D01*
X213600000Y-99142858D01*
X213552381Y-99190477D01*
X213457143Y-99238096D01*
X213266667Y-99285715D01*
X213028571Y-99285715D01*
X212838095Y-99238096D01*
X212742857Y-99190477D01*
X212695238Y-99142858D01*
X212647619Y-99047620D01*
X212647619Y-98952381D01*
X212695238Y-98857143D01*
X212742857Y-98809524D01*
X212838095Y-98761905D01*
X213028571Y-98714286D01*
X213266667Y-98714286D01*
X213457143Y-98761905D01*
X213552381Y-98809524D01*
X213600000Y-98857143D01*
X213647619Y-98952381D01*
X213647619Y-99904762D02*
X213647619Y-100000001D01*
X213600000Y-100095239D01*
X213552381Y-100142858D01*
X213457143Y-100190477D01*
X213266667Y-100238096D01*
X213028571Y-100238096D01*
X212838095Y-100190477D01*
X212742857Y-100142858D01*
X212695238Y-100095239D01*
X212647619Y-100000001D01*
X212647619Y-99904762D01*
X212695238Y-99809524D01*
X212742857Y-99761905D01*
X212838095Y-99714286D01*
X213028571Y-99666667D01*
X213266667Y-99666667D01*
X213457143Y-99714286D01*
X213552381Y-99761905D01*
X213600000Y-99809524D01*
X213647619Y-99904762D01*
X212647619Y-101428572D02*
X213314286Y-101428572D01*
X213219048Y-101428572D02*
X213266667Y-101476191D01*
X213314286Y-101571429D01*
X213314286Y-101714287D01*
X213266667Y-101809525D01*
X213171429Y-101857144D01*
X212647619Y-101857144D01*
X213171429Y-101857144D02*
X213266667Y-101904763D01*
X213314286Y-102000001D01*
X213314286Y-102142858D01*
X213266667Y-102238096D01*
X213171429Y-102285715D01*
X212647619Y-102285715D01*
X212647619Y-102761905D02*
X213314286Y-102761905D01*
X213219048Y-102761905D02*
X213266667Y-102809524D01*
X213314286Y-102904762D01*
X213314286Y-103047620D01*
X213266667Y-103142858D01*
X213171429Y-103190477D01*
X212647619Y-103190477D01*
X213171429Y-103190477D02*
X213266667Y-103238096D01*
X213314286Y-103333334D01*
X213314286Y-103476191D01*
X213266667Y-103571429D01*
X213171429Y-103619048D01*
X212647619Y-103619048D01*
X212200000Y-80000000D02*
X212200000Y-120000000D01*
X205000000Y-80000000D02*
X214000000Y-80000000D01*
X205000000Y-120000000D02*
X214000000Y-120000000D01*
X212200000Y-120000000D02*
X211613579Y-118873496D01*
X212200000Y-120000000D02*
X212786421Y-118873496D01*
X212200000Y-80000000D02*
X211613579Y-81126504D01*
X212200000Y-80000000D02*
X212786421Y-81126504D01*
X158500000Y-153500000D02*
X190600000Y-153500000D01*
X158500000Y-73400000D02*
X158500000Y-153500000D01*
X210400000Y-73400000D02*
X158500000Y-73400000D01*
X210400000Y-124800000D02*
X210400000Y-73400000D01*
X190600000Y-124800000D02*
X210400000Y-124800000D01*
X190600000Y-153500000D02*
X190600000Y-124800000D01*
X188000000Y-151700000D02*
X188000000Y-140300000D01*
X162000000Y-151700000D02*
X188000000Y-151700000D01*
X162000000Y-140752132D02*
X162000000Y-151700000D01*
X162000000Y-106452132D02*
X162000000Y-137152132D01*
X162000000Y-77800000D02*
X162000000Y-102852132D01*
X208000000Y-77800000D02*
X162000000Y-77800000D01*
X208000000Y-103200000D02*
X208000000Y-77800000D01*
X208000000Y-122800000D02*
X208000000Y-106810000D01*
X188000000Y-122800000D02*
X208000000Y-122800000D01*
X188000000Y-136700000D02*
X188000000Y-122800000D01*
X162000000Y-137152132D02*
X164955026Y-137152132D01*
X164955026Y-140752132D02*
X162000000Y-140752132D01*
X162000000Y-102852132D02*
X164955026Y-102852132D01*
X164955026Y-106452132D02*
X162000000Y-106452132D01*
X208000000Y-106810000D02*
X205000000Y-106810000D01*
X205000000Y-103210000D02*
X208000000Y-103210000D01*
X188000000Y-140310000D02*
X185000000Y-140310000D01*
X185000000Y-136710000D02*
X188000000Y-136710000D01*
X177700000Y-125200000D02*
X177800000Y-125200000D01*
X177700000Y-120000000D02*
X177700000Y-125200000D01*
X174000000Y-125200000D02*
X173900000Y-125200000D01*
X174000000Y-120000000D02*
X174000000Y-125200000D01*
X165000000Y-150200000D02*
X185000000Y-150200000D01*
X174000000Y-120000000D02*
X165000000Y-120000000D01*
X165000000Y-80000000D02*
X205000000Y-80000000D01*
M02*
