M48
;DRILL file {KiCad 4.0.2-stable} date 23/05/2016 22:28:54
;FORMAT={-:-/ absolute / metric / decimal}
FMAT,2
METRIC,TZ
T1C0.200
T2C0.250
T3C0.300
T4C0.500
T5C0.899
T6C1.500
%
G90
G05
M71
T1
X166.02Y-102.74
X167.Y-93.3
X167.1Y-81.93
X167.53Y-91.86
X167.77Y-83.44
X168.1Y-93.5
X168.7Y-81.94
X169.14Y-91.85
X169.27Y-83.45
X169.42Y-92.99
X170.1Y-93.38
X170.2Y-81.91
X170.63Y-100.87
X170.65Y-91.85
X170.78Y-83.46
X171.32Y-91.04
X171.59Y-93.4
X171.7Y-81.96
X172.19Y-91.85
X172.27Y-83.45
X172.81Y-115.59
X173.1Y-93.4
X173.2Y-81.96
X173.39Y-112.5
X173.63Y-91.85
X173.79Y-83.45
X174.05Y-96.21
X174.32Y-110.92
X174.34Y-107.63
X174.45Y-98.08
X174.48Y-97.58
X174.55Y-108.5
X174.63Y-109.
X174.67Y-100.6
X174.72Y-86.16
X174.82Y-81.93
X174.83Y-84.85
X175.02Y-107.61
X175.06Y-99.67
X175.07Y-97.11
X175.08Y-112.22
X175.09Y-110.43
X175.16Y-85.25
X175.33Y-83.44
X175.56Y-115.03
X175.7Y-85.71
X176.Y-96.39
X176.Y-107.39
X176.5Y-96.22
X176.5Y-107.2
X176.84Y-113.55
X177.Y-96.49
X177.Y-107.35
X177.44Y-112.07
X177.95Y-99.68
X177.95Y-110.6
X177.96Y-96.61
X178.06Y-107.65
X178.19Y-100.67
X178.38Y-89.3
X178.4Y-103.64
X178.47Y-108.5
X178.47Y-109.
X178.47Y-115.61
X178.5Y-81.05
X178.53Y-97.58
X178.53Y-98.07
X178.56Y-116.56
X178.91Y-96.46
X178.99Y-106.94
X179.1Y-104.14
X179.38Y-85.35
X179.54Y-101.41
X179.57Y-113.36
X180.27Y-110.14
X180.46Y-89.3
X180.67Y-99.63
X180.75Y-93.54
X180.76Y-98.1
X180.89Y-84.8
X180.99Y-83.31
X180.99Y-85.81
X181.08Y-83.8
X181.11Y-85.3
X181.16Y-82.8
X181.22Y-111.68
X181.38Y-99.47
X181.51Y-115.52
X181.57Y-103.48
X181.71Y-86.82
X181.91Y-104.04
X182.05Y-81.67
X182.25Y-87.62
X182.37Y-111.26
X182.45Y-111.84
X182.49Y-99.8
X182.74Y-88.02
X182.74Y-104.12
X182.75Y-81.71
X182.9Y-97.81
X182.93Y-112.06
X182.95Y-100.05
X183.06Y-111.37
X183.08Y-91.78
X183.1Y-109.98
X183.14Y-116.78
X183.18Y-80.75
X183.18Y-100.53
X183.19Y-112.51
X183.26Y-109.47
X183.6Y-93.58
X183.61Y-112.93
X183.63Y-113.58
X183.65Y-101.57
X183.66Y-102.2
X183.75Y-81.67
X183.75Y-87.39
X183.77Y-104.01
X183.84Y-108.38
X183.89Y-96.46
X184.22Y-104.31
X184.25Y-81.58
X184.27Y-91.57
X184.41Y-98.45
X184.57Y-108.36
X184.64Y-96.45
X184.66Y-115.44
X184.75Y-81.61
X184.75Y-87.35
X184.85Y-111.29
X184.92Y-91.57
X185.21Y-81.68
X185.31Y-108.35
X185.41Y-96.44
X185.52Y-114.2
X185.55Y-103.94
X185.74Y-102.2
X185.88Y-113.9
X185.94Y-101.91
X186.31Y-82.37
X186.33Y-104.
X186.39Y-97.9
X186.4Y-94.58
X186.6Y-111.31
X186.65Y-106.55
X186.76Y-84.35
X186.78Y-99.72
X186.825Y-84.8
X186.825Y-85.3
X186.828Y-104.008
X186.92Y-107.15
X186.97Y-115.92
X187.25Y-94.63
X187.34Y-80.55
X187.73Y-116.16
X188.025Y-82.5
X188.18Y-103.54
X188.275Y-84.475
X188.28Y-115.61
X188.3Y-85.2
X188.47Y-110.5
X188.55Y-109.7
X188.58Y-87.12
X188.63Y-98.67
X188.69Y-97.9
X188.99Y-81.35
X189.21Y-99.18
X189.21Y-111.01
X189.3Y-109.14
X189.31Y-97.3
X189.34Y-103.83
X189.66Y-115.78
X189.67Y-83.69
X189.73Y-109.15
X189.74Y-97.22
X189.94Y-100.49
X189.95Y-112.34
X190.26Y-96.7
X190.26Y-108.63
X190.9Y-97.32
X190.9Y-109.19
X191.3Y-92.05
X191.32Y-113.51
X191.48Y-101.7
X191.525Y-84.85
X191.53Y-108.3
X191.54Y-96.4
X191.6Y-93.16
X191.7Y-109.78
X191.71Y-102.21
X191.82Y-114.23
X191.84Y-105.16
X191.88Y-100.91
X192.1Y-111.48
X192.28Y-101.25
X192.36Y-109.02
X192.4Y-97.5
X192.45Y-103.55
X192.53Y-99.99
X192.76Y-113.53
X192.77Y-101.71
X193.07Y-95.66
X193.32Y-102.2
X193.5Y-96.77
X193.5Y-108.78
X193.54Y-107.93
X193.78Y-113.89
X194.Y-96.51
X194.24Y-102.21
X194.46Y-108.1
X194.5Y-96.77
X194.5Y-108.68
X194.87Y-101.71
X194.97Y-113.53
X195.01Y-100.57
X195.04Y-114.35
X195.05Y-102.64
X195.06Y-95.14
X195.27Y-83.61
X195.32Y-84.12
X195.45Y-99.99
X195.45Y-111.89
X195.5Y-97.31
X195.93Y-111.32
X195.97Y-98.39
X195.98Y-97.89
X195.99Y-95.96
X196.03Y-109.82
X196.03Y-110.32
X196.1Y-109.23
X196.47Y-108.33
X197.85Y-85.43
X198.06Y-115.03
X198.23Y-86.81
X198.72Y-88.23
X199.49Y-90.31
X199.875Y-88.45
T2
X175.77Y-130.93
X175.77Y-131.57
X175.77Y-145.43
X175.77Y-146.07
X176.32Y-130.675
X176.32Y-131.25
X176.32Y-131.825
X176.32Y-145.175
X176.32Y-145.75
X176.32Y-146.325
X176.87Y-130.93
X176.87Y-131.57
X176.87Y-145.43
X176.87Y-146.07
T3
X165.5Y-93.6
X165.5Y-101.4
X165.5Y-108.1
X165.5Y-115.9
X165.5Y-116.8
X165.5Y-117.8
X165.5Y-135.3
X165.5Y-142.1
X165.54Y-92.31
X165.6Y-82.1
X165.6Y-83.3
X165.6Y-84.5
X165.6Y-85.6
X165.6Y-87.
X165.6Y-88.2
X165.6Y-89.3
X165.6Y-90.4
X165.6Y-91.5
X165.6Y-127.6
X165.6Y-149.7
X166.3Y-108.1
X166.3Y-115.9
X166.4Y-127.6
X166.4Y-135.3
X166.5Y-93.6
X166.5Y-101.4
X166.5Y-137.8
X166.5Y-142.1
X166.5Y-149.7
X166.6Y-116.7
X166.6Y-139.8
X166.9Y-117.6
X167.1Y-108.1
X167.1Y-115.9
X167.2Y-125.8
X167.2Y-126.8
X167.3Y-118.3
X167.3Y-119.4
X167.3Y-127.6
X167.3Y-135.3
X167.3Y-138.7
X167.4Y-101.4
X167.4Y-149.7
X167.5Y-93.6
X167.5Y-142.1
X167.9Y-115.9
X168.1Y-137.8
X168.2Y-135.3
X168.2Y-139.8
X168.3Y-101.4
X168.3Y-127.6
X168.3Y-149.7
X168.5Y-142.1
X168.63Y-106.05
X168.64Y-106.89
X168.65Y-105.26
X168.7Y-115.9
X168.9Y-93.6
X169.Y-138.8
X169.1Y-135.3
X169.2Y-127.6
X169.2Y-149.7
X169.4Y-116.6
X169.5Y-115.9
X169.5Y-142.1
X169.57Y-107.89
X169.67Y-101.81
X169.69Y-102.71
X169.7Y-137.8
X169.8Y-139.8
X170.Y-117.1
X170.12Y-104.47
X170.13Y-103.75
X170.2Y-127.6
X170.2Y-128.5
X170.2Y-129.3
X170.2Y-138.8
X170.3Y-115.9
X170.3Y-119.4
X170.3Y-133.6
X170.3Y-134.5
X170.3Y-135.4
X170.3Y-148.
X170.3Y-148.9
X170.3Y-149.7
X170.5Y-114.6
X170.5Y-126.8
X170.5Y-142.1
X170.5Y-143.
X170.5Y-144.
X170.53Y-101.77
X170.7Y-125.9
X170.85Y-104.45
X171.1Y-115.5
X171.22Y-107.08
X171.3Y-127.6
X171.5Y-119.4
X171.6Y-134.9
X171.8Y-142.4
X171.9Y-125.9
X172.1Y-115.6
X172.1Y-148.6
X172.1Y-149.7
X172.18Y-147.8
X172.27Y-133.21
X172.3Y-134.1
X172.31Y-104.68
X172.36Y-106.97
X172.39Y-113.91
X172.5Y-127.1
X172.5Y-128.5
X172.6Y-136.5
X172.9Y-119.4
X172.9Y-141.
X172.9Y-143.2
X172.97Y-132.48
X172.99Y-146.9
X173.2Y-125.9
X173.34Y-91.04
X173.41Y-104.68
X173.57Y-115.83
X173.6Y-142.
X173.7Y-117.1
X173.8Y-94.5
X173.8Y-95.3
X173.8Y-128.5
X174.05Y-112.7
X174.1Y-136.5
X174.2Y-130.7
X174.3Y-141.
X174.3Y-145.2
X174.4Y-143.
X174.46Y-112.03
X174.5Y-134.1
X174.5Y-148.7
X174.53Y-90.98
X174.54Y-132.58
X174.54Y-133.37
X174.59Y-147.16
X174.59Y-147.87
X174.6Y-94.3
X174.6Y-125.9
X174.6Y-135.2
X174.64Y-90.24
X174.65Y-104.65
X174.7Y-127.4
X174.8Y-149.7
X175.Y-129.9
X175.Y-144.4
X175.2Y-128.3
X175.26Y-91.75
X175.32Y-89.97
X175.39Y-88.64
X175.4Y-87.575
X175.4Y-142.2
X175.41Y-86.3
X175.5Y-136.5
X175.6Y-134.4
X175.6Y-148.8
X175.7Y-147.9
X175.8Y-125.9
X175.8Y-129.2
X175.8Y-140.9
X175.9Y-143.7
X176.Y-133.5
X176.Y-135.3
X176.04Y-97.97
X176.05Y-89.23
X176.06Y-98.68
X176.07Y-115.58
X176.07Y-116.48
X176.08Y-89.99
X176.14Y-102.7
X176.2Y-108.9
X176.2Y-109.6
X176.2Y-149.7
X176.3Y-128.2
X176.7Y-147.9
X176.8Y-129.2
X176.8Y-134.4
X176.8Y-143.7
X176.82Y-114.45
X176.87Y-115.6
X176.87Y-116.48
X176.9Y-108.9
X176.9Y-109.6
X176.9Y-142.7
X176.96Y-97.99
X176.96Y-98.68
X177.Y-148.8
X177.1Y-125.9
X177.1Y-126.9
X177.1Y-133.5
X177.1Y-135.4
X177.1Y-136.5
X177.3Y-140.9
X177.33Y-91.62
X177.35Y-92.75
X177.36Y-93.75
X177.4Y-80.7
X177.57Y-94.38
X177.7Y-112.7
X177.7Y-129.9
X177.7Y-132.6
X177.7Y-144.4
X177.7Y-147.1
X177.8Y-128.6
X177.89Y-89.98
X178.Y-148.4
X178.1Y-134.4
X178.1Y-142.1
X178.2Y-143.4
X178.27Y-94.42
X178.3Y-91.3
X178.4Y-130.5
X178.4Y-135.4
X178.4Y-145.
X178.5Y-136.6
X178.57Y-96.94
X178.6Y-127.6
X178.61Y-107.7
X178.7Y-125.9
X178.8Y-140.9
X178.9Y-92.1
X178.99Y-87.49
X179.02Y-86.66
X179.17Y-80.99
X179.2Y-91.3
X179.26Y-88.4
X179.32Y-93.94
X179.4Y-142.1
X179.4Y-143.2
X179.4Y-144.1
X179.5Y-117.9
X179.5Y-119.2
X179.5Y-148.
X179.5Y-148.8
X179.5Y-149.7
X179.6Y-96.
X179.6Y-133.5
X179.6Y-134.4
X179.6Y-135.4
X179.7Y-125.9
X179.7Y-127.7
X179.7Y-128.6
X179.7Y-129.4
X179.94Y-89.94
X180.Y-91.3
X180.07Y-93.94
X180.4Y-137.8
X180.4Y-142.1
X180.4Y-149.7
X180.42Y-107.8
X180.5Y-119.2
X180.5Y-135.4
X180.52Y-80.99
X180.6Y-91.8
X180.6Y-92.6
X180.7Y-88.43
X180.7Y-139.8
X180.74Y-87.61
X180.75Y-86.76
X180.8Y-125.9
X180.8Y-127.7
X180.93Y-101.44
X181.Y-113.5
X181.3Y-135.4
X181.3Y-138.8
X181.4Y-142.1
X181.4Y-149.7
X181.45Y-100.97
X181.5Y-113.
X181.5Y-114.
X181.5Y-119.2
X181.59Y-102.07
X181.7Y-127.7
X181.9Y-137.8
X182.Y-113.5
X182.Y-125.9
X182.1Y-101.57
X182.2Y-139.8
X182.3Y-117.9
X182.3Y-135.4
X182.4Y-142.1
X182.4Y-149.7
X182.5Y-119.2
X182.6Y-127.7
X182.8Y-138.8
X182.81Y-105.94
X183.1Y-83.6
X183.1Y-85.5
X183.1Y-125.9
X183.3Y-135.4
X183.3Y-137.8
X183.3Y-139.8
X183.4Y-142.1
X183.4Y-149.7
X183.5Y-119.2
X183.6Y-127.7
X183.66Y-105.86
X184.1Y-117.9
X184.14Y-106.2
X184.2Y-125.9
X184.34Y-80.57
X184.4Y-135.4
X184.5Y-119.2
X184.5Y-126.7
X184.5Y-127.7
X184.5Y-142.1
X184.5Y-149.7
X184.51Y-105.65
X184.6Y-83.6
X184.6Y-93.2
X184.8Y-88.5
X184.9Y-85.5
X185.06Y-80.57
X185.5Y-119.2
X185.79Y-92.2
X185.8Y-91.5
X186.2Y-117.9
X186.42Y-86.92
X186.5Y-119.2
X186.59Y-92.22
X186.6Y-91.5
X187.39Y-84.58
X187.42Y-85.19
X187.5Y-119.2
X187.55Y-106.77
X187.76Y-101.35
X187.77Y-100.67
X187.8Y-94.4
X187.8Y-112.42
X187.88Y-113.07
X188.1Y-117.9
X188.21Y-97.16
X188.28Y-100.16
X188.29Y-111.97
X188.34Y-100.76
X188.4Y-93.3
X188.42Y-106.81
X188.42Y-112.55
X188.5Y-119.2
X188.95Y-96.43
X189.05Y-86.75
X189.075Y-85.95
X189.3Y-94.1
X189.4Y-93.2
X189.45Y-106.79
X189.6Y-119.2
X190.16Y-106.75
X190.2Y-117.9
X190.29Y-115.63
X190.41Y-103.85
X190.43Y-116.17
X190.6Y-119.2
X191.Y-115.99
X191.26Y-103.9
X191.275Y-86.5
X191.4Y-82.2
X191.425Y-90.2
X191.425Y-91.025
X191.54Y-115.69
X191.6Y-83.8
X191.6Y-119.2
X191.61Y-106.73
X191.9Y-113.66
X192.15Y-81.325
X192.29Y-113.23
X192.3Y-117.8
X192.33Y-116.19
X192.39Y-114.04
X192.57Y-104.12
X192.6Y-119.2
X192.7Y-83.8
X192.7Y-91.725
X193.4Y-104.16
X193.49Y-110.19
X193.5Y-98.23
X193.53Y-110.93
X193.54Y-98.97
X193.6Y-119.2
X193.7Y-83.8
X193.87Y-91.57
X194.Y-84.5
X194.Y-85.5
X194.Y-86.4
X194.01Y-87.26
X194.23Y-104.16
X194.3Y-117.8
X194.41Y-98.24
X194.43Y-110.15
X194.44Y-98.97
X194.44Y-110.88
X194.6Y-119.2
X194.85Y-81.325
X194.85Y-82.175
X195.Y-86.4
X195.Y-91.55
X195.22Y-103.58
X195.7Y-119.2
X195.78Y-95.3
X196.09Y-91.45
X196.3Y-117.4
X196.54Y-95.3
X196.55Y-94.54
X196.65Y-109.14
X196.7Y-86.9
X196.7Y-119.2
X197.67Y-86.73
X197.7Y-119.2
X197.77Y-86.01
X197.8Y-91.47
X198.3Y-90.29
X198.7Y-119.2
X199.2Y-115.5
X199.27Y-88.38
X199.3Y-114.3
X199.6Y-116.7
X199.6Y-118.1
X199.7Y-119.2
X200.3Y-116.1
X200.4Y-106.1
X200.5Y-102.4
X200.5Y-103.6
X200.5Y-104.8
X200.8Y-118.1
X200.8Y-119.2
X200.9Y-108.1
X201.Y-116.9
X201.2Y-101.7
X201.2Y-103.1
X201.2Y-104.3
X201.2Y-105.5
X201.2Y-106.5
X201.7Y-108.1
X201.7Y-115.9
X202.1Y-92.9
X202.21Y-81.02
X202.23Y-82.18
X202.3Y-93.6
X202.4Y-101.4
X202.4Y-108.1
X202.4Y-115.9
X202.8Y-92.9
X202.9Y-103.
X203.Y-93.6
X203.Y-104.9
X203.Y-106.6
X203.1Y-101.4
X203.1Y-108.1
X203.1Y-115.9
X203.7Y-93.6
X203.7Y-103.9
X203.7Y-105.7
X203.8Y-101.4
X203.8Y-108.1
X203.8Y-115.9
X204.1Y-103.
X204.1Y-106.6
X204.2Y-104.9
X204.4Y-92.9
X204.4Y-93.6
X204.5Y-101.4
X204.5Y-108.1
X204.5Y-115.9
T5
X166.114Y-118.781
X166.114Y-126.341
X168.654Y-118.781
X168.654Y-126.341
X200.746Y-81.549
X203.286Y-81.549
T6
X172.Y-95.
X172.Y-117.
X198.Y-95.
X198.Y-117.
T4
X203.9Y-83.85G85X203.2Y-83.85
G05
X203.9Y-90.45G85X203.2Y-90.45
G05
T0
M30
