M48
;Layer_Color=9474304
;FILE_FORMAT=4:4
METRIC,LZ
;TYPE=PLATED
T1F00S00C0.3000
%
T01
X000065Y00004752
Y00014002
Y00023252
Y00032502
Y00041752
X00021Y0005
X00021Y000585
X00021Y00067
X00021Y000755
X00021Y00084
X00021Y000925
X00021Y00101
X0003125Y0010325
Y0009625
X0006325
Y0010325
X000735Y00101
X000735Y000925
X000735Y00084
X000735Y000755
X000735Y00067
X000735Y000585
X000735Y0005
X0006325Y00047752
Y00054752
X0003125
Y00047752
X00088Y00041752
Y00032502
Y00023252
Y00014002
Y00004752
X001045
X001045Y00014002
Y00023252
Y00032502
X001045Y00041752
X00119Y0005
Y000585
X00119Y00067
X00119Y000755
X00119Y00084
X00119Y000925
X00119Y00101
X0012925Y0010325
Y0009625
X0016125
Y0010325
X001715Y00101
X001715Y000925
X001715Y00084
X001715Y000755
X001715Y00067
X001715Y000585
Y0005
X0016125Y00047752
Y00054752
X0012925
Y00047752
X00186Y00041752
X00186Y00032502
Y00023252
Y00014002
X00186Y00004752
Y0010925
Y001185
X00186Y0012775
Y00137
Y0014625
X001045
Y00137
Y0012775
X001045Y001185
Y0010925
X00088
Y001185
Y0012775
Y00137
Y0014625
X000065
Y00137
Y0012775
Y001185
Y0010925
M30
