G04 Layer_Color=16711935*
%FSLAX44Y44*%
%MOMM*%
G71*
G01*
G75*
%ADD15C,0.2540*%
%ADD16C,0.2000*%
%ADD18C,0.1500*%
%ADD19C,0.6000*%
%ADD20C,0.1000*%
%ADD21C,0.3000*%
%ADD22C,0.1524*%
D15*
X199000Y-414765D02*
Y-430000D01*
X206618D01*
X209157Y-427461D01*
Y-424922D01*
X206618Y-422383D01*
X199000D01*
X206618D01*
X209157Y-419843D01*
Y-417304D01*
X206618Y-414765D01*
X199000D01*
X216774Y-430000D02*
X221853D01*
X224392Y-427461D01*
Y-422383D01*
X221853Y-419843D01*
X216774D01*
X214235Y-422383D01*
Y-427461D01*
X216774Y-430000D01*
X232009Y-417304D02*
Y-419843D01*
X229470D01*
X234548D01*
X232009D01*
Y-427461D01*
X234548Y-430000D01*
X244705Y-417304D02*
Y-419843D01*
X242166D01*
X247244D01*
X244705D01*
Y-427461D01*
X247244Y-430000D01*
X257401D02*
X262479D01*
X265019Y-427461D01*
Y-422383D01*
X262479Y-419843D01*
X257401D01*
X254862Y-422383D01*
Y-427461D01*
X257401Y-430000D01*
X270097D02*
Y-419843D01*
X272636D01*
X275175Y-422383D01*
Y-430000D01*
Y-422383D01*
X277715Y-419843D01*
X280254Y-422383D01*
Y-430000D01*
X285332Y-419843D02*
X287871D01*
Y-422383D01*
X285332D01*
Y-419843D01*
Y-427461D02*
X287871D01*
Y-430000D01*
X285332D01*
Y-427461D01*
X323420Y-417304D02*
X320881Y-414765D01*
X315802D01*
X313263Y-417304D01*
Y-427461D01*
X315802Y-430000D01*
X320881D01*
X323420Y-427461D01*
Y-422383D01*
X318341D01*
X328498Y-430000D02*
Y-414765D01*
X338655Y-430000D01*
Y-414765D01*
X343733D02*
Y-430000D01*
X351351D01*
X353890Y-427461D01*
Y-417304D01*
X351351Y-414765D01*
X343733D01*
X198250Y-386015D02*
X208407D01*
X203328D01*
Y-401250D01*
X216024D02*
X221103D01*
X223642Y-398711D01*
Y-393633D01*
X221103Y-391093D01*
X216024D01*
X213485Y-393633D01*
Y-398711D01*
X216024Y-401250D01*
X228720Y-406328D02*
Y-391093D01*
X236338D01*
X238877Y-393633D01*
Y-398711D01*
X236338Y-401250D01*
X228720D01*
X243955Y-391093D02*
X246494D01*
Y-393633D01*
X243955D01*
Y-391093D01*
Y-398711D02*
X246494D01*
Y-401250D01*
X243955D01*
Y-398711D01*
X271886Y-401250D02*
Y-386015D01*
X279504D01*
X282043Y-388554D01*
Y-393633D01*
X279504Y-396172D01*
X271886D01*
X276964D02*
X282043Y-401250D01*
X297278Y-386015D02*
X287121D01*
Y-393633D01*
X292199D01*
X287121D01*
Y-401250D01*
X302356D02*
X312513Y-391093D01*
X327748Y-388554D02*
X325209Y-386015D01*
X320131D01*
X317591Y-388554D01*
Y-398711D01*
X320131Y-401250D01*
X325209D01*
X327748Y-398711D01*
Y-393633D01*
X322670D01*
X332826Y-401250D02*
Y-386015D01*
X342983Y-401250D01*
Y-386015D01*
X348061D02*
Y-401250D01*
X355679D01*
X358218Y-398711D01*
Y-388554D01*
X355679Y-386015D01*
X348061D01*
X179157Y-344804D02*
X176618Y-342265D01*
X171539D01*
X169000Y-344804D01*
Y-347343D01*
X171539Y-349883D01*
X176618D01*
X179157Y-352422D01*
Y-354961D01*
X176618Y-357500D01*
X171539D01*
X169000Y-354961D01*
X184235Y-342265D02*
X194392D01*
X189313D01*
Y-357500D01*
X199470D02*
Y-347343D01*
X204548Y-342265D01*
X209627Y-347343D01*
Y-357500D01*
Y-349883D01*
X199470D01*
X224862Y-344804D02*
X222323Y-342265D01*
X217244D01*
X214705Y-344804D01*
Y-354961D01*
X217244Y-357500D01*
X222323D01*
X224862Y-354961D01*
X229940Y-342265D02*
Y-357500D01*
Y-352422D01*
X240097Y-342265D01*
X232479Y-349883D01*
X240097Y-357500D01*
X245175Y-342265D02*
Y-354961D01*
X247715Y-357500D01*
X252793D01*
X255332Y-354961D01*
Y-342265D01*
X260410Y-357500D02*
Y-342265D01*
X268028D01*
X270567Y-344804D01*
Y-349883D01*
X268028Y-352422D01*
X260410D01*
X275646Y-347343D02*
X278185D01*
Y-349883D01*
X275646D01*
Y-347343D01*
Y-354961D02*
X278185D01*
Y-357500D01*
X275646D01*
Y-354961D01*
D16*
X-246000Y-177000D02*
G03*
X-270782Y-187265I0J-35046D01*
G01*
X-245750Y-239500D02*
Y-99500D01*
X-125750Y-292000D02*
Y-212000D01*
X-130750Y-217000D02*
X-120750Y-207000D01*
X-130750Y-297000D02*
X-120750Y-287000D01*
X-390750Y-267000D02*
Y-239500D01*
X-395750Y-244500D02*
X-385750Y-234500D01*
X-395750Y-272000D02*
X-385750Y-262000D01*
X-420750Y-267000D02*
X-245750D01*
X-420750Y-294500D02*
X-365750D01*
X-408250Y-294500D02*
Y-267000D01*
X-413250Y-289500D02*
X-403250Y-299500D01*
X-413250Y-262000D02*
X-403250Y-272000D01*
X-413250Y-244500D02*
X-403250Y-234500D01*
X-413250Y-217000D02*
X-403250Y-207000D01*
X-408250Y-239500D02*
Y-212000D01*
X-420750Y-212000D02*
X-365750D01*
X-420750Y-239500D02*
X-245750D01*
X-290137Y-146606D02*
X-258986Y-212500D01*
X125990Y-33500D02*
X196000D01*
X-4000D02*
X57882D01*
X180760Y-28420D02*
X196000Y-33500D01*
X180760Y-38580D02*
X196000Y-33500D01*
X-4000D02*
X11240Y-38580D01*
X-4000Y-33500D02*
X11240Y-28420D01*
X-34750Y-4000D02*
Y38006D01*
Y104615D02*
Y154750D01*
Y-4000D02*
X-29670Y11240D01*
X-39830D02*
X-34750Y-4000D01*
X-39830Y139510D02*
X-34750Y154750D01*
X-29670Y139510D01*
D18*
X98000Y150750D02*
X192000D01*
Y0D02*
Y150750D01*
X196000Y-4000D02*
Y154750D01*
X-4000Y-4000D02*
Y154750D01*
X196000D01*
X-4000Y-4000D02*
X196000D01*
X98000Y0D02*
X192000D01*
X98000D02*
Y150750D01*
X94000Y0D02*
Y150750D01*
X0D02*
X94000D01*
X0Y0D02*
Y150750D01*
Y0D02*
X94000D01*
D19*
X-232750Y-212000D02*
X-125750D01*
X-245750Y-267000D02*
Y-239500D01*
X-232750Y-292000D02*
X-125750D01*
X-365750D02*
X-258750D01*
X-245750Y-267000D02*
Y-239500D01*
X-365750Y-212000D02*
X-258750D01*
Y-212000D02*
X-245750Y-239500D01*
X-232750Y-212000D01*
X-245750Y-264500D02*
X-232750Y-292000D01*
X-258750D02*
X-245750Y-264500D01*
D20*
X196000Y-36040D02*
Y-6750D01*
X-4000Y-36040D02*
Y-6750D01*
X-37290Y-4000D02*
X-6750D01*
X-37290Y154750D02*
X-6750D01*
X-2000Y-2000D02*
X194000D01*
X-2000D02*
Y152750D01*
X194000Y-2000D02*
Y152750D01*
X96000Y-2000D02*
Y152750D01*
X-2000Y152750D02*
X194000D01*
D21*
X-534000Y-316692D02*
Y-331687D01*
X-526502D01*
X-524003Y-329188D01*
Y-319191D01*
X-526502Y-316692D01*
X-534000D01*
X-519005Y-331687D02*
X-514007D01*
X-516506D01*
Y-321690D01*
X-519005D01*
X-506509Y-331687D02*
X-499011D01*
X-496512Y-329188D01*
X-499011Y-326689D01*
X-504010D01*
X-506509Y-324189D01*
X-504010Y-321690D01*
X-496512D01*
X-489015Y-319191D02*
Y-321690D01*
X-491514D01*
X-486515D01*
X-489015D01*
Y-329188D01*
X-486515Y-331687D01*
X-476519Y-321690D02*
X-471520D01*
X-469021Y-324189D01*
Y-331687D01*
X-476519D01*
X-479018Y-329188D01*
X-476519Y-326689D01*
X-469021D01*
X-464023Y-331687D02*
Y-321690D01*
X-456525D01*
X-454026Y-324189D01*
Y-331687D01*
X-439031Y-321690D02*
X-446528D01*
X-449027Y-324189D01*
Y-329188D01*
X-446528Y-331687D01*
X-439031D01*
X-426535D02*
X-431533D01*
X-434032Y-329188D01*
Y-324189D01*
X-431533Y-321690D01*
X-426535D01*
X-424036Y-324189D01*
Y-326689D01*
X-434032D01*
X-404042Y-316692D02*
Y-331687D01*
X-396544D01*
X-394045Y-329188D01*
Y-326689D01*
Y-324189D01*
X-396544Y-321690D01*
X-404042D01*
X-381549Y-331687D02*
X-386548D01*
X-389047Y-329188D01*
Y-324189D01*
X-386548Y-321690D01*
X-381549D01*
X-379050Y-324189D01*
Y-326689D01*
X-389047D01*
X-371553Y-319191D02*
Y-321690D01*
X-374052D01*
X-369053D01*
X-371553D01*
Y-329188D01*
X-369053Y-331687D01*
X-361556Y-321690D02*
Y-329188D01*
X-359057Y-331687D01*
X-356557Y-329188D01*
X-354058Y-331687D01*
X-351559Y-329188D01*
Y-321690D01*
X-339063Y-331687D02*
X-344062D01*
X-346561Y-329188D01*
Y-324189D01*
X-344062Y-321690D01*
X-339063D01*
X-336564Y-324189D01*
Y-326689D01*
X-346561D01*
X-324068Y-331687D02*
X-329066D01*
X-331566Y-329188D01*
Y-324189D01*
X-329066Y-321690D01*
X-324068D01*
X-321569Y-324189D01*
Y-326689D01*
X-331566D01*
X-316570Y-331687D02*
Y-321690D01*
X-309073D01*
X-306574Y-324189D01*
Y-331687D01*
X-286580Y-316692D02*
Y-331687D01*
X-279083D01*
X-276583Y-329188D01*
Y-326689D01*
Y-324189D01*
X-279083Y-321690D01*
X-286580D01*
X-269086Y-331687D02*
X-264087D01*
X-261588Y-329188D01*
Y-324189D01*
X-264087Y-321690D01*
X-269086D01*
X-271585Y-324189D01*
Y-329188D01*
X-269086Y-331687D01*
X-254091Y-321690D02*
X-249092D01*
X-246593Y-324189D01*
Y-331687D01*
X-254091D01*
X-256590Y-329188D01*
X-254091Y-326689D01*
X-246593D01*
X-241595Y-321690D02*
Y-331687D01*
Y-326689D01*
X-239095Y-324189D01*
X-236596Y-321690D01*
X-234097D01*
X-216603Y-316692D02*
Y-331687D01*
X-224100D01*
X-226600Y-329188D01*
Y-324189D01*
X-224100Y-321690D01*
X-216603D01*
X-211604Y-331687D02*
X-204107D01*
X-201608Y-329188D01*
X-204107Y-326689D01*
X-209105D01*
X-211604Y-324189D01*
X-209105Y-321690D01*
X-201608D01*
X-196609D02*
X-194110D01*
Y-324189D01*
X-196609D01*
Y-321690D01*
Y-329188D02*
X-194110D01*
Y-331687D01*
X-196609D01*
Y-329188D01*
X-169118Y-319191D02*
X-166619Y-316692D01*
X-161621D01*
X-159121Y-319191D01*
Y-329188D01*
X-161621Y-331687D01*
X-166619D01*
X-169118Y-329188D01*
Y-319191D01*
X-154123Y-331687D02*
Y-329188D01*
X-151624D01*
Y-331687D01*
X-154123D01*
X-134129D02*
Y-316692D01*
X-141627Y-324189D01*
X-131630D01*
X-126632Y-331687D02*
Y-321690D01*
X-124133D01*
X-121634Y-324189D01*
Y-331687D01*
Y-324189D01*
X-119134Y-321690D01*
X-116635Y-324189D01*
Y-331687D01*
X-111637D02*
Y-321690D01*
X-109138D01*
X-106638Y-324189D01*
Y-331687D01*
Y-324189D01*
X-104139Y-321690D01*
X-101640Y-324189D01*
Y-331687D01*
X-96642D02*
Y-329188D01*
X-94142D01*
Y-331687D01*
X-96642D01*
X-534000Y-341886D02*
Y-351883D01*
X-529002Y-356881D01*
X-524003Y-351883D01*
Y-341886D01*
X-519005Y-349384D02*
X-509008D01*
X-494013Y-344385D02*
X-496512Y-341886D01*
X-501511D01*
X-504010Y-344385D01*
Y-346884D01*
X-501511Y-349384D01*
X-496512D01*
X-494013Y-351883D01*
Y-354382D01*
X-496512Y-356881D01*
X-501511D01*
X-504010Y-354382D01*
X-479018Y-346884D02*
X-486515D01*
X-489015Y-349384D01*
Y-354382D01*
X-486515Y-356881D01*
X-479018D01*
X-471520D02*
X-466522D01*
X-464023Y-354382D01*
Y-349384D01*
X-466522Y-346884D01*
X-471520D01*
X-474019Y-349384D01*
Y-354382D01*
X-471520Y-356881D01*
X-459024Y-346884D02*
Y-356881D01*
Y-351883D01*
X-456525Y-349384D01*
X-454026Y-346884D01*
X-451527D01*
X-436532Y-356881D02*
X-441530D01*
X-444029Y-354382D01*
Y-349384D01*
X-441530Y-346884D01*
X-436532D01*
X-434032Y-349384D01*
Y-351883D01*
X-444029D01*
X-411540Y-344385D02*
Y-346884D01*
X-414039D01*
X-409040D01*
X-411540D01*
Y-354382D01*
X-409040Y-356881D01*
X-399044D02*
X-394045D01*
X-391546Y-354382D01*
Y-349384D01*
X-394045Y-346884D01*
X-399044D01*
X-401543Y-349384D01*
Y-354382D01*
X-399044Y-356881D01*
X-371553Y-341886D02*
Y-356881D01*
X-364055D01*
X-361556Y-354382D01*
Y-351883D01*
Y-349384D01*
X-364055Y-346884D01*
X-371553D01*
X-349060Y-356881D02*
X-354058D01*
X-356558Y-354382D01*
Y-349384D01*
X-354058Y-346884D01*
X-349060D01*
X-346561Y-349384D01*
Y-351883D01*
X-356558D01*
X-326567Y-346884D02*
Y-356881D01*
Y-351883D01*
X-324068Y-349384D01*
X-321569Y-346884D01*
X-319070D01*
X-311572D02*
Y-354382D01*
X-309073Y-356881D01*
X-301575D01*
Y-346884D01*
X-296577Y-356881D02*
Y-346884D01*
X-289079D01*
X-286580Y-349384D01*
Y-356881D01*
X-266587Y-344385D02*
X-264087Y-341886D01*
X-259089D01*
X-256590Y-344385D01*
Y-354382D01*
X-259089Y-356881D01*
X-264087D01*
X-266587Y-354382D01*
Y-344385D01*
X-251591Y-356881D02*
Y-354382D01*
X-249092D01*
Y-356881D01*
X-251591D01*
X-229099D02*
X-239095D01*
X-229099Y-346884D01*
Y-344385D01*
X-231598Y-341886D01*
X-236596D01*
X-239095Y-344385D01*
X-209105Y-356881D02*
Y-346884D01*
X-206606D01*
X-204107Y-349384D01*
Y-356881D01*
Y-349384D01*
X-201608Y-346884D01*
X-199108Y-349384D01*
Y-356881D01*
X-194110D02*
Y-346884D01*
X-191611D01*
X-189112Y-349384D01*
Y-356881D01*
Y-349384D01*
X-186612Y-346884D01*
X-184113Y-349384D01*
Y-356881D01*
X-161621D02*
Y-344385D01*
Y-349384D01*
X-164120D01*
X-159121D01*
X-161621D01*
Y-344385D01*
X-159121Y-341886D01*
X-151624Y-346884D02*
Y-356881D01*
Y-351883D01*
X-149125Y-349384D01*
X-146625Y-346884D01*
X-144126D01*
X-134129Y-356881D02*
X-129131D01*
X-126632Y-354382D01*
Y-349384D01*
X-129131Y-346884D01*
X-134129D01*
X-136629Y-349384D01*
Y-354382D01*
X-134129Y-356881D01*
X-121634D02*
Y-346884D01*
X-119134D01*
X-116635Y-349384D01*
Y-356881D01*
Y-349384D01*
X-114136Y-346884D01*
X-111637Y-349384D01*
Y-356881D01*
X-91643Y-341886D02*
Y-356881D01*
X-84146D01*
X-81646Y-354382D01*
Y-351883D01*
Y-349384D01*
X-84146Y-346884D01*
X-91643D01*
X-74149Y-356881D02*
X-69151D01*
X-66651Y-354382D01*
Y-349384D01*
X-69151Y-346884D01*
X-74149D01*
X-76648Y-349384D01*
Y-354382D01*
X-74149Y-356881D01*
X-59154Y-346884D02*
X-54155D01*
X-51656Y-349384D01*
Y-356881D01*
X-59154D01*
X-61653Y-354382D01*
X-59154Y-351883D01*
X-51656D01*
X-46658Y-346884D02*
Y-356881D01*
Y-351883D01*
X-44159Y-349384D01*
X-41659Y-346884D01*
X-39160D01*
X-21666Y-341886D02*
Y-356881D01*
X-29163D01*
X-31663Y-354382D01*
Y-349384D01*
X-29163Y-346884D01*
X-21666D01*
X827D02*
X5825D01*
X8324Y-349384D01*
Y-356881D01*
X827D01*
X-1672Y-354382D01*
X827Y-351883D01*
X8324D01*
X13323Y-356881D02*
X20820D01*
X23319Y-354382D01*
X20820Y-351883D01*
X15822D01*
X13323Y-349384D01*
X15822Y-346884D01*
X23319D01*
X43313Y-356881D02*
X50811D01*
X53310Y-354382D01*
X50811Y-351883D01*
X45812D01*
X43313Y-349384D01*
X45812Y-346884D01*
X53310D01*
X58308Y-341886D02*
Y-356881D01*
Y-349384D01*
X60807Y-346884D01*
X65806D01*
X68305Y-349384D01*
Y-356881D01*
X75802D02*
X80801D01*
X83300Y-354382D01*
Y-349384D01*
X80801Y-346884D01*
X75802D01*
X73303Y-349384D01*
Y-354382D01*
X75802Y-356881D01*
X88299Y-346884D02*
Y-354382D01*
X90798Y-356881D01*
X93297Y-354382D01*
X95796Y-356881D01*
X98295Y-354382D01*
Y-346884D01*
X103294Y-356881D02*
Y-346884D01*
X110791D01*
X113290Y-349384D01*
Y-356881D01*
X-534000Y-372079D02*
Y-379576D01*
X-531501Y-382075D01*
X-529002Y-379576D01*
X-526502Y-382075D01*
X-524003Y-379576D01*
Y-372079D01*
X-519005Y-382075D02*
X-514007D01*
X-516506D01*
Y-372079D01*
X-519005D01*
X-504010Y-369579D02*
Y-372079D01*
X-506509D01*
X-501511D01*
X-504010D01*
Y-379576D01*
X-501511Y-382075D01*
X-494013Y-367080D02*
Y-382075D01*
Y-374578D01*
X-491514Y-372079D01*
X-486515D01*
X-484016Y-374578D01*
Y-382075D01*
X-464023Y-369579D02*
X-461524Y-367080D01*
X-456525D01*
X-454026Y-369579D01*
Y-379576D01*
X-456525Y-382075D01*
X-461524D01*
X-464023Y-379576D01*
Y-369579D01*
X-449027Y-382075D02*
Y-379576D01*
X-446528D01*
Y-382075D01*
X-449027D01*
X-436531D02*
X-431533D01*
X-434032D01*
Y-367080D01*
X-436531Y-369579D01*
X-424036Y-382075D02*
Y-372079D01*
X-421536D01*
X-419037Y-374578D01*
Y-382075D01*
Y-374578D01*
X-416538Y-372079D01*
X-414039Y-374578D01*
Y-382075D01*
X-409040D02*
Y-372079D01*
X-406541D01*
X-404042Y-374578D01*
Y-382075D01*
Y-374578D01*
X-401543Y-372079D01*
X-399044Y-374578D01*
Y-382075D01*
X-376551Y-369579D02*
Y-372079D01*
X-379050D01*
X-374052D01*
X-376551D01*
Y-379576D01*
X-374052Y-382075D01*
X-366554Y-367080D02*
Y-382075D01*
Y-374578D01*
X-364055Y-372079D01*
X-359057D01*
X-356557Y-374578D01*
Y-382075D01*
X-351559D02*
X-346561D01*
X-349060D01*
Y-372079D01*
X-351559D01*
X-329066D02*
X-336564D01*
X-339063Y-374578D01*
Y-379576D01*
X-336564Y-382075D01*
X-329066D01*
X-324068D02*
Y-367080D01*
Y-377077D02*
X-316570Y-372079D01*
X-324068Y-377077D02*
X-316570Y-382075D01*
X-294078D02*
X-289079D01*
X-291579D01*
Y-367080D01*
X-294078D01*
X-281582Y-382075D02*
X-276583D01*
X-279083D01*
Y-372079D01*
X-281582D01*
X-269086Y-382075D02*
Y-372079D01*
X-261588D01*
X-259089Y-374578D01*
Y-382075D01*
X-246593D02*
X-251591D01*
X-254091Y-379576D01*
Y-374578D01*
X-251591Y-372079D01*
X-246593D01*
X-244094Y-374578D01*
Y-377077D01*
X-254091D01*
X-224100Y-382075D02*
X-219102D01*
X-221601D01*
Y-372079D01*
X-224100D01*
X-211604Y-382075D02*
Y-372079D01*
X-204107D01*
X-201608Y-374578D01*
Y-382075D01*
X-181614D02*
Y-372079D01*
X-179115D01*
X-176616Y-374578D01*
Y-382075D01*
Y-374578D01*
X-174116Y-372079D01*
X-171617Y-374578D01*
Y-382075D01*
X-159121D02*
X-164120D01*
X-166619Y-379576D01*
Y-374578D01*
X-164120Y-372079D01*
X-159121D01*
X-156622Y-374578D01*
Y-377077D01*
X-166619D01*
X-141627Y-372079D02*
X-149125D01*
X-151624Y-374578D01*
Y-379576D01*
X-149125Y-382075D01*
X-141627D01*
X-136629Y-367080D02*
Y-382075D01*
Y-374578D01*
X-134129Y-372079D01*
X-129131D01*
X-126632Y-374578D01*
Y-382075D01*
X-119134Y-372079D02*
X-114136D01*
X-111637Y-374578D01*
Y-382075D01*
X-119134D01*
X-121634Y-379576D01*
X-119134Y-377077D01*
X-111637D01*
X-106638Y-382075D02*
Y-372079D01*
X-99141D01*
X-96642Y-374578D01*
Y-382075D01*
X-91643D02*
X-86645D01*
X-89144D01*
Y-372079D01*
X-91643D01*
X-69151D02*
X-76648D01*
X-79147Y-374578D01*
Y-379576D01*
X-76648Y-382075D01*
X-69151D01*
X-61653Y-372079D02*
X-56655D01*
X-54155Y-374578D01*
Y-382075D01*
X-61653D01*
X-64152Y-379576D01*
X-61653Y-377077D01*
X-54155D01*
X-49157Y-382075D02*
X-44159D01*
X-46658D01*
Y-367080D01*
X-49157D01*
X-21666Y-382075D02*
X-16667D01*
X-19167D01*
Y-367080D01*
X-21666D01*
X-6671Y-372079D02*
X-1672D01*
X827Y-374578D01*
Y-382075D01*
X-6671D01*
X-9170Y-379576D01*
X-6671Y-377077D01*
X827D01*
X5825Y-372079D02*
Y-379576D01*
X8324Y-382075D01*
X15822D01*
Y-384575D01*
X13323Y-387074D01*
X10824D01*
X15822Y-382075D02*
Y-372079D01*
X28318Y-382075D02*
X23320D01*
X20820Y-379576D01*
Y-374578D01*
X23320Y-372079D01*
X28318D01*
X30817Y-374578D01*
Y-377077D01*
X20820D01*
X35816Y-372079D02*
Y-382075D01*
Y-377077D01*
X38315Y-374578D01*
X40814Y-372079D01*
X43313D01*
X-524003Y-424966D02*
X-526502Y-422467D01*
X-531501D01*
X-534000Y-424966D01*
Y-427465D01*
X-531501Y-429964D01*
X-526502D01*
X-524003Y-432464D01*
Y-434963D01*
X-526502Y-437462D01*
X-531501D01*
X-534000Y-434963D01*
X-519005Y-437462D02*
X-514007D01*
X-516506D01*
Y-427465D01*
X-519005D01*
X-506509Y-437462D02*
Y-427465D01*
X-499011D01*
X-496512Y-429964D01*
Y-437462D01*
X-486515Y-442460D02*
X-484016D01*
X-481517Y-439961D01*
Y-427465D01*
X-489015D01*
X-491514Y-429964D01*
Y-434963D01*
X-489015Y-437462D01*
X-481517D01*
X-476519D02*
X-471520D01*
X-474019D01*
Y-422467D01*
X-476519D01*
X-456525Y-437462D02*
X-461524D01*
X-464023Y-434963D01*
Y-429964D01*
X-461524Y-427465D01*
X-456525D01*
X-454026Y-429964D01*
Y-432464D01*
X-464023D01*
X-434032Y-422467D02*
Y-437462D01*
X-426535D01*
X-424036Y-434963D01*
Y-432464D01*
Y-429964D01*
X-426535Y-427465D01*
X-434032D01*
X-416538Y-437462D02*
X-411540D01*
X-409040Y-434963D01*
Y-429964D01*
X-411540Y-427465D01*
X-416538D01*
X-419037Y-429964D01*
Y-434963D01*
X-416538Y-437462D01*
X-401543Y-427465D02*
X-396544D01*
X-394045Y-429964D01*
Y-437462D01*
X-401543D01*
X-404042Y-434963D01*
X-401543Y-432464D01*
X-394045D01*
X-389047Y-427465D02*
Y-437462D01*
Y-432464D01*
X-386548Y-429964D01*
X-384049Y-427465D01*
X-381549D01*
X-364055Y-422467D02*
Y-437462D01*
X-371553D01*
X-374052Y-434963D01*
Y-429964D01*
X-371553Y-427465D01*
X-364055D01*
X-344062Y-437462D02*
X-336564D01*
X-334065Y-434963D01*
X-336564Y-432464D01*
X-341562D01*
X-344062Y-429964D01*
X-341562Y-427465D01*
X-334065D01*
X-329066Y-437462D02*
X-324068D01*
X-326567D01*
Y-427465D01*
X-329066D01*
X-316570D02*
X-306574D01*
X-316570Y-437462D01*
X-306574D01*
X-294078D02*
X-299076D01*
X-301575Y-434963D01*
Y-429964D01*
X-299076Y-427465D01*
X-294078D01*
X-291579Y-429964D01*
Y-432464D01*
X-301575D01*
X-286580Y-427465D02*
X-284081D01*
Y-429964D01*
X-286580D01*
Y-427465D01*
Y-434963D02*
X-284081D01*
Y-437462D01*
X-286580D01*
Y-434963D01*
X-259089D02*
X-256590Y-437462D01*
X-251591D01*
X-249092Y-434963D01*
Y-424966D01*
X-251591Y-422467D01*
X-256590D01*
X-259089Y-424966D01*
Y-427465D01*
X-256590Y-429964D01*
X-249092D01*
X-244094Y-437462D02*
Y-434963D01*
X-241595D01*
Y-437462D01*
X-244094D01*
X-224100D02*
Y-422467D01*
X-231598Y-429964D01*
X-221601D01*
X-201608Y-427465D02*
X-191611Y-437462D01*
X-196609Y-432464D01*
X-191611Y-427465D01*
X-201608Y-437462D01*
X-171617D02*
X-166619D01*
X-169118D01*
Y-422467D01*
X-171617Y-424966D01*
X-149125Y-422467D02*
X-159121D01*
Y-429964D01*
X-154123Y-427465D01*
X-151624D01*
X-149125Y-429964D01*
Y-434963D01*
X-151624Y-437462D01*
X-156622D01*
X-159121Y-434963D01*
X-129131Y-437462D02*
Y-427465D01*
X-126632D01*
X-124133Y-429964D01*
Y-437462D01*
Y-429964D01*
X-121634Y-427465D01*
X-119134Y-429964D01*
Y-437462D01*
X-114136D02*
Y-427465D01*
X-111637D01*
X-109137Y-429964D01*
Y-437462D01*
Y-429964D01*
X-106638Y-427465D01*
X-104139Y-429964D01*
Y-437462D01*
X-89144D02*
X-99141D01*
X-89144Y-427465D01*
Y-424966D01*
X-91643Y-422467D01*
X-96642D01*
X-99141Y-424966D01*
X-534000Y-452659D02*
X-524003D01*
X-529002D01*
Y-467654D01*
X-516506D02*
X-511507D01*
X-509008Y-465155D01*
Y-460157D01*
X-511507Y-457658D01*
X-516506D01*
X-519005Y-460157D01*
Y-465155D01*
X-516506Y-467654D01*
X-501511Y-455159D02*
Y-457658D01*
X-504010D01*
X-499011D01*
X-501511D01*
Y-465155D01*
X-499011Y-467654D01*
X-489015Y-457658D02*
X-484016D01*
X-481517Y-460157D01*
Y-467654D01*
X-489015D01*
X-491514Y-465155D01*
X-489015Y-462656D01*
X-481517D01*
X-476519Y-467654D02*
X-471520D01*
X-474019D01*
Y-452659D01*
X-476519D01*
X-449027Y-472653D02*
Y-457658D01*
X-441530D01*
X-439031Y-460157D01*
Y-465155D01*
X-441530Y-467654D01*
X-449027D01*
X-431533Y-457658D02*
X-426535D01*
X-424036Y-460157D01*
Y-467654D01*
X-431533D01*
X-434032Y-465155D01*
X-431533Y-462656D01*
X-424036D01*
X-419037Y-467654D02*
Y-457658D01*
X-411540D01*
X-409040Y-460157D01*
Y-467654D01*
X-396544D02*
X-401543D01*
X-404042Y-465155D01*
Y-460157D01*
X-401543Y-457658D01*
X-396544D01*
X-394045Y-460157D01*
Y-462656D01*
X-404042D01*
X-389047Y-467654D02*
X-384049D01*
X-386548D01*
Y-452659D01*
X-389047D01*
X-361556Y-467654D02*
X-354058D01*
X-351559Y-465155D01*
X-354058Y-462656D01*
X-359057D01*
X-361556Y-460157D01*
X-359057Y-457658D01*
X-351559D01*
X-346561Y-467654D02*
X-341562D01*
X-344062D01*
Y-457658D01*
X-346561D01*
X-334065D02*
X-324068D01*
X-334065Y-467654D01*
X-324068D01*
X-311572D02*
X-316570D01*
X-319070Y-465155D01*
Y-460157D01*
X-316570Y-457658D01*
X-311572D01*
X-309073Y-460157D01*
Y-462656D01*
X-319070D01*
X-304074Y-457658D02*
X-301575D01*
Y-460157D01*
X-304074D01*
Y-457658D01*
Y-465155D02*
X-301575D01*
Y-467654D01*
X-304074D01*
Y-465155D01*
X-266587Y-467654D02*
X-276583D01*
X-266587Y-457658D01*
Y-455159D01*
X-269086Y-452659D01*
X-274084D01*
X-276583Y-455159D01*
X-261588D02*
X-259089Y-452659D01*
X-254091D01*
X-251591Y-455159D01*
Y-465155D01*
X-254091Y-467654D01*
X-259089D01*
X-261588Y-465155D01*
Y-455159D01*
X-231598Y-457658D02*
X-221601Y-467654D01*
X-226600Y-462656D01*
X-221601Y-457658D01*
X-231598Y-467654D01*
X-201608D02*
X-196609D01*
X-199108D01*
Y-452659D01*
X-201608Y-455159D01*
X-179115Y-452659D02*
X-189112D01*
Y-460157D01*
X-184113Y-457658D01*
X-181614D01*
X-179115Y-460157D01*
Y-465155D01*
X-181614Y-467654D01*
X-186612D01*
X-189112Y-465155D01*
X-174116Y-467654D02*
Y-465155D01*
X-171617D01*
Y-467654D01*
X-174116D01*
X-161621Y-465155D02*
X-159121Y-467654D01*
X-154123D01*
X-151624Y-465155D01*
Y-455159D01*
X-154123Y-452659D01*
X-159121D01*
X-161621Y-455159D01*
Y-457658D01*
X-159121Y-460157D01*
X-151624D01*
X-131630Y-467654D02*
Y-457658D01*
X-129131D01*
X-126632Y-460157D01*
Y-467654D01*
Y-460157D01*
X-124133Y-457658D01*
X-121634Y-460157D01*
Y-467654D01*
X-116635D02*
Y-457658D01*
X-114136D01*
X-111637Y-460157D01*
Y-467654D01*
Y-460157D01*
X-109137Y-457658D01*
X-106638Y-460157D01*
Y-467654D01*
X-91643D02*
X-101640D01*
X-91643Y-457658D01*
Y-455159D01*
X-94142Y-452659D01*
X-99141D01*
X-101640Y-455159D01*
X150750Y-206060D02*
X160747D01*
X180740Y-213557D02*
Y-198562D01*
X185739Y-203561D01*
X190737Y-198562D01*
Y-213557D01*
X198235Y-203561D02*
X203233D01*
X205732Y-206060D01*
Y-213557D01*
X198235D01*
X195735Y-211058D01*
X198235Y-208559D01*
X205732D01*
X213230Y-201061D02*
Y-203561D01*
X210731D01*
X215729D01*
X213230D01*
Y-211058D01*
X215729Y-213557D01*
X230724D02*
X225726D01*
X223227Y-211058D01*
Y-206060D01*
X225726Y-203561D01*
X230724D01*
X233223Y-206060D01*
Y-208559D01*
X223227D01*
X238222Y-203561D02*
Y-213557D01*
Y-208559D01*
X240721Y-206060D01*
X243220Y-203561D01*
X245719D01*
X253217Y-213557D02*
X258215D01*
X255716D01*
Y-203561D01*
X253217D01*
X268212D02*
X273210D01*
X275709Y-206060D01*
Y-213557D01*
X268212D01*
X265713Y-211058D01*
X268212Y-208559D01*
X275709D01*
X280708Y-213557D02*
X285706D01*
X283207D01*
Y-198562D01*
X280708D01*
X293204Y-203561D02*
X295703D01*
Y-206060D01*
X293204D01*
Y-203561D01*
Y-211058D02*
X295703D01*
Y-213557D01*
X293204D01*
Y-211058D01*
X320695Y-198562D02*
X330692D01*
X325693D01*
Y-213557D01*
X345687Y-201061D02*
X343188Y-198562D01*
X338189D01*
X335690Y-201061D01*
Y-211058D01*
X338189Y-213557D01*
X343188D01*
X345687Y-211058D01*
Y-206060D01*
X340689D01*
X350685Y-213557D02*
X355684D01*
X353185D01*
Y-198562D01*
X350685Y-201061D01*
X363181Y-198562D02*
X373178D01*
Y-201061D01*
X363181Y-211058D01*
Y-213557D01*
X378176Y-201061D02*
X380676Y-198562D01*
X385674D01*
X388173Y-201061D01*
Y-211058D01*
X385674Y-213557D01*
X380676D01*
X378176Y-211058D01*
Y-201061D01*
X150750Y-231254D02*
X160747D01*
X190737Y-226256D02*
X188238Y-223757D01*
X183239D01*
X180740Y-226256D01*
Y-228755D01*
X183239Y-231254D01*
X188238D01*
X190737Y-233753D01*
Y-236252D01*
X188238Y-238752D01*
X183239D01*
X180740Y-236252D01*
X198235Y-238752D02*
X203233D01*
X205732Y-236252D01*
Y-231254D01*
X203233Y-228755D01*
X198235D01*
X195735Y-231254D01*
Y-236252D01*
X198235Y-238752D01*
X210731D02*
X215729D01*
X213230D01*
Y-223757D01*
X210731D01*
X233223D02*
Y-238752D01*
X225726D01*
X223227Y-236252D01*
Y-231254D01*
X225726Y-228755D01*
X233223D01*
X245719Y-238752D02*
X240721D01*
X238222Y-236252D01*
Y-231254D01*
X240721Y-228755D01*
X245719D01*
X248218Y-231254D01*
Y-233753D01*
X238222D01*
X253217Y-228755D02*
Y-238752D01*
Y-233753D01*
X255716Y-231254D01*
X258215Y-228755D01*
X260714D01*
X283207Y-238752D02*
Y-228755D01*
X285706D01*
X288206Y-231254D01*
Y-238752D01*
Y-231254D01*
X290705Y-228755D01*
X293204Y-231254D01*
Y-238752D01*
X300701Y-228755D02*
X305700D01*
X308199Y-231254D01*
Y-238752D01*
X300701D01*
X298202Y-236252D01*
X300701Y-233753D01*
X308199D01*
X313197Y-238752D02*
X320695D01*
X323194Y-236252D01*
X320695Y-233753D01*
X315697D01*
X313197Y-231254D01*
X315697Y-228755D01*
X323194D01*
X328192Y-238752D02*
Y-223757D01*
Y-233753D02*
X335690Y-228755D01*
X328192Y-233753D02*
X335690Y-238752D01*
X358183Y-228755D02*
X360682D01*
Y-231254D01*
X358183D01*
Y-228755D01*
Y-236252D02*
X360682D01*
Y-238752D01*
X358183D01*
Y-236252D01*
X385674Y-223757D02*
Y-238752D01*
X393172D01*
X395671Y-236252D01*
Y-226256D01*
X393172Y-223757D01*
X385674D01*
X400669Y-238752D02*
Y-228755D01*
X405667Y-223757D01*
X410666Y-228755D01*
Y-238752D01*
Y-231254D01*
X400669D01*
X415664Y-238752D02*
Y-223757D01*
X423162D01*
X425661Y-226256D01*
Y-231254D01*
X423162Y-233753D01*
X415664D01*
X420663D02*
X425661Y-238752D01*
X430659Y-223757D02*
Y-238752D01*
Y-233753D01*
X440656Y-223757D01*
X433158Y-231254D01*
X440656Y-238752D01*
X460650Y-223757D02*
Y-238752D01*
X468147D01*
X470646Y-236252D01*
Y-233753D01*
X468147Y-231254D01*
X460650D01*
X468147D01*
X470646Y-228755D01*
Y-226256D01*
X468147Y-223757D01*
X460650D01*
X475645D02*
Y-238752D01*
X485642D01*
X490640Y-223757D02*
Y-236252D01*
X493139Y-238752D01*
X498138D01*
X500637Y-236252D01*
Y-223757D01*
X515632D02*
X505635D01*
Y-238752D01*
X515632D01*
X505635Y-231254D02*
X510634D01*
X523129Y-241251D02*
X525629Y-238752D01*
Y-236252D01*
X523129D01*
Y-238752D01*
X525629D01*
X523129Y-241251D01*
X520630Y-243750D01*
X550620Y-223757D02*
Y-238752D01*
X558118D01*
X560617Y-236252D01*
Y-233753D01*
Y-231254D01*
X558118Y-228755D01*
X550620D01*
X568115Y-238752D02*
X573113D01*
X575612Y-236252D01*
Y-231254D01*
X573113Y-228755D01*
X568115D01*
X565616Y-231254D01*
Y-236252D01*
X568115Y-238752D01*
X583110Y-226256D02*
Y-228755D01*
X580611D01*
X585609D01*
X583110D01*
Y-236252D01*
X585609Y-238752D01*
X593107Y-223757D02*
Y-238752D01*
Y-231254D01*
X595606Y-228755D01*
X600604D01*
X603103Y-231254D01*
Y-238752D01*
X623097D02*
X630595D01*
X633094Y-236252D01*
X630595Y-233753D01*
X625596D01*
X623097Y-231254D01*
X625596Y-228755D01*
X633094D01*
X638092Y-238752D02*
X643091D01*
X640591D01*
Y-228755D01*
X638092D01*
X660585Y-223757D02*
Y-238752D01*
X653087D01*
X650588Y-236252D01*
Y-231254D01*
X653087Y-228755D01*
X660585D01*
X673081Y-238752D02*
X668083D01*
X665583Y-236252D01*
Y-231254D01*
X668083Y-228755D01*
X673081D01*
X675580Y-231254D01*
Y-233753D01*
X665583D01*
X680578Y-238752D02*
X688076D01*
X690575Y-236252D01*
X688076Y-233753D01*
X683078D01*
X680578Y-231254D01*
X683078Y-228755D01*
X690575D01*
X698073Y-241251D02*
X700572Y-238752D01*
Y-236252D01*
X698073D01*
Y-238752D01*
X700572D01*
X698073Y-241251D01*
X695574Y-243750D01*
X725564Y-223757D02*
Y-238752D01*
Y-231254D01*
X728063Y-228755D01*
X733061D01*
X735561Y-231254D01*
Y-238752D01*
X743058Y-228755D02*
X748057D01*
X750556Y-231254D01*
Y-238752D01*
X743058D01*
X740559Y-236252D01*
X743058Y-233753D01*
X750556D01*
X755554Y-238752D02*
X760553D01*
X758053D01*
Y-223757D01*
X755554D01*
X770549Y-238752D02*
X775548D01*
X778047Y-236252D01*
Y-231254D01*
X775548Y-228755D01*
X770549D01*
X768050Y-231254D01*
Y-236252D01*
X770549Y-238752D01*
X788044Y-243750D02*
X790543D01*
X793042Y-241251D01*
Y-228755D01*
X785545D01*
X783045Y-231254D01*
Y-236252D01*
X785545Y-238752D01*
X793042D01*
X805538D02*
X800540D01*
X798040Y-236252D01*
Y-231254D01*
X800540Y-228755D01*
X805538D01*
X808037Y-231254D01*
Y-233753D01*
X798040D01*
X813036Y-238752D02*
Y-228755D01*
X820533D01*
X823032Y-231254D01*
Y-238752D01*
X845525D02*
Y-226256D01*
Y-231254D01*
X843026D01*
X848024D01*
X845525D01*
Y-226256D01*
X848024Y-223757D01*
X855522Y-228755D02*
Y-238752D01*
Y-233753D01*
X858021Y-231254D01*
X860520Y-228755D01*
X863019D01*
X878015Y-238752D02*
X873016D01*
X870517Y-236252D01*
Y-231254D01*
X873016Y-228755D01*
X878015D01*
X880514Y-231254D01*
Y-233753D01*
X870517D01*
X893010Y-238752D02*
X888011D01*
X885512Y-236252D01*
Y-231254D01*
X888011Y-228755D01*
X893010D01*
X895509Y-231254D01*
Y-233753D01*
X885512D01*
X903006Y-241251D02*
X905506Y-238752D01*
Y-236252D01*
X903006D01*
Y-238752D01*
X905506D01*
X903006Y-241251D01*
X900507Y-243750D01*
X935496D02*
X937995D01*
X940494Y-241251D01*
Y-228755D01*
X932997D01*
X930498Y-231254D01*
Y-236252D01*
X932997Y-238752D01*
X940494D01*
X945493D02*
X950491D01*
X947992D01*
Y-223757D01*
X945493D01*
X960488Y-238752D02*
X965486D01*
X967985Y-236252D01*
Y-231254D01*
X965486Y-228755D01*
X960488D01*
X957989Y-231254D01*
Y-236252D01*
X960488Y-238752D01*
X972984D02*
X980481D01*
X982980Y-236252D01*
X980481Y-233753D01*
X975483D01*
X972984Y-231254D01*
X975483Y-228755D01*
X982980D01*
X987979Y-238752D02*
X995477D01*
X997976Y-236252D01*
X995477Y-233753D01*
X990478D01*
X987979Y-231254D01*
X990478Y-228755D01*
X997976D01*
X1002974D02*
Y-236252D01*
X1005473Y-238752D01*
X1012971D01*
Y-241251D01*
X1010472Y-243750D01*
X1007972D01*
X1012971Y-238752D02*
Y-228755D01*
X1035463Y-238752D02*
Y-226256D01*
Y-231254D01*
X1032964D01*
X1037963D01*
X1035463D01*
Y-226256D01*
X1037963Y-223757D01*
X1045460Y-238752D02*
X1050459D01*
X1047960D01*
Y-228755D01*
X1045460D01*
X1057956Y-238752D02*
Y-228755D01*
X1065454D01*
X1067953Y-231254D01*
Y-238752D01*
X1072951D02*
X1077950D01*
X1075451D01*
Y-228755D01*
X1072951D01*
X1085447Y-238752D02*
X1092945D01*
X1095444Y-236252D01*
X1092945Y-233753D01*
X1087947D01*
X1085447Y-231254D01*
X1087947Y-228755D01*
X1095444D01*
X1100443Y-223757D02*
Y-238752D01*
Y-231254D01*
X1102942Y-228755D01*
X1107940D01*
X1110439Y-231254D01*
Y-238752D01*
X1135431D02*
X1130433Y-233753D01*
Y-228755D01*
X1135431Y-223757D01*
X1142929Y-238752D02*
Y-223757D01*
X1152925Y-238752D01*
Y-223757D01*
X1165422D02*
X1160423D01*
X1157924Y-226256D01*
Y-236252D01*
X1160423Y-238752D01*
X1165422D01*
X1167921Y-236252D01*
Y-226256D01*
X1165422Y-223757D01*
X1172919D02*
X1182916D01*
X1177917D01*
Y-238752D01*
X1202909D02*
Y-228755D01*
X1205408D01*
X1207908Y-231254D01*
Y-238752D01*
Y-231254D01*
X1210407Y-228755D01*
X1212906Y-231254D01*
Y-238752D01*
X1220404Y-228755D02*
X1225402D01*
X1227901Y-231254D01*
Y-238752D01*
X1220404D01*
X1217905Y-236252D01*
X1220404Y-233753D01*
X1227901D01*
X1235399Y-226256D02*
Y-228755D01*
X1232900D01*
X1237898D01*
X1235399D01*
Y-236252D01*
X1237898Y-238752D01*
X1247895Y-226256D02*
Y-228755D01*
X1245396D01*
X1250394D01*
X1247895D01*
Y-236252D01*
X1250394Y-238752D01*
X1265389D02*
X1260391D01*
X1257892Y-236252D01*
Y-231254D01*
X1260391Y-228755D01*
X1265389D01*
X1267888Y-231254D01*
Y-233753D01*
X1257892D01*
X1272887Y-238752D02*
X1277885Y-233753D01*
Y-228755D01*
X1272887Y-223757D01*
X-388250Y-69505D02*
Y-79502D01*
X-383252Y-84500D01*
X-378253Y-79502D01*
Y-69505D01*
X-373255Y-77002D02*
X-363258D01*
X-348263Y-72004D02*
X-350762Y-69505D01*
X-355761D01*
X-358260Y-72004D01*
Y-74503D01*
X-355761Y-77002D01*
X-350762D01*
X-348263Y-79502D01*
Y-82001D01*
X-350762Y-84500D01*
X-355761D01*
X-358260Y-82001D01*
X-333268Y-74503D02*
X-340765D01*
X-343265Y-77002D01*
Y-82001D01*
X-340765Y-84500D01*
X-333268D01*
X-325770D02*
X-320772D01*
X-318273Y-82001D01*
Y-77002D01*
X-320772Y-74503D01*
X-325770D01*
X-328269Y-77002D01*
Y-82001D01*
X-325770Y-84500D01*
X-313274Y-74503D02*
Y-84500D01*
Y-79502D01*
X-310775Y-77002D01*
X-308276Y-74503D01*
X-305777D01*
X-290782Y-84500D02*
X-295780D01*
X-298279Y-82001D01*
Y-77002D01*
X-295780Y-74503D01*
X-290782D01*
X-288282Y-77002D01*
Y-79502D01*
X-298279D01*
X-268289Y-89498D02*
Y-74503D01*
X-260791D01*
X-258292Y-77002D01*
Y-82001D01*
X-260791Y-84500D01*
X-268289D01*
X-250795Y-74503D02*
X-245796D01*
X-243297Y-77002D01*
Y-84500D01*
X-250795D01*
X-253294Y-82001D01*
X-250795Y-79502D01*
X-243297D01*
X-238299Y-74503D02*
Y-84500D01*
Y-79502D01*
X-235799Y-77002D01*
X-233300Y-74503D01*
X-230801D01*
X-220804D02*
X-215806D01*
X-213307Y-77002D01*
Y-84500D01*
X-220804D01*
X-223303Y-82001D01*
X-220804Y-79502D01*
X-213307D01*
X-208308Y-84500D02*
Y-74503D01*
X-205809D01*
X-203310Y-77002D01*
Y-84500D01*
Y-77002D01*
X-200811Y-74503D01*
X-198312Y-77002D01*
Y-84500D01*
X-185816D02*
X-190814D01*
X-193313Y-82001D01*
Y-77002D01*
X-190814Y-74503D01*
X-185816D01*
X-183316Y-77002D01*
Y-79502D01*
X-193313D01*
X-175819Y-72004D02*
Y-74503D01*
X-178318D01*
X-173320D01*
X-175819D01*
Y-82001D01*
X-173320Y-84500D01*
X-158324D02*
X-163323D01*
X-165822Y-82001D01*
Y-77002D01*
X-163323Y-74503D01*
X-158324D01*
X-155825Y-77002D01*
Y-79502D01*
X-165822D01*
X-150827Y-74503D02*
Y-84500D01*
Y-79502D01*
X-148328Y-77002D01*
X-145829Y-74503D01*
X-143329D01*
X-135832Y-84500D02*
X-128334D01*
X-125835Y-82001D01*
X-128334Y-79502D01*
X-133333D01*
X-135832Y-77002D01*
X-133333Y-74503D01*
X-125835D01*
X-337750Y-121254D02*
X-335251Y-118755D01*
X-330252D01*
X-327753Y-121254D01*
Y-123753D01*
X-330252Y-126252D01*
X-332752D01*
X-330252D01*
X-327753Y-128752D01*
Y-131251D01*
X-330252Y-133750D01*
X-335251D01*
X-337750Y-131251D01*
X-322755Y-121254D02*
X-320256Y-118755D01*
X-315257D01*
X-312758Y-121254D01*
Y-131251D01*
X-315257Y-133750D01*
X-320256D01*
X-322755Y-131251D01*
Y-121254D01*
X-282768Y-118755D02*
Y-133750D01*
X-290265D01*
X-292765Y-131251D01*
Y-126252D01*
X-290265Y-123753D01*
X-282768D01*
X-270272Y-133750D02*
X-275270D01*
X-277769Y-131251D01*
Y-126252D01*
X-275270Y-123753D01*
X-270272D01*
X-267773Y-126252D01*
Y-128752D01*
X-277769D01*
X-257776Y-138748D02*
X-255277D01*
X-252778Y-136249D01*
Y-123753D01*
X-260275D01*
X-262774Y-126252D01*
Y-131251D01*
X-260275Y-133750D01*
X-252778D01*
X-500750Y-247004D02*
X-498251Y-244505D01*
X-493252D01*
X-490753Y-247004D01*
Y-257001D01*
X-493252Y-259500D01*
X-498251D01*
X-500750Y-257001D01*
Y-247004D01*
X-485755Y-259500D02*
Y-257001D01*
X-483256D01*
Y-259500D01*
X-485755D01*
X-465761D02*
Y-244505D01*
X-473259Y-252002D01*
X-463262D01*
X-458264Y-259500D02*
Y-249503D01*
X-455765D01*
X-453265Y-252002D01*
Y-259500D01*
Y-252002D01*
X-450766Y-249503D01*
X-448267Y-252002D01*
Y-259500D01*
X-443269D02*
Y-249503D01*
X-440770D01*
X-438270Y-252002D01*
Y-259500D01*
Y-252002D01*
X-435771Y-249503D01*
X-433272Y-252002D01*
Y-259500D01*
X-500750Y-274504D02*
X-498251Y-272005D01*
X-493252D01*
X-490753Y-274504D01*
Y-284501D01*
X-493252Y-287000D01*
X-498251D01*
X-500750Y-284501D01*
Y-274504D01*
X-485755Y-287000D02*
Y-284501D01*
X-483256D01*
Y-287000D01*
X-485755D01*
X-463262Y-272005D02*
X-468260Y-274504D01*
X-473259Y-279502D01*
Y-284501D01*
X-470760Y-287000D01*
X-465761D01*
X-463262Y-284501D01*
Y-282002D01*
X-465761Y-279502D01*
X-473259D01*
X-458264Y-287000D02*
Y-277003D01*
X-455765D01*
X-453265Y-279502D01*
Y-287000D01*
Y-279502D01*
X-450766Y-277003D01*
X-448267Y-279502D01*
Y-287000D01*
X-443269D02*
Y-277003D01*
X-440770D01*
X-438270Y-279502D01*
Y-287000D01*
Y-279502D01*
X-435771Y-277003D01*
X-433272Y-279502D01*
Y-287000D01*
X-500750Y-219504D02*
X-498251Y-217005D01*
X-493252D01*
X-490753Y-219504D01*
Y-229501D01*
X-493252Y-232000D01*
X-498251D01*
X-500750Y-229501D01*
Y-219504D01*
X-485755Y-232000D02*
Y-229501D01*
X-483256D01*
Y-232000D01*
X-485755D01*
X-463262Y-217005D02*
X-468260Y-219504D01*
X-473259Y-224502D01*
Y-229501D01*
X-470760Y-232000D01*
X-465761D01*
X-463262Y-229501D01*
Y-227002D01*
X-465761Y-224502D01*
X-473259D01*
X-458264Y-232000D02*
Y-222003D01*
X-455765D01*
X-453265Y-224502D01*
Y-232000D01*
Y-224502D01*
X-450766Y-222003D01*
X-448267Y-224502D01*
Y-232000D01*
X-443269D02*
Y-222003D01*
X-440770D01*
X-438270Y-224502D01*
Y-232000D01*
Y-224502D01*
X-435771Y-222003D01*
X-433272Y-224502D01*
Y-232000D01*
X-118250Y-262000D02*
X-113252D01*
X-115751D01*
Y-247005D01*
X-118250Y-249504D01*
X-105754Y-262000D02*
Y-259501D01*
X-103255D01*
Y-262000D01*
X-105754D01*
X-83261Y-247005D02*
X-88260Y-249504D01*
X-93258Y-254502D01*
Y-259501D01*
X-90759Y-262000D01*
X-85760D01*
X-83261Y-259501D01*
Y-257002D01*
X-85760Y-254502D01*
X-93258D01*
X-78263Y-262000D02*
Y-252003D01*
X-75764D01*
X-73265Y-254502D01*
Y-262000D01*
Y-254502D01*
X-70765Y-252003D01*
X-68266Y-254502D01*
Y-262000D01*
X-63268D02*
Y-252003D01*
X-60769D01*
X-58269Y-254502D01*
Y-262000D01*
Y-254502D01*
X-55770Y-252003D01*
X-53271Y-254502D01*
Y-262000D01*
X-33277Y-254502D02*
X-23281D01*
X-28279Y-249504D02*
Y-259501D01*
X-18282Y-262000D02*
X-8286Y-252003D01*
X-3287Y-254502D02*
X6709D01*
X11708Y-262000D02*
X16706D01*
X14207D01*
Y-247005D01*
X11708Y-249504D01*
X24204D02*
X26703Y-247005D01*
X31701D01*
X34201Y-249504D01*
Y-259501D01*
X31701Y-262000D01*
X26703D01*
X24204Y-259501D01*
Y-249504D01*
X39199Y-259501D02*
X51695Y-247005D01*
X39199D02*
Y-244506D01*
X41698D01*
Y-247005D01*
X39199D01*
X49196Y-262000D02*
Y-259501D01*
X51695D01*
Y-262000D01*
X49196D01*
X143750Y-171255D02*
Y-181252D01*
X148748Y-186250D01*
X153747Y-181252D01*
Y-171255D01*
X168742D02*
X158745D01*
Y-186250D01*
X168742D01*
X158745Y-178752D02*
X163743D01*
X173740Y-186250D02*
Y-171255D01*
X181238D01*
X183737Y-173754D01*
Y-178752D01*
X181238Y-181252D01*
X173740D01*
X178739D02*
X183737Y-186250D01*
X188735Y-171255D02*
Y-173754D01*
X193734Y-178752D01*
X198732Y-173754D01*
Y-171255D01*
X193734Y-178752D02*
Y-186250D01*
X218726Y-171255D02*
X223724D01*
X221225D01*
Y-186250D01*
X218726D01*
X223724D01*
X231222D02*
Y-171255D01*
X236220Y-176253D01*
X241218Y-171255D01*
Y-186250D01*
X246217D02*
Y-171255D01*
X253714D01*
X256213Y-173754D01*
Y-178752D01*
X253714Y-181252D01*
X246217D01*
X268710Y-171255D02*
X263711D01*
X261212Y-173754D01*
Y-183751D01*
X263711Y-186250D01*
X268710D01*
X271209Y-183751D01*
Y-173754D01*
X268710Y-171255D01*
X276207Y-186250D02*
Y-171255D01*
X283705D01*
X286204Y-173754D01*
Y-178752D01*
X283705Y-181252D01*
X276207D01*
X281206D02*
X286204Y-186250D01*
X291202Y-171255D02*
X301199D01*
X296201D01*
Y-186250D01*
X306197D02*
Y-176253D01*
X311196Y-171255D01*
X316194Y-176253D01*
Y-186250D01*
Y-178752D01*
X306197D01*
X321193Y-186250D02*
Y-171255D01*
X331189Y-186250D01*
Y-171255D01*
X336188D02*
X346184D01*
X341186D01*
Y-186250D01*
X366178D02*
Y-171255D01*
X376175Y-186250D01*
Y-171255D01*
X388671D02*
X383672D01*
X381173Y-173754D01*
Y-183751D01*
X383672Y-186250D01*
X388671D01*
X391170Y-183751D01*
Y-173754D01*
X388671Y-171255D01*
X396168D02*
X406165D01*
X401167D01*
Y-186250D01*
X421160Y-171255D02*
X411163D01*
Y-186250D01*
X421160D01*
X411163Y-178752D02*
X416162D01*
X436155Y-173754D02*
X433656Y-171255D01*
X428658D01*
X426158Y-173754D01*
Y-176253D01*
X428658Y-178752D01*
X433656D01*
X436155Y-181252D01*
Y-183751D01*
X433656Y-186250D01*
X428658D01*
X426158Y-183751D01*
X441154Y-176253D02*
X443653D01*
Y-178752D01*
X441154D01*
Y-176253D01*
Y-183751D02*
X443653D01*
Y-186250D01*
X441154D01*
Y-183751D01*
X158250Y-308250D02*
Y-293255D01*
X168247Y-308250D01*
Y-293255D01*
X180743D02*
X175744D01*
X173245Y-295754D01*
Y-305751D01*
X175744Y-308250D01*
X180743D01*
X183242Y-305751D01*
Y-295754D01*
X180743Y-293255D01*
X188240D02*
X198237D01*
X193239D01*
Y-308250D01*
X213232Y-293255D02*
X203235D01*
Y-308250D01*
X213232D01*
X203235Y-300753D02*
X208234D01*
X228227Y-295754D02*
X225728Y-293255D01*
X220730D01*
X218231Y-295754D01*
Y-298253D01*
X220730Y-300753D01*
X225728D01*
X228227Y-303252D01*
Y-305751D01*
X225728Y-308250D01*
X220730D01*
X218231Y-305751D01*
X233226Y-298253D02*
X235725D01*
Y-300753D01*
X233226D01*
Y-298253D01*
Y-305751D02*
X235725D01*
Y-308250D01*
X233226D01*
Y-305751D01*
D22*
X67944Y-41022D02*
X61946D01*
X67944Y-35024D01*
Y-33524D01*
X66444Y-32025D01*
X63445D01*
X61946Y-33524D01*
X70943D02*
X72442Y-32025D01*
X75441D01*
X76941Y-33524D01*
Y-39523D01*
X75441Y-41022D01*
X72442D01*
X70943Y-39523D01*
Y-33524D01*
X81439Y-42522D02*
X82939Y-41022D01*
Y-39523D01*
X81439D01*
Y-41022D01*
X82939D01*
X81439Y-42522D01*
X79940Y-44021D01*
X88937Y-33524D02*
X90436Y-32025D01*
X93435D01*
X94935Y-33524D01*
Y-39523D01*
X93435Y-41022D01*
X90436D01*
X88937Y-39523D01*
Y-33524D01*
X97934D02*
X99434Y-32025D01*
X102433D01*
X103932Y-33524D01*
Y-39523D01*
X102433Y-41022D01*
X99434D01*
X97934Y-39523D01*
Y-33524D01*
X106931Y-41022D02*
Y-35024D01*
X108431D01*
X109930Y-36523D01*
Y-41022D01*
Y-36523D01*
X111430Y-35024D01*
X112929Y-36523D01*
Y-41022D01*
X115928D02*
Y-35024D01*
X117428D01*
X118927Y-36523D01*
Y-41022D01*
Y-36523D01*
X120427Y-35024D01*
X121926Y-36523D01*
Y-41022D01*
X-27228Y42070D02*
Y45069D01*
Y43570D01*
X-36225D01*
X-34725Y42070D01*
X-36225Y55566D02*
Y49568D01*
X-31727D01*
X-33226Y52567D01*
Y54067D01*
X-31727Y55566D01*
X-28728D01*
X-27228Y54067D01*
Y51068D01*
X-28728Y49568D01*
X-25728Y60065D02*
X-27228Y61564D01*
X-28728D01*
Y60065D01*
X-27228D01*
Y61564D01*
X-25728Y60065D01*
X-24229Y58565D01*
X-34725Y67562D02*
X-36225Y69062D01*
Y72061D01*
X-34725Y73560D01*
X-33226D01*
X-31727Y72061D01*
X-30227Y73560D01*
X-28728D01*
X-27228Y72061D01*
Y69062D01*
X-28728Y67562D01*
X-30227D01*
X-31727Y69062D01*
X-33226Y67562D01*
X-34725D01*
X-31727Y69062D02*
Y72061D01*
X-34725Y76559D02*
X-36225Y78059D01*
Y81058D01*
X-34725Y82557D01*
X-33226D01*
X-31727Y81058D01*
X-30227Y82557D01*
X-28728D01*
X-27228Y81058D01*
Y78059D01*
X-28728Y76559D01*
X-30227D01*
X-31727Y78059D01*
X-33226Y76559D01*
X-34725D01*
X-31727Y78059D02*
Y81058D01*
X-27228Y85556D02*
X-33226D01*
Y87056D01*
X-31727Y88555D01*
X-27228D01*
X-31727D01*
X-33226Y90055D01*
X-31727Y91554D01*
X-27228D01*
Y94553D02*
X-33226D01*
Y96053D01*
X-31727Y97552D01*
X-27228D01*
X-31727D01*
X-33226Y99052D01*
X-31727Y100552D01*
X-27228D01*
M02*
