G04 Layer_Color=32896*
%FSLAX44Y44*%
%MOMM*%
G71*
G01*
G75*
%ADD16C,0.2000*%
G36*
X19979Y82157D02*
X20168Y82117D01*
X20328Y82057D01*
X20468Y81987D01*
X20578Y81917D01*
X20648Y81857D01*
X20698Y81817D01*
X20717Y81797D01*
X20837Y81648D01*
X20927Y81478D01*
X20997Y81308D01*
X21037Y81138D01*
X21067Y80989D01*
X21077Y80929D01*
Y80869D01*
X21087Y80819D01*
Y80789D01*
Y80769D01*
Y80759D01*
X21077Y80549D01*
X21047Y80340D01*
X20997Y80150D01*
X20947Y79981D01*
X20887Y79831D01*
X20847Y79731D01*
X20827Y79681D01*
X20807Y79661D01*
X20797Y79641D01*
Y79631D01*
X20687Y79441D01*
X20568Y79272D01*
X20448Y79132D01*
X20338Y79012D01*
X20238Y78922D01*
X20158Y78853D01*
X20108Y78813D01*
X20099Y78803D01*
X20089D01*
X20258Y78763D01*
X20398Y78703D01*
X20528Y78623D01*
X20628Y78553D01*
X20707Y78483D01*
X20767Y78423D01*
X20807Y78393D01*
X20817Y78373D01*
X20907Y78234D01*
X20977Y78074D01*
X21017Y77914D01*
X21057Y77755D01*
X21077Y77615D01*
X21087Y77505D01*
Y77455D01*
Y77425D01*
Y77405D01*
Y77395D01*
X21077Y77225D01*
X21057Y77056D01*
X21007Y76896D01*
X20957Y76736D01*
X20827Y76447D01*
X20757Y76307D01*
X20677Y76187D01*
X20598Y76068D01*
X20528Y75968D01*
X20458Y75878D01*
X20398Y75798D01*
X20348Y75738D01*
X20308Y75698D01*
X20278Y75668D01*
X20268Y75658D01*
X20947Y75798D01*
Y74380D01*
X15387Y73223D01*
Y74720D01*
X17932Y75259D01*
X18052Y75289D01*
X18162Y75309D01*
X18262Y75329D01*
X18352Y75349D01*
X18501Y75389D01*
X18611Y75409D01*
X18691Y75429D01*
X18751Y75449D01*
X18781Y75459D01*
X18791D01*
X18941Y75518D01*
X19070Y75568D01*
X19180Y75628D01*
X19270Y75678D01*
X19350Y75728D01*
X19400Y75768D01*
X19440Y75788D01*
X19450Y75798D01*
X19540Y75878D01*
X19619Y75958D01*
X19689Y76028D01*
X19749Y76108D01*
X19799Y76167D01*
X19829Y76217D01*
X19849Y76247D01*
X19859Y76257D01*
X19909Y76357D01*
X19949Y76447D01*
X19969Y76537D01*
X19989Y76607D01*
X19999Y76677D01*
X20009Y76726D01*
Y76756D01*
Y76766D01*
X19999Y76856D01*
X19989Y76936D01*
X19959Y77006D01*
X19939Y77066D01*
X19909Y77116D01*
X19879Y77146D01*
X19869Y77166D01*
X19859Y77176D01*
X19799Y77225D01*
X19749Y77265D01*
X19679Y77285D01*
X19629Y77305D01*
X19579Y77315D01*
X19540Y77325D01*
X19420D01*
X19310Y77305D01*
X19190Y77285D01*
X19060Y77265D01*
X18941Y77245D01*
X18841Y77225D01*
X18801Y77215D01*
X18781D01*
X18761Y77206D01*
X18751D01*
X15387Y76507D01*
Y78004D01*
X17902Y78533D01*
X18102Y78573D01*
X18282Y78623D01*
X18441Y78663D01*
X18591Y78713D01*
X18731Y78763D01*
X18851Y78803D01*
X18961Y78853D01*
X19060Y78892D01*
X19140Y78932D01*
X19220Y78962D01*
X19280Y79002D01*
X19330Y79032D01*
X19360Y79052D01*
X19390Y79072D01*
X19410Y79082D01*
X19520Y79162D01*
X19609Y79252D01*
X19689Y79342D01*
X19759Y79422D01*
X19819Y79511D01*
X19859Y79591D01*
X19939Y79751D01*
X19979Y79891D01*
X19999Y79991D01*
X20009Y80030D01*
Y80060D01*
Y80080D01*
Y80090D01*
X19999Y80190D01*
X19989Y80270D01*
X19969Y80350D01*
X19939Y80410D01*
X19909Y80450D01*
X19889Y80480D01*
X19879Y80500D01*
X19869Y80510D01*
X19809Y80560D01*
X19749Y80590D01*
X19629Y80629D01*
X19579Y80639D01*
X19540Y80649D01*
X19480D01*
X19440Y80639D01*
X19350Y80619D01*
X19230Y80599D01*
X19110Y80580D01*
X18980Y80549D01*
X18881Y80530D01*
X18841Y80520D01*
X18811D01*
X18791Y80510D01*
X18781D01*
X15387Y79791D01*
Y81288D01*
X18771Y82017D01*
X19021Y82067D01*
X19230Y82107D01*
X19400Y82137D01*
X19540Y82157D01*
X19639Y82167D01*
X19709Y82177D01*
X19769D01*
X19979Y82157D01*
D02*
G37*
G36*
X10008Y79536D02*
X10158Y79506D01*
X10428Y79417D01*
X10657Y79307D01*
X10857Y79197D01*
X10937Y79137D01*
X11007Y79077D01*
X11067Y79027D01*
X11127Y78977D01*
X11166Y78947D01*
X11196Y78917D01*
X11206Y78898D01*
X11216Y78888D01*
X11306Y78778D01*
X11386Y78658D01*
X11456Y78528D01*
X11516Y78398D01*
X11606Y78139D01*
X11676Y77889D01*
X11695Y77769D01*
X11705Y77660D01*
X11716Y77570D01*
X11725Y77480D01*
X11736Y77420D01*
Y77360D01*
Y77330D01*
Y77320D01*
Y77151D01*
X11716Y76991D01*
X11666Y76681D01*
X11586Y76402D01*
X11546Y76272D01*
X11506Y76152D01*
X11456Y76043D01*
X11416Y75953D01*
X11376Y75863D01*
X11336Y75793D01*
X11306Y75743D01*
X11286Y75693D01*
X11276Y75673D01*
X11266Y75663D01*
X11077Y75394D01*
X10867Y75164D01*
X10657Y74974D01*
X10448Y74815D01*
X10268Y74685D01*
X10188Y74635D01*
X10118Y74595D01*
X10068Y74565D01*
X10029Y74545D01*
X9999Y74525D01*
X9989D01*
X9679Y74405D01*
X9380Y74316D01*
X9090Y74246D01*
X8831Y74206D01*
X8711Y74186D01*
X8601Y74176D01*
X8511Y74166D01*
X8431D01*
X8361Y74156D01*
X8272D01*
X8072Y74166D01*
X7882Y74186D01*
X7703Y74216D01*
X7533Y74256D01*
X7373Y74296D01*
X7233Y74356D01*
X7104Y74405D01*
X6984Y74465D01*
X6874Y74525D01*
X6784Y74575D01*
X6704Y74635D01*
X6644Y74675D01*
X6595Y74715D01*
X6555Y74745D01*
X6535Y74765D01*
X6525Y74775D01*
X6415Y74895D01*
X6315Y75024D01*
X6235Y75164D01*
X6165Y75304D01*
X6105Y75444D01*
X6046Y75583D01*
X5976Y75853D01*
X5946Y75973D01*
X5926Y76093D01*
X5916Y76192D01*
X5906Y76282D01*
X5896Y76362D01*
Y76412D01*
Y76452D01*
Y76462D01*
X5906Y76631D01*
X5916Y76801D01*
X5976Y77111D01*
X6056Y77380D01*
X6095Y77510D01*
X6145Y77620D01*
X6195Y77730D01*
X6235Y77819D01*
X6275Y77899D01*
X6315Y77969D01*
X6345Y78019D01*
X6375Y78059D01*
X6385Y78079D01*
X6395Y78089D01*
X6495Y78219D01*
X6605Y78338D01*
X6844Y78558D01*
X7094Y78738D01*
X7333Y78898D01*
X7443Y78957D01*
X7543Y79017D01*
X7643Y79057D01*
X7723Y79097D01*
X7793Y79127D01*
X7842Y79147D01*
X7872Y79167D01*
X7882D01*
X8122Y77710D01*
X7932Y77630D01*
X7772Y77550D01*
X7643Y77460D01*
X7533Y77370D01*
X7443Y77300D01*
X7383Y77241D01*
X7343Y77200D01*
X7333Y77181D01*
X7243Y77051D01*
X7184Y76931D01*
X7134Y76811D01*
X7104Y76701D01*
X7084Y76612D01*
X7074Y76542D01*
Y76502D01*
Y76482D01*
X7084Y76352D01*
X7114Y76232D01*
X7154Y76132D01*
X7204Y76053D01*
X7254Y75983D01*
X7293Y75923D01*
X7323Y75893D01*
X7333Y75883D01*
X7443Y75803D01*
X7563Y75743D01*
X7693Y75703D01*
X7822Y75673D01*
X7932Y75653D01*
X8022Y75643D01*
X8102D01*
X8321Y75653D01*
X8531Y75673D01*
X8741Y75703D01*
X8921Y75743D01*
X9080Y75783D01*
X9150Y75793D01*
X9210Y75813D01*
X9260Y75823D01*
X9290Y75833D01*
X9310Y75843D01*
X9320D01*
X9549Y75923D01*
X9749Y76013D01*
X9919Y76112D01*
X10049Y76202D01*
X10158Y76282D01*
X10238Y76352D01*
X10278Y76392D01*
X10298Y76412D01*
X10408Y76552D01*
X10488Y76701D01*
X10548Y76841D01*
X10588Y76961D01*
X10608Y77071D01*
X10627Y77161D01*
Y77210D01*
Y77231D01*
X10618Y77370D01*
X10588Y77490D01*
X10558Y77590D01*
X10518Y77680D01*
X10468Y77750D01*
X10438Y77800D01*
X10408Y77829D01*
X10398Y77839D01*
X10308Y77919D01*
X10198Y77979D01*
X10088Y78029D01*
X9969Y78069D01*
X9869Y78099D01*
X9789Y78119D01*
X9729Y78129D01*
X9709D01*
X9859Y79556D01*
X10008Y79536D01*
D02*
G37*
G36*
X13712Y72559D02*
X12354Y72279D01*
Y73777D01*
X13712Y74066D01*
Y72559D01*
D02*
G37*
G36*
X11596Y72120D02*
X6036Y70962D01*
Y72459D01*
X11596Y73617D01*
Y72120D01*
D02*
G37*
G36*
X23063Y71885D02*
X21706Y71606D01*
Y73103D01*
X23063Y73392D01*
Y71885D01*
D02*
G37*
G36*
X111712Y68536D02*
X106421Y66130D01*
X111712Y65891D01*
Y63635D01*
X104036Y62038D01*
Y63465D01*
X110444Y64673D01*
X104036Y64962D01*
Y66460D01*
X110404Y69305D01*
X104036Y67977D01*
Y69404D01*
X111712Y70802D01*
Y68536D01*
D02*
G37*
G36*
X114665Y65636D02*
X121063Y66974D01*
Y65387D01*
X113387Y63789D01*
Y69280D01*
X114665Y69549D01*
Y65636D01*
D02*
G37*
G36*
X18891Y88296D02*
X19080Y88276D01*
X19270Y88246D01*
X19440Y88216D01*
X19599Y88166D01*
X19739Y88116D01*
X19869Y88056D01*
X19989Y88006D01*
X20099Y87946D01*
X20188Y87886D01*
X20268Y87837D01*
X20328Y87797D01*
X20378Y87757D01*
X20418Y87727D01*
X20438Y87707D01*
X20448Y87697D01*
X20558Y87577D01*
X20657Y87457D01*
X20747Y87327D01*
X20817Y87188D01*
X20877Y87058D01*
X20927Y86918D01*
X21007Y86669D01*
X21037Y86549D01*
X21057Y86429D01*
X21067Y86339D01*
X21077Y86249D01*
X21087Y86180D01*
Y86130D01*
Y86090D01*
Y86080D01*
X21077Y85790D01*
X21037Y85511D01*
X20977Y85251D01*
X20897Y85022D01*
X20807Y84792D01*
X20707Y84592D01*
X20598Y84413D01*
X20488Y84243D01*
X20368Y84093D01*
X20258Y83973D01*
X20158Y83864D01*
X20069Y83774D01*
X19989Y83704D01*
X19929Y83654D01*
X19889Y83624D01*
X19879Y83614D01*
X19709Y83504D01*
X19530Y83405D01*
X19360Y83325D01*
X19180Y83255D01*
X19010Y83195D01*
X18841Y83135D01*
X18671Y83095D01*
X18521Y83065D01*
X18372Y83035D01*
X18242Y83015D01*
X18122Y83005D01*
X18022Y82995D01*
X17942Y82985D01*
X17833D01*
X17623Y82995D01*
X17413Y83015D01*
X17224Y83045D01*
X17044Y83095D01*
X16884Y83145D01*
X16725Y83205D01*
X16585Y83275D01*
X16455Y83335D01*
X16345Y83405D01*
X16245Y83464D01*
X16156Y83524D01*
X16086Y83574D01*
X16026Y83624D01*
X15986Y83654D01*
X15966Y83674D01*
X15956Y83684D01*
X15836Y83824D01*
X15726Y83963D01*
X15626Y84113D01*
X15547Y84263D01*
X15477Y84413D01*
X15417Y84572D01*
X15377Y84722D01*
X15337Y84862D01*
X15307Y84992D01*
X15287Y85121D01*
X15267Y85231D01*
X15257Y85321D01*
X15247Y85401D01*
Y85461D01*
Y85501D01*
Y85511D01*
X15267Y85810D01*
X15307Y86080D01*
X15377Y86329D01*
X15447Y86549D01*
X15487Y86639D01*
X15517Y86728D01*
X15557Y86798D01*
X15587Y86858D01*
X15606Y86908D01*
X15626Y86948D01*
X15647Y86968D01*
Y86978D01*
X15816Y87218D01*
X16016Y87417D01*
X16215Y87607D01*
X16415Y87757D01*
X16595Y87877D01*
X16675Y87926D01*
X16745Y87966D01*
X16794Y87996D01*
X16834Y88016D01*
X16864Y88036D01*
X16874D01*
X17104Y86689D01*
X16964Y86609D01*
X16844Y86519D01*
X16745Y86419D01*
X16655Y86319D01*
X16575Y86229D01*
X16515Y86130D01*
X16465Y86030D01*
X16425Y85940D01*
X16365Y85770D01*
X16345Y85700D01*
X16335Y85631D01*
Y85581D01*
X16325Y85541D01*
Y85521D01*
Y85511D01*
X16335Y85351D01*
X16375Y85201D01*
X16435Y85071D01*
X16495Y84962D01*
X16555Y84872D01*
X16615Y84802D01*
X16655Y84752D01*
X16665Y84742D01*
X16804Y84632D01*
X16944Y84562D01*
X17094Y84502D01*
X17244Y84463D01*
X17373Y84443D01*
X17473Y84433D01*
X17513Y84423D01*
X17603D01*
X17653Y84433D01*
X17703D01*
Y88196D01*
X17873Y88236D01*
X18032Y88256D01*
X18202Y88276D01*
X18352Y88296D01*
X18481D01*
X18591Y88306D01*
X18681D01*
X18891Y88296D01*
D02*
G37*
G36*
X11626Y84418D02*
X11666Y84288D01*
X11695Y84168D01*
X11716Y84068D01*
X11725Y83978D01*
X11736Y83919D01*
Y83869D01*
Y83859D01*
X11725Y83689D01*
X11686Y83519D01*
X11626Y83359D01*
X11546Y83210D01*
X11456Y83060D01*
X11356Y82910D01*
X11246Y82781D01*
X11136Y82661D01*
X11017Y82551D01*
X10907Y82451D01*
X10807Y82361D01*
X10717Y82291D01*
X10637Y82232D01*
X10577Y82192D01*
X10538Y82162D01*
X10528Y82152D01*
X11596Y82381D01*
Y80974D01*
X6036Y79816D01*
Y81313D01*
X7772Y81673D01*
X7962Y81713D01*
X8142Y81752D01*
X8312Y81792D01*
X8471Y81832D01*
X8611Y81872D01*
X8731Y81912D01*
X8851Y81942D01*
X8950Y81982D01*
X9040Y82012D01*
X9120Y82042D01*
X9180Y82062D01*
X9240Y82082D01*
X9280Y82102D01*
X9310Y82112D01*
X9320Y82122D01*
X9330D01*
X9509Y82212D01*
X9659Y82321D01*
X9799Y82421D01*
X9909Y82521D01*
X9999Y82611D01*
X10068Y82681D01*
X10108Y82731D01*
X10118Y82751D01*
X10218Y82900D01*
X10288Y83040D01*
X10348Y83180D01*
X10378Y83300D01*
X10398Y83399D01*
X10418Y83469D01*
Y83519D01*
Y83539D01*
X10408Y83709D01*
X10398Y83779D01*
X10378Y83849D01*
X10368Y83899D01*
X10348Y83939D01*
X10338Y83968D01*
Y83978D01*
X11566Y84557D01*
X11626Y84418D01*
D02*
G37*
G36*
X9430Y90048D02*
X9629Y90028D01*
X9819Y89998D01*
X9989Y89948D01*
X10148Y89898D01*
X10298Y89838D01*
X10438Y89778D01*
X10568Y89708D01*
X10677Y89648D01*
X10767Y89579D01*
X10857Y89519D01*
X10927Y89469D01*
X10977Y89419D01*
X11017Y89389D01*
X11037Y89369D01*
X11047Y89359D01*
X11166Y89229D01*
X11276Y89079D01*
X11366Y88930D01*
X11446Y88770D01*
X11516Y88610D01*
X11566Y88450D01*
X11616Y88291D01*
X11646Y88141D01*
X11676Y88001D01*
X11695Y87872D01*
X11716Y87752D01*
X11725Y87642D01*
X11736Y87562D01*
Y87492D01*
Y87452D01*
Y87442D01*
X11725Y87183D01*
X11695Y86933D01*
X11646Y86704D01*
X11596Y86484D01*
X11516Y86284D01*
X11446Y86095D01*
X11356Y85925D01*
X11276Y85765D01*
X11186Y85625D01*
X11097Y85506D01*
X11027Y85406D01*
X10957Y85316D01*
X10897Y85246D01*
X10847Y85196D01*
X10817Y85166D01*
X10807Y85156D01*
X10627Y85007D01*
X10438Y84867D01*
X10238Y84757D01*
X10038Y84657D01*
X9829Y84567D01*
X9619Y84497D01*
X9420Y84448D01*
X9230Y84398D01*
X9050Y84358D01*
X8881Y84338D01*
X8731Y84318D01*
X8601Y84298D01*
X8491D01*
X8411Y84288D01*
X8342D01*
X8092Y84298D01*
X7862Y84338D01*
X7653Y84378D01*
X7463Y84438D01*
X7313Y84487D01*
X7254Y84508D01*
X7194Y84537D01*
X7154Y84547D01*
X7124Y84567D01*
X7104Y84577D01*
X7094D01*
X6894Y84707D01*
X6714Y84847D01*
X6565Y84997D01*
X6435Y85146D01*
X6335Y85276D01*
X6265Y85386D01*
X6235Y85426D01*
X6225Y85456D01*
X6205Y85476D01*
Y85486D01*
X6105Y85725D01*
X6026Y85955D01*
X5976Y86194D01*
X5936Y86404D01*
X5916Y86594D01*
X5906Y86674D01*
Y86743D01*
X5896Y86793D01*
Y86843D01*
Y86863D01*
Y86873D01*
X5906Y87143D01*
X5936Y87392D01*
X5986Y87632D01*
X6046Y87851D01*
X6126Y88061D01*
X6205Y88251D01*
X6295Y88420D01*
X6385Y88580D01*
X6475Y88720D01*
X6565Y88840D01*
X6644Y88950D01*
X6724Y89029D01*
X6784Y89099D01*
X6834Y89149D01*
X6864Y89179D01*
X6874Y89189D01*
X7064Y89339D01*
X7263Y89479D01*
X7453Y89588D01*
X7663Y89688D01*
X7852Y89778D01*
X8052Y89848D01*
X8242Y89908D01*
X8421Y89948D01*
X8581Y89988D01*
X8741Y90008D01*
X8871Y90028D01*
X8990Y90048D01*
X9090D01*
X9160Y90058D01*
X9220D01*
X9430Y90048D01*
D02*
G37*
G36*
X20947Y71446D02*
X15387Y70288D01*
Y71785D01*
X20947Y72943D01*
Y71446D01*
D02*
G37*
G36*
X87034Y73391D02*
X87363Y73331D01*
X87663Y73256D01*
X87918Y73182D01*
X88128Y73092D01*
X88278Y73017D01*
X88337Y72987D01*
X88382Y72957D01*
X88397Y72942D01*
X88412D01*
X88667Y72762D01*
X88877Y72567D01*
X89042Y72372D01*
X89177Y72177D01*
X89282Y72013D01*
X89341Y71878D01*
X89387Y71788D01*
X89401Y71773D01*
Y71758D01*
X89491Y71458D01*
X89566Y71128D01*
X89611Y70784D01*
X89656Y70454D01*
X89671Y70154D01*
Y70034D01*
X89686Y69929D01*
Y69825D01*
Y69765D01*
Y69720D01*
Y69705D01*
Y64580D01*
X78162Y62182D01*
Y64550D01*
X82942Y65554D01*
Y66513D01*
X82928Y66812D01*
X82913Y67052D01*
X82868Y67262D01*
X82823Y67427D01*
X82778Y67547D01*
X82748Y67637D01*
X82718Y67682D01*
X82703Y67697D01*
X82628Y67801D01*
X82538Y67906D01*
X82313Y68086D01*
X82058Y68266D01*
X81819Y68416D01*
X81579Y68551D01*
X81474Y68596D01*
X81384Y68641D01*
X81309Y68686D01*
X81249Y68716D01*
X81219Y68731D01*
X81204D01*
X80829Y68896D01*
X80485Y69045D01*
X80155Y69180D01*
X79855Y69300D01*
X79586Y69405D01*
X79331Y69510D01*
X79106Y69600D01*
X78911Y69675D01*
X78731Y69735D01*
X78582Y69795D01*
X78447Y69840D01*
X78342Y69885D01*
X78267Y69914D01*
X78207Y69929D01*
X78177Y69945D01*
X78162D01*
Y72492D01*
X78611Y72312D01*
X79031Y72133D01*
X79421Y71968D01*
X79795Y71803D01*
X80140Y71638D01*
X80440Y71503D01*
X80725Y71368D01*
X80994Y71233D01*
X81219Y71128D01*
X81414Y71024D01*
X81579Y70934D01*
X81714Y70859D01*
X81833Y70799D01*
X81908Y70754D01*
X81953Y70739D01*
X81968Y70724D01*
X82208Y70574D01*
X82418Y70424D01*
X82613Y70274D01*
X82763Y70139D01*
X82882Y70019D01*
X82972Y69929D01*
X83032Y69870D01*
X83047Y69855D01*
X83107Y70184D01*
X83167Y70484D01*
X83242Y70769D01*
X83332Y71024D01*
X83422Y71263D01*
X83527Y71488D01*
X83632Y71683D01*
X83737Y71863D01*
X83827Y72013D01*
X83917Y72147D01*
X84007Y72267D01*
X84081Y72357D01*
X84141Y72432D01*
X84186Y72477D01*
X84216Y72507D01*
X84231Y72522D01*
X84411Y72672D01*
X84606Y72822D01*
X84816Y72927D01*
X85010Y73032D01*
X85220Y73122D01*
X85415Y73197D01*
X85805Y73301D01*
X85985Y73331D01*
X86150Y73361D01*
X86284Y73376D01*
X86419Y73391D01*
X86524Y73406D01*
X86659D01*
X87034Y73391D01*
D02*
G37*
G36*
X66236Y77445D02*
X64063Y77010D01*
Y79243D01*
X66236Y79678D01*
Y77445D01*
D02*
G37*
G36*
X75647Y74163D02*
X75333Y73848D01*
X75033Y73504D01*
X74748Y73159D01*
X74463Y72784D01*
X74209Y72410D01*
X73969Y72035D01*
X73744Y71660D01*
X73534Y71301D01*
X73340Y70971D01*
X73175Y70656D01*
X73025Y70372D01*
X72905Y70132D01*
X72815Y69937D01*
X72740Y69787D01*
X72710Y69727D01*
X72695Y69682D01*
X72680Y69667D01*
Y69652D01*
X70672Y69233D01*
X70732Y69502D01*
X70822Y69787D01*
X70912Y70072D01*
X70987Y70327D01*
X71077Y70536D01*
X71136Y70716D01*
X71167Y70776D01*
X71182Y70821D01*
X71196Y70851D01*
Y70866D01*
X71346Y71211D01*
X71481Y71511D01*
X71631Y71795D01*
X71751Y72035D01*
X71871Y72230D01*
X71961Y72380D01*
X71991Y72425D01*
X72021Y72470D01*
X72036Y72485D01*
Y72500D01*
X64063Y70836D01*
Y73099D01*
X75647Y75527D01*
Y74163D01*
D02*
G37*
G36*
X86689Y61597D02*
X86974Y61537D01*
X87228Y61462D01*
X87468Y61388D01*
X87693Y61283D01*
X87903Y61193D01*
X88098Y61073D01*
X88263Y60968D01*
X88427Y60863D01*
X88562Y60758D01*
X88667Y60653D01*
X88772Y60578D01*
X88847Y60503D01*
X88892Y60443D01*
X88922Y60413D01*
X88937Y60398D01*
X89102Y60174D01*
X89252Y59949D01*
X89387Y59694D01*
X89491Y59439D01*
X89581Y59185D01*
X89656Y58915D01*
X89776Y58405D01*
X89821Y58180D01*
X89851Y57956D01*
X89866Y57761D01*
X89881Y57581D01*
X89896Y57446D01*
Y57341D01*
Y57281D01*
Y57251D01*
X89881Y56892D01*
X89851Y56547D01*
X89806Y56232D01*
X89746Y55933D01*
X89671Y55663D01*
X89581Y55408D01*
X89506Y55183D01*
X89416Y54988D01*
X89312Y54809D01*
X89237Y54644D01*
X89147Y54509D01*
X89072Y54404D01*
X89012Y54314D01*
X88967Y54254D01*
X88937Y54224D01*
X88922Y54209D01*
X88742Y54029D01*
X88547Y53864D01*
X88337Y53730D01*
X88143Y53610D01*
X87933Y53505D01*
X87738Y53415D01*
X87543Y53340D01*
X87363Y53295D01*
X87184Y53250D01*
X87019Y53220D01*
X86869Y53190D01*
X86749Y53175D01*
X86644Y53160D01*
X86509D01*
X86209Y53175D01*
X85925Y53220D01*
X85670Y53265D01*
X85460Y53340D01*
X85280Y53400D01*
X85145Y53445D01*
X85070Y53490D01*
X85041Y53505D01*
X84816Y53655D01*
X84621Y53805D01*
X84456Y53969D01*
X84306Y54134D01*
X84186Y54269D01*
X84111Y54374D01*
X84051Y54449D01*
X84037Y54479D01*
X83961Y54599D01*
X83887Y54749D01*
X83722Y55048D01*
X83557Y55378D01*
X83407Y55693D01*
X83272Y55992D01*
X83212Y56112D01*
X83167Y56217D01*
X83122Y56322D01*
X83092Y56382D01*
X83062Y56427D01*
Y56442D01*
X82957Y56682D01*
X82853Y56907D01*
X82763Y57101D01*
X82688Y57266D01*
X82613Y57416D01*
X82538Y57551D01*
X82478Y57671D01*
X82418Y57776D01*
X82373Y57851D01*
X82328Y57926D01*
X82268Y58031D01*
X82238Y58076D01*
X82223Y58091D01*
X82088Y58240D01*
X81938Y58345D01*
X81789Y58420D01*
X81654Y58465D01*
X81534Y58510D01*
X81444Y58525D01*
X81354D01*
X81144Y58510D01*
X80949Y58450D01*
X80770Y58360D01*
X80620Y58270D01*
X80500Y58165D01*
X80410Y58091D01*
X80350Y58031D01*
X80335Y58001D01*
X80260Y57896D01*
X80200Y57776D01*
X80095Y57521D01*
X80035Y57236D01*
X79975Y56952D01*
X79945Y56712D01*
Y56592D01*
X79930Y56502D01*
Y56412D01*
Y56352D01*
Y56322D01*
Y56307D01*
Y56052D01*
X79960Y55828D01*
X79990Y55618D01*
X80020Y55423D01*
X80065Y55243D01*
X80125Y55093D01*
X80170Y54943D01*
X80230Y54824D01*
X80290Y54719D01*
X80335Y54629D01*
X80395Y54554D01*
X80440Y54494D01*
X80500Y54419D01*
X80530Y54389D01*
X80605Y54329D01*
X80710Y54284D01*
X80919Y54194D01*
X81159Y54134D01*
X81414Y54089D01*
X81639Y54059D01*
X81819Y54044D01*
X81894Y54029D01*
X81998D01*
X81878Y51767D01*
X81459D01*
X81069Y51811D01*
X80725Y51871D01*
X80425Y51946D01*
X80290Y51991D01*
X80170Y52036D01*
X80065Y52066D01*
X79990Y52096D01*
X79915Y52126D01*
X79870Y52156D01*
X79840Y52171D01*
X79825D01*
X79661Y52261D01*
X79511Y52366D01*
X79241Y52606D01*
X79001Y52860D01*
X78806Y53115D01*
X78657Y53340D01*
X78582Y53445D01*
X78537Y53535D01*
X78492Y53610D01*
X78477Y53670D01*
X78447Y53700D01*
Y53715D01*
X78282Y54134D01*
X78162Y54584D01*
X78072Y55019D01*
X78012Y55408D01*
X77997Y55603D01*
X77982Y55768D01*
X77967Y55918D01*
Y56038D01*
X77952Y56142D01*
Y56232D01*
Y56277D01*
Y56292D01*
X77967Y56682D01*
X77997Y57057D01*
X78057Y57401D01*
X78117Y57716D01*
X78207Y58016D01*
X78297Y58300D01*
X78387Y58555D01*
X78492Y58780D01*
X78597Y58975D01*
X78686Y59155D01*
X78776Y59304D01*
X78866Y59424D01*
X78926Y59529D01*
X78986Y59589D01*
X79016Y59634D01*
X79031Y59649D01*
X79241Y59859D01*
X79451Y60054D01*
X79675Y60219D01*
X79900Y60353D01*
X80110Y60473D01*
X80335Y60563D01*
X80545Y60653D01*
X80739Y60713D01*
X80934Y60758D01*
X81099Y60803D01*
X81249Y60833D01*
X81384Y60848D01*
X81489D01*
X81579Y60863D01*
X81639D01*
X81863Y60848D01*
X82088Y60833D01*
X82478Y60728D01*
X82838Y60608D01*
X83122Y60458D01*
X83257Y60368D01*
X83362Y60293D01*
X83452Y60234D01*
X83527Y60174D01*
X83602Y60114D01*
X83647Y60069D01*
X83662Y60054D01*
X83677Y60039D01*
X83782Y59919D01*
X83887Y59769D01*
X84007Y59604D01*
X84111Y59409D01*
X84351Y59005D01*
X84576Y58570D01*
X84681Y58360D01*
X84771Y58165D01*
X84861Y57986D01*
X84921Y57821D01*
X84981Y57701D01*
X85026Y57596D01*
X85056Y57536D01*
X85070Y57506D01*
X85175Y57266D01*
X85280Y57057D01*
X85370Y56862D01*
X85445Y56682D01*
X85535Y56532D01*
X85610Y56382D01*
X85670Y56262D01*
X85730Y56157D01*
X85790Y56068D01*
X85835Y55992D01*
X85910Y55873D01*
X85955Y55813D01*
X85970Y55798D01*
X86104Y55678D01*
X86239Y55588D01*
X86374Y55513D01*
X86509Y55468D01*
X86614Y55438D01*
X86719Y55423D01*
X86794D01*
X86989Y55438D01*
X87154Y55483D01*
X87303Y55558D01*
X87423Y55633D01*
X87528Y55708D01*
X87603Y55783D01*
X87648Y55828D01*
X87663Y55843D01*
X87783Y56023D01*
X87873Y56232D01*
X87933Y56472D01*
X87978Y56697D01*
X88008Y56907D01*
X88023Y57071D01*
Y57147D01*
Y57191D01*
Y57221D01*
Y57236D01*
X88008Y57596D01*
X87948Y57896D01*
X87888Y58151D01*
X87798Y58375D01*
X87723Y58540D01*
X87648Y58660D01*
X87588Y58720D01*
X87573Y58750D01*
X87393Y58930D01*
X87198Y59065D01*
X86989Y59170D01*
X86779Y59244D01*
X86599Y59289D01*
X86449Y59334D01*
X86389D01*
X86344Y59349D01*
X86314D01*
X86404Y61627D01*
X86689Y61597D01*
D02*
G37*
G36*
X72410Y65891D02*
X68889Y63808D01*
X68844Y63778D01*
X68784Y63748D01*
X68634Y63673D01*
X68469Y63583D01*
X68274Y63478D01*
X68094Y63388D01*
X67944Y63298D01*
X67899Y63268D01*
X67855Y63238D01*
X67825Y63223D01*
X67810D01*
X67660Y63133D01*
X67510Y63058D01*
X67390Y62998D01*
X67285Y62939D01*
X67105Y62834D01*
X66970Y62774D01*
X66895Y62714D01*
X66835Y62684D01*
X66806Y62669D01*
X66911Y62654D01*
X67030Y62639D01*
X67165Y62624D01*
X67315Y62609D01*
X67645Y62564D01*
X67975Y62504D01*
X68274Y62459D01*
X68409Y62444D01*
X68529Y62429D01*
X68634Y62414D01*
X68709Y62399D01*
X68754Y62384D01*
X68769D01*
X72410Y61800D01*
Y59582D01*
X64063Y61245D01*
Y63193D01*
X72410Y68334D01*
Y65891D01*
D02*
G37*
G36*
X13712Y68536D02*
X8421Y66130D01*
X13712Y65891D01*
Y63635D01*
X6036Y62038D01*
Y63465D01*
X12444Y64673D01*
X6036Y64962D01*
Y66460D01*
X12404Y69305D01*
X6036Y67977D01*
Y69404D01*
X13712Y70802D01*
Y68536D01*
D02*
G37*
G36*
X16665Y65636D02*
X23063Y66974D01*
Y65387D01*
X15387Y63789D01*
Y69280D01*
X16665Y69549D01*
Y65636D01*
D02*
G37*
G36*
X89686Y93353D02*
X81744Y89741D01*
X89686Y89381D01*
Y85995D01*
X78162Y83597D01*
Y85740D01*
X87783Y87553D01*
X78162Y87988D01*
Y90236D01*
X87723Y94507D01*
X78162Y92513D01*
Y94656D01*
X89686Y96755D01*
Y93353D01*
D02*
G37*
G36*
Y76134D02*
X78162Y73736D01*
Y76104D01*
X83077Y77123D01*
Y82698D01*
X84996Y83102D01*
Y77527D01*
X87768Y78112D01*
Y83792D01*
X89686Y84196D01*
Y76134D01*
D02*
G37*
G36*
X75647Y87576D02*
X75333Y87261D01*
X75033Y86916D01*
X74748Y86572D01*
X74463Y86197D01*
X74209Y85822D01*
X73969Y85448D01*
X73744Y85073D01*
X73534Y84713D01*
X73340Y84383D01*
X73175Y84069D01*
X73025Y83784D01*
X72905Y83544D01*
X72815Y83350D01*
X72740Y83200D01*
X72710Y83140D01*
X72695Y83095D01*
X72680Y83080D01*
Y83065D01*
X70672Y82645D01*
X70732Y82915D01*
X70822Y83200D01*
X70912Y83484D01*
X70987Y83739D01*
X71077Y83949D01*
X71136Y84129D01*
X71167Y84189D01*
X71182Y84234D01*
X71196Y84264D01*
Y84279D01*
X71346Y84623D01*
X71481Y84923D01*
X71631Y85208D01*
X71751Y85448D01*
X71871Y85642D01*
X71961Y85792D01*
X71991Y85837D01*
X72021Y85882D01*
X72036Y85897D01*
Y85912D01*
X64063Y84249D01*
Y86511D01*
X75647Y88939D01*
Y87576D01*
D02*
G37*
G36*
X118947Y71446D02*
X113387Y70288D01*
Y71785D01*
X118947Y72943D01*
Y71446D01*
D02*
G37*
G36*
X184689Y61597D02*
X184974Y61537D01*
X185228Y61462D01*
X185468Y61388D01*
X185693Y61283D01*
X185903Y61193D01*
X186098Y61073D01*
X186262Y60968D01*
X186427Y60863D01*
X186562Y60758D01*
X186667Y60653D01*
X186772Y60578D01*
X186847Y60503D01*
X186892Y60443D01*
X186922Y60413D01*
X186937Y60399D01*
X187102Y60174D01*
X187251Y59949D01*
X187386Y59694D01*
X187491Y59439D01*
X187581Y59185D01*
X187656Y58915D01*
X187776Y58405D01*
X187821Y58181D01*
X187851Y57956D01*
X187866Y57761D01*
X187881Y57581D01*
X187896Y57446D01*
Y57341D01*
Y57281D01*
Y57251D01*
X187881Y56892D01*
X187851Y56547D01*
X187806Y56232D01*
X187746Y55933D01*
X187671Y55663D01*
X187581Y55408D01*
X187506Y55183D01*
X187416Y54988D01*
X187311Y54809D01*
X187236Y54644D01*
X187147Y54509D01*
X187072Y54404D01*
X187012Y54314D01*
X186967Y54254D01*
X186937Y54224D01*
X186922Y54209D01*
X186742Y54029D01*
X186547Y53865D01*
X186337Y53730D01*
X186143Y53610D01*
X185933Y53505D01*
X185738Y53415D01*
X185543Y53340D01*
X185363Y53295D01*
X185183Y53250D01*
X185019Y53220D01*
X184869Y53190D01*
X184749Y53175D01*
X184644Y53160D01*
X184509D01*
X184209Y53175D01*
X183925Y53220D01*
X183670Y53265D01*
X183460Y53340D01*
X183280Y53400D01*
X183145Y53445D01*
X183070Y53490D01*
X183040Y53505D01*
X182816Y53655D01*
X182621Y53805D01*
X182456Y53969D01*
X182306Y54134D01*
X182186Y54269D01*
X182111Y54374D01*
X182051Y54449D01*
X182036Y54479D01*
X181961Y54599D01*
X181887Y54749D01*
X181722Y55048D01*
X181557Y55378D01*
X181407Y55693D01*
X181272Y55993D01*
X181212Y56112D01*
X181167Y56217D01*
X181122Y56322D01*
X181092Y56382D01*
X181062Y56427D01*
Y56442D01*
X180957Y56682D01*
X180852Y56907D01*
X180763Y57102D01*
X180688Y57266D01*
X180613Y57416D01*
X180538Y57551D01*
X180478Y57671D01*
X180418Y57776D01*
X180373Y57851D01*
X180328Y57926D01*
X180268Y58031D01*
X180238Y58076D01*
X180223Y58091D01*
X180088Y58240D01*
X179938Y58345D01*
X179788Y58420D01*
X179654Y58465D01*
X179534Y58510D01*
X179444Y58525D01*
X179354D01*
X179144Y58510D01*
X178949Y58450D01*
X178769Y58360D01*
X178619Y58271D01*
X178500Y58166D01*
X178410Y58091D01*
X178350Y58031D01*
X178335Y58001D01*
X178260Y57896D01*
X178200Y57776D01*
X178095Y57521D01*
X178035Y57236D01*
X177975Y56952D01*
X177945Y56712D01*
Y56592D01*
X177930Y56502D01*
Y56412D01*
Y56352D01*
Y56322D01*
Y56307D01*
Y56052D01*
X177960Y55828D01*
X177990Y55618D01*
X178020Y55423D01*
X178065Y55243D01*
X178125Y55093D01*
X178170Y54944D01*
X178230Y54824D01*
X178290Y54719D01*
X178335Y54629D01*
X178395Y54554D01*
X178440Y54494D01*
X178500Y54419D01*
X178530Y54389D01*
X178605Y54329D01*
X178709Y54284D01*
X178919Y54194D01*
X179159Y54134D01*
X179414Y54089D01*
X179639Y54059D01*
X179818Y54044D01*
X179893Y54029D01*
X179998D01*
X179878Y51767D01*
X179459D01*
X179069Y51811D01*
X178724Y51871D01*
X178425Y51946D01*
X178290Y51991D01*
X178170Y52036D01*
X178065Y52066D01*
X177990Y52096D01*
X177915Y52126D01*
X177870Y52156D01*
X177840Y52171D01*
X177825D01*
X177660Y52261D01*
X177511Y52366D01*
X177241Y52606D01*
X177001Y52860D01*
X176806Y53115D01*
X176656Y53340D01*
X176581Y53445D01*
X176537Y53535D01*
X176492Y53610D01*
X176476Y53670D01*
X176447Y53700D01*
Y53715D01*
X176282Y54134D01*
X176162Y54584D01*
X176072Y55019D01*
X176012Y55408D01*
X175997Y55603D01*
X175982Y55768D01*
X175967Y55918D01*
Y56038D01*
X175952Y56143D01*
Y56232D01*
Y56277D01*
Y56292D01*
X175967Y56682D01*
X175997Y57057D01*
X176057Y57401D01*
X176117Y57716D01*
X176207Y58016D01*
X176297Y58300D01*
X176387Y58555D01*
X176492Y58780D01*
X176596Y58975D01*
X176686Y59155D01*
X176776Y59304D01*
X176866Y59424D01*
X176926Y59529D01*
X176986Y59589D01*
X177016Y59634D01*
X177031Y59649D01*
X177241Y59859D01*
X177451Y60054D01*
X177675Y60219D01*
X177900Y60353D01*
X178110Y60473D01*
X178335Y60563D01*
X178545Y60653D01*
X178739Y60713D01*
X178934Y60758D01*
X179099Y60803D01*
X179249Y60833D01*
X179384Y60848D01*
X179489D01*
X179579Y60863D01*
X179639D01*
X179863Y60848D01*
X180088Y60833D01*
X180478Y60728D01*
X180837Y60608D01*
X181122Y60458D01*
X181257Y60368D01*
X181362Y60294D01*
X181452Y60234D01*
X181527Y60174D01*
X181602Y60114D01*
X181647Y60069D01*
X181662Y60054D01*
X181677Y60039D01*
X181782Y59919D01*
X181887Y59769D01*
X182006Y59604D01*
X182111Y59409D01*
X182351Y59005D01*
X182576Y58570D01*
X182681Y58360D01*
X182771Y58166D01*
X182861Y57986D01*
X182920Y57821D01*
X182980Y57701D01*
X183025Y57596D01*
X183055Y57536D01*
X183070Y57506D01*
X183175Y57266D01*
X183280Y57057D01*
X183370Y56862D01*
X183445Y56682D01*
X183535Y56532D01*
X183610Y56382D01*
X183670Y56262D01*
X183730Y56157D01*
X183790Y56068D01*
X183835Y55993D01*
X183910Y55873D01*
X183955Y55813D01*
X183969Y55798D01*
X184104Y55678D01*
X184239Y55588D01*
X184374Y55513D01*
X184509Y55468D01*
X184614Y55438D01*
X184719Y55423D01*
X184794D01*
X184989Y55438D01*
X185153Y55483D01*
X185303Y55558D01*
X185423Y55633D01*
X185528Y55708D01*
X185603Y55783D01*
X185648Y55828D01*
X185663Y55843D01*
X185783Y56023D01*
X185873Y56232D01*
X185933Y56472D01*
X185978Y56697D01*
X186008Y56907D01*
X186023Y57072D01*
Y57147D01*
Y57192D01*
Y57221D01*
Y57236D01*
X186008Y57596D01*
X185948Y57896D01*
X185888Y58151D01*
X185798Y58375D01*
X185723Y58540D01*
X185648Y58660D01*
X185588Y58720D01*
X185573Y58750D01*
X185393Y58930D01*
X185198Y59065D01*
X184989Y59170D01*
X184779Y59245D01*
X184599Y59289D01*
X184449Y59335D01*
X184389D01*
X184344Y59349D01*
X184314D01*
X184404Y61627D01*
X184689Y61597D01*
D02*
G37*
G36*
X170410Y65891D02*
X166889Y63808D01*
X166843Y63778D01*
X166784Y63748D01*
X166634Y63673D01*
X166469Y63583D01*
X166274Y63478D01*
X166094Y63388D01*
X165944Y63298D01*
X165899Y63268D01*
X165854Y63238D01*
X165825Y63223D01*
X165809D01*
X165660Y63133D01*
X165510Y63059D01*
X165390Y62999D01*
X165285Y62939D01*
X165105Y62834D01*
X164970Y62774D01*
X164895Y62714D01*
X164835Y62684D01*
X164805Y62669D01*
X164910Y62654D01*
X165030Y62639D01*
X165165Y62624D01*
X165315Y62609D01*
X165645Y62564D01*
X165974Y62504D01*
X166274Y62459D01*
X166409Y62444D01*
X166529Y62429D01*
X166634Y62414D01*
X166709Y62399D01*
X166754Y62384D01*
X166769D01*
X170410Y61800D01*
Y59582D01*
X162063Y61245D01*
Y63193D01*
X170410Y68334D01*
Y65891D01*
D02*
G37*
G36*
X116891Y88296D02*
X117080Y88276D01*
X117270Y88246D01*
X117440Y88216D01*
X117599Y88166D01*
X117739Y88116D01*
X117869Y88056D01*
X117989Y88006D01*
X118098Y87946D01*
X118188Y87886D01*
X118268Y87837D01*
X118328Y87797D01*
X118378Y87757D01*
X118418Y87727D01*
X118438Y87707D01*
X118448Y87697D01*
X118558Y87577D01*
X118658Y87457D01*
X118747Y87327D01*
X118817Y87188D01*
X118877Y87058D01*
X118927Y86918D01*
X119007Y86669D01*
X119037Y86549D01*
X119057Y86429D01*
X119067Y86339D01*
X119077Y86249D01*
X119087Y86180D01*
Y86130D01*
Y86090D01*
Y86080D01*
X119077Y85790D01*
X119037Y85511D01*
X118977Y85251D01*
X118897Y85021D01*
X118807Y84792D01*
X118707Y84592D01*
X118598Y84413D01*
X118488Y84243D01*
X118368Y84093D01*
X118258Y83973D01*
X118158Y83864D01*
X118069Y83774D01*
X117989Y83704D01*
X117929Y83654D01*
X117889Y83624D01*
X117879Y83614D01*
X117709Y83504D01*
X117529Y83404D01*
X117360Y83325D01*
X117180Y83255D01*
X117010Y83195D01*
X116841Y83135D01*
X116671Y83095D01*
X116521Y83065D01*
X116372Y83035D01*
X116242Y83015D01*
X116122Y83005D01*
X116022Y82995D01*
X115942Y82985D01*
X115833D01*
X115623Y82995D01*
X115413Y83015D01*
X115224Y83045D01*
X115044Y83095D01*
X114884Y83145D01*
X114725Y83205D01*
X114585Y83275D01*
X114455Y83335D01*
X114345Y83404D01*
X114245Y83464D01*
X114156Y83524D01*
X114086Y83574D01*
X114026Y83624D01*
X113986Y83654D01*
X113966Y83674D01*
X113956Y83684D01*
X113836Y83824D01*
X113726Y83963D01*
X113626Y84113D01*
X113547Y84263D01*
X113477Y84413D01*
X113417Y84572D01*
X113377Y84722D01*
X113337Y84862D01*
X113307Y84992D01*
X113287Y85121D01*
X113267Y85231D01*
X113257Y85321D01*
X113247Y85401D01*
Y85461D01*
Y85501D01*
Y85511D01*
X113267Y85810D01*
X113307Y86080D01*
X113377Y86329D01*
X113447Y86549D01*
X113487Y86639D01*
X113517Y86728D01*
X113557Y86798D01*
X113587Y86858D01*
X113607Y86908D01*
X113626Y86948D01*
X113646Y86968D01*
Y86978D01*
X113816Y87218D01*
X114016Y87417D01*
X114215Y87607D01*
X114415Y87757D01*
X114595Y87877D01*
X114675Y87926D01*
X114745Y87966D01*
X114794Y87996D01*
X114834Y88016D01*
X114864Y88036D01*
X114874D01*
X115104Y86689D01*
X114964Y86609D01*
X114844Y86519D01*
X114745Y86419D01*
X114655Y86319D01*
X114575Y86229D01*
X114515Y86130D01*
X114465Y86030D01*
X114425Y85940D01*
X114365Y85770D01*
X114345Y85700D01*
X114335Y85631D01*
Y85581D01*
X114325Y85541D01*
Y85521D01*
Y85511D01*
X114335Y85351D01*
X114375Y85201D01*
X114435Y85071D01*
X114495Y84962D01*
X114555Y84872D01*
X114615Y84802D01*
X114655Y84752D01*
X114665Y84742D01*
X114804Y84632D01*
X114944Y84562D01*
X115094Y84502D01*
X115244Y84462D01*
X115373Y84443D01*
X115473Y84433D01*
X115513Y84423D01*
X115603D01*
X115653Y84433D01*
X115703D01*
Y88196D01*
X115872Y88236D01*
X116032Y88256D01*
X116202Y88276D01*
X116352Y88296D01*
X116481D01*
X116591Y88306D01*
X116681D01*
X116891Y88296D01*
D02*
G37*
G36*
X187686Y93353D02*
X179743Y89741D01*
X187686Y89381D01*
Y85995D01*
X176162Y83597D01*
Y85740D01*
X185783Y87553D01*
X176162Y87988D01*
Y90236D01*
X185723Y94507D01*
X176162Y92514D01*
Y94656D01*
X187686Y96755D01*
Y93353D01*
D02*
G37*
G36*
X173647Y87576D02*
X173333Y87261D01*
X173033Y86916D01*
X172748Y86572D01*
X172463Y86197D01*
X172208Y85822D01*
X171969Y85448D01*
X171744Y85073D01*
X171534Y84713D01*
X171339Y84384D01*
X171175Y84069D01*
X171025Y83784D01*
X170905Y83544D01*
X170815Y83350D01*
X170740Y83200D01*
X170710Y83140D01*
X170695Y83095D01*
X170680Y83080D01*
Y83065D01*
X168672Y82645D01*
X168732Y82915D01*
X168822Y83200D01*
X168912Y83484D01*
X168986Y83739D01*
X169076Y83949D01*
X169136Y84129D01*
X169166Y84189D01*
X169181Y84234D01*
X169196Y84264D01*
Y84279D01*
X169346Y84623D01*
X169481Y84923D01*
X169631Y85208D01*
X169751Y85448D01*
X169871Y85642D01*
X169961Y85792D01*
X169991Y85837D01*
X170021Y85882D01*
X170036Y85897D01*
Y85912D01*
X162063Y84249D01*
Y86512D01*
X173647Y88939D01*
Y87576D01*
D02*
G37*
G36*
X164236Y77445D02*
X162063Y77010D01*
Y79243D01*
X164236Y79678D01*
Y77445D01*
D02*
G37*
G36*
X187686Y76134D02*
X176162Y73736D01*
Y76104D01*
X181077Y77123D01*
Y82698D01*
X182995Y83102D01*
Y77527D01*
X185768Y78112D01*
Y83792D01*
X187686Y84196D01*
Y76134D01*
D02*
G37*
G36*
X173647Y74163D02*
X173333Y73848D01*
X173033Y73504D01*
X172748Y73159D01*
X172463Y72784D01*
X172208Y72410D01*
X171969Y72035D01*
X171744Y71660D01*
X171534Y71301D01*
X171339Y70971D01*
X171175Y70656D01*
X171025Y70372D01*
X170905Y70132D01*
X170815Y69937D01*
X170740Y69787D01*
X170710Y69727D01*
X170695Y69682D01*
X170680Y69667D01*
Y69652D01*
X168672Y69233D01*
X168732Y69503D01*
X168822Y69787D01*
X168912Y70072D01*
X168986Y70327D01*
X169076Y70536D01*
X169136Y70716D01*
X169166Y70776D01*
X169181Y70821D01*
X169196Y70851D01*
Y70866D01*
X169346Y71211D01*
X169481Y71511D01*
X169631Y71795D01*
X169751Y72035D01*
X169871Y72230D01*
X169961Y72380D01*
X169991Y72425D01*
X170021Y72470D01*
X170036Y72485D01*
Y72500D01*
X162063Y70836D01*
Y73099D01*
X173647Y75527D01*
Y74163D01*
D02*
G37*
G36*
X185033Y73391D02*
X185363Y73331D01*
X185663Y73257D01*
X185918Y73182D01*
X186127Y73092D01*
X186277Y73017D01*
X186337Y72987D01*
X186382Y72957D01*
X186397Y72942D01*
X186412D01*
X186667Y72762D01*
X186877Y72567D01*
X187042Y72372D01*
X187176Y72178D01*
X187281Y72013D01*
X187341Y71878D01*
X187386Y71788D01*
X187401Y71773D01*
Y71758D01*
X187491Y71458D01*
X187566Y71129D01*
X187611Y70784D01*
X187656Y70454D01*
X187671Y70154D01*
Y70034D01*
X187686Y69930D01*
Y69825D01*
Y69765D01*
Y69720D01*
Y69705D01*
Y64580D01*
X176162Y62182D01*
Y64550D01*
X180942Y65554D01*
Y66513D01*
X180927Y66813D01*
X180912Y67052D01*
X180867Y67262D01*
X180823Y67427D01*
X180777Y67547D01*
X180748Y67637D01*
X180718Y67682D01*
X180703Y67697D01*
X180628Y67802D01*
X180538Y67906D01*
X180313Y68086D01*
X180058Y68266D01*
X179818Y68416D01*
X179579Y68551D01*
X179474Y68596D01*
X179384Y68641D01*
X179309Y68686D01*
X179249Y68716D01*
X179219Y68731D01*
X179204D01*
X178829Y68896D01*
X178485Y69045D01*
X178155Y69180D01*
X177855Y69300D01*
X177586Y69405D01*
X177331Y69510D01*
X177106Y69600D01*
X176911Y69675D01*
X176731Y69735D01*
X176581Y69795D01*
X176447Y69840D01*
X176342Y69885D01*
X176267Y69915D01*
X176207Y69930D01*
X176177Y69945D01*
X176162D01*
Y72492D01*
X176611Y72312D01*
X177031Y72133D01*
X177421Y71968D01*
X177795Y71803D01*
X178140Y71638D01*
X178440Y71503D01*
X178724Y71368D01*
X178994Y71233D01*
X179219Y71129D01*
X179414Y71024D01*
X179579Y70934D01*
X179713Y70859D01*
X179833Y70799D01*
X179908Y70754D01*
X179953Y70739D01*
X179968Y70724D01*
X180208Y70574D01*
X180418Y70424D01*
X180613Y70274D01*
X180763Y70139D01*
X180882Y70019D01*
X180972Y69930D01*
X181032Y69870D01*
X181047Y69855D01*
X181107Y70184D01*
X181167Y70484D01*
X181242Y70769D01*
X181332Y71024D01*
X181422Y71263D01*
X181527Y71488D01*
X181632Y71683D01*
X181737Y71863D01*
X181826Y72013D01*
X181917Y72147D01*
X182006Y72267D01*
X182081Y72357D01*
X182141Y72432D01*
X182186Y72477D01*
X182216Y72507D01*
X182231Y72522D01*
X182411Y72672D01*
X182606Y72822D01*
X182816Y72927D01*
X183010Y73032D01*
X183220Y73122D01*
X183415Y73197D01*
X183805Y73301D01*
X183985Y73331D01*
X184149Y73361D01*
X184284Y73376D01*
X184419Y73391D01*
X184524Y73406D01*
X184659D01*
X185033Y73391D01*
D02*
G37*
G36*
X61000Y47751D02*
X26000D01*
Y102751D01*
X61000D01*
Y47751D01*
D02*
G37*
G36*
X111712Y72559D02*
X110354Y72279D01*
Y73777D01*
X111712Y74066D01*
Y72559D01*
D02*
G37*
G36*
X159000Y47751D02*
X124000D01*
Y102751D01*
X159000Y102751D01*
Y47751D01*
D02*
G37*
G36*
X109596Y72120D02*
X104036Y70962D01*
Y72459D01*
X109596Y73617D01*
Y72120D01*
D02*
G37*
G36*
X121063Y71885D02*
X119706Y71606D01*
Y73103D01*
X121063Y73392D01*
Y71885D01*
D02*
G37*
G36*
X109626Y84418D02*
X109665Y84288D01*
X109696Y84168D01*
X109715Y84068D01*
X109725Y83978D01*
X109735Y83919D01*
Y83869D01*
Y83859D01*
X109725Y83689D01*
X109685Y83519D01*
X109626Y83359D01*
X109546Y83210D01*
X109456Y83060D01*
X109356Y82910D01*
X109246Y82781D01*
X109136Y82661D01*
X109017Y82551D01*
X108907Y82451D01*
X108807Y82361D01*
X108717Y82291D01*
X108637Y82232D01*
X108577Y82192D01*
X108538Y82162D01*
X108528Y82152D01*
X109596Y82381D01*
Y80974D01*
X104036Y79816D01*
Y81313D01*
X105772Y81672D01*
X105962Y81713D01*
X106142Y81752D01*
X106312Y81792D01*
X106471Y81832D01*
X106611Y81872D01*
X106731Y81912D01*
X106851Y81942D01*
X106950Y81982D01*
X107040Y82012D01*
X107120Y82042D01*
X107180Y82062D01*
X107240Y82082D01*
X107280Y82102D01*
X107310Y82112D01*
X107320Y82122D01*
X107330D01*
X107509Y82212D01*
X107659Y82321D01*
X107799Y82421D01*
X107909Y82521D01*
X107999Y82611D01*
X108068Y82681D01*
X108108Y82731D01*
X108118Y82751D01*
X108218Y82900D01*
X108288Y83040D01*
X108348Y83180D01*
X108378Y83300D01*
X108398Y83399D01*
X108418Y83469D01*
Y83519D01*
Y83539D01*
X108408Y83709D01*
X108398Y83779D01*
X108378Y83849D01*
X108368Y83899D01*
X108348Y83939D01*
X108338Y83968D01*
Y83978D01*
X109566Y84557D01*
X109626Y84418D01*
D02*
G37*
G36*
X107430Y90048D02*
X107629Y90028D01*
X107819Y89998D01*
X107989Y89948D01*
X108148Y89898D01*
X108298Y89838D01*
X108438Y89778D01*
X108567Y89708D01*
X108677Y89648D01*
X108767Y89578D01*
X108857Y89518D01*
X108927Y89469D01*
X108977Y89419D01*
X109017Y89389D01*
X109037Y89369D01*
X109047Y89359D01*
X109166Y89229D01*
X109276Y89079D01*
X109366Y88930D01*
X109446Y88770D01*
X109516Y88610D01*
X109566Y88450D01*
X109616Y88291D01*
X109646Y88141D01*
X109676Y88001D01*
X109696Y87872D01*
X109715Y87752D01*
X109725Y87642D01*
X109735Y87562D01*
Y87492D01*
Y87452D01*
Y87442D01*
X109725Y87183D01*
X109696Y86933D01*
X109646Y86704D01*
X109596Y86484D01*
X109516Y86284D01*
X109446Y86095D01*
X109356Y85925D01*
X109276Y85765D01*
X109186Y85625D01*
X109097Y85506D01*
X109027Y85406D01*
X108957Y85316D01*
X108897Y85246D01*
X108847Y85196D01*
X108817Y85166D01*
X108807Y85156D01*
X108627Y85007D01*
X108438Y84867D01*
X108238Y84757D01*
X108038Y84657D01*
X107829Y84567D01*
X107619Y84497D01*
X107420Y84448D01*
X107230Y84398D01*
X107050Y84358D01*
X106881Y84338D01*
X106731Y84318D01*
X106601Y84298D01*
X106491D01*
X106411Y84288D01*
X106341D01*
X106092Y84298D01*
X105862Y84338D01*
X105653Y84378D01*
X105463Y84438D01*
X105313Y84487D01*
X105253Y84508D01*
X105194Y84537D01*
X105154Y84547D01*
X105124Y84567D01*
X105104Y84577D01*
X105094D01*
X104894Y84707D01*
X104714Y84847D01*
X104565Y84997D01*
X104435Y85146D01*
X104335Y85276D01*
X104265Y85386D01*
X104235Y85426D01*
X104225Y85456D01*
X104205Y85476D01*
Y85486D01*
X104106Y85725D01*
X104026Y85955D01*
X103976Y86194D01*
X103936Y86404D01*
X103916Y86594D01*
X103906Y86674D01*
Y86743D01*
X103896Y86793D01*
Y86843D01*
Y86863D01*
Y86873D01*
X103906Y87143D01*
X103936Y87392D01*
X103986Y87632D01*
X104046Y87851D01*
X104125Y88061D01*
X104205Y88251D01*
X104295Y88420D01*
X104385Y88580D01*
X104475Y88720D01*
X104565Y88840D01*
X104644Y88950D01*
X104724Y89029D01*
X104784Y89099D01*
X104834Y89149D01*
X104864Y89179D01*
X104874Y89189D01*
X105064Y89339D01*
X105263Y89479D01*
X105453Y89588D01*
X105663Y89688D01*
X105852Y89778D01*
X106052Y89848D01*
X106242Y89908D01*
X106421Y89948D01*
X106581Y89988D01*
X106741Y90008D01*
X106870Y90028D01*
X106990Y90048D01*
X107090D01*
X107160Y90058D01*
X107220D01*
X107430Y90048D01*
D02*
G37*
G36*
X117979Y82157D02*
X118168Y82117D01*
X118328Y82057D01*
X118468Y81987D01*
X118578Y81917D01*
X118647Y81857D01*
X118697Y81817D01*
X118717Y81797D01*
X118837Y81648D01*
X118927Y81478D01*
X118997Y81308D01*
X119037Y81138D01*
X119067Y80989D01*
X119077Y80929D01*
Y80869D01*
X119087Y80819D01*
Y80789D01*
Y80769D01*
Y80759D01*
X119077Y80549D01*
X119047Y80340D01*
X118997Y80150D01*
X118947Y79981D01*
X118887Y79831D01*
X118847Y79731D01*
X118827Y79681D01*
X118807Y79661D01*
X118797Y79641D01*
Y79631D01*
X118687Y79441D01*
X118568Y79272D01*
X118448Y79132D01*
X118338Y79012D01*
X118238Y78922D01*
X118158Y78853D01*
X118109Y78813D01*
X118098Y78803D01*
X118089D01*
X118258Y78763D01*
X118398Y78703D01*
X118528Y78623D01*
X118628Y78553D01*
X118707Y78483D01*
X118767Y78423D01*
X118807Y78393D01*
X118817Y78373D01*
X118907Y78234D01*
X118977Y78074D01*
X119017Y77914D01*
X119057Y77755D01*
X119077Y77615D01*
X119087Y77505D01*
Y77455D01*
Y77425D01*
Y77405D01*
Y77395D01*
X119077Y77225D01*
X119057Y77056D01*
X119007Y76896D01*
X118957Y76736D01*
X118827Y76447D01*
X118757Y76307D01*
X118678Y76187D01*
X118598Y76068D01*
X118528Y75968D01*
X118458Y75878D01*
X118398Y75798D01*
X118348Y75738D01*
X118308Y75698D01*
X118278Y75668D01*
X118268Y75658D01*
X118947Y75798D01*
Y74380D01*
X113387Y73223D01*
Y74720D01*
X115932Y75259D01*
X116052Y75289D01*
X116162Y75309D01*
X116262Y75329D01*
X116352Y75349D01*
X116501Y75389D01*
X116611Y75409D01*
X116691Y75429D01*
X116751Y75449D01*
X116781Y75459D01*
X116791D01*
X116941Y75518D01*
X117070Y75568D01*
X117180Y75628D01*
X117270Y75678D01*
X117350Y75728D01*
X117400Y75768D01*
X117440Y75788D01*
X117450Y75798D01*
X117540Y75878D01*
X117619Y75958D01*
X117689Y76028D01*
X117749Y76107D01*
X117799Y76167D01*
X117829Y76217D01*
X117849Y76247D01*
X117859Y76257D01*
X117909Y76357D01*
X117949Y76447D01*
X117969Y76537D01*
X117989Y76607D01*
X117999Y76676D01*
X118009Y76726D01*
Y76756D01*
Y76766D01*
X117999Y76856D01*
X117989Y76936D01*
X117959Y77006D01*
X117939Y77066D01*
X117909Y77116D01*
X117879Y77146D01*
X117869Y77166D01*
X117859Y77175D01*
X117799Y77225D01*
X117749Y77265D01*
X117679Y77285D01*
X117629Y77305D01*
X117579Y77315D01*
X117540Y77325D01*
X117420D01*
X117310Y77305D01*
X117190Y77285D01*
X117060Y77265D01*
X116941Y77245D01*
X116841Y77225D01*
X116801Y77215D01*
X116781D01*
X116761Y77206D01*
X116751D01*
X113387Y76507D01*
Y78004D01*
X115902Y78533D01*
X116102Y78573D01*
X116282Y78623D01*
X116441Y78663D01*
X116591Y78713D01*
X116731Y78763D01*
X116851Y78803D01*
X116960Y78853D01*
X117060Y78892D01*
X117140Y78932D01*
X117220Y78962D01*
X117280Y79002D01*
X117330Y79032D01*
X117360Y79052D01*
X117390Y79072D01*
X117410Y79082D01*
X117520Y79162D01*
X117609Y79252D01*
X117689Y79342D01*
X117759Y79422D01*
X117819Y79511D01*
X117859Y79591D01*
X117939Y79751D01*
X117979Y79891D01*
X117999Y79991D01*
X118009Y80030D01*
Y80060D01*
Y80080D01*
Y80090D01*
X117999Y80190D01*
X117989Y80270D01*
X117969Y80350D01*
X117939Y80410D01*
X117909Y80450D01*
X117889Y80480D01*
X117879Y80500D01*
X117869Y80510D01*
X117809Y80560D01*
X117749Y80590D01*
X117629Y80629D01*
X117579Y80639D01*
X117540Y80649D01*
X117480D01*
X117440Y80639D01*
X117350Y80619D01*
X117230Y80599D01*
X117110Y80580D01*
X116980Y80549D01*
X116881Y80530D01*
X116841Y80520D01*
X116811D01*
X116791Y80510D01*
X116781D01*
X113387Y79791D01*
Y81288D01*
X116771Y82017D01*
X117020Y82067D01*
X117230Y82107D01*
X117400Y82137D01*
X117540Y82157D01*
X117639Y82167D01*
X117709Y82177D01*
X117769D01*
X117979Y82157D01*
D02*
G37*
G36*
X108008Y79536D02*
X108158Y79506D01*
X108428Y79417D01*
X108657Y79307D01*
X108857Y79197D01*
X108937Y79137D01*
X109007Y79077D01*
X109067Y79027D01*
X109127Y78977D01*
X109166Y78947D01*
X109196Y78917D01*
X109206Y78898D01*
X109216Y78888D01*
X109306Y78778D01*
X109386Y78658D01*
X109456Y78528D01*
X109516Y78398D01*
X109606Y78139D01*
X109676Y77889D01*
X109696Y77769D01*
X109705Y77660D01*
X109715Y77570D01*
X109725Y77480D01*
X109735Y77420D01*
Y77360D01*
Y77330D01*
Y77320D01*
Y77151D01*
X109715Y76991D01*
X109665Y76681D01*
X109586Y76402D01*
X109546Y76272D01*
X109506Y76152D01*
X109456Y76043D01*
X109416Y75953D01*
X109376Y75863D01*
X109336Y75793D01*
X109306Y75743D01*
X109286Y75693D01*
X109276Y75673D01*
X109266Y75663D01*
X109077Y75394D01*
X108867Y75164D01*
X108657Y74974D01*
X108448Y74815D01*
X108268Y74685D01*
X108188Y74635D01*
X108118Y74595D01*
X108068Y74565D01*
X108028Y74545D01*
X107999Y74525D01*
X107989D01*
X107679Y74405D01*
X107380Y74316D01*
X107090Y74246D01*
X106831Y74206D01*
X106711Y74186D01*
X106601Y74176D01*
X106511Y74166D01*
X106431D01*
X106361Y74156D01*
X106272D01*
X106072Y74166D01*
X105882Y74186D01*
X105703Y74216D01*
X105533Y74256D01*
X105373Y74296D01*
X105233Y74356D01*
X105104Y74405D01*
X104984Y74465D01*
X104874Y74525D01*
X104784Y74575D01*
X104704Y74635D01*
X104644Y74675D01*
X104595Y74715D01*
X104555Y74745D01*
X104535Y74765D01*
X104525Y74775D01*
X104415Y74895D01*
X104315Y75024D01*
X104235Y75164D01*
X104165Y75304D01*
X104106Y75444D01*
X104046Y75583D01*
X103976Y75853D01*
X103946Y75973D01*
X103926Y76093D01*
X103916Y76192D01*
X103906Y76282D01*
X103896Y76362D01*
Y76412D01*
Y76452D01*
Y76462D01*
X103906Y76631D01*
X103916Y76801D01*
X103976Y77111D01*
X104056Y77380D01*
X104095Y77510D01*
X104145Y77620D01*
X104195Y77730D01*
X104235Y77819D01*
X104275Y77899D01*
X104315Y77969D01*
X104345Y78019D01*
X104375Y78059D01*
X104385Y78079D01*
X104395Y78089D01*
X104495Y78219D01*
X104605Y78338D01*
X104844Y78558D01*
X105094Y78738D01*
X105333Y78898D01*
X105443Y78957D01*
X105543Y79017D01*
X105643Y79057D01*
X105723Y79097D01*
X105792Y79127D01*
X105842Y79147D01*
X105872Y79167D01*
X105882D01*
X106122Y77710D01*
X105932Y77630D01*
X105772Y77550D01*
X105643Y77460D01*
X105533Y77370D01*
X105443Y77300D01*
X105383Y77240D01*
X105343Y77200D01*
X105333Y77181D01*
X105243Y77051D01*
X105183Y76931D01*
X105134Y76811D01*
X105104Y76701D01*
X105084Y76612D01*
X105074Y76542D01*
Y76502D01*
Y76482D01*
X105084Y76352D01*
X105114Y76232D01*
X105154Y76132D01*
X105204Y76053D01*
X105253Y75983D01*
X105293Y75923D01*
X105323Y75893D01*
X105333Y75883D01*
X105443Y75803D01*
X105563Y75743D01*
X105693Y75703D01*
X105822Y75673D01*
X105932Y75653D01*
X106022Y75643D01*
X106102D01*
X106321Y75653D01*
X106531Y75673D01*
X106741Y75703D01*
X106920Y75743D01*
X107080Y75783D01*
X107150Y75793D01*
X107210Y75813D01*
X107260Y75823D01*
X107290Y75833D01*
X107310Y75843D01*
X107320D01*
X107549Y75923D01*
X107749Y76013D01*
X107919Y76112D01*
X108048Y76202D01*
X108158Y76282D01*
X108238Y76352D01*
X108278Y76392D01*
X108298Y76412D01*
X108408Y76552D01*
X108488Y76701D01*
X108547Y76841D01*
X108588Y76961D01*
X108607Y77071D01*
X108627Y77161D01*
Y77210D01*
Y77231D01*
X108617Y77370D01*
X108588Y77490D01*
X108558Y77590D01*
X108518Y77680D01*
X108468Y77750D01*
X108438Y77799D01*
X108408Y77829D01*
X108398Y77839D01*
X108308Y77919D01*
X108198Y77979D01*
X108088Y78029D01*
X107969Y78069D01*
X107869Y78099D01*
X107789Y78119D01*
X107729Y78129D01*
X107709D01*
X107859Y79556D01*
X108008Y79536D01*
D02*
G37*
%LPC*%
G36*
X18871Y86938D02*
X18621D01*
Y84582D01*
X18861Y84642D01*
X19070Y84712D01*
X19250Y84802D01*
X19390Y84882D01*
X19500Y84962D01*
X19589Y85022D01*
X19629Y85062D01*
X19649Y85082D01*
X19769Y85221D01*
X19859Y85371D01*
X19919Y85511D01*
X19969Y85640D01*
X19989Y85750D01*
X19999Y85840D01*
X20009Y85900D01*
Y85910D01*
Y85920D01*
X19999Y86080D01*
X19959Y86229D01*
X19909Y86359D01*
X19859Y86459D01*
X19799Y86549D01*
X19749Y86609D01*
X19709Y86649D01*
X19699Y86659D01*
X19569Y86749D01*
X19420Y86818D01*
X19270Y86868D01*
X19120Y86908D01*
X18980Y86928D01*
X18871Y86938D01*
D02*
G37*
G36*
X9509Y88570D02*
X9420D01*
X9220Y88560D01*
X9030Y88540D01*
X8851Y88510D01*
X8671Y88480D01*
X8511Y88431D01*
X8361Y88381D01*
X8222Y88331D01*
X8092Y88271D01*
X7982Y88211D01*
X7882Y88161D01*
X7793Y88111D01*
X7713Y88061D01*
X7663Y88031D01*
X7613Y88001D01*
X7593Y87981D01*
X7583Y87971D01*
X7493Y87892D01*
X7413Y87812D01*
X7333Y87722D01*
X7273Y87632D01*
X7184Y87462D01*
X7124Y87292D01*
X7084Y87153D01*
X7064Y87033D01*
X7054Y86993D01*
Y86963D01*
Y86943D01*
Y86933D01*
X7074Y86754D01*
X7114Y86604D01*
X7164Y86464D01*
X7233Y86344D01*
X7293Y86244D01*
X7353Y86174D01*
X7393Y86135D01*
X7403Y86115D01*
X7543Y86005D01*
X7703Y85935D01*
X7852Y85875D01*
X8012Y85835D01*
X8142Y85815D01*
X8252Y85805D01*
X8292Y85795D01*
X8352D01*
X8541Y85805D01*
X8721Y85825D01*
X8900Y85855D01*
X9070Y85895D01*
X9210Y85935D01*
X9320Y85965D01*
X9360Y85975D01*
X9390Y85985D01*
X9410Y85995D01*
X9420D01*
X9619Y86085D01*
X9799Y86174D01*
X9949Y86274D01*
X10078Y86364D01*
X10168Y86454D01*
X10238Y86524D01*
X10288Y86564D01*
X10298Y86584D01*
X10398Y86734D01*
X10478Y86883D01*
X10528Y87023D01*
X10568Y87163D01*
X10588Y87283D01*
X10608Y87372D01*
Y87432D01*
Y87442D01*
Y87452D01*
X10597Y87632D01*
X10558Y87782D01*
X10508Y87921D01*
X10448Y88031D01*
X10378Y88131D01*
X10328Y88191D01*
X10288Y88241D01*
X10278Y88251D01*
X10148Y88361D01*
X10008Y88441D01*
X9869Y88490D01*
X9729Y88530D01*
X9609Y88550D01*
X9509Y88570D01*
D02*
G37*
G36*
X86659Y71038D02*
X86629D01*
X86434Y71024D01*
X86239Y70978D01*
X86060Y70919D01*
X85910Y70859D01*
X85775Y70799D01*
X85685Y70739D01*
X85625Y70694D01*
X85595Y70679D01*
X85430Y70529D01*
X85280Y70379D01*
X85160Y70214D01*
X85070Y70049D01*
X84981Y69914D01*
X84936Y69795D01*
X84906Y69720D01*
X84891Y69690D01*
X84846Y69555D01*
X84816Y69405D01*
X84786Y69225D01*
X84756Y69030D01*
X84726Y68626D01*
X84696Y68206D01*
X84681Y67996D01*
Y67801D01*
X84666Y67637D01*
Y67487D01*
Y67352D01*
Y67262D01*
Y67187D01*
Y67172D01*
Y65913D01*
X87768Y66558D01*
Y69165D01*
Y69360D01*
X87753Y69525D01*
Y69675D01*
X87738Y69825D01*
X87708Y70049D01*
X87678Y70229D01*
X87633Y70364D01*
X87603Y70454D01*
X87588Y70499D01*
X87573Y70514D01*
X87438Y70694D01*
X87288Y70814D01*
X87139Y70904D01*
X86989Y70978D01*
X86839Y71009D01*
X86734Y71024D01*
X86659Y71038D01*
D02*
G37*
G36*
X116871Y86938D02*
X116621D01*
Y84582D01*
X116861Y84642D01*
X117070Y84712D01*
X117250Y84802D01*
X117390Y84882D01*
X117500Y84962D01*
X117589Y85021D01*
X117629Y85062D01*
X117649Y85081D01*
X117769Y85221D01*
X117859Y85371D01*
X117919Y85511D01*
X117969Y85640D01*
X117989Y85750D01*
X117999Y85840D01*
X118009Y85900D01*
Y85910D01*
Y85920D01*
X117999Y86080D01*
X117959Y86229D01*
X117909Y86359D01*
X117859Y86459D01*
X117799Y86549D01*
X117749Y86609D01*
X117709Y86649D01*
X117699Y86659D01*
X117569Y86749D01*
X117420Y86818D01*
X117270Y86868D01*
X117120Y86908D01*
X116980Y86928D01*
X116871Y86938D01*
D02*
G37*
G36*
X184659Y71038D02*
X184629D01*
X184434Y71024D01*
X184239Y70979D01*
X184059Y70919D01*
X183910Y70859D01*
X183775Y70799D01*
X183685Y70739D01*
X183625Y70694D01*
X183595Y70679D01*
X183430Y70529D01*
X183280Y70379D01*
X183160Y70214D01*
X183070Y70050D01*
X182980Y69915D01*
X182936Y69795D01*
X182906Y69720D01*
X182890Y69690D01*
X182846Y69555D01*
X182816Y69405D01*
X182786Y69225D01*
X182756Y69030D01*
X182726Y68626D01*
X182696Y68206D01*
X182681Y67996D01*
Y67802D01*
X182666Y67637D01*
Y67487D01*
Y67352D01*
Y67262D01*
Y67187D01*
Y67172D01*
Y65913D01*
X185768Y66558D01*
Y69165D01*
Y69360D01*
X185753Y69525D01*
Y69675D01*
X185738Y69825D01*
X185708Y70050D01*
X185678Y70229D01*
X185633Y70364D01*
X185603Y70454D01*
X185588Y70499D01*
X185573Y70514D01*
X185438Y70694D01*
X185288Y70814D01*
X185138Y70904D01*
X184989Y70979D01*
X184839Y71009D01*
X184734Y71024D01*
X184659Y71038D01*
D02*
G37*
G36*
X107509Y88570D02*
X107420D01*
X107220Y88560D01*
X107030Y88540D01*
X106851Y88510D01*
X106671Y88480D01*
X106511Y88431D01*
X106361Y88381D01*
X106222Y88331D01*
X106092Y88271D01*
X105982Y88211D01*
X105882Y88161D01*
X105792Y88111D01*
X105713Y88061D01*
X105663Y88031D01*
X105613Y88001D01*
X105593Y87981D01*
X105583Y87971D01*
X105493Y87891D01*
X105413Y87812D01*
X105333Y87722D01*
X105273Y87632D01*
X105183Y87462D01*
X105124Y87292D01*
X105084Y87153D01*
X105064Y87033D01*
X105054Y86993D01*
Y86963D01*
Y86943D01*
Y86933D01*
X105074Y86754D01*
X105114Y86604D01*
X105164Y86464D01*
X105233Y86344D01*
X105293Y86244D01*
X105353Y86174D01*
X105393Y86135D01*
X105403Y86115D01*
X105543Y86005D01*
X105703Y85935D01*
X105852Y85875D01*
X106012Y85835D01*
X106142Y85815D01*
X106252Y85805D01*
X106292Y85795D01*
X106351D01*
X106541Y85805D01*
X106721Y85825D01*
X106901Y85855D01*
X107070Y85895D01*
X107210Y85935D01*
X107320Y85965D01*
X107360Y85975D01*
X107390Y85985D01*
X107410Y85995D01*
X107420D01*
X107619Y86085D01*
X107799Y86174D01*
X107949Y86274D01*
X108078Y86364D01*
X108168Y86454D01*
X108238Y86524D01*
X108288Y86564D01*
X108298Y86584D01*
X108398Y86734D01*
X108478Y86883D01*
X108528Y87023D01*
X108567Y87163D01*
X108588Y87282D01*
X108607Y87372D01*
Y87432D01*
Y87442D01*
Y87452D01*
X108597Y87632D01*
X108558Y87782D01*
X108508Y87921D01*
X108448Y88031D01*
X108378Y88131D01*
X108328Y88191D01*
X108288Y88241D01*
X108278Y88251D01*
X108148Y88361D01*
X108008Y88441D01*
X107869Y88490D01*
X107729Y88530D01*
X107609Y88550D01*
X107509Y88570D01*
D02*
G37*
%LPD*%
D16*
X98000Y0D02*
Y151500D01*
X192000D01*
Y0D02*
Y151500D01*
X98000Y0D02*
X192000D01*
X0Y151500D02*
X94000D01*
X0Y0D02*
Y151500D01*
Y0D02*
X94000D01*
Y151500D01*
M02*
