G04 Layer_Color=32768*
%FSLAX44Y44*%
%MOMM*%
G71*
G01*
G75*
%ADD15C,0.2540*%
%ADD16C,0.2000*%
%ADD18C,0.1500*%
%ADD21C,0.3000*%
D15*
X33250Y67501D02*
G03*
X33250Y67501I-1000J0D01*
G01*
X131250D02*
G03*
X131250Y67501I-1000J0D01*
G01*
D16*
X0Y0D02*
Y150750D01*
X98000Y0D02*
Y150750D01*
X0Y0D02*
X94000D01*
X0Y150750D02*
X94000D01*
Y0D02*
Y150750D01*
X98000Y0D02*
X192000D01*
X98000Y150750D02*
X192000D01*
Y0D02*
Y150750D01*
X37000Y82998D02*
X39333D01*
X38166D01*
Y76000D01*
X37000D01*
X39333D01*
X47497Y81832D02*
X46330Y82998D01*
X43998D01*
X42832Y81832D01*
Y77166D01*
X43998Y76000D01*
X46330D01*
X47497Y77166D01*
X54494Y76000D02*
X49829D01*
X54494Y80665D01*
Y81832D01*
X53328Y82998D01*
X50995D01*
X49829Y81832D01*
X136750Y83498D02*
X139083D01*
X137916D01*
Y76500D01*
X136750D01*
X139083D01*
X147247Y82331D02*
X146080Y83498D01*
X143748D01*
X142582Y82331D01*
Y77666D01*
X143748Y76500D01*
X146080D01*
X147247Y77666D01*
X149579Y76500D02*
X151912D01*
X150745D01*
Y83498D01*
X149579Y82331D01*
X44415Y127498D02*
X42083D01*
X43249D01*
Y121666D01*
X42083Y120500D01*
X40916D01*
X39750Y121666D01*
X46748Y126331D02*
X47914Y127498D01*
X50247D01*
X51413Y126331D01*
Y125165D01*
X50247Y123999D01*
X49080D01*
X50247D01*
X51413Y122833D01*
Y121666D01*
X50247Y120500D01*
X47914D01*
X46748Y121666D01*
X42165Y28498D02*
X39833D01*
X40999D01*
Y22666D01*
X39833Y21500D01*
X38666D01*
X37500Y22666D01*
X47997Y21500D02*
Y28498D01*
X44498Y24999D01*
X49163D01*
X145415Y129748D02*
X143083D01*
X144249D01*
Y123916D01*
X143083Y122750D01*
X141916D01*
X140750Y123916D01*
X147748Y122750D02*
X150080D01*
X148914D01*
Y129748D01*
X147748Y128581D01*
X143915Y27748D02*
X141583D01*
X142749D01*
Y21916D01*
X141583Y20750D01*
X140416D01*
X139250Y21916D01*
X150913Y20750D02*
X146248D01*
X150913Y25415D01*
Y26581D01*
X149747Y27748D01*
X147414D01*
X146248Y26581D01*
D18*
X25250Y57501D02*
Y93501D01*
X69250D01*
Y57501D02*
Y93501D01*
X25250Y57501D02*
X69250D01*
X123250D02*
Y93501D01*
X167250D01*
Y57501D02*
Y93501D01*
X123250Y57501D02*
X167250D01*
D21*
X7250Y149501D02*
X7250Y105501D01*
X7250Y149501D02*
X87250D01*
Y105501D02*
Y149501D01*
X7250Y105501D02*
X87250D01*
X87250Y45501D02*
X87250Y1501D01*
X7250D02*
X87250D01*
X7250D02*
Y45501D01*
X87250D01*
X105250Y105501D02*
Y149501D01*
X185250Y149501D01*
X185250Y105501D01*
X105250Y105501D02*
X185250Y105501D01*
X185250Y45501D02*
X185250Y1501D01*
X105250Y1501D02*
X185250Y1501D01*
X105250Y1501D02*
Y45501D01*
X185250D01*
X25000Y160250D02*
Y168581D01*
X29165Y172746D01*
X33331Y168581D01*
Y160250D01*
Y166498D01*
X25000D01*
X37496Y160250D02*
X43744D01*
X45827Y162333D01*
X43744Y164415D01*
X39579D01*
X37496Y166498D01*
X39579Y168581D01*
X45827D01*
X49992Y160250D02*
X56240D01*
X58323Y162333D01*
X56240Y164415D01*
X52075D01*
X49992Y166498D01*
X52075Y168581D01*
X58323D01*
X68736Y160250D02*
X64570D01*
X62488Y162333D01*
Y166498D01*
X64570Y168581D01*
X68736D01*
X70819Y166498D01*
Y164415D01*
X62488D01*
X74984Y160250D02*
Y168581D01*
X77066D01*
X79149Y166498D01*
Y160250D01*
Y166498D01*
X81232Y168581D01*
X83315Y166498D01*
Y160250D01*
X87480Y172746D02*
Y160250D01*
X93728D01*
X95810Y162333D01*
Y164415D01*
Y166498D01*
X93728Y168581D01*
X87480D01*
X99976Y160250D02*
X104141D01*
X102058D01*
Y172746D01*
X99976D01*
X110389Y168581D02*
Y162333D01*
X112472Y160250D01*
X118720D01*
Y158167D01*
X116637Y156085D01*
X114554D01*
X118720Y160250D02*
Y168581D01*
X137464Y170663D02*
Y168581D01*
X135381D01*
X139546D01*
X137464D01*
Y162333D01*
X139546Y160250D01*
X147877D02*
X152042D01*
X154125Y162333D01*
Y166498D01*
X152042Y168581D01*
X147877D01*
X145794Y166498D01*
Y162333D01*
X147877Y160250D01*
X158290Y156085D02*
Y168581D01*
X164538D01*
X166621Y166498D01*
Y162333D01*
X164538Y160250D01*
X158290D01*
M02*
